<svg width="104" height="104" viewBox="0 0 104 104" fill="none" xmlns="http://www.w3.org/2000/svg">
<mask id="mask0_246:933" style="mask-type:alpha" maskUnits="userSpaceOnUse" x="0" y="0" width="104" height="104">
<rect width="104" height="104" fill="#C4C4C4"/>
</mask>
<g mask="url(#mask0_246:933)">
<path d="M23.5363 50.6089C26.1715 50.2633 28.7612 50.8144 31.3711 51.1333C32.4796 51.2681 34.7852 50.7566 35.4907 51.8717C36.0825 52.8081 35.4747 57.888 35.468 59.017C35.4444 62.9102 35.4123 66.8034 35.3854 70.6966C35.3694 73.0808 35.355 75.4651 35.3424 77.8505C35.3213 81.8132 34.3645 82.4959 31.1721 82.4574C29.2417 82.4339 25.2383 83.3253 22.9235 82.2755C23.5667 81.5874 24.1644 80.8319 24.7039 80.0036C25.476 78.8179 24.1407 77.1056 23.3627 78.301C22.7734 79.2053 22.1184 80.0068 21.4061 80.7259C21.3867 80.6746 21.3572 80.6339 21.3403 80.5804C21.0369 79.6515 20.9222 78.2336 20.8952 76.7547C21.9456 75.6 22.9968 74.4453 24.048 73.2906C24.9719 72.274 23.6257 70.5778 22.7068 71.588C22.121 72.2312 21.5351 72.8743 20.95 73.5175C20.9812 72.8572 21.0175 72.244 21.0504 71.7517C21.0453 71.0369 21.0621 70.3263 21.0731 69.6147C22.33 68.094 23.6333 66.6418 24.9955 65.2752C25.9532 64.3153 24.6027 62.6223 23.6543 63.5737C22.8029 64.4277 21.9776 65.3212 21.1675 66.2351C21.2046 65.3277 21.2409 64.4202 21.2839 63.5127C22.4354 62.3152 23.5869 61.1177 24.7384 59.9202C25.6834 58.9378 24.3346 57.2427 23.3972 58.2176C22.7397 58.9014 22.0822 59.5853 21.4246 60.2691C21.4466 59.7308 21.4719 59.1936 21.4896 58.6543C21.503 58.2262 21.5039 57.7939 21.5013 57.3615C22.5079 56.4177 23.5144 55.4749 24.5209 54.531C25.492 53.6214 24.5471 51.5303 23.5633 52.4528C22.8662 53.1056 22.1682 53.7594 21.471 54.4133C21.4744 54.0013 21.482 53.5904 21.5056 53.1837C21.6371 50.9182 21.6691 50.8551 23.5363 50.6089ZM30.0391 85.5983C33.5333 85.6582 37.4633 86.2115 37.857 80.7848C38.3367 74.1735 37.9438 67.2133 37.9868 60.5645C38.0079 57.3508 39.4292 49.8534 36.268 48.3317C34.4682 47.4649 31.5346 47.8961 29.594 47.6125C27.699 47.3365 25.852 47.315 23.9452 47.3878C20.6128 47.5141 18.9496 47.7517 18.9336 52.334C18.91 58.8073 18.475 65.2774 18.5214 71.7517C18.3208 74.7374 17.9304 80.7291 19.2489 83.2739C21.2223 87.0826 27.2261 85.5501 30.0391 85.5983Z" fill="#A259FF"/>
<path d="M47.8335 35.3793C49.0111 33.1609 55.621 34.8977 57.2842 35.1364C59.1674 35.406 61.1754 34.6045 61.892 36.7137C62.5293 38.5908 61.8642 43.0843 61.8566 45.0823C61.8313 51.3822 61.8094 57.6821 61.7858 63.9821C61.774 67.0641 61.7622 70.1471 61.7504 73.2302C61.7436 74.8547 62.4306 79.8704 61.6871 81.2402C60.9428 82.6111 54.8893 82.5768 51.5704 82.3425C52.4884 81.5013 53.4065 80.6602 54.3236 79.8191C55.3049 78.9212 54.359 76.8312 53.3668 77.7398C51.8663 79.1149 50.3666 80.4901 48.8661 81.8652C48.1513 81.4874 47.8132 80.8293 47.6573 80.0074C49.4832 78.2513 51.2728 76.4374 53.0136 74.5444C53.9417 73.5352 52.5955 71.838 51.6724 72.8418C50.3219 74.31 48.9369 75.7237 47.5325 77.1063C47.5367 76.6354 47.5384 76.157 47.5182 75.6776C47.4971 75.1875 47.4786 74.7038 47.4592 74.219C49.1418 71.8722 50.9921 69.7608 53.0288 67.9212C54.0159 67.0309 53.0692 64.9409 52.072 65.842C50.3911 67.3605 48.8189 69.0353 47.3614 70.8738C47.3487 70.0358 47.3538 69.1947 47.3723 68.3504C48.8467 66.3299 50.4282 64.454 52.126 62.7353C53.0794 61.7701 51.7298 60.076 50.7848 61.0327C49.6155 62.2163 48.5053 63.4791 47.4423 64.8061C47.4415 63.5347 47.4474 62.2634 47.4668 60.9921C48.8181 59.2092 50.2967 57.6243 51.9354 56.2695C52.9538 55.4263 52.0046 53.3406 50.9778 54.1903C49.7555 55.2015 48.6098 56.337 47.53 57.5698C47.5544 56.5745 47.5814 55.5804 47.61 54.5851C48.985 52.7231 50.4939 51.0611 52.1622 49.6293C53.1679 48.7657 52.2195 46.6789 51.2046 47.55C49.9654 48.6137 48.8029 49.7962 47.7087 51.0783C47.723 50.5839 47.7373 50.0884 47.7517 49.594C47.766 49.0643 47.7778 48.5346 47.7921 48.0048C48.9951 46.1342 50.3658 44.4712 51.9321 43.0897C52.9276 42.2111 51.9801 40.1232 50.9744 41.0104C49.8583 41.9949 48.8307 43.1025 47.879 44.3107C47.8941 43.5359 47.9017 42.7611 47.9102 41.9863C49.0136 40.5545 50.2039 39.2554 51.5072 38.1189C52.507 37.2478 51.5595 35.1599 50.5495 36.0406C49.5911 36.8764 48.6832 37.7914 47.82 38.7716C47.7087 37.4725 47.5881 35.8427 47.8335 35.3793ZM45.4419 82.5747C46.6853 86.2035 50.6018 85.3774 53.0887 85.295C55.6716 85.2104 61.0616 86.4347 63.2492 84.3008C65.4334 82.1691 64.2743 74.6022 64.2861 71.6036C64.3139 64.4294 64.3392 57.2552 64.3661 50.0809C64.3788 46.589 64.3931 43.0972 64.4075 39.6053C64.4151 37.9905 64.818 35.1214 64.0492 33.6392C62.7055 31.0527 57.7259 31.9249 55.6488 31.6252C53.4975 31.3149 48.2499 30.3882 46.3161 32.2095C44.2583 34.1476 45.409 41.2223 45.3576 44.0036C45.2193 51.4828 44.8408 58.9588 44.9117 66.4423C44.7296 69.5511 44.8577 72.5721 44.9892 75.6776C45.0744 77.6927 44.7785 80.6377 45.4419 82.5747Z" fill="#A259FF"/>
<path d="M74.9657 15.1618C75.4453 12.6277 79.0373 13.2698 80.9661 13.3822C82.556 13.4753 86.5812 13.3629 87.925 14.158C89.4474 15.0601 88.9989 16.7242 88.9888 18.9983C88.9652 24.4774 88.9433 29.9565 88.9205 35.4356C88.8691 48.1725 88.8194 60.9093 88.7646 73.6461C88.7578 75.3862 89.3311 79.1873 88.7578 80.7733C87.8314 83.3374 83.2101 82.4984 81.4196 82.4288C80.3836 82.3892 79.1646 82.523 78.0477 82.4427C78.4346 81.9922 78.8165 81.5341 79.173 81.0387C79.995 79.8968 78.6571 78.1899 77.8318 79.3361C77.2114 80.1975 76.5336 80.9852 75.8154 81.7129C75.6207 81.5566 75.447 81.3661 75.2961 81.1414C76.1897 79.8765 77.117 78.6512 78.094 77.488C78.9859 76.4253 77.643 74.7248 76.7528 75.7854C76.0059 76.6746 75.2919 77.6056 74.5931 78.5549C74.502 77.8229 74.4338 77.0674 74.3891 76.2883C75.4976 75.1304 76.6062 73.9725 77.7147 72.8146C78.658 71.8301 77.31 70.135 76.3735 71.112C75.6848 71.8312 74.996 72.5503 74.3073 73.2694C74.3081 72.7815 74.3149 72.2935 74.3242 71.8065C76.0051 70.2217 77.659 68.5951 79.2852 66.9224C80.2335 65.9465 78.8848 64.2513 77.944 65.2198C76.7899 66.4077 75.6165 67.5624 74.4329 68.701C74.4709 67.923 74.5113 67.16 74.5535 66.4419C74.5493 66.062 74.5543 65.6821 74.5509 65.3033C75.8264 63.8468 77.1667 62.4996 78.5838 61.271C79.5861 60.4031 78.6386 58.3153 77.627 59.1917C76.5581 60.1185 75.5381 61.1255 74.5417 62.171C74.54 61.3127 74.5315 60.4545 74.5341 59.5963C75.6907 58.4812 76.8455 57.365 77.9735 56.205C78.9227 55.229 77.5731 53.535 76.6323 54.5024C75.9503 55.2033 75.2464 55.8689 74.5535 56.5527C74.5619 55.5939 74.5737 54.6361 74.5855 53.6773C75.8373 52.1684 77.1634 50.7804 78.5855 49.5359C79.5836 48.6615 78.6369 46.5737 77.6287 47.4565C76.5808 48.3737 75.5887 49.3796 74.6226 50.4273C74.6454 49.0147 74.6715 47.6021 74.6968 46.1895C75.6005 45.1204 76.537 44.0985 77.5275 43.161C77.9414 42.7693 78.1412 42.124 77.8681 41.5141C77.6363 40.9972 76.9804 40.6943 76.5707 41.0817C75.9503 41.6681 75.345 42.2771 74.7541 42.9052C74.7659 42.2428 74.7752 41.5804 74.787 40.918C76.2108 39.5386 77.7012 38.279 79.2506 37.1372C80.306 36.3592 79.3518 34.2767 78.293 35.0579C77.1018 35.9365 75.9545 36.8921 74.8367 37.9034C74.8527 36.952 74.8713 36.0007 74.8839 35.0493C74.8856 34.9423 74.8873 34.8353 74.889 34.7283C75.9646 33.5073 77.0403 32.2873 78.1159 31.0663C79.028 30.0314 77.6826 28.3331 76.7747 29.3637C76.161 30.0603 75.5465 30.757 74.9328 31.4537C74.9497 30.2476 74.9674 29.0416 74.9817 27.8355C75.8432 26.7172 76.7461 25.6578 77.7197 24.6946C78.1269 24.2923 78.0468 23.4158 77.7197 22.992C77.3252 22.4794 76.7806 22.595 76.3785 22.992C75.9056 23.4597 75.4563 23.9594 75.0104 24.4635C75.0196 23.419 75.0289 22.3746 75.034 21.3301C76.2664 20.1508 77.4685 18.9223 78.6226 17.621C79.5372 16.5894 78.1918 14.8922 77.2814 15.9184C76.5362 16.7585 75.7682 17.5622 74.9876 18.3487C74.91 17.2518 74.8013 16.034 74.9657 15.1618ZM72.2344 79.7556C72.3988 82.34 72.6424 83.9238 74.6715 84.9254C76.6947 85.9249 79.2818 85.5579 81.4196 85.6392C84.0084 85.7398 86.942 85.972 89.38 84.5947C92.6019 82.7734 91.2843 75.9416 91.3003 72.0998C91.3332 64.2128 91.3652 56.3259 91.3972 48.44C91.4293 40.4482 91.4613 32.4575 91.495 24.4656C91.5093 21.0733 92.8809 12.6566 89.7711 11.1584C87.608 10.1172 84.2748 10.5174 81.9237 10.2563C79.7884 10.0187 76.6795 9.7394 74.5703 10.4724C71.2102 11.6389 72.5303 17.7623 72.5101 21.2712C72.4266 36.3217 71.8416 51.3915 72.0245 66.4419C71.7674 70.8402 71.9562 75.3616 72.2344 79.7556Z" fill="#A259FF"/>
<path d="M92.7807 89.5297C80.3163 90.1408 67.8451 90.2082 55.3756 89.885C43.5493 89.5789 31.718 88.512 19.8909 88.7731C18.6803 88.7999 15.9119 89.4355 14.9973 88.6993C13.898 87.8132 13.979 84.3406 13.9275 82.9976C13.7977 79.6405 13.6991 76.2803 13.6342 72.9201C13.5043 66.2541 13.5103 59.5861 13.571 52.9191C13.694 39.3154 13.909 25.7225 13.6923 12.1167C13.6595 10.0535 11.1305 10.0471 11.1634 12.1167C11.4011 27.0741 11.0934 42.0165 11.0116 56.9728C10.9729 64.086 11.0268 71.2003 11.2376 78.3093C11.364 82.5856 10.2066 90.1675 14.3254 91.7941C16.4405 92.6299 19.0774 91.9996 21.2556 91.945C24.3191 91.8669 27.3538 91.9001 30.4164 92.0628C37.1283 92.4191 43.841 92.7327 50.5562 92.9531C64.6308 93.4154 78.7095 93.4293 92.7807 92.7401C94.4026 92.661 94.4102 89.4505 92.7807 89.5297Z" fill="#A259FF"/>
</g>
</svg>
