<svg width="104" height="104" viewBox="0 0 104 104" fill="none" xmlns="http://www.w3.org/2000/svg">
<mask id="mask0_502_1521" style="mask-type:alpha" maskUnits="userSpaceOnUse" x="0" y="0" width="104" height="104">
<rect width="104" height="104" fill="#C4C4C4"/>
</mask>
<g mask="url(#mask0_502_1521)">
<path d="M79.6229 46.348C80.8294 52.3949 81.3309 58.679 81.9052 64.8388C82.3058 69.1353 83.7423 72.9345 80.5315 75.3601C76.1606 78.6657 70.3348 80.4811 65.4441 82.5012C61.4207 84.1636 56.7833 86.6581 52.4769 87.0368C48.4501 87.3927 43.9468 84.9402 40.2097 83.4347C34.8242 81.2635 29.4072 78.9718 24.2203 76.2209C19.4819 73.7073 20.5411 68.0411 20.9367 62.7001C21.3438 57.1793 22.1415 51.7235 22.8499 46.2505C23.6162 46.5738 24.3874 46.8875 25.1488 47.2203C27.2209 48.1213 29.3095 48.9611 31.4098 49.7684C31.4081 49.8775 31.3933 49.9578 31.3933 50.0726C31.3817 53.6364 31.4495 57.3973 31.6763 60.9861C27.6231 62.1836 28.5449 69.4356 28.6525 73.2539C28.7055 75.0942 31.188 75.1038 31.1351 73.2539C31.0953 71.8288 30.5823 66.3405 31.6465 64.395C31.9973 67.6489 31.9378 70.9354 31.9328 74.2104C31.9311 76.0564 34.4137 76.0602 34.4154 74.2104C34.4203 70.6944 34.4369 67.2147 34.0546 63.7312C35.8983 64.6341 35.4316 71.9282 35.4117 73.2539C35.3836 75.0999 37.8661 75.0999 37.8943 73.2539C37.9423 70.1817 38.1971 67.1076 37.2289 64.1692C36.6795 62.5011 35.5706 61.0588 34.1473 60.7852C34.0595 58.6829 34.1158 56.5977 34.091 54.4839C34.0777 53.1486 34.1886 51.9702 34.4121 50.8818C35.607 51.3237 36.7986 51.7751 37.9952 52.2055C41.8631 53.5963 46.3102 55.9243 50.317 56.4925C53.2018 56.9019 55.5238 55.6298 58.2447 54.5088C62.6686 52.6876 67.1141 50.9334 71.5628 49.1964C74.2473 48.1501 76.9318 47.1017 79.6163 46.0573C79.6196 46.1548 79.6014 46.2409 79.6229 46.348ZM27.6893 25.7951C34.5047 22.6655 43.3063 17.3857 50.6696 17.2747C58.4152 17.1581 67.6205 22.895 74.7985 26.1165C81.9069 29.3092 88.719 33.0491 95.6438 36.6378C88.532 39.557 81.3872 42.3538 74.2324 45.1333C69.787 46.8626 65.3415 48.5939 60.9143 50.3825C56.497 52.1673 53.2316 54.2046 48.4948 52.9172C44.0527 51.7082 39.5857 50.2256 35.1237 48.5919C35.8884 46.8531 37.1015 45.3418 38.8575 43.8153C43.1623 40.0754 47.5183 36.4197 51.9108 32.8214C53.2051 31.7636 51.9671 29.2729 50.6596 30.3441C44.9199 35.0424 38.0581 39.5857 33.0864 45.3514C32.4641 46.0726 32.0652 46.6905 31.8054 47.3657C23.4523 44.15 15.1755 40.3987 7.18988 36.6531C13.8696 32.6512 20.6884 29.007 27.6893 25.7951ZM99.6076 35.5646C91.5277 31.4613 83.7109 27.0558 75.4588 23.3503C71.1226 21.4048 66.7649 19.5225 62.3641 17.7798C58.7545 16.3508 54.1948 13.8276 50.3385 14.0093C46.709 14.1815 42.6939 16.4885 39.3226 17.818C35.1916 19.446 31.0871 21.1696 27.0289 23.027C19.1559 26.633 11.488 30.742 4.00722 35.3255C3.69938 35.3638 3.45609 35.5665 3.29555 35.8611C2.80897 36.4484 2.96785 37.336 3.44782 37.8411H3.44947C3.50409 37.9004 3.56864 37.9348 3.62987 37.9807C3.71594 38.0534 3.79042 38.1357 3.9013 38.1873C9.34144 40.7564 14.9388 42.9544 20.4882 45.2519C19.9072 49.7416 19.2601 54.2161 18.8099 58.7268C18.3416 63.3964 17.1268 70.065 18.7322 74.6198C19.7964 77.6442 22.36 78.4151 24.8244 79.6375C29.6571 82.0325 34.5842 84.1999 39.5493 86.2009C43.1871 87.6681 47.4555 89.9197 51.3779 89.9981C54.8485 90.067 58.5757 88.221 61.808 86.9814C66.9254 85.0206 71.9948 82.8398 76.9533 80.395C79.0271 79.3735 83.2193 78.0822 84.5434 75.7159C86.1024 72.9306 84.6013 67.0808 84.3133 64.0602C83.7274 57.9177 83.221 51.6164 82.0161 45.5848C81.9847 45.4222 81.9201 45.3036 81.8572 45.183C87.6913 42.9047 93.5187 40.6072 99.3113 38.1873C100.195 37.8181 100.675 36.1079 99.6076 35.5646Z" fill="#A259FF"/>
<path d="M80.8727 34.7548C81.4486 35.0207 82.0279 35.3651 82.5244 35.7993C82.6651 35.9026 82.7876 36.0289 82.8951 36.1723C82.771 36.2775 82.6303 36.3636 82.5029 36.4459C81.2964 37.2168 79.9475 37.7563 78.6466 38.2728C77.1455 38.8696 77.7893 41.6415 79.307 41.0408C80.5317 40.553 81.7366 40.004 82.9167 39.3842C83.8319 38.904 84.8216 38.3761 85.2652 37.2608C86.3376 34.5578 83.2394 32.773 81.533 31.9887C80.0485 31.3038 79.4047 34.0795 80.8727 34.7548Z" fill="#A259FF"/>
<path d="M77.568 33.0911C79.1651 33.0911 79.1684 30.2217 77.568 30.2217C75.9692 30.2217 75.9659 33.0911 77.568 33.0911Z" fill="#A259FF"/>
</g>
</svg>
