<svg width="104" height="104" viewBox="0 0 104 104" fill="none" xmlns="http://www.w3.org/2000/svg">
<mask id="mask0_503_1573" style="mask-type:alpha" maskUnits="userSpaceOnUse" x="0" y="0" width="104" height="104">
<rect width="104" height="104" fill="#C4C4C4"/>
</mask>
<g mask="url(#mask0_503_1573)">
<path d="M66.789 67.1333C65.3812 71.6198 56.4527 70.1011 53.1683 69.8155C50.5413 69.5873 49.0637 69.8669 48.4425 66.281C48.2565 65.2096 48.3418 63.9584 48.3172 62.8704C48.2669 60.5418 47.4842 56.0734 50.15 55.3239C53.8993 55.1668 57.6577 55.2181 61.4084 55.197C62.9415 55.1864 65.1435 54.6938 66.2297 56.291C67.148 57.642 67.3896 65.2172 66.789 67.1333ZM53.7857 53.5438C53.6423 49.964 54.0931 45.5742 58.1279 46.026C61.5169 46.4053 61.4148 50.1906 61.4652 53.3836C60.8052 53.4441 60.1995 53.503 59.7281 53.5045C57.7494 53.5151 55.7669 53.5196 53.7857 53.5438ZM57.3878 42.5066C59.3213 42.3631 61.5221 42.4915 62.9415 44.2746C64.6709 46.4461 64.459 50.3085 64.45 53.2824C63.9553 53.2461 63.4361 53.2537 62.9182 53.2809C62.8898 51.0882 62.9415 48.5979 62.0128 46.6697C61.2315 45.0498 59.6041 44.4711 58.1279 44.326C53.1941 43.8409 52.1751 49.021 52.3391 53.5755C51.8419 53.5861 51.3459 53.5907 50.8487 53.6073C50.5684 47.8197 51.4712 42.9449 57.3878 42.5066ZM66.7942 54.0757C66.5526 53.8506 66.2401 53.6979 65.9017 53.574C65.8733 50.2118 66.1264 46.0623 64.2072 43.4073C62.4985 41.0454 59.8766 40.6223 57.3878 40.8066C50.6446 41.3068 49.0392 46.6803 49.4073 53.7992C47.3046 54.5003 46.9327 56.087 46.8513 58.6484C46.7596 61.5104 46.2559 66.1934 47.3292 68.9028C48.5161 71.8978 52.1273 71.4747 54.3927 71.5926C57.9483 71.7769 62.6328 72.2741 66.0606 70.9821C68.5249 70.0543 68.2872 67.5518 68.3492 64.791C68.4047 62.3491 68.7741 55.9344 66.7942 54.0757Z" fill="#2F8FFF"/>
<path d="M56.0584 66.2446C56.2857 65.0991 56.5092 63.9537 56.7055 62.7992C56.7106 62.7675 56.7029 62.7433 56.7055 62.7131C56.7559 62.4698 56.7197 62.2023 56.5182 61.9711C55.2873 60.5567 57.1459 58.3686 58.4581 59.6697C58.8882 60.0958 59.3583 61.4332 58.6919 61.9757C58.4271 62.1902 58.2657 62.5529 58.3587 62.9352C58.6221 64.0232 58.8611 65.1188 59.1194 66.2083C58.099 66.2098 57.0787 66.2551 56.0584 66.2446ZM59.8711 62.973C61.2388 61.1869 60.1061 58.1012 58.1171 57.6085C55.503 56.9588 53.6535 60.4434 55.2176 62.8037C54.9851 64.1562 54.7384 65.5056 54.4582 66.846C54.3432 67.4036 54.6803 67.8947 55.1595 67.9234C56.801 68.0216 58.4413 67.8463 60.0816 67.9234C60.544 67.9446 60.9172 67.3613 60.7816 66.846C60.4432 65.5661 60.1733 64.265 59.8711 62.973Z" fill="#2F8FFF"/>
<path d="M87.71 69.1076C87.165 74.8499 87.2928 79.8411 81.2471 81.3537C78.6833 81.9944 75.3989 81.4413 72.768 81.5033C67.1046 81.6363 61.4437 81.8327 55.7802 81.9808C45.4181 82.2528 35.0663 82.2891 24.7223 81.5834C26.6764 78.6881 26.9774 73.3524 27.0277 70.111C27.2085 58.548 26.9296 46.9109 26.9528 35.3372C26.9631 30.9142 25.359 23.5082 30.1817 22.4399C34.2488 21.5407 39.1644 22.3598 43.3168 22.3205C45.0952 22.3039 47.3361 21.849 49.0797 22.3719C51.398 23.0655 53.994 25.9849 55.6911 27.6698C58.4538 30.4095 59.921 30.4714 63.5541 30.4397C68.6441 30.3929 73.7341 30.3249 78.8254 30.4261C80.9255 30.4669 85.9083 29.7401 87.0745 32.5885C87.5989 33.8699 87.4052 37.2987 87.4943 38.5801C88.1878 48.5126 88.6541 59.1902 87.71 69.1076ZM17.3049 76.9715C16.3827 74.0384 16.3014 70.6807 16.1606 67.5935C15.9281 62.5192 15.9708 57.4297 16.0121 52.3509C16.0237 50.9939 15.4154 45.9664 16.1064 45.09C16.9058 44.076 22.7139 45.0205 24.938 45.3287C24.9057 48.2663 24.8721 51.2024 24.8708 54.14C24.8669 60.5638 25.4533 67.1341 24.9483 73.5382C24.8773 74.4373 24.6732 77.8933 23.9073 79.0734C21.2571 83.161 18.4118 80.4924 17.3049 76.9715ZM89.9418 60.3386C89.8901 54.8729 89.8862 49.4012 89.6951 43.94C89.5685 40.3496 90.018 34.7479 88.8698 31.3282C88.0367 28.8485 86.1498 28.4435 84.1427 28.3332C78.1951 28.0083 72.2307 28.0945 66.2806 28.1458C63.2596 28.173 60.3975 28.7321 57.6827 26.7057C56.0308 25.4712 54.5843 23.611 52.953 22.2933C50.0458 19.942 48.4262 19.9994 44.9222 20.0387C40.1822 20.0901 35.3763 19.8483 30.6454 20.1732C28.5995 20.3152 26.7139 20.4286 25.6612 22.736C24.318 25.6842 25.0116 30.1193 25.0181 33.2368C25.0232 36.525 24.9896 39.8147 24.9548 43.1044C21.6871 42.8868 18.4363 42.7417 15.1609 42.8414C14.6275 42.858 14.2039 43.3476 14.1923 43.9748C14.0218 52.3116 13.8203 60.7194 14.293 69.0487C14.5565 73.6939 14.9621 82.0609 19.8093 83.3967C20.3117 83.5358 20.7676 83.5796 21.2015 83.5841C32.1371 84.518 43.0843 84.5588 54.0418 84.2928C59.3656 84.1629 64.6881 83.98 70.0131 83.8395C74.4121 83.7231 80.1144 84.861 84.2641 82.9978C90.7684 80.0798 90.0038 66.8651 89.9418 60.3386Z" fill="#2F8FFF"/>
<path d="M33.6878 24.4126C32.1534 24.3189 29.9216 24.7149 29.1467 26.5176C28.785 27.3578 28.8018 28.4322 28.7592 29.3449C28.6882 30.8213 28.6946 32.2961 28.7489 33.7725C28.7876 34.8635 30.2419 34.868 30.2019 33.7725C30.1424 32.1903 30.1425 30.6112 30.2277 29.0291C30.2807 28.0741 30.3607 27.1568 31.1279 26.6158C31.8783 26.0854 32.8444 26.0613 33.6878 26.1126C34.6228 26.1701 34.6203 24.4701 33.6878 24.4126Z" fill="#2F8FFF"/>
<path d="M36.5202 24.4108C35.5851 24.4108 35.5838 26.1108 36.5202 26.1108C37.4539 26.1108 37.4565 24.4108 36.5202 24.4108Z" fill="#2F8FFF"/>
</g>
</svg>
