<svg width="104" height="104" viewBox="0 0 104 104" fill="none" xmlns="http://www.w3.org/2000/svg">
<mask id="mask0_503_1574" style="mask-type:alpha" maskUnits="userSpaceOnUse" x="0" y="0" width="104" height="104">
<rect width="104" height="104" fill="#C4C4C4"/>
</mask>
<g mask="url(#mask0_503_1574)">
<path d="M24.3674 55.0016C24.6882 46.1711 26.9066 37.6226 31.3167 29.9289C32.6653 27.5732 34.1707 24.6893 36.6144 23.2974C39.8398 21.4594 42.7714 22.8469 45.8656 24.0881C48.0273 24.9534 49.8102 25.856 52.2151 25.7128C54.9975 25.5487 57.3561 24.0255 59.9252 23.1602C66.1404 21.0686 69.4375 25.1429 71.5664 30.551C74.6546 38.3998 77.6697 46.0861 78.5962 54.5257C60.5398 57.1082 42.3969 57.6035 24.3674 55.0016ZM94.273 51.7821C89.7869 52.7056 85.2918 53.5038 80.7908 54.1886C79.7077 44.6434 76.4419 34.7074 72.1691 26.1335C70.8145 23.4168 68.8556 20.888 65.7465 20.1928C61.1962 19.1768 57.6739 22.4694 53.4414 23.2512C48.1183 24.2329 44.3573 19.3409 39.0566 20.1048C35.8729 20.5628 33.5784 22.5903 31.7239 25.0907C25.4863 33.5035 22.5817 44.3167 22.1535 54.6585C17.8926 53.9827 13.6377 53.1532 9.39331 52.1118C7.99392 51.7687 7.39865 53.9245 8.79805 54.2691C37.3051 61.2616 66.3 59.8204 94.8683 53.9394C96.2766 53.6499 95.6813 51.4927 94.273 51.7821Z" fill="#2F8FFF"/>
<path d="M64.2195 81.6571C59.3067 80.392 56.8421 76.1401 58.4429 71.2169C59.9661 66.5279 64.3418 65.4731 68.7265 65.9237C73.0903 66.9203 75.5474 70.4605 75.3147 74.9496C74.9969 81.0917 69.5709 83.0371 64.2195 81.6571ZM34.7561 81.6571C29.8433 80.392 27.3787 76.1401 28.9795 71.2169C30.5028 66.5279 34.8784 65.4731 39.2631 65.9237C43.6269 66.9203 46.0841 70.4605 45.8513 74.9496C45.5336 81.0917 40.1075 83.0371 34.7561 81.6571ZM69.2666 63.7485C69.1994 63.7351 69.1442 63.7485 69.0816 63.7455C69.0413 63.7381 69.0115 63.7142 68.9697 63.7097C64.0017 63.1353 59.3559 64.6824 57.1256 68.706C55.4114 67.4155 53.5211 66.2922 51.2714 66.4757C49.7108 66.6025 47.843 67.52 46.4958 68.4778C45.0726 66.1534 42.7691 64.4079 39.8032 63.7485C39.736 63.7351 39.6809 63.7485 39.6182 63.7455C39.5779 63.7381 39.5481 63.7142 39.5063 63.7097C33.2777 62.9906 27.5413 65.594 26.4567 72.2508C25.4288 78.566 29.251 82.9133 35.2634 84.0457C41.1414 85.1512 46.8568 82.8044 47.937 76.4296C48.2905 74.3469 48.0951 72.3164 47.4521 70.4978C47.4969 70.4695 47.5461 70.4605 47.5909 70.4262C48.4457 69.7459 50.0659 68.9298 51.1371 68.7478C53.1004 68.4136 54.8042 69.6922 56.2483 70.8305C56.117 71.284 56.0022 71.7525 55.9201 72.2508C54.8922 78.566 58.7159 82.9133 64.7253 84.0457C70.6048 85.1512 76.3187 82.8044 77.4004 76.4296C78.3984 70.5485 75.1088 65.0479 69.2666 63.7485Z" fill="#2F8FFF"/>
<path d="M36.4093 26.744C33.3375 29.774 31.0236 34.0617 30.206 38.3001C30.0031 39.3564 31.6203 39.8084 31.8232 38.7477C32.5886 34.7867 34.7235 30.7631 37.5954 27.9315C38.3652 27.1721 37.1791 25.9846 36.4093 26.744Z" fill="#2F8FFF"/>
<path d="M39.3528 24.5511C38.2712 24.5511 38.2697 26.2295 39.3528 26.2295C40.4329 26.2295 40.4344 24.5511 39.3528 24.5511Z" fill="#2F8FFF"/>
<path d="M32.6985 68.438C30.6262 69.5748 29.3686 71.7858 29.4641 74.1489C29.5073 75.2261 31.1857 75.2321 31.1424 74.1489C31.0693 72.3527 31.9674 70.7519 33.5459 69.8881C34.4932 69.3675 33.6473 67.9173 32.6985 68.438Z" fill="#2F8FFF"/>
<path d="M35.2373 67.4917C34.1586 67.4917 34.1571 69.1701 35.2373 69.1701C36.3189 69.1701 36.3204 67.4917 35.2373 67.4917Z" fill="#2F8FFF"/>
<path d="M62.1693 68.438C60.0971 69.5748 58.8379 71.7858 58.9349 74.1489C58.9767 75.2261 60.6551 75.2321 60.6133 74.1489C60.5402 72.3527 61.4383 70.7519 63.0153 69.8881C63.9641 69.3675 63.1167 67.9173 62.1693 68.438Z" fill="#2F8FFF"/>
<path d="M64.7085 67.4917C63.6299 67.4917 63.6269 69.1701 64.7085 69.1701C65.7887 69.1701 65.7902 67.4917 64.7085 67.4917Z" fill="#2F8FFF"/>
</g>
</svg>
