<svg width="104" height="104" viewBox="0 0 104 104" fill="none" xmlns="http://www.w3.org/2000/svg">
<mask id="mask0_503_1571" style="mask-type:alpha" maskUnits="userSpaceOnUse" x="0" y="0" width="104" height="104">
<rect width="104" height="104" fill="#C4C4C4"/>
</mask>
<g mask="url(#mask0_503_1571)">
<path d="M92.9763 81.3404C90.4203 82.0166 86.9648 81.473 84.3538 81.494C70.2634 81.6089 56.1729 81.5895 42.0825 81.5393C34.738 81.5135 27.3935 81.4779 20.0506 81.384C15.123 81.321 7.88202 83.1166 6.62666 76.9418C7.14757 76.9223 7.99688 76.7136 8.61 76.6797C10.9881 76.5438 13.3742 76.4969 15.7571 76.4435C22.5257 76.2914 29.2992 76.2413 36.0694 76.2121C51.9862 76.141 67.9096 76.1927 83.8248 76.5357C86.6672 76.5955 89.5079 76.6651 92.3503 76.7686C93.4147 76.8075 94.662 76.691 95.699 76.9094C96.0484 76.9838 97.0077 76.7703 97.2601 76.9935C98.5219 78.1017 93.7998 81.1236 92.9763 81.3404ZM17.1063 34.9745C17.1354 32.7243 16.8249 28.7463 17.8262 26.7209C19.6251 23.0777 25.1853 23.7297 28.6019 23.6731C35.1424 23.5631 41.6894 23.8607 48.2347 23.8138C54.7429 23.7685 61.2526 23.7264 67.7607 23.6844C70.7616 23.665 73.7593 23.6795 76.7586 23.7653C78.2178 23.8073 80.3516 23.4822 81.7574 23.9578C86.5394 25.5739 85.9263 27.3696 86.0363 30.7264C86.5151 45.1663 86.5539 59.5899 86.2126 74.0331C71.8827 73.5348 57.4785 73.7516 43.1793 73.7661C34.8205 73.7742 26.46 73.8211 18.1028 73.9878C17.9637 60.9958 16.9365 47.952 17.1063 34.9745ZM98.3359 74.6365C95.1101 74.4148 91.8747 74.2579 88.6392 74.1269C88.8447 65.4138 88.9676 56.7007 88.8705 47.9843C88.8171 43.3237 88.7088 38.6613 88.568 34.0007C88.4839 31.2085 88.9595 27.5152 87.9954 24.9025C86.0007 19.4961 76.8961 21.2966 72.4781 21.2562C64.0561 21.1785 55.6261 21.3387 47.2042 21.3953C39.3145 21.4487 31.3133 20.7967 23.443 21.481C19.0153 21.8644 16.1389 22.6798 15.2864 27.3259C13.9388 34.6655 14.9208 42.4582 15.1602 49.848C15.4223 57.9059 15.6067 65.9638 15.6779 74.025C15.4158 74.0314 15.1553 74.0314 14.8933 74.0363C12.9536 74.0848 6.96313 73.3018 4.74846 74.7513C4.41197 74.8597 4.15963 75.1202 4.07874 75.51C3.9655 75.7883 3.97843 76.0504 4.09167 76.2785C4.97819 84.7133 11.2874 83.6828 17.9443 83.7815C29.2604 83.9514 40.5796 83.974 51.8973 83.9902C62.9739 84.008 74.0521 84.0112 85.1271 83.9142C91.4508 83.8576 99.2677 84.5338 99.5492 75.8498C99.5718 75.1622 98.9733 74.6802 98.3359 74.6365Z" fill="#2F8FFF"/>
<path d="M79.4796 69.1414C76.1067 68.9182 72.6496 69.122 69.2702 69.1139C54.0214 69.0702 38.5785 69.7513 23.346 68.9991C23.2699 67.9556 23.3573 66.8507 23.346 65.8251C23.2942 61.0156 23.2441 56.2044 23.1923 51.3933C23.1163 44.34 23.0418 37.285 22.9674 30.2301H75.8268C77.0531 30.2301 79.1108 29.8629 80.5716 30.0522C80.5554 30.1573 80.5393 30.2689 80.5004 30.4178C80.2238 31.5017 80.5344 33.0741 80.5457 34.1887C80.604 38.7556 80.6606 43.3256 80.7172 47.8941C80.8046 54.8164 81.6943 62.258 81.0262 69.1705C80.5053 69.1867 79.9666 69.1738 79.4796 69.1414ZM80.5943 29.6865C80.5296 29.5652 80.5781 29.5377 80.5943 29.6865V29.6865ZM82.8138 70.0587C82.6439 56.4794 82.4757 42.8986 82.3058 29.3193C82.2994 28.8275 81.8933 28.4102 81.3967 28.4102H22.0469C21.8107 28.4102 21.6344 28.4975 21.4937 28.6156C21.4581 28.6415 21.4225 28.6625 21.3918 28.6916C21.3885 28.6949 21.3869 28.6981 21.3853 28.7013C21.2365 28.8469 21.1345 29.0475 21.1378 29.3193C21.2817 42.8436 21.4257 56.3694 21.5697 69.8937C21.5746 70.3855 21.9822 70.8012 22.4789 70.8028C42.288 70.8578 62.0955 70.9128 81.903 70.9694C82.3899 70.9694 82.8203 70.5505 82.8138 70.0587Z" fill="#2F8FFF"/>
<path d="M41.2713 51.9104C40.3831 51.4138 39.495 50.9155 38.6068 50.4189C39.4723 49.9028 40.3394 49.3884 41.2049 48.8739C42.5444 48.0764 41.3262 45.9782 39.9787 46.779C39.1083 47.2966 38.238 47.8143 37.3677 48.332C37.3531 47.3306 37.3402 46.3292 37.3272 45.3262C37.3078 43.7667 34.8812 43.7635 34.9006 45.3262C34.9152 46.3389 34.9265 47.3516 34.9411 48.3643C34.0691 47.8758 33.1971 47.3872 32.3236 46.8987C30.9598 46.1351 29.7352 48.2301 31.0989 48.9936C31.9838 49.4903 32.8688 49.9853 33.7537 50.4803C32.8914 50.9948 32.0291 51.5076 31.1653 52.022C29.8258 52.8196 31.0439 54.9178 32.3899 54.117C33.2586 53.6009 34.1273 53.0833 34.9944 52.5672C35.009 53.5718 35.0203 54.5764 35.0349 55.581C35.0543 57.1422 37.4809 57.147 37.4615 55.581C37.4469 54.5667 37.4356 53.5508 37.421 52.5348C38.2962 53.025 39.1714 53.5152 40.0466 54.0054C41.4104 54.7689 42.635 52.674 41.2713 51.9104Z" fill="#2F8FFF"/>
<path d="M56.909 51.9104C56.0209 51.4138 55.1344 50.9155 54.2479 50.4189C55.1117 49.9028 55.9772 49.3884 56.8427 48.8739C58.1838 48.0764 56.964 45.9782 55.6181 46.779C54.7477 47.2966 53.8758 47.8143 53.0054 48.332C52.9925 47.3306 52.9795 46.3292 52.9666 45.3262C52.9472 43.7667 50.5206 43.7635 50.54 45.3262C50.5529 46.3389 50.5659 47.3516 50.5805 48.3643C49.7069 47.8758 48.8349 47.3872 47.9629 46.8987C46.5992 46.1351 45.373 48.2301 46.7383 48.9936C47.6232 49.4903 48.5081 49.9853 49.393 50.4803C48.5308 50.9948 47.6669 51.5076 46.8047 52.022C45.4636 52.8196 46.6833 54.9178 48.0293 54.117C48.898 53.6009 49.7667 53.0833 50.6338 52.5672C50.6468 53.5718 50.6597 54.5764 50.6743 55.581C50.6937 57.1422 53.1203 57.147 53.1009 55.581C53.0863 54.5667 53.0734 53.5508 53.0604 52.5348C53.934 53.025 54.8092 53.5152 55.6844 54.0054C57.0498 54.7689 58.2744 52.674 56.909 51.9104Z" fill="#2F8FFF"/>
<path d="M72.5044 51.9104C71.6162 51.4138 70.7281 50.9155 69.84 50.4189C70.7055 49.9028 71.571 49.3884 72.4364 48.8739C73.7775 48.0764 72.5594 45.9782 71.2118 46.779C70.3415 47.2966 69.4711 47.8143 68.5992 48.332C68.5862 47.3306 68.5733 46.3292 68.5603 45.3262C68.5409 43.7667 66.1143 43.7635 66.1337 45.3262C66.1467 46.3389 66.1596 47.3516 66.1742 48.3643C65.3006 47.8758 64.4286 47.3872 63.5567 46.8987C62.1929 46.1351 60.9667 48.2301 62.3321 48.9936C63.217 49.4903 64.1003 49.9853 64.9868 50.4803C64.1229 50.9948 63.2607 51.5076 62.3984 52.022C61.0573 52.8196 62.2771 54.9178 63.623 54.117C64.4917 53.6009 65.3605 53.0833 66.2276 52.5672C66.2405 53.5718 66.2551 54.5764 66.2664 55.581C66.2874 57.1422 68.714 57.147 68.693 55.581C68.6817 54.5667 68.6671 53.5508 68.6542 52.5348C69.5294 53.025 70.4046 53.5152 71.2781 54.0054C72.6435 54.7689 73.8681 52.674 72.5044 51.9104Z" fill="#2F8FFF"/>
</g>
</svg>
