<svg width="104" height="104" viewBox="0 0 104 104" fill="none" xmlns="http://www.w3.org/2000/svg">
<mask id="mask0_281:971" style="mask-type:alpha" maskUnits="userSpaceOnUse" x="0" y="0" width="104" height="104">
<rect width="104" height="104" fill="#C4C4C4"/>
</mask>
<g mask="url(#mask0_281:971)">
<mask id="mask1_281:971" style="mask-type:alpha" maskUnits="userSpaceOnUse" x="3" y="3" width="98" height="98">
<rect x="3" y="3" width="98" height="98" fill="#C4C4C4"/>
</mask>
<g mask="url(#mask1_281:971)">
<path d="M84.4713 90.3447C84.4808 90.7599 84.5094 91.5999 84.3742 92.0469C84.3567 92.0533 84.3535 92.0501 84.336 92.0581C83.1142 92.6276 80.7183 92.3285 79.3804 92.3969C75.0309 92.6196 70.6718 92.696 66.3175 92.7422C56.4555 92.8472 46.5903 92.739 36.7299 92.5322C32.0272 92.4319 25.5426 93.3515 20.8097 92.1583C20.7572 91.9372 20.6999 91.5569 20.7349 90.8792C20.8145 89.2708 20.5949 87.594 20.5361 85.9872C20.3452 80.7913 20.1924 75.5938 20.0556 70.3963C19.7215 57.6659 19.467 44.9276 19.5418 32.1924C23.2263 32.2926 26.9061 32.2401 30.5874 32.0317C32.5935 31.9188 36.9383 32.5424 38.5626 31.0485C40.031 29.6995 39.2419 25.6474 39.2849 23.899C39.3946 19.6895 39.5012 15.4784 39.6094 11.2689C53.0573 10.8775 66.5704 10.8679 80.004 11.6507C81.2004 11.7207 82.3967 11.8066 83.5899 11.9195C83.356 13.8318 83.7522 16.0654 83.8126 17.9936C84.3519 35.0369 84.6972 52.0946 84.7672 69.1475C84.7974 76.1984 84.3185 83.3065 84.4713 90.3447ZM36.7267 29.2095C35.971 30.1592 28.8788 29.7424 27.5122 29.7933C25.3311 29.876 23.1547 29.8776 20.9784 29.8426C26.1297 24.0327 31.7265 18.6172 37.1769 13.0873C37.1196 15.3384 37.0608 17.5895 37.0035 19.8422C36.9621 21.4649 36.9208 23.0877 36.8794 24.712C36.8635 25.299 37.1419 28.6876 36.7267 29.2095ZM86.4201 25.6936C86.3119 21.6384 86.2181 17.5816 86.0463 13.5279C85.981 12.0182 86.2451 10.7041 85.0313 9.74795C82.7849 7.98205 74.2752 8.99546 71.6613 8.91273C60.6093 8.5675 49.5494 8.56909 38.4974 8.90796C38.1967 8.87773 37.8801 8.97159 37.6033 9.25796C30.9167 16.1784 23.8086 22.7456 17.5643 30.0781C17.4784 30.1592 17.4115 30.2531 17.3575 30.3565C17.2445 30.5283 17.1602 30.7272 17.157 30.9849C17.0393 46.5328 17.4052 62.0886 17.8729 77.6286C18.0129 82.2502 17.612 87.3585 18.4011 91.9356C18.724 93.8033 18.6127 93.7746 20.3308 94.384C23.2581 95.4212 28.0038 94.7021 31.0329 94.7833C37.3058 94.9503 43.5787 95.0601 49.8532 95.119C61.6625 95.2319 73.6865 95.5883 85.4513 94.3299C86.1449 94.2551 86.5744 93.8399 86.6444 93.1367C88.8717 70.9802 87.0119 47.9057 86.4201 25.6936Z" fill="white"/>
<path d="M55.2744 53.4381C49.3674 49.8967 46.5131 42.6218 49.3841 36.0415C52.2886 29.3854 59.8728 26.8596 66.2898 29.6718C73.249 32.3043 75.7366 40.38 73.6782 47.172C71.1498 55.5147 62.2135 57.5986 55.2744 53.4381ZM51.893 59.0756C51.3096 58.5166 50.5863 58.0441 49.839 57.7524C50.5815 56.2686 51.4748 54.8527 52.3555 53.4431C53.0613 54.0193 53.8174 54.5325 54.6058 54.9898C53.746 56.3797 52.7503 57.6845 51.893 59.0756ZM49.2296 66.8854C47.0338 70.5423 44.758 74.507 42.1004 77.8446C41.0757 79.1308 40.25 80.1513 38.5938 80.0368C37.4568 79.958 36.4747 79.3488 35.7378 78.4681C35.7111 78.4359 35.6923 78.4031 35.6676 78.371C35.8496 78.4038 36.0336 78.427 36.2138 78.4717C36.5393 78.5521 36.8944 78.4335 37.0204 78.0887C37.1286 77.7928 36.9839 77.3652 36.6531 77.2838C36.1623 77.1624 35.6675 77.0735 35.1677 77.0135C35.1621 76.7389 35.2031 76.463 35.2825 76.1874C36.3015 76.1275 37.3202 76.1157 38.3391 76.158C39.1417 76.1909 39.2705 74.9348 38.4622 74.9013C37.5944 74.8655 36.7266 74.8783 35.8585 74.9115C36.0108 74.6519 36.1759 74.3945 36.3455 74.1403C37.3677 74.1484 38.3899 74.1564 39.4125 74.164C40.2137 74.1703 40.3449 72.9137 39.5357 72.9073C38.7513 72.9013 37.9669 72.8953 37.183 72.8896C37.351 72.6404 37.5181 72.3907 37.6848 72.1406C38.7346 71.985 39.7871 71.899 40.8478 71.9151C41.649 71.927 41.7802 70.6704 40.9709 70.6584C40.1777 70.6467 39.3867 70.6824 38.5972 70.7571C38.8653 70.3475 39.1334 69.9379 39.4018 69.5278C40.4079 69.4801 41.4136 69.4971 42.4161 69.5777C43.2183 69.6427 43.3447 68.3862 42.5394 68.3217C41.7726 68.2597 41.0057 68.2481 40.2383 68.2583C40.3893 68.0303 40.5408 67.8033 40.6932 67.577C41.668 67.5859 42.6424 67.5952 43.6173 67.6048C44.4183 67.6123 44.5495 66.3557 43.7405 66.3481C43.0104 66.3413 42.2798 66.3341 41.5489 66.3275C41.7043 66.1047 41.8634 65.8852 42.0215 65.6643C42.0841 65.6709 42.1509 65.6707 42.2244 65.6553C43.4084 65.4049 44.5985 65.2946 45.803 65.337C46.6056 65.3651 46.7353 64.1088 45.9266 64.0806C44.9763 64.047 44.0273 64.0974 43.0863 64.2302C43.2922 63.9631 43.5031 63.6996 43.715 63.4375C44.9023 63.3445 46.0819 63.3962 47.2551 63.5873C48.0491 63.7171 48.1699 62.46 47.3787 62.3309C46.5179 62.1908 45.6536 62.1347 44.7866 62.1397C44.9898 61.8956 45.1986 61.6465 45.4151 61.4008C46.3275 61.3998 47.2316 61.4745 48.1294 61.6333C48.921 61.7732 49.0409 60.5163 48.253 60.3769C47.7284 60.284 47.202 60.2203 46.6732 60.1819C47.6232 59.4479 48.7062 59.0911 49.9843 59.7706C52.9064 61.3248 50.3994 64.9365 49.2296 66.8854ZM75.9141 44.6992C76.8985 37.8506 73.5051 30.5956 66.8762 28.0884C61.5808 25.7669 54.7665 26.6684 50.6595 31.0762C46.5188 35.52 45.3857 42.3969 47.9323 47.8271C48.717 49.5004 49.8096 51.0069 51.1113 52.3067C50.067 53.9879 48.9982 55.6711 48.1377 57.4521C46.0146 57.6236 44.2357 60.2442 42.9797 61.7178C40.2266 64.9479 38.0711 68.6377 35.6887 72.1368C34.6376 73.7682 32.7626 76.1411 33.4466 78.22C33.9755 79.8287 36.786 81.9766 38.4763 82.0746C40.8767 82.2143 42.8689 79.6751 44.0844 77.9388C46.5533 74.412 49.0182 70.6818 51.1192 66.9261C52.1883 65.0155 53.8785 62.7524 52.9502 60.5354C53.9064 58.8862 55.0932 57.3819 56.0796 55.7515C58.3657 56.7957 60.8772 57.3405 63.4067 57.2331C70.5064 56.9328 74.9363 51.4965 75.9141 44.6992Z" fill="white"/>
<path d="M65.0333 52.8543C62.1388 53.909 59.0884 52.779 56.7018 51.1516C52.4409 48.2456 49.6532 42.3093 51.6724 37.1696C54.0062 31.2285 62.0825 30.0014 67.0114 33.0272C71.3448 35.926 72.494 41.5998 70.7021 46.4712C69.7427 49.0799 67.7351 51.8697 65.0333 52.8543ZM67.7472 31.9945C62.4532 28.7446 53.9753 29.7748 50.9122 35.8349C47.9842 41.628 50.9737 48.7799 55.966 52.1843C61.508 55.9631 67.8437 54.7953 71.126 48.5717C74.0903 42.9518 73.0627 35.5503 67.7472 31.9945Z" fill="white"/>
<path d="M60.8367 34.677C59.5701 34.7592 58.2761 35.0418 57.1203 35.6001C56.4657 35.9156 55.8331 36.3263 55.2952 36.8198C55.1298 36.9718 54.9898 37.1883 54.8089 37.3209C54.2848 37.7045 53.2842 38.2661 54.2903 36.8676C55.7329 35.1761 57.7315 34.1708 59.9406 34.0426C60.296 34.0219 62.8771 34.0931 62.3923 34.6818C62.3078 34.7842 61.0607 34.6623 60.8367 34.677ZM61.6246 32.8463C58.4617 32.3875 55.3434 33.7209 53.2757 36.1447C52.7289 36.9044 52.022 38.1521 52.7511 39.0086C53.3164 39.6723 54.2805 39.5109 54.9062 39.0489C55.504 38.6078 55.8883 37.9233 56.4729 37.4541C57.2895 36.7995 58.299 36.4047 59.3006 36.1649C60.5083 35.8754 61.9118 36.2645 63.0452 35.9027C63.6961 35.6953 64.254 34.9525 64.1291 34.2586C63.9431 33.2258 62.4748 32.9698 61.6246 32.8463Z" fill="white"/>
<path d="M66.4846 36.5391C66.5109 36.5108 66.5049 36.5183 66.4846 36.5391V36.5391ZM66.2199 36.6349C66.0309 36.6559 65.8406 36.6013 65.7381 36.4341C65.4778 36.0113 65.8918 35.5964 66.3127 35.623C66.5402 35.6902 66.6798 35.7738 66.6905 35.9821C66.7001 36.1709 66.5941 36.4151 66.4691 36.5551C66.4569 36.5665 66.4454 36.5769 66.4379 36.5799C66.3805 36.6061 66.2804 36.6282 66.2199 36.6349ZM66.6329 34.4008C66.6225 34.3982 66.6137 34.3981 66.6039 34.3967C66.5633 34.383 66.5208 34.3721 66.4747 34.3662C65.3517 34.2199 64.3288 35.1995 64.4231 36.3351C64.5226 37.5236 65.7306 38.185 66.8203 37.7692C67.4753 37.5198 67.8585 36.8255 67.9306 36.1509C68.0242 35.2773 67.4509 34.603 66.6329 34.4008Z" fill="white"/>
</g>
</g>
</svg>
