<svg width="104" height="104" viewBox="0 0 104 104" fill="none" xmlns="http://www.w3.org/2000/svg">
<mask id="mask0_246:932" style="mask-type:alpha" maskUnits="userSpaceOnUse" x="0" y="0" width="104" height="104">
<rect width="104" height="104" fill="#C4C4C4"/>
</mask>
<g mask="url(#mask0_246:932)">
<path d="M90.4731 85.2404C90.3905 86.0602 90.3796 86.5733 90.3972 86.8935C90.335 86.8495 90.2517 86.8204 90.14 86.8211C89.7643 86.8238 87.965 85.2925 87.7037 85.1091C83.5622 82.224 79.0754 79.5209 75.3793 76.059C75.4951 72.3074 75.5147 68.5524 75.4145 64.8002C75.4131 64.7548 75.4145 64.6993 75.4138 64.6526C78.1771 62.4112 81.0257 60.2843 83.8302 58.0964C84.3968 57.6543 88.6013 53.8845 89.0305 53.9758C90.5347 54.2947 90.3099 57.8168 90.3167 58.7219C90.3648 65.2801 90.5841 71.839 90.6132 78.3972C90.6227 80.6609 90.6985 82.9882 90.4731 85.2404ZM71.956 67.0611C72.0251 71.5851 71.9242 76.1112 71.6906 80.6291C71.5817 82.731 72.0799 86.4027 69.9055 87.6781C69.3085 88.0287 67.1254 88.0219 66.4538 88.0544C58.5018 88.4383 51.2145 88.4992 43.2523 88.4782C39.3917 88.4674 35.5311 88.3895 31.6726 88.265C26.4134 88.0957 21.3716 89.0597 19.5851 82.9787C18.6448 79.7768 17.339 53.3111 21.5333 52.9889C31.7863 52.8555 42.0393 52.7547 52.2922 52.6707C57.0288 52.6321 60.7019 52.3857 65.4384 52.3817C66.3008 52.3803 69.5759 52.1528 70.3036 52.5989C72.9565 54.225 71.914 64.3148 71.956 67.0611ZM47.0344 35.3099C48.6076 42.019 53.9507 47.4068 60.6565 49.1059C50.7664 49.1635 40.8763 49.261 30.9868 49.3754C38.4088 48.0675 45.0273 42.6093 47.0344 35.3099ZM12.6329 29.9336C13.5935 21.3899 21.3743 16.26 29.3351 15.5215C37.1964 15.1268 44.4783 23.7023 44.1824 31.3599C43.8589 39.7492 35.5866 46.3657 27.4884 46.1782C18.9738 45.9805 11.6446 38.7196 12.6329 29.9336ZM50.1856 29.9336C51.1468 21.3899 58.9269 16.26 66.8877 15.5215C74.7491 15.1268 82.0309 23.7023 81.7358 31.3599C81.4115 39.7492 73.14 46.3657 65.0417 46.1782C56.5272 45.9805 49.1972 38.7196 50.1856 29.9336ZM94.0751 75.4248C93.958 68.6655 94.6782 61.3444 93.7102 54.6589C93.2715 51.6296 91.6036 49.3192 88.2744 50.4761C85.7893 51.3398 83.5622 53.8851 81.5577 55.4495C79.5526 57.0133 77.5374 58.5608 75.5357 60.1252C75.6487 55.6269 75.3664 50.2689 71.5126 49.198C71.1518 49.0978 70.7727 49.0247 70.3862 48.9638C78.0552 46.8653 84.4903 40.3605 85.1652 32.158C85.968 22.4013 76.9552 11.512 66.8877 12.017C58.2148 12.8212 49.3996 18.0648 47.1319 26.8258C45.1153 18.8345 37.5809 11.6027 29.3351 12.017C19.7489 12.9058 9.96035 19.202 9.06543 29.6953C8.23212 39.4676 15.4625 48.0059 24.8009 49.4464C23.7117 49.46 22.6232 49.4701 21.5333 49.4837C21.3641 49.4857 21.2118 49.5135 21.0676 49.552C14.7666 50.3752 15.8795 57.2841 15.6257 62.504C15.2554 70.1094 13.8954 80.5682 16.9369 87.7877C19.3448 93.5059 28.8172 91.6957 33.679 91.8311C42.3195 92.0714 50.958 91.999 59.5957 91.6585C62.6684 91.5373 71.4578 92.6962 73.8968 90.0027C75.686 88.026 75.0726 82.9957 75.1958 80.6291C75.1972 80.5945 75.1986 80.5607 75.1999 80.5262C77.7784 82.5976 80.5897 84.4274 83.2799 86.2971C85.9924 88.1824 88.7861 91.2828 92.2494 90.6282C92.8627 90.5117 93.2837 89.9546 93.4733 89.4036C94.886 85.2939 94.1502 79.7653 94.0751 75.4248Z" fill="#2F8FFF"/>
<path d="M28.7422 56.798C26.6701 59.1578 24.7422 61.6348 22.9605 64.22C21.9979 65.6166 24.2751 66.9325 25.2303 65.5468C26.8861 63.1437 28.6752 60.8502 30.6005 58.6569C31.7127 57.3904 29.8606 55.524 28.7422 56.798Z" fill="#2F8FFF"/>
<path d="M30.6872 63.1279C29.6617 63.9646 28.762 64.9516 27.8989 65.9514C27.4359 66.4889 27.3709 67.2823 27.8989 67.811C28.3728 68.2848 29.292 68.3505 29.7578 67.811C30.6202 66.8105 31.5205 65.8228 32.5461 64.9868C33.0965 64.538 33.0125 63.5943 32.5461 63.1279C32.0018 62.5836 31.2396 62.6784 30.6872 63.1279Z" fill="#2F8FFF"/>
<path d="M23.2396 30.3339C23.7568 27.8102 25.9691 26.5396 28.404 26.8415C30.7056 26.9295 33.2895 29.2745 33.1704 31.7081C33.0126 34.908 29.961 36.2483 27.2525 35.7074C24.5522 35.1686 22.6419 33.2508 23.2396 30.3339ZM35.7989 31.7081C35.9011 27.7913 32.157 24.3565 28.404 24.2123C24.4168 23.7188 20.8893 26.6601 20.5468 30.6629C20.1568 35.2241 23.6011 37.982 27.8334 38.4518C31.7941 38.8924 35.6893 35.8997 35.7989 31.7081Z" fill="#2F8FFF"/>
<path d="M60.9855 30.4037C61.5372 27.5017 64.2842 26.0652 67.0015 26.9689C69.2266 27.524 71.3522 30.2372 70.7707 32.6464C70.1459 35.2364 67.2574 36.4813 64.9321 35.7414C62.4863 34.9623 60.4575 33.1812 60.9855 30.4037ZM64.2328 38.2766C67.9891 39.4896 72.2877 37.3133 73.3052 33.3457C74.2705 29.584 71.3238 25.3375 67.7001 24.4338C63.7495 23.1192 59.6181 25.326 58.5397 29.3721C57.3767 33.735 60.2571 36.9917 64.2328 38.2766Z" fill="#2F8FFF"/>
</g>
</svg>
