<svg width="104" height="104" viewBox="0 0 104 104" fill="none" xmlns="http://www.w3.org/2000/svg">
<mask id="mask0_260:1129" style="mask-type:alpha" maskUnits="userSpaceOnUse" x="0" y="0" width="104" height="104">
<rect width="104" height="104" fill="#C4C4C4"/>
</mask>
<g mask="url(#mask0_260:1129)">
<path d="M66.8112 73.556C63.8988 75.1092 57.5238 74.4052 54.235 74.4744C50.0328 74.5639 40.9413 75.6225 37.4532 73.215C34.3602 71.0793 35.2247 64.6755 35.1757 61.3394C35.1234 57.6859 34.0074 52.1196 38.6367 51.1893C45.7259 50.931 52.8337 51.0239 59.9263 50.9867C63.2927 50.9699 67.0154 50.1105 68.7139 53.6289C70.6065 57.5492 71.2548 71.1907 66.8112 73.556ZM45.3207 48.5168C45.0472 42.8103 45.888 35.7886 53.4178 36.5061C59.754 37.1106 59.5616 43.1463 59.6612 48.2449C58.1721 48.3513 56.7894 48.4678 55.7629 48.4729C52.285 48.4881 48.802 48.4813 45.3207 48.5168ZM52.0503 30.9483C55.6447 30.7186 59.7287 30.9331 62.3659 33.761C65.604 37.2338 65.1836 43.4181 65.1752 48.1453C64.2145 48.0778 63.2151 48.066 62.1953 48.1031C62.143 44.6387 62.2527 40.6898 60.5307 37.6373C59.1007 35.1032 56.1174 34.2016 53.4178 33.9737C44.328 33.2072 42.4877 41.3837 42.7984 48.5438C41.8293 48.5623 40.8636 48.5944 39.8962 48.6231C39.3644 39.41 41.0426 31.6455 52.0503 30.9483ZM69.1208 49.1532C68.7173 48.8932 68.231 48.7008 67.7009 48.5438C67.6469 43.2526 68.1314 36.6834 64.5961 32.5015C61.4559 28.7838 56.629 28.1237 52.0503 28.4158C39.6227 29.2025 36.6952 37.6728 37.3806 48.8882C33.7677 49.7712 32.861 52.0976 32.6787 55.7528C32.4373 60.6202 31.8042 67.1658 33.2848 71.893C34.8954 77.0424 41.2114 76.6186 45.5672 76.8381C52.5906 77.1909 59.8435 77.1622 66.8112 76.0885C72.4146 75.2274 72.1631 70.9509 72.2509 65.8117C72.3184 62.0164 73.0646 51.6789 69.1208 49.1532Z" fill="#2F8FFF"/>
<path d="M49.0972 68.8838C49.5598 66.9135 50.0072 64.9399 50.4006 62.9528C50.4073 62.919 50.3972 62.892 50.4006 62.8582C50.4664 62.5864 50.4192 62.2876 50.1558 62.0293C47.5642 59.4833 51.4457 55.5006 54.2415 57.8288C55.2612 58.678 56.1493 61.0568 54.6501 62.0968C54.3023 62.3382 54.0912 62.7434 54.2128 63.1689C54.748 65.0564 55.2241 66.9574 55.761 68.8433C53.5408 68.8247 51.319 68.9277 49.0972 68.8838ZM56.1999 63.2449C58.7965 60.6736 56.7368 55.9345 53.2859 55.2389C48.7596 54.3289 45.5805 59.5019 48.4574 62.9595C48.0133 65.1695 47.5406 67.3677 47.0071 69.5557C46.8552 70.1787 47.2975 70.7257 47.9239 70.7578C50.9561 70.9131 53.9866 70.6379 57.0171 70.7578C57.6232 70.7831 58.1111 70.1315 57.9338 69.5557C57.2889 67.469 56.7807 65.3485 56.1999 63.2449Z" fill="#2F8FFF"/>
<path d="M86.4591 92.6923C86.4693 93.133 86.4996 94.0244 86.3561 94.4988C86.3376 94.5056 86.3342 94.5022 86.3156 94.5106C85.019 95.1151 82.4764 94.7976 81.0566 94.8702C76.4407 95.1066 71.8148 95.1877 67.1939 95.2366C56.7281 95.348 46.2589 95.2332 35.7948 95.0138C30.8042 94.9074 23.9226 95.8832 18.8999 94.617C18.8442 94.3823 18.7835 93.9788 18.8206 93.2596C18.905 91.5527 18.672 89.7733 18.6096 88.0681C18.407 82.5541 18.2449 77.0384 18.0997 71.5227C17.7451 58.0129 17.475 44.4946 17.5544 30.9797C21.4645 31.0861 25.3695 31.0304 29.2763 30.8092C31.4052 30.6893 36.016 31.3512 37.7397 29.7658C39.298 28.3342 38.4606 24.034 38.5062 22.1786C38.6227 17.7113 38.7358 13.2424 38.8506 8.77515C53.1219 8.35983 67.4623 8.3497 81.7184 9.18035C82.988 9.25463 84.2576 9.3458 85.5238 9.46567C85.2756 11.495 85.696 13.8654 85.7602 15.9116C86.3325 33.9984 86.6989 52.1004 86.7732 70.1974C86.8052 77.6799 86.2971 85.2233 86.4591 92.6923ZM35.7914 27.8142C34.9895 28.8221 27.463 28.3797 26.0128 28.4338C23.6981 28.5216 21.3885 28.5233 19.0789 28.4861C24.5456 22.3204 30.4851 16.5734 36.2692 10.7049C36.2084 13.0938 36.146 15.4828 36.0852 17.8734C36.0413 19.5955 35.9974 21.3176 35.9535 23.0413C35.9366 23.6643 36.2321 27.2604 35.7914 27.8142ZM88.5273 24.083C88.4125 19.7795 88.3129 15.4743 88.1306 11.1725C88.0613 9.57034 88.3416 8.1758 87.0534 7.16113C84.6695 5.28712 75.6388 6.36256 72.8649 6.27477C61.1363 5.90841 49.3992 5.9101 37.6705 6.26971C37.3514 6.23763 37.0154 6.33724 36.7217 6.64114C29.6257 13.9853 22.0824 20.9546 15.4558 28.736C15.3646 28.8221 15.2937 28.9217 15.2363 29.0314C15.1165 29.2138 15.027 29.4248 15.0236 29.6983C14.8987 46.1981 15.287 62.7064 15.7833 79.1977C15.9319 84.1022 15.5064 89.5234 16.3438 94.3806C16.6866 96.3627 16.5684 96.3323 18.3918 96.9789C21.4982 98.0797 26.5345 97.3166 29.749 97.4027C36.406 97.58 43.063 97.6965 49.7216 97.7589C62.2539 97.8788 75.0141 98.257 87.4991 96.9215C88.2352 96.8422 88.6911 96.4015 88.7654 95.6553C91.129 72.1423 89.1554 47.6551 88.5273 24.083Z" fill="#2F8FFF"/>
</g>
</svg>
