<svg width="104" height="104" viewBox="0 0 104 104" fill="none" xmlns="http://www.w3.org/2000/svg">
<mask id="mask0_279_946" style="mask-type:alpha" maskUnits="userSpaceOnUse" x="0" y="0" width="104" height="104">
<rect width="104" height="104" fill="#C4C4C4"/>
</mask>
<g mask="url(#mask0_279_946)">
<path d="M79.0297 48.6754C80.2111 54.5966 80.7022 60.75 81.2645 66.7817C81.6567 70.9889 83.0634 74.709 79.9194 77.0842C75.6393 80.3211 69.9347 82.0988 65.1457 84.0769C61.206 85.7047 56.665 88.1473 52.4481 88.5182C48.5051 88.8666 44.0953 86.4652 40.436 84.991C35.1624 82.8649 29.8581 80.6208 24.7791 77.9272C20.1392 75.4658 21.1764 69.9174 21.5637 64.6874C21.9624 59.2814 22.7435 53.9391 23.4372 48.5799C24.1875 48.8965 24.9427 49.2036 25.6882 49.5296C27.7173 50.4119 29.7625 51.2342 31.8191 52.0247C31.8174 52.1314 31.8029 52.2101 31.8029 52.3225C31.7915 55.8123 31.858 59.495 32.08 63.0091C28.1111 64.1817 29.0138 71.2829 29.1191 75.0218C29.171 76.8238 31.6019 76.8332 31.55 75.0218C31.5112 73.6263 31.0088 68.2521 32.0508 66.3471C32.3944 69.5334 32.336 72.7515 32.3312 75.9584C32.3296 77.7661 34.7605 77.7698 34.7621 75.9584C34.767 72.5155 34.7832 69.1082 34.4088 65.6971C36.2142 66.5812 35.7572 73.7237 35.7378 75.0218C35.7102 76.8295 38.1412 76.8295 38.1687 75.0218C38.2157 72.0135 38.4653 69.0033 37.5172 66.1261C36.9792 64.4926 35.8933 63.0802 34.4996 62.8124C34.4137 60.7537 34.4688 58.712 34.4445 56.6421C34.4315 55.3346 34.5401 54.1807 34.7589 53.1149C35.929 53.5476 37.0958 53.9897 38.2676 54.4111C42.055 55.7729 46.4096 58.0526 50.3332 58.6089C53.1579 59.0098 55.4317 57.7641 58.096 56.6664C62.4279 54.8832 66.7809 53.1655 71.1372 51.4646C73.7659 50.44 76.3945 49.4135 79.0232 48.3907C79.0264 48.4862 79.0086 48.5705 79.0297 48.6754ZM28.1759 28.5498C34.8497 25.4853 43.4682 20.3153 50.6783 20.2067C58.2629 20.0924 67.2769 25.7101 74.3055 28.8645C81.2661 31.9909 87.9367 35.653 94.7174 39.1671C87.7535 42.0256 80.7573 44.7642 73.7513 47.4859C69.3983 49.1793 65.0452 50.8745 60.7101 52.626C56.3846 54.3737 53.1871 56.3686 48.5488 55.108C44.1991 53.9241 39.825 52.4724 35.4558 50.8727C36.2045 49.1699 37.3924 47.6901 39.1119 46.1953C43.3272 42.5332 47.5927 38.9535 51.8938 35.4301C53.1612 34.3942 51.9489 31.9553 50.6686 33.0043C45.0483 37.6048 38.3291 42.0537 33.4608 47.6995C32.8514 48.4057 32.4608 49.0107 32.2064 49.672C24.0271 46.5231 15.9223 42.8498 8.10276 39.1821C14.6436 35.2634 21.3206 31.6949 28.1759 28.5498ZM98.5988 38.1162C90.6869 34.0982 83.0326 29.7843 74.9522 26.1559C70.7061 24.2509 66.439 22.4077 62.1297 20.7012C58.5951 19.3019 54.1303 16.8312 50.3542 17.0091C46.8002 17.1777 42.8685 19.4368 39.5673 20.7386C35.5222 22.3327 31.503 24.0205 27.5293 25.8393C19.8199 29.3703 12.3115 33.3939 4.98628 37.8821C4.68484 37.9196 4.4466 38.1181 4.2894 38.4066C3.81294 38.9816 3.96852 39.8508 4.43851 40.3453H4.44013C4.49361 40.4034 4.55681 40.4371 4.61678 40.4821C4.70105 40.5533 4.77398 40.6338 4.88256 40.6844C10.2096 43.2001 15.6905 45.3524 21.1245 47.6021C20.5557 51.9984 19.922 56.3798 19.4812 60.7968C19.0226 65.3693 17.833 71.8992 19.405 76.3593C20.4471 79.3208 22.9575 80.0757 25.3706 81.2727C30.1028 83.6179 34.9274 85.7402 39.7893 87.6996C43.3515 89.1363 47.5311 91.3411 51.372 91.4179C54.7704 91.4853 58.4201 89.6777 61.5852 88.4639C66.5962 86.5438 71.5602 84.4084 76.4156 82.0144C78.4463 81.0142 82.5513 79.7498 83.8478 77.4326C85.3744 74.7053 83.9045 68.9771 83.6225 66.0193C83.0488 60.0045 82.5529 53.8342 81.3731 47.928C81.3423 47.7688 81.2791 47.6527 81.2175 47.5346C86.9302 45.3037 92.6365 43.054 98.3087 40.6844C99.1741 40.3228 99.6441 38.6482 98.5988 38.1162Z" fill="#4D4E4E"/>
<path d="M80.253 37.3232C80.817 37.5836 81.3842 37.9208 81.8704 38.346C82.0081 38.4472 82.1281 38.5708 82.2334 38.7113C82.1118 38.8143 81.9741 38.8986 81.8493 38.9791C80.6679 39.734 79.3471 40.2623 78.0732 40.768C76.6033 41.3525 77.2338 44.0667 78.7199 43.4785C79.9191 43.0009 81.099 42.4633 82.2545 41.8563C83.1507 41.3862 84.1198 40.8692 84.5541 39.7771C85.6043 37.1303 82.5705 35.3826 80.8996 34.6146C79.4459 33.944 78.8155 36.662 80.253 37.3232Z" fill="#4D4E4E"/>
<path d="M77.0172 35.6937C78.5811 35.6937 78.5843 32.8839 77.0172 32.8839C75.4516 32.8839 75.4484 35.6937 77.0172 35.6937Z" fill="#4D4E4E"/>
</g>
</svg>
