<svg width="104" height="104" viewBox="0 0 104 104" fill="none" xmlns="http://www.w3.org/2000/svg">
<mask id="mask0_279:945" style="mask-type:alpha" maskUnits="userSpaceOnUse" x="0" y="0" width="104" height="104">
<rect width="104" height="104" fill="#C4C4C4"/>
</mask>
<g mask="url(#mask0_279:945)">
<path d="M44.5966 93.9902C39.855 93.8854 29.0686 95.2385 25.3938 90.6358C22.8897 87.5022 25.3453 82.7221 28.347 81.4964C32.9388 79.6224 38.8483 79.9933 43.6739 79.9401C53.7359 79.8288 63.8136 79.9192 73.8813 80.045C73.3537 80.5917 72.9088 81.219 72.5508 81.9189C59.132 82.6382 45.6604 81.5916 32.2401 82.077C30.8668 82.127 30.8626 84.5461 32.2401 84.4961C45.3866 84.0203 58.583 85.0057 71.7323 84.3703C71.6553 84.8444 71.6068 85.3299 71.6096 85.8362C71.6096 85.9975 71.6424 86.1507 71.651 86.3104C57.3637 86.7023 43.0978 86.6217 28.8034 86.2959C27.4273 86.2636 27.4273 88.6827 28.8034 88.715C43.2347 89.0456 57.6389 89.1246 72.0645 88.7214C72.2371 89.2939 72.4481 89.8487 72.7077 90.3761C60.6549 90.6003 48.6065 90.5761 36.5552 90.3729C35.1777 90.3503 35.1763 92.7694 36.5552 92.792C49.0315 93.0032 61.5049 93.0274 73.9811 92.7758C74.0866 92.7742 74.1694 92.7339 74.2592 92.7065C74.6556 93.171 75.0749 93.608 75.5298 94.0047C65.2268 94.2999 54.8881 94.2144 44.5966 93.9902ZM25.4066 19.2305C25.4736 18.1887 25.3567 16.6308 25.7545 15.6503C28.049 9.98957 40.0005 11.1007 44.4682 10.9443C53.676 10.625 62.8895 11.0362 72.1002 10.9362C74.9508 10.9056 78.7768 9.74121 79.6396 13.0876C80.1772 15.1729 79.6453 18.3758 79.6481 20.5401C79.6524 27.6361 79.6581 34.7337 79.6624 41.8313C79.6681 53.7445 80.093 65.7787 79.6738 77.692C64.471 77.4501 48.7691 76.3292 33.659 78.1016C30.6529 78.4548 26.8084 79.4611 24.3699 81.6367C25.1627 60.8696 24.0961 39.9896 25.4066 19.2305ZM79.5297 93.8822C79.4713 93.8354 79.4314 93.7806 79.3558 93.7451C76.9444 92.592 74.7326 90.6051 73.9996 87.6361C73.1298 84.1268 75.1006 80.5562 78.4161 80.1707C78.4859 80.1611 78.5387 80.124 78.6014 80.1046C78.9408 80.1094 79.2802 80.1143 79.6196 80.1175C79.5483 84.7057 79.2674 89.3004 79.5569 93.8806C79.5483 93.8822 79.5397 93.8822 79.5297 93.8822ZM81.8014 42.4845C81.7971 34.545 81.7914 26.6071 81.7843 18.6677C81.7815 14.452 83.0435 8.92194 78.2449 8.43812C69.0699 7.51403 59.1362 8.32523 49.9284 8.41232C44.096 8.46715 38.1467 8.52844 32.3642 9.47512C29.6704 9.917 26.2166 10.6395 24.4996 13.357C22.6986 16.2034 23.1677 20.8013 23.0437 24.0961C22.767 31.3953 22.643 38.7042 22.5246 46.0099C22.3093 59.2375 22.7342 72.6215 22.0626 85.833C21.8929 87.12 22.0569 88.5956 22.6943 90.3035C24.6308 95.4917 31.4872 95.6417 35.6283 95.9965C50.5031 97.2657 65.8086 96.9012 80.7048 96.2658C80.8474 96.2593 80.9672 96.2142 81.0798 96.1626C81.4962 96.0497 81.8299 95.6933 81.7743 95.0562C81.3108 89.6891 81.7429 84.2993 81.7743 78.9225C82.262 66.8254 81.8085 54.5912 81.8014 42.4845Z" fill="white"/>
<path d="M59.6832 24.1126C63.7602 24.0965 66.377 23.2434 67.2354 28.4718C67.5905 30.628 67.4022 33.4132 67.3794 35.5985C67.3523 38.1869 67.7573 39.7448 65.8293 41.3914C63.6461 43.2541 60.2123 42.172 57.5641 42.2123C53.798 42.2687 50.0333 42.3413 46.2687 42.4058C42.1147 42.4784 38.6893 43.5928 38.0105 38.0176C37.8023 36.3081 37.5386 25.0496 38.8733 24.1981C45.8109 24.1852 52.747 24.14 59.6832 24.1126ZM36.9154 44.6798C40.4333 45.6829 44.6801 44.8523 48.3221 44.7894C52.9381 44.7104 57.6925 44.275 62.3042 44.6378C64.0212 44.7717 67.0415 46.1812 68.6771 44.5185C70.2372 42.9348 69.4971 37.4886 69.5185 35.5985C69.5513 32.7423 70.3028 25.1786 68.804 22.7821C67.9341 21.3952 66.7563 21.7435 65.2803 21.6774C56.5246 21.2855 47.6761 21.7532 38.9118 21.7758C38.7435 21.7322 38.561 21.7258 38.3471 21.8225C38.3228 21.8338 38.3072 21.8484 38.2815 21.8596C38.1974 21.8919 38.1246 21.937 38.0562 21.9903C35.9642 23.1143 36.2294 25.019 36.1111 27.7735C35.8986 32.7294 34.9689 39.0288 36.1696 43.8363C36.2694 44.2363 36.5546 44.5782 36.9154 44.6798Z" fill="white"/>
</g>
</svg>
