<svg width="104" height="104" viewBox="0 0 104 104" fill="none" xmlns="http://www.w3.org/2000/svg">
<mask id="mask0_279:940" style="mask-type:alpha" maskUnits="userSpaceOnUse" x="0" y="0" width="104" height="104">
<rect width="104" height="104" fill="#C4C4C4"/>
</mask>
<g mask="url(#mask0_279:940)">
<mask id="mask1_279:940" style="mask-type:alpha" maskUnits="userSpaceOnUse" x="3" y="3" width="98" height="98">
<rect x="3" y="3" width="98" height="98" fill="#C4C4C4"/>
</mask>
<g mask="url(#mask1_279:940)">
<path d="M65.9565 72.3125C63.2122 73.7761 57.2049 73.1127 54.1058 73.1779C50.1461 73.2623 41.5791 74.2598 38.2923 71.9911C35.3777 69.9786 36.1923 63.9443 36.1461 60.8007C36.0968 57.358 35.0452 52.1128 39.4075 51.2362C46.0877 50.9928 52.7854 51.0803 59.4688 51.0453C62.641 51.0294 66.149 50.2196 67.7494 53.5351C69.5328 57.2291 70.1437 70.0836 65.9565 72.3125ZM45.7059 48.7178C45.4482 43.3406 46.2404 36.724 53.3358 37.4001C59.3065 37.9697 59.1251 43.6572 59.219 48.4617C57.8158 48.5619 56.5129 48.6717 55.5456 48.6765C52.2684 48.6908 48.9863 48.6844 45.7059 48.7178ZM52.0472 32.1629C55.4343 31.9465 59.2826 32.1486 61.7676 34.8133C64.819 38.0858 64.4229 43.9133 64.4149 48.3678C63.5097 48.3042 62.5679 48.293 61.6069 48.328C61.5576 45.0635 61.661 41.3424 60.0383 38.466C58.6908 36.0781 55.8797 35.2286 53.3358 35.0138C44.7704 34.2915 43.0363 41.9963 43.3291 48.7433C42.4159 48.7608 41.5059 48.791 40.5943 48.818C40.0932 40.1365 41.6745 32.8199 52.0472 32.1629ZM68.1328 49.3176C67.7526 49.0726 67.2944 48.8912 66.7949 48.7433C66.744 43.7574 67.2006 37.5672 63.8692 33.6265C60.9101 30.1233 56.3617 29.5013 52.0472 29.7765C40.3366 30.5179 37.578 38.4994 38.2239 49.0678C34.8193 49.8999 33.965 52.0921 33.7932 55.5364C33.5657 60.123 32.9691 66.2909 34.3643 70.7455C35.8821 75.5977 41.8336 75.1984 45.9381 75.4052C52.5563 75.7377 59.3908 75.7107 65.9565 74.6989C71.2367 73.8875 70.9996 69.8577 71.0824 65.015C71.146 61.4387 71.8492 51.6976 68.1328 49.3176Z" fill="white"/>
<path d="M49.2645 67.9098C49.7004 66.0533 50.1219 64.1935 50.4926 62.321C50.499 62.2892 50.4894 62.2637 50.4926 62.2319C50.5547 61.9758 50.5101 61.6942 50.262 61.4508C47.8199 59.0517 51.4774 55.2988 54.1119 57.4926C55.0728 58.2928 55.9097 60.5344 54.4969 61.5144C54.1692 61.7419 53.9703 62.1237 54.0849 62.5246C54.5892 64.3033 55.0378 66.0946 55.5437 67.8717C53.4517 67.8542 51.3581 67.9512 49.2645 67.9098ZM55.9574 62.5962C58.4042 60.1733 56.4633 55.7076 53.2115 55.0522C48.9463 54.1947 45.9506 59.0692 48.6615 62.3274C48.2431 64.4099 47.7976 66.4812 47.2949 68.543C47.1517 69.1301 47.5686 69.6455 48.1588 69.6757C51.016 69.8221 53.8717 69.5628 56.7274 69.6757C57.2985 69.6996 57.7583 69.0855 57.5912 68.543C56.9835 66.5767 56.5047 64.5785 55.9574 62.5962Z" fill="white"/>
<path d="M84.4713 90.3447C84.4808 90.7599 84.5094 91.5999 84.3742 92.0469C84.3567 92.0533 84.3535 92.0501 84.336 92.0581C83.1142 92.6276 80.7183 92.3285 79.3804 92.3969C75.0309 92.6196 70.6718 92.696 66.3175 92.7422C56.4555 92.8472 46.5903 92.739 36.7299 92.5322C32.0272 92.4319 25.5426 93.3515 20.8097 92.1583C20.7572 91.9372 20.6999 91.5569 20.7349 90.8792C20.8145 89.2708 20.5949 87.594 20.5361 85.9872C20.3452 80.7913 20.1924 75.5938 20.0556 70.3963C19.7215 57.6659 19.467 44.9276 19.5418 32.1924C23.2263 32.2926 26.9061 32.2401 30.5874 32.0317C32.5935 31.9188 36.9383 32.5424 38.5626 31.0485C40.031 29.6995 39.2419 25.6474 39.2849 23.899C39.3946 19.6895 39.5012 15.4784 39.6094 11.2689C53.0573 10.8775 66.5704 10.8679 80.004 11.6507C81.2004 11.7207 82.3967 11.8066 83.5899 11.9195C83.356 13.8318 83.7522 16.0654 83.8126 17.9936C84.3519 35.0369 84.6972 52.0946 84.7672 69.1475C84.7974 76.1984 84.3185 83.3065 84.4713 90.3447ZM36.7267 29.2095C35.971 30.1592 28.8788 29.7424 27.5122 29.7933C25.3311 29.876 23.1547 29.8776 20.9784 29.8426C26.1297 24.0327 31.7265 18.6172 37.1769 13.0873C37.1196 15.3384 37.0608 17.5895 37.0035 19.8422C36.9621 21.4649 36.9208 23.0877 36.8794 24.712C36.8635 25.299 37.1419 28.6876 36.7267 29.2095ZM86.4201 25.6936C86.3119 21.6384 86.2181 17.5816 86.0463 13.5279C85.981 12.0182 86.2451 10.7041 85.0313 9.74795C82.7849 7.98205 74.2752 8.99546 71.6613 8.91273C60.6093 8.5675 49.5494 8.56909 38.4974 8.90796C38.1967 8.87773 37.8801 8.97159 37.6033 9.25796C30.9167 16.1784 23.8086 22.7456 17.5643 30.0781C17.4784 30.1592 17.4115 30.2531 17.3575 30.3565C17.2445 30.5283 17.1602 30.7272 17.157 30.9849C17.0393 46.5328 17.4052 62.0886 17.8729 77.6286C18.0129 82.2502 17.612 87.3585 18.4011 91.9356C18.724 93.8033 18.6127 93.7746 20.3308 94.384C23.2581 95.4212 28.0038 94.7021 31.0329 94.7833C37.3058 94.9503 43.5787 95.0601 49.8532 95.119C61.6625 95.2319 73.6865 95.5883 85.4513 94.3299C86.1449 94.2551 86.5744 93.8399 86.6444 93.1367C88.8717 70.9802 87.0119 47.9057 86.4201 25.6936Z" fill="white"/>
</g>
</g>
</svg>
