<svg width="104" height="104" viewBox="0 0 104 104" fill="none" xmlns="http://www.w3.org/2000/svg">
<mask id="mask0_279:941" style="mask-type:alpha" maskUnits="userSpaceOnUse" x="0" y="0" width="104" height="104">
<rect width="104" height="104" fill="#C4C4C4"/>
</mask>
<g mask="url(#mask0_279:941)">
<path d="M88.3811 83.6629C88.3037 84.4315 88.2935 84.9125 88.31 85.2127C88.2516 85.1715 88.1736 85.1442 88.0688 85.1448C87.7166 85.1474 86.0298 83.7118 85.7848 83.5398C81.9021 80.835 77.6958 78.3009 74.2307 75.0554C74.3392 71.5383 74.3576 68.018 74.2637 64.5002C74.2624 64.4577 74.2637 64.4056 74.263 64.3618C76.8536 62.2606 79.5241 60.2665 82.1534 58.2154C82.6846 57.801 86.6263 54.2667 87.0287 54.3524C88.4388 54.6513 88.2281 57.9533 88.2345 58.8018C88.2795 64.9501 88.4852 71.0991 88.5125 77.2474C88.5213 79.3696 88.5924 81.5515 88.3811 83.6629ZM71.0213 66.6199C71.0861 70.8611 70.9915 75.1043 70.7725 79.3398C70.6704 81.3104 71.1375 84.7526 69.099 85.9483C68.5393 86.277 66.4926 86.2706 65.863 86.3011C58.408 86.6609 51.5762 86.7181 44.1116 86.6984C40.4923 86.6882 36.873 86.6153 33.2556 86.4985C28.3251 86.3398 23.5983 87.2435 21.9235 81.5426C21.042 78.5408 19.8178 53.7292 23.75 53.4271C33.3622 53.3021 42.9743 53.2075 52.5865 53.1288C57.027 53.0927 60.4705 52.8617 64.9111 52.8578C65.7196 52.8566 68.7899 52.6433 69.4722 53.0616C71.9593 54.5859 70.982 64.0452 71.0213 66.6199ZM47.6573 36.853C49.1322 43.1429 54.1413 48.1939 60.428 49.7868C51.156 49.8408 41.884 49.9322 32.6127 50.0394C39.5708 48.8133 45.7756 43.6963 47.6573 36.853ZM15.4059 31.8128C16.3064 23.8031 23.6009 18.9938 31.0642 18.3014C38.4342 17.9314 45.2609 25.971 44.9836 33.1499C44.6802 41.0149 36.925 47.2179 29.3329 47.0421C21.3505 46.8567 14.4793 40.0497 15.4059 31.8128ZM50.6115 31.8128C51.5127 23.8031 58.8065 18.9938 66.2698 18.3014C73.6398 17.9314 80.4666 25.971 80.1899 33.1499C79.8859 41.0149 72.1313 47.2179 64.5392 47.0421C56.5568 46.8567 49.6849 40.0497 50.6115 31.8128ZM91.758 74.4608C91.6482 68.124 92.3234 61.2604 91.4159 54.9927C91.0047 52.1528 89.4409 49.9868 86.3198 51.0713C83.9901 51.8811 81.9021 54.2674 80.023 55.734C78.1432 57.2 76.2539 58.6508 74.3773 60.1174C74.4832 55.9003 74.2186 50.8772 70.6056 49.8732C70.2674 49.7792 69.912 49.7107 69.5496 49.6536C76.7394 47.6862 82.7722 41.588 83.4049 33.8982C84.1576 24.7512 75.7081 14.5425 66.2698 15.0159C58.1389 15.7699 49.8747 20.6857 47.7487 28.8992C45.8581 21.4073 38.7946 14.6275 31.0642 15.0159C22.0771 15.8492 12.9003 21.7519 12.0613 31.5894C11.2801 40.7509 18.0586 48.7556 26.8134 50.1061C25.7923 50.1188 24.7718 50.1283 23.75 50.141C23.5914 50.1429 23.4486 50.1689 23.3134 50.2051C17.4062 50.9768 18.4496 57.4539 18.2116 62.3475C17.8644 69.4776 16.5895 79.2827 19.4409 86.0511C21.6983 91.4118 30.5787 89.7148 35.1366 89.8417C43.2371 90.067 51.3356 89.9991 59.4336 89.6799C62.3142 89.5663 70.5542 90.6528 72.8408 88.1276C74.5182 86.2744 73.9432 81.5585 74.0587 79.3398C74.0599 79.3075 74.0612 79.2757 74.0625 79.2434C76.4798 81.1853 79.1154 82.9007 81.6375 84.6536C84.1804 86.421 86.7996 89.3277 90.0464 88.714C90.6213 88.6048 91.0161 88.0825 91.1938 87.5659C92.5183 83.7131 91.8284 78.53 91.758 74.4608Z" fill="white"/>
<path d="M30.5089 56.9984C28.5663 59.2108 26.7589 61.5329 25.0885 63.9566C24.1861 65.2658 26.321 66.4995 27.2165 65.2004C28.7688 62.9475 30.4461 60.7973 32.251 58.7411C33.2937 57.5537 31.5574 55.804 30.5089 56.9984Z" fill="white"/>
<path d="M32.3315 62.9327C31.37 63.7171 30.5266 64.6424 29.7174 65.5797C29.2834 66.0836 29.2224 66.8274 29.7174 67.3231C30.1617 67.7673 31.0235 67.8289 31.4601 67.3231C32.2687 66.3851 33.1127 65.4592 34.0742 64.6754C34.5902 64.2546 34.5115 63.3699 34.0742 62.9327C33.564 62.4224 32.8494 62.5113 32.3315 62.9327Z" fill="white"/>
<path d="M25.3487 32.1879C25.8336 29.822 27.9076 28.6308 30.1904 28.9138C32.3481 28.9963 34.7705 31.1947 34.6588 33.4762C34.5109 36.4761 31.65 37.7327 29.1108 37.2256C26.5793 36.7204 24.7884 34.9225 25.3487 32.1879ZM37.1231 33.4762C37.2189 29.8042 33.7088 26.5841 30.1904 26.4489C26.4524 25.9863 23.1453 28.7437 22.8242 32.4963C22.4586 36.7725 25.6876 39.358 29.6554 39.7984C33.3686 40.2116 37.0203 37.4058 37.1231 33.4762Z" fill="white"/>
<path d="M60.7353 32.2535C61.2525 29.5328 63.8279 28.1861 66.3753 29.0333C68.4613 29.5537 70.4541 32.0973 69.9089 34.356C69.3232 36.7841 66.6152 37.9512 64.4352 37.2575C62.1423 36.5271 60.2403 34.8574 60.7353 32.2535ZM63.7797 39.6342C67.3012 40.7715 71.3312 38.7312 72.285 35.0116C73.19 31.4849 70.4274 27.5039 67.0303 26.6566C63.3265 25.4242 59.4534 27.4931 58.4424 31.2863C57.3521 35.3765 60.0525 38.4297 63.7797 39.6342Z" fill="white"/>
</g>
</svg>
