<svg width="104" height="104" viewBox="0 0 104 104" fill="none" xmlns="http://www.w3.org/2000/svg">
<mask id="mask0_279:943" style="mask-type:alpha" maskUnits="userSpaceOnUse" x="0" y="0" width="104" height="104">
<rect width="104" height="104" fill="#C4C4C4"/>
</mask>
<g mask="url(#mask0_279:943)">
<path d="M24.9323 50.6524C27.4405 50.3234 29.9054 50.848 32.3895 51.1515C33.4446 51.2798 35.639 50.793 36.3106 51.8543C36.8739 52.7456 36.2954 57.5807 36.289 58.6553C36.2665 62.3609 36.236 66.0664 36.2103 69.772C36.1951 72.0413 36.1814 74.3107 36.1694 76.5811C36.1493 80.3529 35.2387 81.0027 32.2001 80.966C30.3627 80.9436 26.5523 81.7921 24.349 80.7929C24.9612 80.1379 25.5301 79.4188 26.0436 78.6305C26.7785 77.5019 25.5076 75.8722 24.767 77.0099C24.2062 77.8706 23.5827 78.6335 22.9047 79.318C22.8863 79.2691 22.8582 79.2304 22.8422 79.1795C22.5533 78.2953 22.4442 76.9458 22.4185 75.5381C23.4182 74.4391 24.4188 73.34 25.4194 72.241C26.2987 71.2733 25.0174 69.6589 24.1428 70.6204C23.5852 71.2326 23.0275 71.8448 22.4707 72.4569C22.5003 71.8285 22.5349 71.2448 22.5662 70.7763C22.5613 70.0959 22.5774 69.4196 22.5878 68.7422C23.7841 67.2948 25.0246 65.9126 26.3212 64.6119C27.2327 63.6982 25.9473 62.0869 25.0446 62.9924C24.2343 63.8052 23.4487 64.6557 22.6777 65.5255C22.713 64.6618 22.7475 63.798 22.7884 62.9343C23.8844 61.7945 24.9805 60.6547 26.0765 59.515C26.9759 58.5799 25.6922 56.9665 24.7999 57.8944C24.1741 58.5453 23.5482 59.1962 22.9224 59.847C22.9433 59.3347 22.9673 58.8234 22.9842 58.31C22.997 57.9026 22.9978 57.4911 22.9954 57.0796C23.9534 56.1812 24.9114 55.2839 25.8695 54.3855C26.7938 53.5197 25.8943 51.5294 24.958 52.4074C24.2944 53.0287 23.6301 53.6511 22.9665 54.2734C22.9697 53.8813 22.9769 53.4902 22.9994 53.1031C23.1246 50.9468 23.1551 50.8867 24.9323 50.6524ZM31.1217 83.9555C34.4475 84.0126 38.1882 84.5392 38.5629 79.374C39.0194 73.0813 38.6455 66.4565 38.6864 60.1282C38.7065 57.0694 40.0593 49.9333 37.0504 48.4849C35.3374 47.6599 32.5451 48.0704 30.6981 47.8004C28.8944 47.5376 27.1364 47.5172 25.3215 47.5865C22.1497 47.7067 20.5667 47.9328 20.5514 52.2943C20.5289 58.4557 20.1149 64.6139 20.1591 70.7763C19.9681 73.6181 19.5966 79.321 20.8515 81.7432C22.7298 85.3683 28.4443 83.9097 31.1217 83.9555Z" fill="white"/>
<path d="M48.0589 36.1564C49.1798 34.0449 55.4711 35.698 57.0542 35.9251C58.8467 36.1818 60.7579 35.4189 61.4399 37.4265C62.0465 39.2131 61.4134 43.49 61.4062 45.3917C61.3821 51.388 61.3613 57.3844 61.3388 63.3807C61.3276 66.3141 61.3163 69.2486 61.3051 72.1831C61.2987 73.7293 61.9526 78.5033 61.2449 79.8071C60.5364 81.1119 54.7747 81.0793 51.6158 80.8562C52.4895 80.0556 53.3633 79.255 54.2363 78.4544C55.1702 77.5999 54.27 75.6106 53.3256 76.4754C51.8974 77.7842 50.47 79.0931 49.0418 80.402C48.3614 80.0424 48.0396 79.416 47.8912 78.6337C49.6291 76.9623 51.3325 75.2358 52.9894 73.4339C53.8728 72.4734 52.5914 70.858 51.7128 71.8134C50.4275 73.2109 49.1092 74.5564 47.7725 75.8724C47.7765 75.4242 47.7781 74.9689 47.7588 74.5126C47.7388 74.0461 47.7211 73.5857 47.7026 73.1243C49.3042 70.8906 51.0653 68.8809 53.0039 67.13C53.9434 66.2826 53.0424 64.2933 52.0932 65.1509C50.4932 66.5963 48.9969 68.1903 47.6096 69.9403C47.5975 69.1427 47.6024 68.3421 47.62 67.5385C49.0233 65.6154 50.5286 63.8298 52.1445 62.194C53.052 61.2753 51.7674 59.6629 50.868 60.5735C49.7551 61.7 48.6984 62.9019 47.6866 64.165C47.6858 62.9549 47.6914 61.7448 47.7099 60.5348C48.9961 58.8378 50.4034 57.3293 51.9632 56.0398C52.9324 55.2372 52.029 53.252 51.0517 54.0608C49.8883 55.0233 48.7979 56.104 47.77 57.2774C47.7933 56.3301 47.819 55.3839 47.8463 54.4366C49.1549 52.6643 50.5912 51.0824 52.179 49.7196C53.1363 48.8976 52.2336 46.9114 51.2675 47.7405C50.0881 48.753 48.9816 49.8785 47.9401 51.0987C47.9538 50.6282 47.9674 50.1566 47.9811 49.686C47.9947 49.1818 48.0059 48.6776 48.0196 48.1734C49.1645 46.393 50.4692 44.8101 51.96 43.4951C52.9076 42.6589 52.0057 40.6717 51.0485 41.5161C49.9862 42.4531 49.0081 43.5074 48.1022 44.6573C48.1167 43.9199 48.1239 43.1824 48.1319 42.445C49.1822 41.0821 50.3151 39.8456 51.5556 38.7639C52.5072 37.9348 51.6053 35.9475 50.6441 36.7858C49.7318 37.5813 48.8677 38.4522 48.0461 39.3852C47.9402 38.1487 47.8254 36.5974 48.0589 36.1564ZM45.7826 81.0773C46.9661 84.5312 50.6939 83.7449 53.0608 83.6665C55.5193 83.586 60.6496 84.7513 62.7317 82.7202C64.8106 80.6912 63.7074 73.489 63.7186 70.6349C63.7451 63.8064 63.7692 56.978 63.7948 50.1495C63.8069 46.8259 63.8205 43.5023 63.8342 40.1787C63.8414 38.6417 64.2249 35.9109 63.4931 34.5002C62.2142 32.0383 57.4746 32.8684 55.4976 32.5832C53.45 32.2878 48.4552 31.4058 46.6146 33.1394C44.6561 34.984 45.7513 41.7177 45.7023 44.365C45.5708 51.4838 45.2105 58.5995 45.2779 65.7223C45.1046 68.6813 45.2266 71.5567 45.3517 74.5126C45.4328 76.4306 45.1511 79.2337 45.7826 81.0773Z" fill="white"/>
<path d="M73.8835 16.9131C74.34 14.5011 77.7589 15.1122 79.5947 15.2192C81.108 15.3078 84.9393 15.2008 86.2182 15.9576C87.6673 16.8163 87.2404 18.4002 87.2308 20.5646C87.2084 25.7797 87.1875 30.9947 87.1658 36.2098C87.1169 48.3328 87.0696 60.4558 87.0174 72.5789C87.011 74.235 87.5566 77.853 87.011 79.3625C86.1292 81.803 81.7306 81.0044 80.0264 80.9382C79.0403 80.9006 77.8801 81.0279 76.8169 80.9515C77.1852 80.5227 77.5487 80.0867 77.8881 79.6151C78.6704 78.5283 77.397 76.9037 76.6115 77.9946C76.021 78.8145 75.3759 79.5642 74.6923 80.2568C74.5069 80.1081 74.3417 79.9268 74.198 79.7129C75.0485 78.509 75.9311 77.3427 76.8611 76.2355C77.71 75.2241 76.4318 73.6056 75.5845 74.615C74.8736 75.4614 74.194 76.3475 73.5289 77.251C73.4422 76.5543 73.3772 75.8352 73.3347 75.0937C74.3898 73.9916 75.4449 72.8895 76.5 71.7874C77.3979 70.8503 76.1149 69.2369 75.2235 70.1669C74.5679 70.8513 73.9124 71.5358 73.2569 72.2203C73.2577 71.7558 73.2641 71.2914 73.2729 70.8279C74.8728 69.3194 76.447 67.7712 77.9948 66.1792C78.8975 65.2502 77.6137 63.6368 76.7183 64.5586C75.6198 65.6892 74.5029 66.7883 73.3764 67.872C73.4125 67.1315 73.451 66.4053 73.4912 65.7218C73.4871 65.3602 73.4919 64.9986 73.4887 64.6381C74.7027 63.2518 75.9785 61.9694 77.3272 60.8001C78.2812 59.9741 77.3794 57.9868 76.4166 58.821C75.3992 59.7031 74.4283 60.6616 73.4799 61.6567C73.4783 60.8398 73.4703 60.023 73.4727 59.2061C74.5735 58.1447 75.6728 57.0823 76.7463 55.9782C77.6498 55.0493 76.3652 53.4369 75.4698 54.3577C74.8207 55.0248 74.1507 55.6584 73.4912 56.3092C73.4992 55.3966 73.5104 54.485 73.5216 53.5724C74.7132 52.1362 75.9753 50.8151 77.3289 49.6305C78.2789 48.7983 77.3778 46.8111 76.4182 47.6514C75.4208 48.5243 74.4765 49.4818 73.557 50.4789C73.5786 49.1344 73.6035 47.7899 73.6275 46.4454C74.4877 45.4279 75.3791 44.4552 76.3219 43.5629C76.7158 43.1901 76.906 42.5759 76.646 41.9953C76.4254 41.5033 75.8011 41.2151 75.4112 41.5838C74.8207 42.142 74.2446 42.7215 73.6821 43.3194C73.6933 42.6889 73.7022 42.0585 73.7134 41.428C75.0686 40.115 76.4872 38.9162 77.9619 37.8294C78.9665 37.0889 78.0582 35.1067 77.0504 35.8503C75.9167 36.6865 74.8247 37.5961 73.7608 38.5586C73.776 37.6531 73.7937 36.7476 73.8057 35.8421C73.8073 35.7403 73.8089 35.6384 73.8105 35.5366C74.8343 34.3744 75.8581 33.2132 76.8819 32.051C77.7501 31.0661 76.4695 29.4496 75.6054 30.4305C75.0213 31.0936 74.4363 31.7567 73.8522 32.4197C73.8683 31.2718 73.8851 30.1239 73.8988 28.976C74.7188 27.9116 75.5781 26.9032 76.5048 25.9865C76.8924 25.6035 76.8161 24.7693 76.5048 24.3659C76.1293 23.878 75.611 23.988 75.2283 24.3659C74.7781 24.811 74.3505 25.2867 73.926 25.7664C73.9349 24.7723 73.9437 23.7782 73.9485 22.7841C75.1215 21.6616 76.2657 20.4923 77.3642 19.2537C78.2347 18.2718 76.9542 16.6564 76.0876 17.6332C75.3783 18.4328 74.6474 19.1977 73.9044 19.9464C73.8305 18.9023 73.727 17.7432 73.8835 16.9131ZM71.2839 78.3938C71.4403 80.8537 71.6722 82.3612 73.6035 83.3145C75.5292 84.2659 77.9916 83.9165 80.0264 83.9939C82.4905 84.0897 85.2827 84.3107 87.6031 82.9998C90.6697 81.2662 89.4157 74.7637 89.4309 71.107C89.4622 63.6002 89.4927 56.0933 89.5232 48.5875C89.5537 40.9808 89.5841 33.3752 89.6162 25.7685C89.6299 22.5396 90.9353 14.5286 87.9754 13.1026C85.9166 12.1115 82.744 12.4925 80.5062 12.2439C78.4738 12.0178 75.5147 11.752 73.5072 12.4497C70.309 13.5599 71.5655 19.3882 71.5462 22.7281C71.4668 37.0532 70.91 51.3967 71.0841 65.7218C70.8394 69.9081 71.0191 74.2116 71.2839 78.3938Z" fill="white"/>
<path d="M90.8395 87.6984C78.9757 88.28 67.1056 88.3442 55.237 88.0366C43.9807 87.7452 32.7195 86.7297 21.4624 86.9783C20.3102 87.0037 17.6752 87.6088 16.8046 86.908C15.7584 86.0646 15.8354 82.7593 15.7865 81.481C15.6629 78.2858 15.569 75.0875 15.5072 71.8892C15.3837 65.5445 15.3893 59.1978 15.4471 52.8521C15.5642 39.9041 15.7688 26.9662 15.5626 14.0162C15.5313 12.0524 13.1242 12.0462 13.1555 14.0162C13.3818 28.2527 13.0889 42.475 13.0111 56.7105C12.9742 63.4809 13.0255 70.2524 13.2261 77.0187C13.3465 81.0889 12.2448 88.3055 16.1652 89.8537C18.1783 90.6492 20.6881 90.0492 22.7614 89.9973C25.6772 89.9229 28.5657 89.9545 31.4807 90.1093C37.8691 90.4485 44.2583 90.747 50.6499 90.9568C64.0462 91.3968 77.4464 91.4101 90.8395 90.7541C92.3832 90.6787 92.3905 87.623 90.8395 87.6984Z" fill="white"/>
</g>
</svg>
