<svg width="104" height="104" viewBox="0 0 104 104" fill="none" xmlns="http://www.w3.org/2000/svg">
<mask id="mask0_279:944" style="mask-type:alpha" maskUnits="userSpaceOnUse" x="0" y="0" width="104" height="104">
<rect width="104" height="104" fill="#C4C4C4"/>
</mask>
<g mask="url(#mask0_279:944)">
<path d="M69.5759 88.1436C54.9121 96.0339 36.6846 93.4542 24.2129 82.3457C12.0481 71.5098 8.09911 54.0026 13.5516 38.512C20.0798 19.9637 39.7044 7.82156 58.5183 10.5786C74.7057 14.1802 91.7341 30.2684 92.8796 47.9416C93.9553 64.5284 83.559 80.6204 69.5759 88.1436ZM59.3552 7.45132C41.5245 4.83771 23.6611 13.7492 14.1849 29.6845C5.18508 44.8186 5.95445 65.2627 16.8388 79.1495C27.8422 93.1873 47.1934 99.5684 63.9502 94.0631C80.3289 88.6811 93.3324 73.2714 95.6892 55.6433C98.6646 33.3919 79.8063 12.0013 59.3552 7.45132Z" fill="white"/>
<path d="M63.6332 47.8554C59.4065 52.4154 55.542 55.1055 54.8905 61.8437C54.7902 63.081 54.738 64.3201 54.7331 65.5618C54.1606 69.6877 49.8166 68.1691 50.0409 65.5048C49.376 63.4932 50.0627 60.4129 50.5939 58.4708C51.8039 54.0499 54.5672 51.7351 57.3214 48.4111C63.2996 41.1948 62.2427 26.6935 50.3824 28.004C46.1794 28.4689 42.372 30.949 42.7245 35.7058C42.9281 38.4597 46.3119 43.1287 41.791 44.1323C37.9873 44.9762 36.3446 40.304 35.6615 37.364C34.8812 25.6917 47.3827 20.3016 56.9616 22.7154C61.6143 23.8875 66.4433 26.8169 67.8994 31.7954C69.5682 37.4993 67.502 43.6825 63.6332 47.8554ZM63.6709 22.9522C52.2913 15.8074 32.0322 21.2238 33.3096 37.5438C33.3108 37.5551 33.3175 37.5626 33.3181 37.5745C33.3193 37.6678 33.3291 37.765 33.3521 37.8671C34.2455 41.8182 35.9945 45.9867 40.3726 46.5367C43.0976 46.8794 45.9545 45.862 46.5385 42.8481C46.9986 40.4738 45.52 38.751 45.3122 36.5246C44.8533 31.6168 50.2153 29.6178 53.562 30.5468C55.8592 31.1852 57.7705 33.354 58.5052 35.5773C59.5505 38.7372 58.5508 42.241 56.9112 44.9687C55.0594 48.049 51.9467 49.9115 50.1782 53.0607C48.7057 55.6837 47.9023 58.7452 47.6598 61.7491C47.359 65.4785 47.7431 71.7932 52.8036 71.3497C59.4405 70.7689 56.4785 61.5161 58.4749 57.2824C60.23 53.5594 63.9158 51.41 66.4312 48.2958C68.6718 45.5206 70.1322 42.1515 70.6123 38.5718C71.482 32.0898 69.1106 26.3683 63.6709 22.9522Z" fill="white"/>
<path d="M56.5059 80.3729C55.9736 82.9872 53.1312 83.8648 50.8857 83.2139C49.0978 82.6952 47.8495 81.2168 47.9024 79.224C47.9735 76.5133 50.5654 75.8649 52.7168 75.9282C54.746 76.4093 57.0189 77.8558 56.5059 80.3729ZM53.1786 73.5426C53.0923 73.5244 53.0091 73.5169 52.9289 73.5157C52.9052 73.5132 52.8894 73.5 52.8651 73.4994C49.3846 73.3428 45.855 74.954 45.5699 78.9277C45.3208 82.4052 47.734 85.062 50.9076 85.721C54.2719 86.4202 57.9244 84.6034 58.7819 81.0194C59.6995 77.1849 56.5327 74.2568 53.1786 73.5426Z" fill="white"/>
</g>
</svg>
