<svg width="104" height="104" viewBox="0 0 104 104" fill="none" xmlns="http://www.w3.org/2000/svg">
<mask id="mask0_279:942" style="mask-type:alpha" maskUnits="userSpaceOnUse" x="0" y="0" width="104" height="104">
<rect width="104" height="104" fill="#C4C4C4"/>
</mask>
<g mask="url(#mask0_279:942)">
<path d="M93.8807 70.3489C93.3126 76.7813 86.9791 77.3126 80.4195 77.6558C79.9121 77.6824 79.4006 77.6981 78.8925 77.722C78.936 60.5008 78.905 43.2774 78.8978 26.0551C79.3901 26.0692 79.8818 26.0774 80.3741 26.0931C83.0202 26.1809 86.38 25.9136 88.864 26.6635C93.219 27.9788 93.5861 33.4564 93.826 36.6856C94.3585 43.8386 94.1641 51.1487 94.0896 58.3142C94.0488 62.3003 94.232 66.3747 93.8807 70.3489ZM28.1862 77.8114C28.2297 60.5734 28.1987 43.3338 28.1908 26.0958C39.3683 26.0264 50.5459 25.8887 61.7241 25.8827C66.3105 25.88 70.8995 25.8854 75.4852 25.97C75.4931 43.2698 75.5241 60.5713 75.4799 77.8711C59.77 78.4875 43.8664 78.1882 28.1862 77.8114ZM11.0105 73.3038C9.66146 70.8228 9.96791 67.2151 9.76558 64.5161C9.56062 61.7874 9.46637 59.0542 9.43276 56.3206C9.36619 50.8478 9.57117 45.3762 9.65421 39.9051C9.75043 33.6012 8.14431 26.8538 18.2779 26.1348C20.4449 26.1332 22.6119 26.1191 24.7788 26.1094C24.7861 43.3257 24.8171 60.5436 24.7736 77.7605C19.6165 77.6775 13.1755 77.2871 11.0105 73.3038ZM97.3091 38.709C97.2735 35.2418 96.9862 31.363 95.2199 28.1593C92.2766 22.8205 85.7381 23.4413 79.5081 23.2559C59.1169 22.6481 38.6763 23.3117 18.2779 23.328C18.1336 23.328 18.0005 23.3415 17.8753 23.3643C14.5793 23.6359 11.0204 24.4058 8.74141 26.4986C4.94855 29.9816 6.30489 35.7005 6.24162 39.9051C6.1599 45.3767 5.95362 50.8478 6.02084 56.3206C6.08807 61.8427 5.51204 68.7321 7.71988 74.0498C10.7173 81.2689 23.2465 80.5646 30.6115 80.6617C42.6643 80.8216 54.7625 81.0005 66.8173 80.9046C75.1128 80.8384 87.2579 82.0464 94.0791 77.4238C97.2953 75.2437 97.2406 71.8442 97.3236 68.6638C97.4614 63.377 97.5536 58.0854 97.5167 52.7975C97.4838 48.1006 97.3572 43.4048 97.3091 38.709Z" fill="white"/>
<path d="M19.9004 32.8768C19.938 33.2986 19.9215 33.8511 19.9242 34.1374C19.9262 34.3586 19.9176 34.5793 19.8991 34.7999C19.8846 34.891 19.8754 34.9572 19.8675 35.0157C19.4773 35.1556 18.3787 35.0027 17.976 35.0071C17.3249 35.0141 16.6737 35.0249 16.0232 35.0369C15.8018 35.0412 15.1961 34.9859 14.9028 35.0282C14.8989 34.7788 14.8152 34.3575 14.8139 34.2382C14.8106 34.004 15.007 33.1214 14.7302 32.9446C16.4463 32.9159 18.1816 32.8459 19.9004 32.8768ZM14.1107 37.1145C15.0742 37.2712 16.163 37.1378 17.1344 37.1237C18.2205 37.1074 19.387 37.204 20.4653 37.1069C22.246 36.947 22.4391 35.7065 22.4787 34.4605C22.5057 33.6191 22.5821 32.063 21.9949 31.3159C21.4822 30.6642 20.5417 30.7889 19.7238 30.7981C17.9101 30.8193 16.0957 30.8317 14.2813 30.848C14.1509 30.8442 14.0138 30.8523 13.8661 30.8865C13.818 30.8979 13.7871 30.9179 13.7422 30.931C13.6974 30.9451 13.6546 30.9586 13.6144 30.9765C11.9523 31.5268 12.2139 33.13 12.2567 34.4307C12.295 35.5975 12.4947 36.8526 14.1107 37.1145Z" fill="white"/>
<path d="M19.9242 68.3935C19.9262 68.6152 19.9176 68.8359 19.8991 69.0566C19.8846 69.1476 19.8754 69.2138 19.8675 69.2723C19.4773 69.4117 18.3787 69.2593 17.976 69.2637C17.3249 69.2707 16.6737 69.2816 16.0232 69.2935C15.8018 69.2973 15.1961 69.2425 14.9028 69.2848C14.8989 69.0354 14.8152 68.6141 14.8139 68.4949C14.8106 68.2601 15.007 67.378 14.7302 67.2007C16.4463 67.1725 18.1816 67.1025 19.9004 67.1334C19.938 67.5553 19.9215 68.1072 19.9242 68.3935ZM19.7238 65.0547C17.9101 65.0753 16.0957 65.0884 14.2813 65.1046C14.1509 65.1008 14.0138 65.1084 13.8661 65.1426C13.818 65.154 13.7871 65.1746 13.7422 65.187C13.6974 65.2017 13.6546 65.2152 13.6144 65.2326C11.9523 65.7834 12.2139 67.3866 12.2567 68.6868C12.295 69.8541 12.4947 71.1087 14.1107 71.3711C15.0742 71.5273 16.163 71.3944 17.1344 71.3798C18.2205 71.3641 19.387 71.4606 20.4653 71.3635C22.246 71.2036 22.4391 69.9631 22.4787 68.7171C22.5057 67.8751 22.5821 66.3191 21.9949 65.572C21.4822 64.9208 20.5417 65.0455 19.7238 65.0547Z" fill="white"/>
<path d="M19.9242 56.9751C19.9262 57.1963 19.9176 57.4164 19.8991 57.6381C19.8846 57.7292 19.8754 57.7948 19.8675 57.8528C19.4773 57.9933 18.3787 57.8404 17.976 57.8442C17.3249 57.8518 16.6737 57.8626 16.0232 57.8745C15.8018 57.8789 15.1961 57.823 14.9028 57.8659C14.8989 57.6159 14.8152 57.1946 14.8139 57.0754C14.8106 56.8411 15.007 55.959 14.7302 55.7823C16.4463 55.7535 18.1816 55.6831 19.9004 55.7145C19.938 56.1358 19.9215 56.6893 19.9242 56.9751ZM19.7238 53.6358C17.9101 53.6564 16.0957 53.6689 14.2813 53.6851C14.1509 53.6819 14.0138 53.6895 13.8661 53.7242C13.818 53.735 13.7871 53.7556 13.7422 53.7681C13.6974 53.7822 13.6546 53.7963 13.6144 53.8142C11.9523 54.3639 12.2139 55.9671 12.2567 57.2678C12.295 58.4351 12.4947 59.6903 14.1107 59.9521C15.0742 60.1083 16.163 59.9749 17.1344 59.9608C18.2205 59.9446 19.387 60.0411 20.4653 59.944C22.246 59.7846 22.4391 58.5436 22.4787 57.2982C22.5057 56.4567 22.5821 54.9001 21.9949 54.153C21.4822 53.5019 20.5417 53.626 19.7238 53.6358Z" fill="white"/>
<path d="M19.9242 45.5566C19.9262 45.7779 19.9176 45.9985 19.8991 46.2192C19.8846 46.3103 19.8754 46.377 19.8675 46.435C19.4773 46.5749 18.3787 46.4225 17.976 46.4263C17.3249 46.4339 16.6737 46.4442 16.0232 46.4567C15.8018 46.4605 15.1961 46.4052 14.9028 46.448C14.8989 46.198 14.8152 45.7768 14.8139 45.6575C14.8106 45.4233 15.007 44.5406 14.7302 44.3639C16.4463 44.3351 18.1816 44.2652 19.9004 44.2961C19.938 44.7179 19.9215 45.2704 19.9242 45.5566ZM19.7238 42.2179C17.9101 42.2385 16.0957 42.251 14.2813 42.2672C14.1509 42.264 14.0138 42.2716 13.8661 42.3057C13.818 42.3171 13.7871 42.3377 13.7422 42.3502C13.6974 42.3643 13.6546 42.3784 13.6144 42.3957C11.9523 42.9461 12.2139 44.5493 12.2567 45.85C12.295 47.0173 12.4947 48.2719 14.1107 48.5343C15.0742 48.6904 16.163 48.5571 17.1344 48.543C18.2205 48.5267 19.387 48.6232 20.4653 48.5262C22.246 48.3662 22.4391 47.1257 22.4787 45.8798C22.5057 45.0383 22.5821 43.4823 21.9949 42.7352C21.4822 42.0835 20.5417 42.2082 19.7238 42.2179Z" fill="white"/>
<path d="M88.9698 34.1374C88.9711 34.3586 88.9625 34.5793 88.9441 34.7999C88.9296 34.891 88.9197 34.9572 88.9124 35.0157C88.5223 35.1556 87.4243 35.0027 87.0209 35.0071C86.3698 35.0141 85.7186 35.0249 85.0682 35.0369C84.8474 35.0412 84.241 34.9859 83.9471 35.0282C83.9438 34.7788 83.8601 34.3575 83.8588 34.2382C83.8555 34.004 84.0519 33.1214 83.7751 32.9446C85.4913 32.9159 87.2266 32.8459 88.9447 32.8768C88.9829 33.2986 88.9665 33.8511 88.9698 34.1374ZM88.7688 30.7981C86.955 30.8193 85.1406 30.8317 83.3263 30.848C83.1958 30.8442 83.0587 30.8523 82.9104 30.8865C82.863 30.8979 82.832 30.9179 82.7872 30.931C82.7423 30.9451 82.6995 30.9586 82.6593 30.9765C80.9972 31.5268 81.2588 33.13 81.3017 34.4307C81.3392 35.5975 81.5396 36.8526 83.1556 37.1145C84.1191 37.2712 85.2085 37.1378 86.1787 37.1237C87.2661 37.1074 88.4313 37.204 89.5102 37.1069C91.291 36.947 91.4841 35.7065 91.5243 34.4605C91.5506 33.6191 91.6277 32.063 91.0392 31.3159C90.5271 30.6642 89.5866 30.7889 88.7688 30.7981Z" fill="white"/>
<path d="M88.9698 68.3935C88.9711 68.6152 88.9625 68.8359 88.9441 69.0566C88.9296 69.1476 88.9197 69.2138 88.9124 69.2723C88.5223 69.4117 87.4243 69.2593 87.0209 69.2637C86.3698 69.2707 85.7186 69.2816 85.0682 69.2935C84.8474 69.2973 84.241 69.2425 83.9471 69.2848C83.9438 69.0354 83.8601 68.6141 83.8588 68.4949C83.8555 68.2601 84.0519 67.378 83.7751 67.2007C85.4913 67.1725 87.2266 67.1025 88.9447 67.1334C88.9829 67.5553 88.9665 68.1072 88.9698 68.3935ZM88.7688 65.0547C86.955 65.0753 85.1406 65.0884 83.3263 65.1046C83.1958 65.1008 83.0587 65.1084 82.9104 65.1426C82.863 65.154 82.832 65.1746 82.7872 65.187C82.7423 65.2017 82.6995 65.2152 82.6593 65.2326C80.9972 65.7834 81.2588 67.3866 81.3017 68.6868C81.3392 69.8541 81.5396 71.1087 83.1556 71.3711C84.1191 71.5273 85.2085 71.3944 86.1787 71.3798C87.2661 71.3641 88.4313 71.4606 89.5102 71.3635C91.291 71.2036 91.4841 69.9631 91.5243 68.7171C91.5506 67.8751 91.6277 66.3191 91.0392 65.572C90.5271 64.9208 89.5866 65.0455 88.7688 65.0547Z" fill="white"/>
<path d="M88.9698 56.9751C88.9711 57.1963 88.9625 57.4164 88.9441 57.6381C88.9296 57.7292 88.9197 57.7948 88.9124 57.8528C88.5223 57.9933 87.4243 57.8404 87.0209 57.8442C86.3698 57.8518 85.7186 57.8626 85.0682 57.8745C84.8474 57.8789 84.241 57.823 83.9471 57.8659C83.9438 57.6159 83.8601 57.1946 83.8588 57.0754C83.8555 56.8411 84.0519 55.959 83.7751 55.7823C85.4913 55.7535 87.2266 55.6831 88.9447 55.7145C88.9829 56.1358 88.9665 56.6893 88.9698 56.9751ZM88.7688 53.6358C86.955 53.6564 85.1406 53.6689 83.3263 53.6851C83.1958 53.6819 83.0587 53.6895 82.9104 53.7242C82.863 53.735 82.832 53.7556 82.7872 53.7681C82.7423 53.7822 82.6995 53.7963 82.6593 53.8142C80.9972 54.3639 81.2588 55.9671 81.3017 57.2678C81.3392 58.4351 81.5396 59.6903 83.1556 59.9521C84.1191 60.1083 85.2085 59.9749 86.1787 59.9608C87.2661 59.9446 88.4313 60.0411 89.5102 59.944C91.291 59.7846 91.4841 58.5436 91.5243 57.2982C91.5506 56.4567 91.6277 54.9001 91.0392 54.153C90.5271 53.5019 89.5866 53.626 88.7688 53.6358Z" fill="white"/>
<path d="M88.9698 45.5566C88.9711 45.7779 88.9625 45.9985 88.9441 46.2192C88.9296 46.3103 88.9197 46.377 88.9124 46.435C88.5223 46.5749 87.4243 46.4225 87.0209 46.4263C86.3698 46.4339 85.7186 46.4442 85.0682 46.4567C84.8474 46.4605 84.241 46.4052 83.9471 46.448C83.9438 46.198 83.8601 45.7768 83.8588 45.6575C83.8555 45.4233 84.0519 44.5406 83.7751 44.3639C85.4913 44.3351 87.2266 44.2652 88.9447 44.2961C88.9829 44.7179 88.9665 45.2704 88.9698 45.5566ZM88.7688 42.2179C86.955 42.2385 85.1406 42.251 83.3263 42.2672C83.1958 42.264 83.0587 42.2716 82.9104 42.3057C82.863 42.3171 82.832 42.3377 82.7872 42.3502C82.7423 42.3643 82.6995 42.3784 82.6593 42.3957C80.9972 42.9461 81.2588 44.5493 81.3017 45.85C81.3392 47.0173 81.5396 48.2719 83.1556 48.5343C84.1191 48.6904 85.2085 48.5571 86.1787 48.543C87.2661 48.5267 88.4313 48.6232 89.5102 48.5262C91.291 48.3662 91.4841 47.1257 91.5243 45.8798C91.5506 45.0383 91.6277 43.4823 91.0392 42.7352C90.5271 42.0835 89.5866 42.2082 88.7688 42.2179Z" fill="white"/>
<path d="M36.7018 40.4183C46.4327 44.2596 56.6771 47.5105 65.6844 52.4345C56.5044 56.8061 46.5639 59.9898 36.9338 63.6273C36.7222 55.892 36.7024 48.1551 36.7018 40.4183ZM68.7285 51.6034C58.7287 45.7717 46.9929 42.2763 36.0671 37.8288C35.7119 37.6846 35.3679 37.683 35.07 37.7686C34.6541 37.8538 34.3147 38.0966 34.2027 38.4897C34.1328 38.6502 34.1097 38.8199 34.1414 38.9831C34.142 47.7393 34.1414 56.4949 34.4136 65.2489C34.4399 66.0947 35.4661 66.4948 36.3387 66.1571C47.1564 61.9725 58.4816 58.5389 68.7285 53.4213C69.6018 52.9854 69.5036 52.055 68.7285 51.6034Z" fill="white"/>
</g>
</svg>
