<svg width="104" height="104" viewBox="0 0 104 104" fill="none" xmlns="http://www.w3.org/2000/svg">
<mask id="mask0_503_1572" style="mask-type:alpha" maskUnits="userSpaceOnUse" x="0" y="0" width="104" height="104">
<rect width="104" height="104" fill="#C4C4C4"/>
</mask>
<g mask="url(#mask0_503_1572)">
<path d="M90.9653 79.3343C90.1423 79.4318 89.2541 79.3803 88.4246 79.3984C85.4472 79.4652 82.4682 79.514 79.4876 79.5628C79.2057 76.8411 79.0525 74.118 79.0313 71.3866C85.2093 71.4493 91.3776 71.3866 97.5149 70.966C97.5067 71.2501 97.5116 71.5343 97.5002 71.8184C97.347 75.9246 96.5257 78.6825 90.9653 79.3343ZM66.2531 79.7424C62.6483 79.7842 59.0451 79.8093 55.4403 79.8371C55.6196 78.617 55.3849 77.3244 55.3083 76.1168C55.1992 74.43 55.0916 72.7446 54.9824 71.0593C62.1692 71.0384 69.3804 71.2501 76.5852 71.356C76.6064 74.1111 76.7612 76.8606 77.048 79.6059C73.4497 79.6589 69.8498 79.702 66.2531 79.7424ZM35.1022 79.8984C33.2835 79.8915 31.4681 79.8775 29.6494 79.8622C29.6624 77.0138 29.6201 74.1668 29.6494 71.3212C36.8199 71.2571 43.992 71.2041 51.1592 71.0829C51.6188 71.076 52.08 71.0802 52.5396 71.0746C52.6292 72.4884 52.7221 73.9035 52.8117 75.3187C52.8997 76.6823 53.3218 78.4638 52.9649 79.8581C47.0101 79.8984 41.0554 79.9193 35.1022 79.8984ZM6.99551 77.0779C6.30942 75.7491 6.23607 73.7044 6.32244 71.6387C6.37459 71.6415 6.41534 71.6624 6.47075 71.661C13.3789 71.4911 20.2919 71.4103 27.2049 71.3448C27.1772 74.1765 27.2179 77.0082 27.2049 79.8385C25.1466 79.8149 23.0884 79.7884 21.0301 79.7438C17.4514 79.67 8.79139 80.5573 6.99551 77.0779ZM17.704 24.1948C20.5722 24.185 23.4404 24.1795 26.3086 24.1725C26.3347 27.1908 26.408 30.2078 26.5318 33.2248C19.8665 33.2582 13.1996 33.2888 6.53105 33.2972C6.57016 31.4154 6.62882 29.535 6.71193 27.6547C7.79565 23.2657 13.6722 24.2073 17.704 24.1948ZM31.4159 24.1586C37.9818 24.146 44.5477 24.1405 51.112 24.1349C51.2391 27.1142 51.3173 30.0964 51.4167 33.0771C43.9366 33.1231 36.4565 33.1732 28.9763 33.215C28.8525 30.1995 28.7775 27.1825 28.7531 24.1655C29.6412 24.1641 30.5278 24.1613 31.4159 24.1586ZM73.2525 24.1307C73.4024 27.078 73.5524 30.0239 73.7023 32.9712C67.0875 32.9907 60.4727 33.0256 53.8612 33.066C53.7602 30.0866 53.682 27.1087 53.5565 24.1321C56.4687 24.1293 59.3841 24.1223 62.298 24.1209C65.9484 24.1195 69.6005 24.1307 73.2525 24.1307ZM86.927 24.1433C92.357 24.1669 96.5957 24.6085 96.9037 30.3972C96.9494 31.2552 96.9477 32.1188 96.9689 32.9796C90.0266 32.949 83.0859 32.9518 76.1468 32.9671C75.9969 30.0225 75.8469 27.078 75.697 24.1335C79.4403 24.1363 83.1836 24.1279 86.927 24.1433ZM90.5416 69.204C90.5008 65.9043 90.4454 62.6157 90.289 59.3188C92.6568 59.3439 95.0231 59.3592 97.3894 59.387C97.5181 62.5502 97.585 65.712 97.5475 68.8739C95.2171 69.0354 92.8801 69.1343 90.5416 69.204ZM6.51312 59.2338C9.0179 59.2115 11.5243 59.2032 14.0291 59.1865C14.2312 62.5475 13.9916 66.0644 13.8091 69.4324C11.363 69.4742 8.91686 69.5104 6.47075 69.5717C6.46097 69.5717 6.45608 69.5759 6.4463 69.5773C6.53593 68.3084 6.6272 67.1175 6.60928 66.1926C6.56202 63.8735 6.5343 61.5543 6.51312 59.2338ZM13.669 45.2201C11.2652 45.2271 8.86145 45.2494 6.45608 45.2981C6.44793 41.9957 6.4577 38.6904 6.50496 35.3865C8.86145 35.3837 11.2163 35.367 13.5712 35.36C13.532 35.47 13.4995 35.5857 13.5076 35.725C13.7016 38.8896 13.7521 42.0528 13.669 45.2201ZM96.9608 44.8232C94.0779 45.0265 91.182 45.1491 88.2861 45.2327C88.3757 41.8424 88.379 38.455 88.2796 35.0633C91.1934 35.0675 94.1072 35.055 97.0211 35.0689C97.0488 38.3129 96.9885 41.568 96.9608 44.8232ZM6.49845 57.1445C6.48541 55.129 6.47402 53.1122 6.47239 51.0953C6.47076 49.8598 6.46585 48.6243 6.46259 47.3875C13.0383 47.2509 19.614 47.3025 26.1896 47.3819C26.2793 50.5938 26.8056 53.81 26.7078 57.0164C19.9708 57.0456 13.2355 57.086 6.49845 57.1445ZM29.1523 57.0025C29.2468 53.81 28.727 50.6064 28.6357 47.4111C36.2951 47.5086 43.9529 47.6061 51.609 47.4529C51.4998 50.6259 51.7296 53.8155 51.9839 56.9815C44.375 56.9676 36.7628 56.976 29.1523 57.0025ZM54.43 56.9899C54.1741 53.8128 53.9427 50.6092 54.0535 47.4209C60.9942 47.3178 67.9675 47.4236 74.9408 47.4571C74.9327 50.6676 75.05 53.8782 75.2635 57.0846C68.3179 57.0345 61.3739 57.0066 54.43 56.9899ZM77.7096 57.1069C77.4945 53.8949 77.3772 50.676 77.3853 47.4585C83.9235 47.4668 90.4552 47.368 96.9461 46.9139C96.951 48.6703 96.9787 50.4267 97.0634 52.1775C97.1449 53.8838 97.2297 55.5914 97.3079 57.2977C90.7746 57.2183 84.2413 57.1584 77.7096 57.1069ZM85.8351 35.0619C85.9345 38.4773 85.9313 41.8912 85.84 45.3051C78.9987 45.4402 72.1362 45.3469 65.2867 45.301C65.2851 41.9274 65.2656 38.5539 65.171 35.1803C65.1694 35.1511 65.1547 35.1302 65.1515 35.101C72.0449 35.0689 78.9416 35.0592 85.8351 35.0619ZM62.7412 35.1121C62.7396 35.1372 62.7266 35.1553 62.7266 35.1803C62.8211 38.5497 62.8406 41.9177 62.8423 45.287C59.2293 45.2717 55.6212 45.28 52.0246 45.358C48.3285 45.4374 44.6325 45.4528 40.9364 45.4388C40.9364 45.4249 40.9445 45.4165 40.9445 45.4012C40.837 42.0124 40.7311 38.6221 40.6235 35.2319C47.9961 35.1859 55.3687 35.1497 62.7412 35.1121ZM38.179 35.2472C38.2866 38.6333 38.3925 42.0166 38.5001 45.4012C38.5001 45.4096 38.5049 45.4152 38.5049 45.4249C31.0427 45.3734 23.5789 45.2285 16.1134 45.216C16.1966 42.0514 16.146 38.8882 15.9521 35.725C15.9423 35.5829 15.8951 35.4645 15.8397 35.3517C23.2872 35.3266 30.7331 35.2932 38.179 35.2472ZM16.2552 69.3879C16.4377 66.0283 16.6757 62.521 16.4736 59.1711C24.0776 59.121 31.6816 59.0903 39.2872 59.082C39.3833 62.4165 39.6685 65.8095 39.4485 69.1427C31.7174 69.2193 23.9847 69.2722 16.2552 69.3879ZM51.1592 68.9936C48.071 69.0466 44.9828 69.08 41.8946 69.1134C42.1097 65.7886 41.8278 62.4054 41.7317 59.0792C49.2477 59.075 56.7636 59.0889 64.2796 59.1238C64.485 62.4318 64.5078 65.7413 64.6218 69.0508C60.1289 68.9686 55.6375 68.9184 51.1592 68.9936ZM67.068 69.0953C66.9523 65.7733 66.9311 62.4527 66.7257 59.1349C73.7659 59.1697 80.806 59.2241 87.8445 59.2951C88.0025 62.6185 88.058 65.9349 88.0971 69.2625C81.1026 69.3934 74.082 69.2332 67.068 69.0953ZM99.9708 70.8448C100.078 66.4531 99.9593 62.0628 99.7687 57.6752C99.4183 49.5785 98.874 41.4873 99.1967 33.3822C99.358 29.3623 99.8143 24.6934 94.7265 22.8354C91.6074 21.6974 87.8445 22.0553 84.5265 22.047C79.5723 22.0317 74.6198 22.0303 69.6673 22.0303C56.0629 22.0289 42.4601 22.0456 28.8574 22.0748C23.8576 22.086 18.8578 22.0985 13.8596 22.118C9.06842 22.1389 5.32022 22.6501 4.31635 27.2243C4.30658 27.2689 4.32124 27.3023 4.31635 27.3427C4.30495 27.3984 4.27397 27.443 4.27234 27.5042C3.90241 35.7737 4.00996 44.078 4.02952 52.3516C4.04255 57.4983 4.07677 62.645 4.20062 67.7888C4.27233 70.7598 3.45751 76.1043 4.84109 78.8566C6.41045 81.9738 11.3923 81.5225 14.7478 81.6535C19.9464 81.8596 25.1532 81.9195 30.355 81.9599C42.54 82.056 54.7282 81.9668 66.9131 81.8248C74.8023 81.7328 82.7111 81.7175 90.597 81.4348C94.3599 81.3011 97.6127 81.1534 99.2048 77.8036C100.217 75.6753 99.9154 73.0748 99.9708 70.8448Z" fill="#932FFF"/>
</g>
</svg>
