<?xml version="1.0" encoding="UTF-8" standalone="no"?>
<!DOCTYPE svg PUBLIC "-//W3C//DTD SVG 1.1//EN" "http://www.w3.org/Graphics/SVG/1.1/DTD/svg11.dtd">
<svg width="100%" height="100%" viewBox="0 0 108 108" version="1.1" xmlns="http://www.w3.org/2000/svg" xmlns:xlink="http://www.w3.org/1999/xlink" xml:space="preserve" xmlns:serif="http://www.serif.com/" style="fill-rule:evenodd;clip-rule:evenodd;">
    <g transform="matrix(1,0,0,1,5,6.5)">
        <path d="M1,5.242L69.06,2M1,5.242L1,74.141M1,5.242L36.245,20.035M69.06,2L86.682,17.401M69.06,2L36.245,20.035M86.682,17.401L96,74.141L80.606,94M86.682,17.401L47.589,31.181M86.682,17.401L80.606,94M80.606,94L25.712,94M80.606,94L47.589,31.181M25.712,94L1,74.141M25.712,94L47.589,31.181M1,74.141L36.245,20.035M47.589,31.181L36.245,20.035" style="fill:none;fill-rule:nonzero;stroke:rgb(47,143,255);stroke-width:2px;"/>
    </g>
</svg>
