<svg width="112" height="112" viewBox="0 0 112 112" fill="none" xmlns="http://www.w3.org/2000/svg">
<path d="M65.1636 2L21.9636 17.7091M65.1636 2L110 39.6364M65.1636 2V23.5M21.9636 17.7091L2 46.5091M21.9636 17.7091L38 55.3455M21.9636 17.7091L65.1636 23.5M2 46.5091L34.7273 110M2 46.5091L38 55.3455M34.7273 110L100.509 90.0364M34.7273 110L68.7636 62.8727M34.7273 110L38 55.3455M100.509 90.0364L110 39.6364M100.509 90.0364L68.7636 62.8727M110 39.6364L65.1636 23.5M110 39.6364L68.7636 62.8727M65.1636 23.5L38 55.3455M65.1636 23.5L68.7636 62.8727M38 55.3455L68.7636 62.8727" stroke="#932FFF" stroke-width="2"/>
</svg>
