<?xml version="1.0" encoding="UTF-8" standalone="no"?>
<!DOCTYPE svg PUBLIC "-//W3C//DTD SVG 1.1//EN" "http://www.w3.org/Graphics/SVG/1.1/DTD/svg11.dtd">
<svg width="100%" height="100%" viewBox="0 0 108 108" version="1.1" xmlns="http://www.w3.org/2000/svg" xmlns:xlink="http://www.w3.org/1999/xlink" xml:space="preserve" xmlns:serif="http://www.serif.com/" style="fill-rule:evenodd;clip-rule:evenodd;">
    <g transform="matrix(1,0,0,1,23,0.5)">
        <path d="M24.118,28.751L1.711,83.563L13.074,98.033M24.118,28.751L51.809,2.097M24.118,28.751L33.936,36.613M13.074,98.033L28.785,105.243M13.074,98.033L33.936,36.613M28.785,105.243L40.634,97.153L60.483,38.828M28.785,105.243L48.756,40.668M60.483,38.828L51.809,2.097M60.483,38.828L48.756,40.668M51.809,2.097L33.936,36.613M51.809,2.097L48.756,40.668M33.936,36.613L48.756,40.668" style="fill:none;fill-rule:nonzero;stroke:rgb(222,122,124);stroke-width:2px;"/>
    </g>
</svg>
