<?xml version="1.0" encoding="utf-8"?>
<!-- Generator: Adobe Illustrator 19.1.1, SVG Export Plug-In . SVG Version: 6.00 Build 0)  -->
<svg version="1.1"  xmlns="http://www.w3.org/2000/svg" xmlns:xlink="http://www.w3.org/1999/xlink" x="0px" y="0px"
	 viewBox="0 0 48 48" enable-background="new 0 0 48 48" xml:space="preserve">
<circle fill="#EDE7F6" cx="24" cy="24" r="20"/>
<rect x="18" y="18.3" fill="#3E2723" width="12" height="13.5"/>
<path fill="#FF1744" d="M24,44c4.5,0,8.6-1.5,11.9-4c-0.6-7.4-7.9-9-7.9-9h-8c0,0-7.3,1.6-7.9,9C15.4,42.5,19.5,44,24,44z"/>
<path fill="#FF9800" d="M24,34.8c-1.4,0-3.5-3.8-3.5-3.8v-5h7v5C27.5,31,25.4,34.8,24,34.8"/>
<path fill="#FFB74D" d="M31,23c0,3.7-3.3,7-7,7c-3.7,0-7-3.3-7-7v-6c0-3.7,14-5.7,14,0V23z M24,36c2.9,0,3.5-5,3.5-5s-1.9,3-3.5,3
	s-3.5-3-3.5-3S21.1,36,24,36"/>
<path fill="#784719" d="M26,22c0-0.6,0.4-1,1-1s1,0.4,1,1s-0.4,1-1,1S26,22.6,26,22 M20,22c0,0.6,0.4,1,1,1s1-0.4,1-1s-0.4-1-1-1
	S20,21.4,20,22"/>
<path fill="#795548" d="M24,11c-4.6,0-11,2.1-11,17l5,3.8V21l9-5l3,4v12l5-5c0-3-0.3-14.5-8-14.5L26,11H24z"/>
</svg>
