<?xml version="1.0" encoding="iso-8859-1"?>
<!-- Generator: Adobe Illustrator 19.1.1, SVG Export Plug-In . SVG Version: 6.00 Build 0)  -->
<svg version="1.1" id="Layer_1" xmlns="http://www.w3.org/2000/svg" xmlns:xlink="http://www.w3.org/1999/xlink" x="0px" y="0px"
	 viewBox="0 0 48 48" style="enable-background:new 0 0 48 48;" xml:space="preserve">
<circle style="fill:#EDE7F6;" cx="24" cy="24" r="20"/>
<path style="fill:#FF9800;" d="M28,31c0,0,0,4-4,4s-4-4-4-4"/>
<path style="fill:#673AB7;" d="M24,44c4.482,0,8.605-1.492,11.939-3.982C35.32,32.452,27.75,31,27.75,31L24,31.77L20.25,31
	c0,0-7.572,1.424-8.19,9.018C15.395,42.508,19.518,44,24,44z"/>
<path style="fill:#311B92;" d="M24,37c3.059,0,5.578-2.292,5.948-5.25c-0.884-0.398-1.603-0.607-1.954-0.693
	C27.963,33.238,26.19,35,24,35c-2.19,0-3.964-1.762-3.994-3.945c-0.353,0.086-1.071,0.293-1.955,0.688
	C18.417,34.705,20.938,37,24,37z"/>
<path style="fill:#FFAB40;" d="M32,22.5c0,0.828-0.672,1.5-1.5,1.5c-0.829,0-1.5-0.672-1.5-1.5s0.671-1.5,1.5-1.5
	C31.328,21,32,21.672,32,22.5 M19,22.5c0-0.828-0.672-1.5-1.5-1.5S16,21.672,16,22.5s0.672,1.5,1.5,1.5S19,23.328,19,22.5 M28,31v-4
	h-8v4c0,0,0,4,4,4S28,31,28,31z"/>
<path style="fill:#FFCC80;" d="M31,18.68c0-5.879-14-3.827-14,0v4.391c0,3.824,3.133,6.93,7,6.93c3.866,0,7-3.105,7-6.93V18.68z"/>
<path style="fill:#FF5722;" d="M24,11c-4.86,0-8,4.313-8,8.172V21l2,2v-4l9.2-3l2.8,3v4l2-2v-0.809c0-3.218-0.831-6.803-4.8-7.592
	L26.399,11H24z"/>
<path style="fill:#784719;" d="M26,22c0-0.551,0.448-1,1-1s1,0.449,1,1s-0.448,1-1,1S26,22.551,26,22 M20,22c0,0.551,0.448,1,1,1
	s1-0.449,1-1s-0.448-1-1-1S20,21.449,20,22"/>
</svg>
