<svg width="104" height="104" viewBox="0 0 104 104" fill="none" xmlns="http://www.w3.org/2000/svg">
<mask id="mask0_246:931" style="mask-type:alpha" maskUnits="userSpaceOnUse" x="0" y="0" width="104" height="104">
<rect width="104" height="104" fill="#C4C4C4"/>
</mask>
<g mask="url(#mask0_246:931)">
<path d="M43.9927 94.4979C39.1681 94.3912 28.1926 95.768 24.4533 91.0846C21.9053 87.8961 24.4039 83.0322 27.4583 81.785C32.1306 79.8781 38.1437 80.2556 43.0539 80.2014C53.2923 80.0882 63.5467 80.1801 73.7909 80.3081C73.254 80.8644 72.8013 81.5027 72.4371 82.2149C58.783 82.9468 45.0752 81.8818 31.4196 82.3758C30.0223 82.4266 30.0179 84.8881 31.4196 84.8373C44.7966 84.3532 58.2244 85.3558 71.6042 84.7093C71.5259 85.1917 71.4765 85.6857 71.4794 86.2009C71.4794 86.365 71.5128 86.5209 71.5215 86.6834C56.9837 87.0822 42.4677 87.0001 27.9227 86.6686C26.5224 86.6358 26.5224 89.0973 27.9227 89.1301C42.607 89.4665 57.2638 89.5469 71.9423 89.1367C72.1179 89.7193 72.3326 90.2838 72.5967 90.8204C60.3327 91.0485 48.073 91.0239 35.8104 90.8171C34.4087 90.7941 34.4073 93.2556 35.8104 93.2786C48.5054 93.4936 61.1975 93.5182 73.8925 93.2622C73.9999 93.2606 74.084 93.2195 74.1754 93.1916C74.5788 93.6642 75.0054 94.1089 75.4683 94.5126C64.9847 94.8129 54.4648 94.726 43.9927 94.4979ZM24.4663 18.4274C24.5345 17.3673 24.4155 15.7821 24.8204 14.7844C27.1551 9.02445 39.3161 10.1551 43.8622 9.99593C53.2314 9.67101 62.6064 10.0895 71.9786 9.98773C74.8792 9.95655 78.7723 8.77174 79.6502 12.1768C80.1972 14.2986 79.6559 17.5577 79.6588 19.7599C79.6632 26.9803 79.669 34.2024 79.6734 41.4245C79.6792 53.5466 80.1116 65.7918 79.685 77.9139C64.2156 77.6677 48.2384 76.5272 32.8634 78.3307C29.8046 78.6901 25.8927 79.7141 23.4114 81.9278C24.2182 60.7965 23.1329 39.5504 24.4663 18.4274ZM79.5384 94.3879C79.4789 94.3403 79.4383 94.2845 79.3614 94.2484C76.9077 93.0751 74.6572 91.0534 73.9113 88.0323C73.0262 84.4615 75.0316 80.8283 78.4052 80.4361C78.4763 80.4262 78.53 80.3885 78.5938 80.3688C78.9392 80.3737 79.2845 80.3787 79.6298 80.3819C79.5573 85.0506 79.2714 89.7258 79.566 94.3863C79.5573 94.3879 79.5485 94.3879 79.5384 94.3879ZM81.8499 42.0891C81.8455 34.0104 81.8397 25.9334 81.8325 17.8547C81.8296 13.5651 83.1138 7.93811 78.2311 7.4458C68.8952 6.50551 58.7873 7.33094 49.4181 7.41955C43.4834 7.47534 37.4298 7.53771 31.5459 8.50098C28.8049 8.95061 25.2905 9.68578 23.5435 12.4509C21.7108 15.3473 22.1882 20.0258 22.062 23.3783C21.7805 30.8055 21.6543 38.2426 21.5338 45.6763C21.3147 59.1358 21.7471 72.7545 21.0637 86.1977C20.891 87.5072 21.0579 89.0087 21.7065 90.7465C23.677 96.0256 30.6535 96.1783 34.8673 96.5393C50.0029 97.8307 65.5767 97.4599 80.734 96.8133C80.8791 96.8068 81.001 96.7608 81.1157 96.7083C81.5394 96.5934 81.8789 96.2308 81.8223 95.5826C81.3507 90.1213 81.7904 84.6371 81.8223 79.166C82.3186 66.8568 81.8572 54.4081 81.8499 42.0891Z" fill="#DE7A7C"/>
<path d="M59.3438 23.3949C63.4923 23.3785 66.1549 22.5104 67.0284 27.8305C67.3898 30.0245 67.1982 32.8585 67.175 35.0821C67.1474 37.7159 67.5595 39.3011 65.5977 40.9766C63.3762 42.872 59.8821 41.7708 57.1876 41.8119C53.3554 41.8693 49.5248 41.9431 45.6941 42.0088C41.4672 42.0826 37.9819 43.2166 37.2912 37.5436C37.0793 35.8041 36.8109 24.3483 38.1691 23.4818C45.2283 23.4687 52.286 23.4228 59.3438 23.3949ZM36.1768 44.3226C39.7565 45.3433 44.0776 44.4982 47.7835 44.4342C52.4805 44.3538 57.3182 43.9107 62.0108 44.2799C63.7578 44.4161 66.8311 45.8504 68.4954 44.1585C70.0828 42.547 69.3297 37.0054 69.3515 35.0821C69.3849 32.1759 70.1496 24.4796 68.6245 22.041C67.7394 20.6298 66.5409 20.9842 65.0391 20.9169C56.1298 20.5182 47.1262 20.9941 38.2082 21.0171C38.037 20.9727 37.8513 20.9662 37.6336 21.0646C37.6089 21.0761 37.593 21.0909 37.5669 21.1024C37.4813 21.1352 37.4073 21.1811 37.3376 21.2353C35.209 22.3791 35.4788 24.3171 35.3584 27.12C35.1422 32.1628 34.1962 38.5725 35.4179 43.4644C35.5195 43.8713 35.8097 44.2192 36.1768 44.3226Z" fill="#DE7A7C"/>
</g>
</svg>
