<svg width="183" height="251" viewBox="0 0 183 251" fill="none" xmlns="http://www.w3.org/2000/svg">
<path d="M103.978 196.493C106.331 194.992 106.032 195.617 104.751 196.771C101.666 199.015 98.4928 201.129 95.2315 203.094C98.3095 201.149 101.316 199.02 103.978 196.493C106.331 194.992 101.626 198.724 103.978 196.493ZM109.128 193.467C107.722 194.582 106.286 195.646 104.841 196.701C106.216 195.566 107.632 194.441 109.128 193.467C108.538 193.937 108.668 193.762 109.128 193.467ZM151.481 91.7188C151.05 92.9451 150.627 94.1725 150.196 95.4025C148.92 98.5031 147.572 101.535 145.971 104.483C147.984 100.724 149.663 96.7813 150.975 92.7138C151.186 92.2173 151.434 91.6113 151.726 90.8703C151.726 90.8703 151.635 91.1786 151.481 91.7188C151.293 92.2537 151.635 91.1786 151.481 91.7188ZM93.7785 11.252C94.6002 11.2038 95.4273 11.1219 96.2546 11.1323C97.041 11.14 97.7674 11.3802 98.5393 11.4778C96.6662 11.464 94.7895 11.5419 92.9214 11.6827L93.7785 11.252ZM121.889 121.798C121.809 121.782 121.763 121.717 121.791 121.544C121.808 121.651 121.8 121.769 121.781 121.888C121.289 122.309 120.783 122.727 120.254 123.142C120.261 122.87 120.368 122.599 120.673 122.34C118.835 122.782 116.404 124.735 115.857 126.312C115.815 126.34 115.773 126.371 115.731 126.399C114.43 126.578 116.193 125.09 116.509 124.318C112.736 126.458 108.903 128.62 104.791 129.994C105.022 130.985 104.516 130.746 104.046 131.616L103.548 131.378C103.715 131.458 103.563 131.864 103.727 132.106C101.423 132.761 99.1358 133.107 96.9416 133.061C97.2615 132.682 97.6143 132.285 98.0642 132.077C96.0599 132.83 94.1014 131.741 92.1116 131.474C92.3598 131.261 93.039 131.259 93.7395 131.218C94.4242 131.228 95.1502 131.146 95.4395 131.188C95.0953 131.091 93.0858 131.155 93.2068 130.521L92.8251 131.167C91.4138 130.731 93.2331 130.59 92.9369 129.985C92.394 129.817 91.6535 129.524 91.1393 129.922C90.6689 130.28 90.5498 131.042 89.8963 131.14C89.4373 130.87 88.9995 130.561 88.5654 130.23C88.5001 130.123 88.3897 130.04 88.2514 129.967C87.9465 129.718 87.6489 129.447 87.358 129.158C87.6954 129.113 87.8375 128.743 87.9316 128.532C86.973 128.638 86.7489 128.26 86.5972 127.713C86.4065 127.175 86.3428 126.43 85.5827 125.561C85.9551 125.275 86.6287 126.122 87.1145 125.901C86.1085 125.185 85.0801 123.562 84.2499 123.639C83.3301 121.622 83.2775 120.018 82.9184 118.757C83.3778 119.838 83.9781 119.116 84.6582 119.807C84.28 119.43 83.9597 118.998 83.6558 118.557C83.3475 118.027 82.9709 117.408 82.6801 116.723C82.4351 116.195 82.2151 115.629 82.014 115.062C82.0391 114.14 82.1135 113.214 82.2402 112.288C82.4346 112.316 82.643 112.396 82.9545 112.557C83.4073 111.285 83.3017 111.079 83.0766 110.847C82.8723 110.626 82.6009 110.401 83.0502 109.174L82.6166 110.304C82.616 110.261 82.6092 110.233 82.611 110.199C82.8727 108.995 83.2239 107.795 83.6329 106.607C83.8372 106.76 83.9654 106.965 84.0557 106.591C83.8762 106.285 83.877 105.955 83.9789 105.625C84.0233 105.513 84.0706 105.405 84.1113 105.293C84.5706 104.352 85.6249 103.699 85.9434 102.701L85.8775 103.086C86.0217 102.937 86.842 101.85 87.0431 101.883C87.0699 101.879 87.0772 101.903 87.0967 101.899C87.0565 101.846 87.0156 101.797 86.9528 101.745C87.7272 101.432 88.6137 100.586 89.175 99.3851C88.8628 98.6004 91.2172 95.7237 91.1662 94.9234C90.9653 95.4716 90.7118 95.8805 90.1873 96.3649L89.6226 95.8432C90.3437 94.7907 90.2401 96.1774 90.5498 94.9086C89.5868 94.4841 89.5569 96.367 88.9967 97.0495C88.9712 96.6493 89.037 96.1486 89.2635 95.6277C89.0823 95.8906 88.8981 96.1493 88.7138 96.4079C88.9449 96.0453 89.1747 95.6902 89.4155 95.3369C89.362 95.4359 89.3048 95.5344 89.2635 95.6277C89.5019 95.2893 89.7281 94.9337 89.9292 94.5701C90.0952 94.3316 90.26 94.1006 90.426 93.8621C90.517 94.019 90.6474 94.0938 90.883 93.9819C91.9777 93.0781 91.851 92.5617 91.866 91.8874C92.1172 91.5627 92.3695 91.2304 92.6171 90.9051C93.0636 90.9272 93.3273 91.3849 94.264 90.2519L93.8617 91.4904C95.3537 91.2159 94.2544 90.358 94.9785 89.7981C94.5973 89.8597 94.3961 89.6888 93.7733 90.5034C93.4229 90.3507 93.8039 89.6394 94.0161 89.3238L93.8391 89.4913C93.8329 89.4596 93.8256 89.4353 93.8195 89.4035C94.4922 88.5816 95.1691 87.7796 95.8443 87.0119C95.8607 87.003 95.8802 86.9985 95.8924 86.9927L95.7625 87.3332C96.0481 86.818 96.4185 86.3817 96.7482 85.9889C96.9404 85.7739 97.1326 85.5588 97.3273 85.3518L97.3603 85.4264C97.3889 85.3656 97.4064 85.3031 97.424 85.2406C97.7057 84.9361 97.9825 84.6386 98.2587 84.3448C98.3095 84.5414 98.4216 84.5902 98.7214 84.1964C99.025 84.849 97.6679 85.9143 97.2754 86.2316C97.8833 85.7414 98.9706 85.6977 98.1434 86.6638C98.7813 86.8013 98.7719 85.6271 99.4136 85.3231C99.2089 85.2901 99.2183 84.9994 99.0604 84.9085C99.6202 85.4141 100.805 83.1831 100.478 82.7726L99.9029 83.9641C99.5944 83.7375 99.7836 83.1221 99.8398 82.7044C102.116 80.3803 104.55 78.2199 107.13 76.2677C107.298 76.5331 107.3 76.9871 107.756 76.9685C109.087 76.3718 108.513 75.8795 108.301 75.4032C110.882 73.5433 113.625 71.8865 116.46 70.5599C116.522 70.666 116.537 70.803 116.464 71.022C117.35 70.7419 116.843 70.6755 116.639 70.4735C117.053 70.2825 117.468 70.0997 117.879 69.9275C117.992 70.0612 118.113 70.219 117.726 70.4796C118.534 70.4253 118.501 70.0702 118.45 69.6852C119.229 69.3687 120.014 69.0839 120.802 68.8266C121.008 68.8982 121.193 68.9857 121.335 69.101C122.044 68.8462 122.38 68.5737 122.557 68.2945C122.991 68.1839 123.429 68.0738 123.872 67.9761C123.674 68.1363 123.563 68.3338 123.671 68.6627C124.397 67.907 124.908 67.7857 125.6 67.6358C127.006 67.4051 128.412 67.2898 129.819 67.2898C135.278 67.4898 140.154 69.1377 144.458 72.6155C144.421 73.7284 144.358 74.8371 144.269 75.9454C143.906 76.5942 144.015 76.8233 144.164 76.9972C144.13 77.3187 144.097 77.6401 144.064 77.9653C143.812 77.644 143.456 77.3866 143.272 77.084C143.456 77.8712 143.733 78.1773 144.003 78.5247C143.971 78.8156 143.943 79.1071 143.9 79.3962C143.785 79.4391 143.642 79.3699 143.53 79.3903C143.584 79.6835 143.683 79.9071 143.795 80.1174C143.683 80.9067 143.571 81.696 143.433 82.4774C143.402 82.5108 143.38 82.6226 143.35 82.9022C143.077 84.4077 142.744 85.9149 142.376 87.405C142.193 87.5832 142.025 87.6714 141.886 87.6758C142.016 87.7507 142.13 87.8575 142.228 87.9963C142.038 88.7346 141.832 89.4742 141.616 90.2083L140.795 91.8791C139.837 92.0552 140.872 90.638 140.715 89.7939C139.942 91.7723 140.438 91.2101 140.418 92.914C140.256 93.2722 140.254 93.841 140.261 94.4035C140.022 95.0686 139.766 95.727 139.51 96.3854C139.5 96.3262 139.499 96.2645 139.479 96.1999C139.032 97.6003 138.38 96.5761 138.278 98.0937C138.494 97.9595 138.791 97.7921 139.042 97.5634C138.723 98.3309 138.387 99.0916 138.043 99.8475C137.874 100.059 137.693 100.11 137.498 99.8096C137.226 100.496 137.188 101.082 137.334 101.386C137.148 101.772 136.943 102.158 136.749 102.545C136.56 101.838 136.992 100.739 136.049 101.679L136.093 103.035C135.741 103.079 134.828 104.712 134.278 104.285C134.037 104.899 134.237 105.143 134.128 105.706C133.588 105.957 133.195 106.144 133.244 106.932C135.066 104.773 134.78 105.569 136.14 103.531C136.178 103.576 136.172 103.637 136.155 103.718C135.189 105.523 134.147 107.282 133.037 108.979C132.718 109.008 132.776 108.252 132.607 108.021C131.608 109.098 132.403 109.749 131.39 110.609C132.083 108.663 130.638 110.949 129.947 111.229C130.643 111.315 131.375 111.029 132.301 110.079C129.339 114.422 125.871 118.411 121.889 121.798C121.809 121.782 122.819 121.006 121.889 121.798ZM86.6927 99.7998C86.6213 100.173 86.4917 100.348 86.3408 100.447C86.4538 100.234 86.5754 100.015 86.6927 99.7998ZM82.4734 120.004C82.5147 119.911 82.5511 119.801 82.5845 119.664C82.5845 119.664 82.6676 120.427 82.8312 121.181C82.8705 121.425 82.9244 121.649 82.9764 121.861C82.7753 121.248 82.6125 120.63 82.4734 120.004C82.5147 119.911 82.6125 120.63 82.4734 120.004ZM87.335 100.026C86.968 100.302 86.7363 100.064 86.7194 99.7503C86.9966 99.2413 87.2834 98.7417 87.5813 98.2438C87.3359 98.8116 87.2148 99.3996 87.335 100.026C86.968 100.302 87.2148 99.3996 87.335 100.026ZM132.47 109.845L132.227 109.494C132.615 108.899 132.647 109.239 132.996 109.049C132.818 109.316 132.648 109.577 132.47 109.845ZM168.397 103.479C167.557 97.4571 166.586 91.2026 164.122 85.6416C162.489 81.0951 160.241 76.9147 157.292 73.3401L157.873 73.972C156.928 72.6201 155.687 71.5047 154.651 70.2304C154.698 68.6578 154.948 67.1064 154.921 65.5333C154.866 64.4518 154.632 62.9262 154.249 60.5344C154.268 62.0908 154.28 63.646 154.314 65.2009C154.311 65.3581 154.306 65.5303 154.302 65.695C153.934 59.9992 152.761 54.3696 150.844 49.0199C150.48 47.8347 150.459 47.3659 151.083 48.2818C150.693 47.2846 150.36 46.3273 149.957 45.478C149.247 44.0871 148.583 42.6458 147.755 41.3165C147.366 40.7501 146.978 40.1837 146.541 39.6558C145.049 37.0468 143.366 34.5799 141.517 32.2516C144.013 34.615 148.701 41.7074 144.207 34.1773C144.328 34.0546 138.812 28.3473 138.695 28.4937C137.718 26.8521 136.048 25.4907 134.662 24.2214C132.938 22.6322 130.893 21.2643 129.324 19.5272C129.114 19.3202 129.042 19.1855 129.148 19.1565C127.206 18.0551 126.059 17.4509 124.974 16.9683C123.86 16.5503 122.834 16.1888 121.184 15.4919C118.18 13.7195 115.051 12.6571 111.629 12.1052C116.145 13.3835 119.048 14.6668 121.177 15.6716C122.423 16.3416 123.71 16.9683 124.928 17.6953C126.217 18.5414 127.501 19.3907 128.8 20.223C130.135 21.2458 131.471 22.2648 132.803 23.2833C133.851 24.2483 135.142 25.3139 136.585 26.7192C136.493 26.662 136.276 26.4926 135.994 26.2664C125.993 16.9059 112.909 11.7772 99.3421 11.4996C99.0271 11.3834 99.6696 11.2602 99.6854 11.2551C100.2 11.1574 100.721 11.0915 101.238 11.0212C101.9 10.9895 102.652 11.0455 103.288 10.8482C100.266 10.3761 97.0792 10.5079 94.0559 10.9507C90.9219 11.4063 87.756 11.803 84.6392 12.3614C85.5794 12.1132 86.5343 11.9135 87.4934 11.7337C87.7803 11.6762 89.1204 11.2042 89.2801 11.3068C88.7808 10.9841 87.091 11.4612 86.552 11.5242C82.8839 12.0821 79.2464 12.8448 75.6108 13.6194C76.9161 13.5724 78.7964 13.4259 81.5169 12.9766C82.8915 12.8254 84.4829 12.6092 86.3319 12.3307C87.5781 12.2088 88.8194 12.0937 90.0631 11.9637C77.8522 13.3966 65.7202 17.5489 54.5985 22.9024C49.3934 25.4077 44.3662 28.3454 39.7417 31.8556C37.4334 33.6094 35.2253 35.5101 33.1586 37.5566C32.2119 38.4959 31.236 39.4534 30.3882 40.5009C30.0421 40.9256 29.7444 41.4928 29.9357 42.0504C30.445 43.5205 32.9743 43.6747 34.203 43.7076C35.8879 43.7487 38.3072 43.5853 39.5317 42.2026C44.7307 36.3399 51.1526 31.7316 57.9857 28.0855C58.1069 28.0551 58.1672 28.0533 58.1532 28.0934C58.2901 27.9886 58.4429 27.8786 58.6072 27.7667C62.5099 25.7318 66.5798 23.9854 70.7013 22.501C70.3153 22.7309 69.8436 22.9816 69.2518 23.2553C68.3697 23.7012 67.2179 24.1921 65.7476 24.82C72.5617 22.5704 79.4295 20.4293 86.4517 18.9822C92.7717 17.6795 99.3119 17.5233 105.697 18.2573C106.038 18.3315 106.38 18.4212 106.722 18.5072C108.423 19.0545 108.942 19.369 108.715 19.4092C107.967 19.4654 107.114 19.1933 106.384 19.0716C105.096 18.8447 103.802 18.659 102.498 18.5371C100.007 18.2852 97.3921 18.1479 94.8956 18.4873C117.895 18.391 138.468 36.6695 141.876 59.9266L141.978 60.6696L142.03 61.0395L142.061 61.2251C142.053 61.2738 142.115 61.3992 142.027 61.3426C141.322 61.106 140.619 60.8119 139.89 60.6597L138.813 60.4052C138.314 60.2938 137.808 60.1739 137.301 60.0613C134.647 59.6794 132.034 59.4847 129.347 59.5203C129.079 60.0422 128.215 60.2604 126.84 60.4808C126.158 60.6206 125.346 60.7897 124.418 60.986C123.5 61.2146 122.475 61.526 121.366 61.9354C120.555 62.0315 119.744 62.1313 118.937 62.228C118.667 62.2729 118.486 62.3051 118.486 62.3051C118.602 62.2585 118.706 62.2638 118.799 62.3172C118.879 62.4954 118.002 63.0037 118.566 63.0639C104.521 67.196 91.0468 77.7834 82.2596 90.2648C83.3805 87.8504 84.7708 85.5794 86.375 83.4698C77.9166 94.2625 68.3641 109 72.5468 123.413C70.8053 119.979 70.8718 115.195 71.3727 111.462C71.9128 107.416 73.1358 103.392 74.8082 99.6744C73.2911 102.825 72.1995 106.243 71.4746 109.667C71.0968 111.452 70.8535 113.262 70.737 115.077C70.7 115.679 70.9264 117.484 70.4878 117.971L71.2978 119.251C71.4598 120.688 71.6237 121.741 71.7934 122.48C71.8657 122.868 72.1817 123.677 72.0683 124.077C72.0658 124.092 71.5744 123.233 71.5255 123.117C71.3203 122.646 71.1589 122.158 70.9767 121.683C70.6865 120.948 70.4596 120.681 70.487 121.696C71.1304 125.218 72.2964 127.778 73.3635 129.604C73.9475 130.494 74.4291 131.252 74.9488 131.82C75.4387 132.411 75.859 132.874 76.2706 133.206C77.0408 133.895 77.551 134.22 77.9307 134.331C78.4444 134.518 78.7236 134.205 79.217 134.239C79.9694 134.318 80.6851 134.741 81.3513 135.075C84.333 137.006 87.8424 138.106 91.331 138.592C94.7997 139.271 98.6185 138.895 102.076 138.272C101.745 138.396 101.541 138.497 101.45 138.594C101.165 138.875 101.856 139.006 102.334 139.09C105.543 137.893 108.79 136.806 112.039 135.731C115.565 134.566 118.879 132.997 122.116 131.155C123.466 130.254 125.029 129.348 126.613 128.066C126.888 128.153 125.483 129.418 123.825 130.627C122.22 131.91 120.342 133.064 120.073 133.547C125.399 130.358 130.09 126.412 134.444 121.951C135.745 120.492 137.599 118.719 138.238 116.8C139.505 115.389 140.546 113.885 141.637 112.496C143.027 110.39 144.418 108.319 145.734 106.159C148.96 100.228 151.648 94.0988 153.157 87.4677C153.17 87.5006 153.18 87.5292 153.198 87.559C153.006 88.5392 152.082 90.9431 152.783 91.7828C152.962 91.9963 152.899 92.3897 152.877 92.64C152.771 93.6918 152.49 94.7383 152.239 95.7627C152.822 93.5154 153.355 91.2599 153.794 88.9815C156.18 95.0682 157.327 101.582 157.637 108.126C157.587 114.204 156.797 120.263 155.382 126.174C155.19 126.132 155.077 125.737 154.906 124.848C154.162 128.554 152.327 132.068 151.806 135.809C151.296 139.46 149.496 142.899 147.876 146.152C149.084 143.779 150.185 141.369 151.259 138.924C151.037 139.507 150.848 140.03 150.664 140.539C147.631 147.808 143.729 154.791 139.223 161.381C139.287 160.849 139.804 159.733 138.322 161.947C137.982 162.681 137.526 163.51 136.979 164.414C132.189 171.692 125.657 177.725 119.372 183.624C119.372 183.624 119.824 183.174 120.261 182.721C120.689 182.252 121.116 181.79 121.116 181.79C118.484 184.226 115.674 186.464 112.86 188.675C112.761 188.732 112.835 188.644 112.779 188.666C112.681 188.834 112.578 189.006 112.541 189.143C108.932 191.498 102.511 196.218 95.0076 200.924C94.1315 201.752 93.0334 202.375 92.0212 202.999C90.1337 204.168 88.1925 205.25 86.2299 206.279C81.6308 208.702 76.8668 210.705 72.0656 212.66C69.311 213.646 67.1673 214.519 66.2292 214.918C69.7198 213.647 72.6934 212.558 77.0572 210.967L76.6546 211.951C72.7458 213.489 72.5629 213.367 72.441 213.286C72.3215 213.213 72.266 213.162 68.5491 214.696C69.5966 215.015 71.1533 214.293 72.1165 213.949C74.0375 213.271 75.8967 212.394 77.7585 211.572C80.0815 210.424 82.4101 209.312 84.7295 208.163C82.2827 209.753 79.639 211.145 76.9644 212.286C79.3127 211.307 81.6486 210.288 83.9566 209.211C81.2165 210.526 78.4293 211.738 75.6037 212.862C76.0591 212.666 76.5127 212.482 76.9644 212.286C72.6617 213.987 68.3492 215.633 63.9065 216.923C64.4111 216.585 64.283 216.449 62.6814 216.775C60.3083 217.419 57.8784 217.881 55.4852 218.441C53.0341 219.01 50.6375 219.777 48.1944 220.39C45.6201 220.794 43.042 221.151 40.4394 221.335C40.1926 221.283 40.1103 221.212 40.0943 221.125C40.0644 221.009 40.1294 220.885 40.0379 220.778C39.9701 220.663 39.6564 220.609 39.1702 220.53C40.2772 219.759 41.6349 218.736 43.6135 217.306L42.1507 218.631C41.7194 219.05 41.3477 219.447 40.5887 219.967C41.0827 219.881 41.6947 219.738 42.1958 219.63C42.0959 219.553 41.9441 219.517 41.9306 219.438C42.7548 218.932 43.8201 218.397 44.4514 217.622C45.264 216.63 45.9337 215.827 47.0182 215.102C45.7648 215.711 45.3889 215.67 40.9585 219C40.9658 219.001 40.5987 219.184 40.5736 219.084C40.4672 218.721 42.0307 217.654 42.2894 217.446C43.1462 216.739 44.0145 216.052 44.8921 215.378L43.6031 216.301C43.6767 216.217 43.746 216.136 43.8148 216.058C49.3997 211.919 54.9986 207.808 60.3212 203.319C60.3608 203.283 60.4161 203.242 60.4496 203.22C60.0268 203.633 59.6106 204.05 59.1787 204.449C61.3594 202.487 63.5407 200.52 65.7507 198.585C67.5291 196.884 69.3447 195.232 71.1066 193.516L71.0422 193.66C71.3245 193.375 71.5788 193.101 71.8185 192.824C73.7398 190.935 75.619 189.004 77.4689 187.045C77.4087 187.116 77.3765 187.2 77.384 187.293C77.5321 187.398 78.3563 186.427 78.4305 186.339C78.8747 186.003 78.7568 185.177 78.293 184.495C79.3546 185.423 78.6937 186.359 77.9992 187.246C74.8724 190.656 71.6278 193.843 68.2419 196.976C69.8823 195.48 71.5852 193.851 73.4654 192.682C74.0826 192.343 73.3658 193.416 70.2629 196.352C71.8053 195.44 73.0723 193.98 74.2664 192.646C75.7768 190.956 77.2975 189.294 78.8854 187.681C79.1171 187.384 79.3348 187.104 79.5458 186.819C78.7659 187.608 79.6752 186.063 79.2395 186.393C79.7286 186.36 79.6469 185.286 79.5874 185.003C79.4196 184.254 78.9881 183.58 78.5238 182.994C77.3524 181.513 75.7891 180.346 74.209 179.353C72.6148 178.354 70.8923 177.499 69.0837 176.969C68.6785 176.854 65.8766 176.04 65.5863 176.678C68.3888 176.58 71.2687 177.956 73.6394 179.349C73.6896 179.573 71.9485 178.904 71.8211 178.856C70.6577 178.396 69.4766 177.951 68.2489 177.703C67.2483 177.373 66.1801 177.112 65.1246 177.215C63.9485 177.321 63.3457 178.012 62.5634 178.839C60.6897 180.829 58.7776 182.777 56.8277 184.681C52.8427 188.575 48.7003 192.305 44.4188 195.851C40.1002 199.442 35.615 202.786 31.1133 206.116C28.763 207.852 26.412 209.591 24.0781 211.341C21.9737 212.923 19.6129 214.096 17.3938 215.507C17.3563 215.251 17.6654 214.985 17.7187 214.748C17.815 214.313 16.4076 215.04 16.3376 215.079C14.4422 216.249 12.1733 217.852 11.4208 220.099C11.0435 220.903 11.1349 221.894 11.802 222.502C12.099 222.73 12.2877 222.653 12.5321 222.742C12.5394 222.744 12.5498 222.749 12.5571 222.75C13.8301 224.647 16.0937 226.101 18.0011 227.25C18.5358 228.075 19.7305 228.713 21.161 228.89C24.9794 230.587 29.0794 231.49 33.1773 232.151C37.4684 232.847 41.7879 233.39 46.1127 233.807C54.9073 234.672 63.7348 234.962 72.5675 235.103C72.5865 235.217 72.1798 235.344 71.2157 235.484C77.2397 235.714 74.5865 235.398 73.8132 235.123C76.7755 235.174 79.7634 235.206 82.7647 235.225C83.1042 235.399 83.331 235.574 80.3859 235.649C85.4056 235.943 86.1709 235.617 86.7601 235.243C92.3782 235.245 98.0364 235.162 103.678 234.927C104.719 235.006 105.606 235.088 106.268 235.191C109.289 235.017 112.348 234.799 115.32 234.186C118.211 233.934 121.084 233.628 123.935 233.254C122.708 233.513 121.988 233.77 122.241 234.061C125.752 233.336 129.236 232.525 132.765 231.879C134.889 231.361 131.837 228.423 131.219 227.816C129.765 226.409 128.219 225.298 126.441 224.346C125.173 223.672 123.841 223.096 122.44 222.782C120.877 222.43 119.444 222.591 117.881 222.865C114.705 223.418 111.516 223.842 108.312 224.171C95.3788 225.502 82.377 225.281 69.4056 225.454C63.8204 225.525 58.237 225.494 52.6534 225.323C76.8997 220.941 100.005 210.312 119.331 194.579C120.189 193.975 120.904 193.448 121.49 193.004C122.468 192.193 123.436 191.354 124.261 190.38C125.855 188.96 127.414 187.505 128.945 186.014C127.774 187.509 126.984 188.823 125.729 190.236C127.827 188.11 129.03 186.67 129.964 185.559C130.578 184.77 131.045 184.111 131.529 183.436C132.926 182.004 134.294 180.548 135.629 179.06C135.885 178.936 135.797 179.23 136.029 179.136C137.209 177.708 138.006 176.576 138.682 175.547C142.092 171.498 145.286 167.257 148.222 162.844C149.695 161.01 150.856 158.767 152.056 156.742C153.551 154.219 154.967 151.652 156.296 149.037C158.949 143.821 161.261 138.419 163.183 132.873C163.53 132.164 163.805 131.293 164.303 130.674C164.227 130.216 164.294 129.727 164.354 129.267C165.828 124.265 166.847 118.835 167.293 113.301C167.535 111.287 167.653 109.253 167.729 107.227C167.739 105.445 167.779 103.664 167.679 101.883C167.679 101.883 167.762 101.3 167.897 101.322C168.198 101.367 168.256 103.076 168.271 103.305C168.406 107.287 168.183 111.222 168.093 115.202C168.509 111.598 168.526 109.167 168.584 107.388C168.537 105.612 168.475 104.487 168.397 103.479C168.117 101.473 168.475 104.487 168.397 103.479Z" fill="#EEA562"/>
</svg>
