<svg width="147" height="228" viewBox="0 0 147 228" fill="none" xmlns="http://www.w3.org/2000/svg">
<path d="M47.5731 144.856C48.3321 146.195 49.011 147.482 49.6075 148.69C50.7371 149.984 50.712 149.444 50.1979 148.459C48.8105 146.483 47.4491 144.481 46.1161 142.444C46.6135 143.238 47.1049 144.036 47.5731 144.856C48.3321 146.195 47.1203 144.068 47.5731 144.856ZM52.0849 151.109C51.4656 150.253 50.852 149.389 50.2414 148.525C51.0917 149.936 51.6299 150.621 52.0849 151.109ZM110.27 204.335C112.124 205.167 113.979 206.002 115.846 206.803C113.788 205.869 111.737 204.918 109.702 203.916C109.418 203.841 109.082 203.741 108.674 203.61C108.674 203.61 109.31 203.903 110.27 204.335C111.23 204.766 109.31 203.903 110.27 204.335ZM115.025 172.308C113.253 169.923 113.825 171.03 112.778 169.925C113.561 171.006 114.354 172.077 115.157 173.137L115.025 172.308ZM0.895127 17.6436C1.0102 17.4474 1.15841 17.4145 1.28606 17.2904C1.12168 15.9121 0.960424 14.5336 0.82132 13.1564C0.772168 12.6654 0.621287 12.1269 0.911642 11.7393C1.36022 11.145 2.19647 11.0255 2.81179 10.9352C5.03713 10.6113 7.42289 10.9714 9.60947 11.7178C11.0761 12.2213 13.7154 13.2506 13.9414 15.5874C14.535 21.7377 15.4301 27.8449 16.5409 33.9001C16.6555 33.95 16.7233 33.6815 16.729 32.9531C17.624 37.1127 16.9763 35.0288 16.6822 34.6888C17.0506 36.6742 17.454 38.6631 17.8693 40.6444C18.0562 40.8375 18.2669 41.0517 17.9088 39.0057C18.8483 42.3404 18.6632 42.8518 18.4474 43.336C19.2552 47.0013 20.1306 50.6475 21.0636 54.2686C21.3493 54.945 21.6215 55.5029 21.8548 55.9046C22.6789 59.1431 23.0295 60.9239 23.1515 61.9968C23.6774 63.8753 24.2178 65.7393 24.7699 67.5923C24.608 66.6758 24.5872 66.076 24.8868 66.1197C25.8074 72.4109 28.0884 78.4936 30.1422 84.3535C32.4665 90.9675 34.9957 97.5139 37.7314 103.903C43.109 116.432 49.2389 128.531 56.1883 139.813C61.4098 148.285 67.1196 156.292 73.2664 163.715L73.2595 163.709C75.1737 165.589 75.6569 166.365 75.9924 166.964C76.8325 167.934 77.6928 168.883 78.5533 169.835C77.936 168.749 77.5526 167.782 76.9194 166.767C78.8281 169.269 79.3633 170.352 80.0639 171.528C80.8451 172.363 81.6464 173.178 82.4389 173.999C82.6537 174.08 82.582 173.801 82.7402 173.81C83.4803 174.716 83.9935 175.439 84.4439 176.091C86.6489 178.238 88.8267 180.435 91.0646 182.526C91.0992 182.49 91.4508 182.805 92.8481 184.172C97.0397 187.984 101.367 191.551 105.915 194.614C106.669 194.957 107.189 195.108 107.401 195.086C107.481 195.315 107.696 195.619 108.021 195.986C110.362 197.457 112.718 198.777 115.1 199.995C117.207 200.911 119.313 201.844 121.443 202.671C121.958 202.62 121.714 202.349 121.382 202.148C120.72 201.738 120.012 201.45 119.328 201.118C117.918 200.43 116.474 199.792 115.133 198.885C119.493 200.914 120.274 201.358 121.493 202.119L120 200.591L119.404 199.459L121.796 202.312C122.076 202.493 122.396 202.691 122.778 202.927C121.993 202.005 121.148 200.946 120.319 199.888C118.421 197.863 116.528 195.832 114.637 193.79C114.753 193.959 114.871 194.118 114.981 194.298C111.187 189.82 112.412 192.711 108.913 187.928C109.508 188.461 110.289 189.084 111.135 189.831C108.977 187.324 106.864 184.75 104.82 182.106C104.187 181.38 103.858 181.14 104.124 181.951C102.336 179.505 101.144 177.565 100.794 176.694C99.7952 175.309 98.8044 173.91 97.8308 172.493C98.8337 174.679 101.323 178.496 98.1602 174.535L97.0355 172.396C96.6362 171.643 96.2371 170.893 95.6657 170.225L95.7332 169.917C95.6383 169.839 95.4864 169.649 95.2898 169.381C95.0825 169.133 94.8417 168.719 94.9383 168.202C95.1562 166.84 96.1304 165.778 96.9087 164.922C97.1073 164.708 99.0611 162.717 98.8624 162.568C100.309 161.654 101.831 161.238 103.428 160.896C104.994 160.078 107.195 159.627 108.351 161.799C108.561 162.143 108.735 162.523 108.918 162.89C108.608 162.468 108.359 162.138 108.217 161.96C106.765 159.787 104.179 160.664 102.481 161.514C100.506 162.504 98.5948 163.974 96.9758 165.69C96.4327 166.32 95.7059 167.008 95.3396 168.22C95.3997 168.151 95.4844 167.968 95.6025 167.735C96.2723 166.357 97.4912 165.356 98.5486 164.526C100.015 163.371 101.615 162.407 103.298 161.822C104.459 161.414 106.086 160.98 107.198 161.966C108.135 162.789 108.863 164.34 109.606 165.429C110.602 166.884 111.614 168.318 112.639 169.738C113.07 170.069 112.495 168.849 112.447 168.737C112.247 168.283 111.919 167.736 111.849 167.224C113.097 168.936 114.291 170.637 115.406 172.484C116.352 174.057 117.319 175.508 118.519 176.782C117.318 175.132 116.896 174.375 116.9 174.275C116.892 174.332 117.925 175.382 118.015 175.477C118.511 176.042 119.005 176.61 119.498 177.179C120.467 178.291 121.427 179.48 122.488 180.454C119.865 179.108 117.445 176.055 115.467 173.546C121.95 182.083 129.096 189.596 136.217 197.25C138.773 199.995 141.825 202.009 144.236 204.966C145.153 206.093 146.622 208.101 145.886 209.761C144.972 211.808 142.715 213.175 141.104 214.157L142.573 214.79L140.359 214.601C138.293 215.732 136.103 216.428 133.851 216.881C133.807 216.921 133.81 216.954 133.876 216.982C133.764 216.968 133.637 216.956 133.498 216.948C131.253 217.373 128.945 217.572 126.609 217.716C127.214 217.906 128.115 217.986 129.522 217.877C126.048 218.755 122.415 218.919 118.851 218.951C115.165 218.981 111.329 218.777 107.684 217.719C107.471 217.705 107.257 217.697 107.044 217.679C102.923 218.022 110.937 218.828 113.451 219.323C105.28 219.355 97.0636 218.653 88.895 217.814C81.2342 217.023 73.5839 215.993 65.9711 214.454C65.79 213.316 64.223 213.466 61.8622 212.13L60.3138 212.132C60.8114 212.136 60.0372 211.595 60.3101 211.368C57.2686 210.6 54.2373 209.731 51.2336 208.711C49.5695 208.145 50.6129 206.648 51.4302 205.662C54.003 202.576 58.115 199.708 61.8203 200.797C60.4728 199.927 58.9986 199.733 57.5497 200.083C58.6439 199.818 59.7701 199.666 60.8972 199.814C62.5226 200.117 64.1306 200.798 65.7389 201.266C67.3185 201.729 68.9164 202.042 70.5078 202.388C73.6815 203.085 76.8673 203.668 80.0343 204.432C79.4515 203.994 78.6624 203.86 78.022 203.663C76.7419 203.277 75.462 202.893 74.1821 202.546C72.1423 202.003 70.1308 201.314 68.0907 200.768C69.9842 201.257 71.8796 201.77 73.7779 202.206C74.5548 202.381 75.3349 202.555 76.1155 202.663C76.3515 202.699 77.1425 202.926 77.3213 202.631L77.9168 203.503C83.6239 204.557 77.2112 202.667 79.1163 202.498C80.9619 202.835 82.8432 203.113 84.6677 203.678C85.2047 203.844 86.0802 204.03 86.3611 204.724C86.733 205.632 86.8723 205.929 87.761 206.267C89.6363 206.512 91.5102 206.74 93.3803 206.963C93.8341 206.969 94.369 207.039 94.9647 207.157C96.3483 207.322 97.7284 207.484 99.0967 207.653C98.3873 207.28 98.8982 206.966 99.2186 206.779C101.481 207.854 103.653 207.894 106.001 207.855C108.408 207.814 110.794 208.062 113.2 208.254C113.268 208.068 109.235 207.187 108.882 206.713C110.403 207.042 112.196 207.284 113.956 207.513C112.418 206.76 110.742 205.882 112.927 206.752C113.61 207.075 114.159 207.349 114.625 207.597C115.37 207.695 116.112 207.793 116.854 207.901C113.124 206.303 109.401 204.65 105.774 202.653C106.222 202.92 108.571 203.911 108.597 204.823C108.624 205.745 109.767 206.287 110.302 206.652C105.919 203.738 101.484 200.851 97.3009 197.467L95.67 196.09C95.1739 195.672 94.6846 195.259 94.1883 194.837C91.2245 192.759 88.3184 190.513 85.4912 188.124C85.4187 188.304 85.4779 188.621 85.6867 189.211C84.4542 188.251 83.2156 187.296 82.042 186.219C81.5911 185.813 81.1182 185.372 80.7818 184.8C79.6993 182.963 78.2439 181.651 76.7939 180.292C77.6789 181.092 78.5609 181.892 79.4457 182.689C75.9154 179.315 72.5258 175.712 69.1779 172.046C69.2519 172.461 69.5659 173.065 68.5452 171.902C68.1263 171.14 67.4976 170.285 66.7411 169.37C63.5608 165.786 59.9947 162.614 57.0481 158.713C57.3414 159.153 57.6524 159.577 57.9573 160.006C56.4653 158.418 55.0291 156.749 53.5727 155.101C53.5187 155.059 53.5472 155.133 53.5145 155.119C53.4834 154.979 53.4497 154.846 53.4524 154.733C50.2937 152.044 47.6193 148.053 45.2513 144.327C44.7756 142.916 43.765 141.615 43.0479 140.395C42.0052 138.618 40.904 136.893 39.882 135.101C38.8418 133.28 37.8079 131.459 36.8119 129.605C36.2108 128.488 35.484 127.302 35.1059 126.035C36.1083 128.287 37.1572 130.064 38.7643 132.573L39.0376 131.701C36.3601 127.026 38.3672 131.846 36.1545 127.05C36.5909 127.145 36.9728 127.806 37.2311 128.206C37.8173 129.115 38.3257 130.108 38.8239 131.092C39.7883 132.982 40.6896 134.977 41.8589 136.69C41.1076 134.934 40.2493 133.214 39.3762 131.542C39.8908 132.424 40.3976 133.327 40.9292 134.188C40.3757 133.256 39.8276 132.314 39.282 131.364C39.3125 131.425 39.346 131.485 39.3762 131.542C37.9279 129.013 36.5054 126.455 35.1269 123.859C35.1264 124.142 34.9579 124.087 34.4395 123.341C32.7419 120.588 31.4758 117.767 30.4377 114.564C29.6544 112.947 28.8857 111.316 28.1348 109.673C27.4896 108.988 26.9602 108.476 26.4686 107.568C25.8581 106.451 25.3344 105.247 24.8271 104.052C25.4068 105.753 26.0067 107.432 26.6221 109.11C25.7911 107.92 25.027 106.63 24.6069 105.135C24.1968 103.681 23.8992 102.291 23.25 100.949C23.9465 102.005 24.1375 101.885 25.8649 105.989C26.3071 106.223 25.0841 103.029 24.4799 101.516L24.9116 102.459C24.9007 102.407 24.8899 102.355 24.8821 102.302C23.1041 98.1232 21.4155 93.8866 19.8015 89.6036C19.7855 89.5651 19.7664 89.5269 19.7511 89.495L20.1688 90.9276C19.0355 87.4635 17.7549 84.0788 16.5707 80.6457L16.5538 80.7402C16.499 80.5456 16.4511 80.357 16.4069 80.1747C15.813 78.455 15.2341 76.7274 14.6674 74.9953C14.6711 75.4703 14.5059 75.272 13.9067 73.2403C13.8315 73.7488 14.0649 74.4397 14.1891 74.9241C14.4353 75.9063 14.727 76.868 15.0434 77.8242C15.6884 79.7688 16.3786 81.6895 17.1019 83.594C16.6358 82.365 16.1128 80.556 15.2693 79.6192C15.0535 79.3822 15.1385 79.8866 15.1616 80.0075C15.3391 80.9593 15.6751 81.8872 15.9772 82.7881C15.0641 81.5583 14.4131 77.743 13.3321 75.0222C13.6254 75.4619 13.4862 74.4802 13.6909 74.6252C13.0705 74.7658 11.9512 69.9843 11.8071 69.4518C11.5095 68.2779 11.2329 67.0922 11.0026 65.8958C10.9508 65.6278 10.544 64.1045 10.7829 63.8842L12.0202 69.2969C12.3694 69.4027 11.9321 67.0611 11.7147 65.581C7.65548 52.0356 4.24348 37.7922 2.14427 23.6601C1.91843 23.8494 1.80272 24.9397 1.33249 23.3388C1.14273 22.355 0.942457 21.3587 0.829354 20.3515C0.744961 19.6011 0.517327 18.2914 0.895127 17.6436C1.0102 17.4474 0.777221 17.8433 0.895127 17.6436Z" fill="#60B3B3"/>
</svg>
