<svg width="568" height="568" viewBox="0 0 568 568" fill="none" xmlns="http://www.w3.org/2000/svg">
<circle cx="267.5" cy="300.5" r="227" stroke="white"/>
<circle cx="267.5" cy="300.5" r="227" stroke="white"/>
<path d="M534.5 266.5C534.5 399.602 426.824 507.5 294 507.5C161.176 507.5 53.5 399.602 53.5 266.5C53.5 133.398 161.176 25.5 294 25.5C426.824 25.5 534.5 133.398 534.5 266.5Z" stroke="white"/>
<path d="M534.5 266.5C534.5 399.602 426.824 507.5 294 507.5C161.176 507.5 53.5 399.602 53.5 266.5C53.5 133.398 161.176 25.5 294 25.5C426.824 25.5 534.5 133.398 534.5 266.5Z" stroke="white"/>
<mask id="mask0_251:985" style="mask-type:alpha" maskUnits="userSpaceOnUse" x="83" y="83" width="402" height="402">
<circle cx="284" cy="284" r="200.818" transform="rotate(-45 284 284)" fill="#C4C4C4"/>
</mask>
<g mask="url(#mask0_251:985)">
<rect x="-27.0474" y="319.742" width="489.751" height="4.78139" transform="rotate(-45 -27.0474 319.742)" fill="#F5F5F7"/>
<rect x="-17.3877" y="329.401" width="489.751" height="4.78139" transform="rotate(-45 -17.3877 329.401)" fill="#F5F5F7"/>
<rect x="-7.72754" y="339.061" width="489.751" height="4.78139" transform="rotate(-45 -7.72754 339.061)" fill="#F5F5F7"/>
<rect x="1.93213" y="348.721" width="489.751" height="4.78139" transform="rotate(-45 1.93213 348.721)" fill="#F5F5F7"/>
<rect x="11.5923" y="358.381" width="489.751" height="4.78139" transform="rotate(-45 11.5923 358.381)" fill="#F5F5F7"/>
<rect x="21.252" y="368.041" width="489.751" height="4.78139" transform="rotate(-45 21.252 368.041)" fill="#F5F5F7"/>
<rect x="30.9116" y="377.701" width="489.751" height="4.78139" transform="rotate(-45 30.9116 377.701)" fill="#F5F5F7"/>
<rect x="40.5718" y="387.36" width="489.751" height="4.78139" transform="rotate(-45 40.5718 387.36)" fill="#F5F5F7"/>
<rect x="50.2314" y="397.021" width="489.751" height="4.78139" transform="rotate(-45 50.2314 397.021)" fill="#F5F5F7"/>
<rect x="59.8911" y="406.68" width="489.751" height="4.78139" transform="rotate(-45 59.8911 406.68)" fill="#F5F5F7"/>
<rect x="69.5513" y="416.34" width="489.751" height="4.78139" transform="rotate(-45 69.5513 416.34)" fill="#F5F5F7"/>
<rect x="79.2109" y="426" width="489.751" height="4.78139" transform="rotate(-45 79.2109 426)" fill="#F5F5F7"/>
<rect x="88.8706" y="435.66" width="489.751" height="4.78139" transform="rotate(-45 88.8706 435.66)" fill="#F5F5F7"/>
<rect x="98.5308" y="445.32" width="489.751" height="4.78139" transform="rotate(-45 98.5308 445.32)" fill="#F5F5F7"/>
<rect x="108.191" y="454.979" width="489.751" height="4.78139" transform="rotate(-45 108.191 454.979)" fill="#F5F5F7"/>
<rect x="117.851" y="464.64" width="489.751" height="4.78139" transform="rotate(-45 117.851 464.64)" fill="#F5F5F7"/>
<rect x="127.51" y="474.299" width="489.751" height="4.78139" transform="rotate(-45 127.51 474.299)" fill="#F5F5F7"/>
<rect x="137.17" y="483.959" width="489.751" height="4.78139" transform="rotate(-45 137.17 483.959)" fill="#F5F5F7"/>
<rect x="146.83" y="493.619" width="489.751" height="4.78139" transform="rotate(-45 146.83 493.619)" fill="#F5F5F7"/>
<rect x="156.49" y="503.279" width="489.751" height="4.78139" transform="rotate(-45 156.49 503.279)" fill="#F5F5F7"/>
<rect x="166.15" y="512.939" width="489.751" height="4.78139" transform="rotate(-45 166.15 512.939)" fill="#F5F5F7"/>
<rect x="175.81" y="522.599" width="489.751" height="4.78139" transform="rotate(-45 175.81 522.599)" fill="#F5F5F7"/>
<rect x="185.469" y="532.258" width="489.751" height="4.78139" transform="rotate(-45 185.469 532.258)" fill="#F5F5F7"/>
<rect x="195.13" y="541.918" width="489.751" height="4.78139" transform="rotate(-45 195.13 541.918)" fill="#F5F5F7"/>
<rect x="204.79" y="551.578" width="489.751" height="4.78139" transform="rotate(-45 204.79 551.578)" fill="#F5F5F7"/>
<rect x="214.449" y="561.238" width="489.751" height="4.78139" transform="rotate(-45 214.449 561.238)" fill="#F5F5F7"/>
<rect x="224.109" y="570.898" width="489.751" height="4.78139" transform="rotate(-45 224.109 570.898)" fill="#F5F5F7"/>
<rect x="233.769" y="580.558" width="489.751" height="4.78139" transform="rotate(-45 233.769 580.558)" fill="#F5F5F7"/>
<rect x="243.429" y="590.218" width="489.751" height="4.78139" transform="rotate(-45 243.429 590.218)" fill="#F5F5F7"/>
</g>
</svg>
