<svg width="25" height="24" viewBox="0 0 25 24" fill="none" xmlns="http://www.w3.org/2000/svg">
<path d="M13.2619 20.2362C8.36216 20.8757 3.66284 17.7441 3.67643 12.5783C3.68707 8.06107 6.47179 4.07522 11.06 3.61297C14.807 3.40785 18.9619 5.68185 20.1702 9.44959C21.7608 14.4096 18.3773 19.5682 13.2619 20.2362ZM11.06 2.7263C6.08402 3.22816 2.95349 7.3015 2.79034 12.2603C2.60355 17.9326 7.4885 21.6684 12.9764 21.1737C18.3247 20.6907 22.177 15.8336 21.3246 10.5047C20.5573 5.712 15.699 2.47272 11.06 2.7263Z" fill="white"/>
<path d="M13.6226 23.1225C7.26794 23.952 0.878589 19.4259 0.896221 12.7263C0.910021 6.86773 4.78133 1.40611 10.7319 0.806599C15.5916 0.540577 21.3763 3.62758 22.9433 8.5141C25.0063 14.9469 20.257 22.2562 13.6226 23.1225ZM10.7319 0.0180303C4.27842 0.668902 0.218319 5.95177 0.00672831 12.3831C-0.235528 19.7397 6.09994 24.5848 13.2174 23.9431C20.1539 23.3168 25.15 17.0173 24.0445 10.1062C23.0494 3.89029 16.7485 -0.310855 10.7319 0.0180303Z" fill="white"/>
<path d="M11.7951 12.4945C11.6201 12.4301 11.5084 12.3615 11.4534 12.1913C11.3961 12.011 11.4599 11.7462 11.5888 11.6126C11.8152 11.3797 12.3005 11.3283 12.5523 11.5346C13.1658 12.0269 12.3897 12.715 11.7951 12.4945ZM16.1167 7.54338C15.0373 8.61092 13.9408 9.66073 12.8295 10.6952C12.223 10.4126 11.4629 10.496 10.9616 10.986C10.3634 11.5712 10.4107 12.6742 11.1141 13.1359C11.2784 13.2435 11.4593 13.3232 11.6467 13.3723C11.6562 14.097 11.6751 14.8205 11.7129 15.5446C11.7431 16.1121 12.6297 16.1157 12.5996 15.5446C12.5617 14.8211 12.5428 14.0982 12.5334 13.3741C12.8005 13.3032 13.0488 13.166 13.2498 12.952C13.6535 12.5229 13.7528 11.8189 13.4856 11.2952C14.5863 10.269 15.6733 9.22863 16.7432 8.17054C17.1499 7.76859 16.5228 7.14142 16.1167 7.54338Z" fill="white"/>
</svg>
