<svg width="25" height="24" viewBox="0 0 25 24" fill="none" xmlns="http://www.w3.org/2000/svg">
<path d="M13.2624 20.236C8.36265 20.8756 3.66332 17.7439 3.67692 12.5782C3.68756 8.06095 6.47228 4.0751 11.0605 3.61285C14.8075 3.40773 18.9624 5.68173 20.1707 9.44947C21.7613 14.4095 18.3778 19.5681 13.2624 20.236ZM11.0605 2.72618C6.08451 3.22803 2.95398 7.30138 2.79083 12.2602C2.60404 17.9325 7.48899 21.6683 12.9769 21.1735C18.3252 20.6906 22.1775 15.8335 21.3251 10.5046C20.5578 5.71188 15.6995 2.4726 11.0605 2.72618Z" fill="#4D4E4E"/>
<path d="M13.6226 23.1225C7.26794 23.952 0.878589 19.4259 0.896221 12.7263C0.910021 6.86773 4.78133 1.40611 10.7319 0.806599C15.5916 0.540577 21.3763 3.62758 22.9433 8.5141C25.0063 14.9469 20.257 22.2562 13.6226 23.1225ZM10.7319 0.0180303C4.27842 0.668902 0.218319 5.95177 0.00672831 12.3831C-0.235528 19.7397 6.09994 24.5848 13.2174 23.9431C20.1539 23.3168 25.15 17.0173 24.0445 10.1062C23.0494 3.89029 16.7485 -0.310855 10.7319 0.0180303Z" fill="#4D4E4E"/>
<path d="M11.7946 12.4946C11.6196 12.4302 11.5079 12.3616 11.4529 12.1914C11.3956 12.0111 11.4594 11.7463 11.5883 11.6127C11.8147 11.3798 12.3 11.3283 12.5518 11.5346C13.1654 12.027 12.3892 12.7151 11.7946 12.4946ZM16.1162 7.54347C15.0368 8.61101 13.9403 9.66082 12.829 10.6953C12.2226 10.4127 11.4624 10.4961 10.9611 10.9861C10.3629 11.5713 10.4102 12.6743 11.1136 13.136C11.278 13.2435 11.4588 13.3233 11.6462 13.3724C11.6557 14.0971 11.6746 14.8206 11.7124 15.5447C11.7426 16.1122 12.6292 16.1157 12.5991 15.5447C12.5613 14.8212 12.5423 14.0983 12.5329 13.3742C12.8001 13.3032 13.0483 13.1661 13.2493 12.9521C13.653 12.523 13.7523 11.819 13.4852 11.2952C14.5858 10.2691 15.6728 9.22872 16.7428 8.17064C17.1494 7.76868 16.5223 7.14151 16.1162 7.54347Z" fill="#4D4E4E"/>
</svg>
