<svg width="517" height="328" viewBox="0 0 517 328" fill="none" xmlns="http://www.w3.org/2000/svg">
<mask id="mask0_238:954" style="mask-type:alpha" maskUnits="userSpaceOnUse" x="0" y="0" width="517" height="328">
<rect width="517" height="328" fill="#C4C4C4"/>
</mask>
<g mask="url(#mask0_238:954)">
<rect x="171.817" y="280.658" width="164.202" height="18.9737" transform="rotate(3.31143 171.817 280.658)" fill="#75C2C2" fill-opacity="0.62"/>
<path d="M184.646 291.48C181.793 291.48 179.206 290.867 176.886 289.64C174.593 288.387 172.779 286.667 171.446 284.48C170.139 282.267 169.486 279.773 169.486 277C169.486 274.227 170.139 271.747 171.446 269.56C172.779 267.347 174.593 265.627 176.886 264.4C179.206 263.147 181.806 262.52 184.686 262.52C187.113 262.52 189.299 262.947 191.246 263.8C193.219 264.653 194.873 265.88 196.206 267.48L192.046 271.32C190.153 269.133 187.806 268.04 185.006 268.04C183.273 268.04 181.726 268.427 180.366 269.2C179.006 269.947 177.939 271 177.166 272.36C176.419 273.72 176.046 275.267 176.046 277C176.046 278.733 176.419 280.28 177.166 281.64C177.939 283 179.006 284.067 180.366 284.84C181.726 285.587 183.273 285.96 185.006 285.96C187.806 285.96 190.153 284.853 192.046 282.64L196.206 286.48C194.873 288.107 193.219 289.347 191.246 290.2C189.273 291.053 187.073 291.48 184.646 291.48Z" fill="#4D4E4E"/>
<path d="M209.64 291.32C207.373 291.32 205.333 290.853 203.52 289.92C201.733 288.96 200.333 287.64 199.32 285.96C198.306 284.28 197.8 282.373 197.8 280.24C197.8 278.107 198.306 276.2 199.32 274.52C200.333 272.84 201.733 271.533 203.52 270.6C205.333 269.64 207.373 269.16 209.64 269.16C211.906 269.16 213.933 269.64 215.72 270.6C217.506 271.533 218.906 272.84 219.92 274.52C220.933 276.2 221.44 278.107 221.44 280.24C221.44 282.373 220.933 284.28 219.92 285.96C218.906 287.64 217.506 288.96 215.72 289.92C213.933 290.853 211.906 291.32 209.64 291.32ZM209.64 286.2C211.24 286.2 212.546 285.667 213.56 284.6C214.6 283.507 215.12 282.053 215.12 280.24C215.12 278.427 214.6 276.987 213.56 275.92C212.546 274.827 211.24 274.28 209.64 274.28C208.04 274.28 206.72 274.827 205.68 275.92C204.64 276.987 204.12 278.427 204.12 280.24C204.12 282.053 204.64 283.507 205.68 284.6C206.72 285.667 208.04 286.2 209.64 286.2Z" fill="#4D4E4E"/>
<path d="M247.291 269.48V291H241.371V288.44C240.544 289.373 239.557 290.093 238.411 290.6C237.264 291.08 236.024 291.32 234.691 291.32C231.864 291.32 229.624 290.507 227.971 288.88C226.317 287.253 225.491 284.84 225.491 281.64V269.48H231.731V280.72C231.731 284.187 233.184 285.92 236.091 285.92C237.584 285.92 238.784 285.44 239.691 284.48C240.597 283.493 241.051 282.04 241.051 280.12V269.48H247.291Z" fill="#4D4E4E"/>
<path d="M259.031 272.32C259.778 271.28 260.778 270.493 262.031 269.96C263.311 269.427 264.778 269.16 266.431 269.16V274.92C265.738 274.867 265.271 274.84 265.031 274.84C263.245 274.84 261.845 275.347 260.831 276.36C259.818 277.347 259.311 278.84 259.311 280.84V291H253.071V269.48H259.031V272.32Z" fill="#4D4E4E"/>
<path d="M277.46 291.32C275.673 291.32 273.927 291.107 272.22 290.68C270.513 290.227 269.153 289.667 268.14 289L270.22 284.52C271.18 285.133 272.34 285.64 273.7 286.04C275.06 286.413 276.393 286.6 277.7 286.6C280.34 286.6 281.66 285.947 281.66 284.64C281.66 284.027 281.3 283.587 280.58 283.32C279.86 283.053 278.753 282.827 277.26 282.64C275.5 282.373 274.047 282.067 272.9 281.72C271.753 281.373 270.753 280.76 269.9 279.88C269.073 279 268.66 277.747 268.66 276.12C268.66 274.76 269.047 273.56 269.82 272.52C270.62 271.453 271.767 270.627 273.26 270.04C274.78 269.453 276.567 269.16 278.62 269.16C280.14 269.16 281.647 269.333 283.14 269.68C284.66 270 285.913 270.453 286.9 271.04L284.82 275.48C282.927 274.413 280.86 273.88 278.62 273.88C277.287 273.88 276.287 274.067 275.62 274.44C274.953 274.813 274.62 275.293 274.62 275.88C274.62 276.547 274.98 277.013 275.7 277.28C276.42 277.547 277.567 277.8 279.14 278.04C280.9 278.333 282.34 278.653 283.46 279C284.58 279.32 285.553 279.92 286.38 280.8C287.207 281.68 287.62 282.907 287.62 284.48C287.62 285.813 287.22 287 286.42 288.04C285.62 289.08 284.447 289.893 282.9 290.48C281.38 291.04 279.567 291.32 277.46 291.32Z" fill="#4D4E4E"/>
<path d="M312.55 280.32C312.55 280.4 312.51 280.96 312.43 282H296.15C296.443 283.333 297.137 284.387 298.23 285.16C299.323 285.933 300.683 286.32 302.31 286.32C303.43 286.32 304.417 286.16 305.27 285.84C306.15 285.493 306.963 284.96 307.71 284.24L311.03 287.84C309.003 290.16 306.043 291.32 302.15 291.32C299.723 291.32 297.577 290.853 295.71 289.92C293.843 288.96 292.403 287.64 291.39 285.96C290.377 284.28 289.87 282.373 289.87 280.24C289.87 278.133 290.363 276.24 291.35 274.56C292.363 272.853 293.737 271.533 295.47 270.6C297.23 269.64 299.19 269.16 301.35 269.16C303.457 269.16 305.363 269.613 307.07 270.52C308.777 271.427 310.11 272.733 311.07 274.44C312.057 276.12 312.55 278.08 312.55 280.32ZM301.39 273.88C299.977 273.88 298.79 274.28 297.83 275.08C296.87 275.88 296.283 276.973 296.07 278.36H306.67C306.457 277 305.87 275.92 304.91 275.12C303.95 274.293 302.777 273.88 301.39 273.88Z" fill="#4D4E4E"/>
<path d="M323.944 291.32C322.158 291.32 320.411 291.107 318.704 290.68C316.998 290.227 315.638 289.667 314.624 289L316.704 284.52C317.664 285.133 318.824 285.64 320.184 286.04C321.544 286.413 322.878 286.6 324.184 286.6C326.824 286.6 328.144 285.947 328.144 284.64C328.144 284.027 327.784 283.587 327.064 283.32C326.344 283.053 325.238 282.827 323.744 282.64C321.984 282.373 320.531 282.067 319.384 281.72C318.238 281.373 317.238 280.76 316.384 279.88C315.558 279 315.144 277.747 315.144 276.12C315.144 274.76 315.531 273.56 316.304 272.52C317.104 271.453 318.251 270.627 319.744 270.04C321.264 269.453 323.051 269.16 325.104 269.16C326.624 269.16 328.131 269.333 329.624 269.68C331.144 270 332.398 270.453 333.384 271.04L331.304 275.48C329.411 274.413 327.344 273.88 325.104 273.88C323.771 273.88 322.771 274.067 322.104 274.44C321.438 274.813 321.104 275.293 321.104 275.88C321.104 276.547 321.464 277.013 322.184 277.28C322.904 277.547 324.051 277.8 325.624 278.04C327.384 278.333 328.824 278.653 329.944 279C331.064 279.32 332.038 279.92 332.864 280.8C333.691 281.68 334.104 282.907 334.104 284.48C334.104 285.813 333.704 287 332.904 288.04C332.104 289.08 330.931 289.893 329.384 290.48C327.864 291.04 326.051 291.32 323.944 291.32Z" fill="#4D4E4E"/>
<path d="M285.194 181.188C286.693 188.701 287.316 196.508 288.029 204.16C288.527 209.498 290.311 214.218 286.322 217.232C280.892 221.338 273.654 223.594 267.578 226.103C262.58 228.169 256.818 231.268 251.468 231.738C246.466 232.18 240.871 229.134 236.228 227.263C229.537 224.566 222.807 221.719 216.363 218.301C210.477 215.178 211.792 208.139 212.284 201.503C212.79 194.644 213.781 187.866 214.661 181.067C215.613 181.468 216.571 181.858 217.517 182.272C220.091 183.391 222.686 184.434 225.295 185.437C225.293 185.573 225.275 185.673 225.275 185.815C225.26 190.243 225.345 194.915 225.626 199.374C220.591 200.862 221.736 209.871 221.87 214.615C221.936 216.901 225.02 216.913 224.954 214.615C224.905 212.844 224.267 206.026 225.589 203.609C226.025 207.652 225.951 211.735 225.945 215.803C225.943 218.097 229.027 218.101 229.029 215.803C229.035 211.435 229.056 207.112 228.581 202.784C230.872 203.906 230.292 212.968 230.267 214.615C230.232 216.908 233.316 216.908 233.351 214.615C233.411 210.798 233.728 206.979 232.525 203.328C231.842 201.256 230.465 199.464 228.696 199.124C228.587 196.512 228.657 193.922 228.626 191.296C228.61 189.637 228.748 188.173 229.025 186.821C230.51 187.37 231.99 187.93 233.477 188.465C238.282 190.193 243.807 193.085 248.785 193.791C252.369 194.3 255.254 192.719 258.634 191.327C264.13 189.064 269.653 186.885 275.18 184.727C278.515 183.427 281.85 182.124 285.185 180.827C285.189 180.948 285.167 181.055 285.194 181.188ZM220.673 155.654C229.14 151.766 240.075 145.206 249.223 145.068C258.846 144.923 270.282 152.051 279.2 156.053C288.031 160.02 296.494 164.666 305.097 169.124C296.262 172.751 287.385 176.226 278.497 179.679C272.974 181.827 267.451 183.978 261.951 186.2C256.463 188.418 252.406 190.949 246.521 189.349C241.002 187.847 235.453 186.005 229.909 183.976C230.859 181.815 232.366 179.938 234.548 178.041C239.896 173.395 245.308 168.853 250.765 164.383C252.373 163.069 250.835 159.974 249.211 161.305C242.08 167.142 233.555 172.787 227.378 179.95C226.605 180.846 226.11 181.613 225.787 182.452C215.409 178.457 205.126 173.797 195.205 169.143C203.504 164.172 211.975 159.644 220.673 155.654ZM310.022 167.791C299.984 162.693 290.272 157.22 280.02 152.617C274.633 150.2 269.219 147.861 263.752 145.696C259.267 143.921 253.603 140.786 248.812 141.012C244.303 141.225 239.314 144.092 235.126 145.743C229.994 147.766 224.894 149.907 219.853 152.215C210.071 156.695 200.545 161.8 191.251 167.494C190.869 167.542 190.567 167.794 190.367 168.16C189.763 168.889 189.96 169.992 190.556 170.619H190.558C190.626 170.693 190.706 170.736 190.783 170.793C190.889 170.883 190.982 170.985 191.12 171.049C197.878 174.241 204.832 176.972 211.727 179.826C211.005 185.404 210.201 190.963 209.642 196.567C209.06 202.368 207.551 210.653 209.545 216.312C210.867 220.069 214.052 221.027 217.114 222.546C223.118 225.521 229.239 228.214 235.408 230.7C239.927 232.523 245.23 235.32 250.103 235.417C254.415 235.503 259.045 233.21 263.061 231.669C269.419 229.233 275.717 226.524 281.877 223.487C284.453 222.218 289.662 220.614 291.307 217.674C293.244 214.213 291.379 206.946 291.021 203.193C290.293 195.562 289.664 187.733 288.167 180.24C288.128 180.038 288.048 179.89 287.969 179.741C295.217 176.91 302.457 174.056 309.654 171.049C310.752 170.591 311.348 168.466 310.022 167.791Z" fill="#4D4E4E"/>
<path d="M286.746 166.785C287.461 167.115 288.181 167.543 288.798 168.083C288.973 168.211 289.125 168.368 289.258 168.546C289.104 168.677 288.929 168.784 288.771 168.886C287.272 169.844 285.596 170.514 283.98 171.156C282.115 171.897 282.915 175.341 284.801 174.595C286.322 173.989 287.819 173.306 289.285 172.536C290.422 171.94 291.652 171.284 292.203 169.898C293.535 166.54 289.686 164.323 287.566 163.348C285.722 162.498 284.922 165.946 286.746 166.785Z" fill="#4D4E4E"/>
<path d="M282.641 164.718C284.625 164.718 284.629 161.153 282.641 161.153C280.654 161.153 280.65 164.718 282.641 164.718Z" fill="#4D4E4E"/>
<path d="M49.5731 141.856C50.3322 143.195 51.011 144.482 51.6075 145.69C52.7371 146.984 52.712 146.444 52.1979 145.459C50.8105 143.483 49.4491 141.481 48.1161 139.444C48.6135 140.238 49.105 141.036 49.5731 141.856C49.1203 141.068 50.3322 143.195 49.5731 141.856ZM54.0849 148.109C53.4656 147.253 52.8519 146.389 52.2414 145.525C53.0917 146.936 53.6299 147.621 54.0849 148.109ZM112.27 201.335C114.124 202.167 115.979 203.002 117.846 203.803C115.788 202.869 113.737 201.918 111.702 200.916C111.418 200.841 111.082 200.741 110.674 200.61C110.674 200.61 111.31 200.903 112.27 201.335C111.31 200.903 113.23 201.766 112.27 201.335ZM117.025 169.308C115.253 166.923 115.825 168.03 114.778 166.925C115.561 168.006 116.354 169.077 117.157 170.137L117.025 169.308ZM2.89513 14.6436C3.0102 14.4474 3.15841 14.4145 3.28606 14.2904C3.12168 12.9121 2.96042 11.5336 2.82132 10.1564C2.77217 9.66544 2.62129 9.12689 2.91164 8.73926C3.36022 8.14504 4.19647 8.0255 4.81179 7.93523C7.03713 7.61134 9.42289 7.97139 11.6095 8.7178C13.0761 9.22128 15.7154 10.2506 15.9414 12.5874C16.535 18.7377 17.4301 24.8449 18.5409 30.9001C18.6555 30.95 18.7233 30.6815 18.729 29.9531C19.624 34.1127 18.9763 32.0288 18.6822 31.6888C19.0506 33.6742 19.454 35.6631 19.8693 37.6444C20.0562 37.8375 20.2669 38.0517 19.9088 36.0056C20.8483 39.3404 20.6632 39.8518 20.4474 40.336C21.2552 44.0013 22.1306 47.6475 23.0636 51.2687C23.3493 51.945 23.6215 52.5029 23.8548 52.9047C24.6789 56.1431 25.0295 57.9239 25.1515 58.9968C25.6774 60.8753 26.2178 62.7393 26.7699 64.5923C26.608 63.6758 26.5872 63.076 26.8868 63.1197C27.8074 69.4109 30.0884 75.4936 32.1422 81.3535C34.4665 87.9675 36.9957 94.5139 39.7315 100.903C45.109 113.432 51.2389 125.531 58.1883 136.813C63.4098 145.285 69.1196 153.292 75.2664 160.715L75.2595 160.709C77.1737 162.589 77.6569 163.365 77.9924 163.964C78.8325 164.934 79.6927 165.883 80.5533 166.835C79.936 165.749 79.5526 164.782 78.9194 163.767C80.8281 166.269 81.3633 167.352 82.0639 168.528C82.8451 169.363 83.6464 170.178 84.4389 170.999C84.6537 171.08 84.582 170.801 84.7402 170.81C85.4803 171.716 85.9935 172.439 86.4439 173.091C88.6489 175.238 90.8267 177.435 93.0646 179.526C93.0992 179.49 93.4508 179.805 94.8481 181.172C99.0397 184.984 103.367 188.551 107.915 191.614C108.669 191.957 109.189 192.108 109.401 192.086C109.481 192.315 109.696 192.619 110.021 192.986C112.362 194.457 114.718 195.777 117.1 196.995C119.207 197.911 121.313 198.844 123.443 199.671C123.958 199.62 123.714 199.349 123.382 199.148C122.72 198.738 122.012 198.45 121.328 198.118C119.918 197.43 118.474 196.792 117.133 195.885C121.493 197.914 122.274 198.358 123.493 199.119L122 197.591L121.404 196.459L123.796 199.312C124.076 199.493 124.396 199.691 124.778 199.927C123.993 199.005 123.148 197.946 122.319 196.888C120.421 194.863 118.528 192.832 116.637 190.79C116.753 190.959 116.871 191.118 116.981 191.298C113.187 186.82 114.412 189.711 110.913 184.928C111.508 185.461 112.289 186.084 113.135 186.831C110.977 184.324 108.864 181.75 106.82 179.106C106.187 178.38 105.858 178.14 106.124 178.951C104.336 176.505 103.144 174.565 102.794 173.694C101.795 172.309 100.804 170.91 99.8308 169.493C100.834 171.679 103.323 175.496 100.16 171.535L99.0355 169.396C98.6362 168.643 98.2371 167.893 97.6657 167.225L97.7332 166.917C97.6383 166.839 97.4864 166.649 97.2898 166.381C97.0825 166.133 96.8417 165.719 96.9383 165.202C97.1562 163.84 98.1304 162.778 98.9087 161.922C99.1073 161.708 101.061 159.717 100.862 159.568C102.309 158.654 103.831 158.238 105.428 157.896C106.994 157.078 109.195 156.627 110.351 158.799C110.561 159.143 110.735 159.523 110.918 159.89C110.608 159.468 110.359 159.138 110.217 158.96C108.765 156.787 106.179 157.664 104.481 158.514C102.506 159.504 100.595 160.974 98.9758 162.691C98.4327 163.32 97.7059 164.008 97.3396 165.22C97.3997 165.151 97.4844 164.968 97.6025 164.735C98.2723 163.357 99.4912 162.356 100.549 161.526C102.015 160.371 103.615 159.407 105.298 158.822C106.459 158.414 108.086 157.98 109.198 158.966C110.135 159.789 110.863 161.34 111.606 162.429C112.602 163.884 113.614 165.318 114.639 166.738C115.07 167.069 114.495 165.849 114.447 165.737C114.247 165.283 113.919 164.736 113.849 164.224C115.097 165.936 116.291 167.637 117.406 169.484C118.352 171.057 119.319 172.508 120.519 173.782C119.318 172.132 118.896 171.375 118.9 171.275C118.892 171.332 119.925 172.382 120.015 172.477C120.511 173.042 121.005 173.61 121.498 174.179C122.467 175.291 123.427 176.48 124.488 177.454C121.865 176.108 119.445 173.055 117.467 170.546C123.95 179.083 131.096 186.596 138.217 194.25C140.773 196.995 143.825 199.009 146.236 201.966C147.153 203.093 148.622 205.101 147.886 206.761C146.972 208.808 144.715 210.175 143.104 211.157L144.573 211.79L142.359 211.601C140.293 212.732 138.103 213.428 135.851 213.881C135.807 213.921 135.81 213.954 135.876 213.982C135.764 213.968 135.637 213.956 135.498 213.948C133.253 214.373 130.945 214.572 128.609 214.716C129.214 214.906 130.115 214.986 131.522 214.877C128.048 215.755 124.415 215.919 120.851 215.951C117.165 215.981 113.329 215.777 109.684 214.719C109.471 214.705 109.257 214.697 109.044 214.679C104.923 215.022 112.937 215.828 115.451 216.323C107.28 216.355 99.0636 215.653 90.895 214.814C83.2342 214.023 75.5839 212.993 67.9711 211.454C67.79 210.316 66.223 210.466 63.8622 209.13L62.3138 209.132C62.8114 209.136 62.0371 208.595 62.3101 208.368C59.2686 207.6 56.2373 206.731 53.2336 205.711C51.5695 205.145 52.6129 203.648 53.4302 202.662C56.003 199.576 60.115 196.708 63.8203 197.797C62.4728 196.927 60.9986 196.733 59.5497 197.083C60.6439 196.818 61.7701 196.666 62.8972 196.814C64.5226 197.117 66.1306 197.798 67.7389 198.266C69.3185 198.729 70.9164 199.042 72.5078 199.388C75.6815 200.085 78.8673 200.668 82.0343 201.432C81.4515 200.994 80.6624 200.86 80.022 200.663C78.7419 200.277 77.462 199.893 76.1821 199.546C74.1423 199.003 72.1308 198.314 70.0907 197.768C71.9842 198.257 73.8796 198.77 75.7779 199.206C76.5548 199.381 77.3349 199.555 78.1155 199.663C78.3515 199.699 79.1425 199.926 79.3213 199.631L79.9168 200.503C85.6239 201.557 79.2112 199.667 81.1163 199.498C82.9619 199.835 84.8432 200.113 86.6677 200.678C87.2047 200.844 88.0802 201.03 88.3611 201.724C88.733 202.632 88.8723 202.929 89.761 203.267C91.6363 203.512 93.5102 203.74 95.3803 203.963C95.8341 203.969 96.369 204.039 96.9647 204.157C98.3483 204.322 99.7284 204.484 101.097 204.653C100.387 204.28 100.898 203.966 101.219 203.779C103.481 204.854 105.653 204.894 108.001 204.855C110.408 204.814 112.794 205.062 115.2 205.254C115.268 205.068 111.235 204.187 110.882 203.713C112.403 204.042 114.196 204.284 115.956 204.513C114.418 203.76 112.742 202.882 114.927 203.752C115.61 204.075 116.159 204.349 116.625 204.597C117.37 204.695 118.112 204.793 118.854 204.901C115.124 203.303 111.401 201.65 107.774 199.653C108.222 199.92 110.571 200.911 110.597 201.823C110.624 202.745 111.767 203.287 112.302 203.652C107.919 200.738 103.484 197.851 99.3009 194.467L97.67 193.09C97.1739 192.672 96.6846 192.259 96.1883 191.837C93.2245 189.759 90.3184 187.513 87.4912 185.124C87.4187 185.304 87.4779 185.621 87.6867 186.211C86.4542 185.251 85.2156 184.296 84.042 183.219C83.591 182.813 83.1182 182.372 82.7818 181.8C81.6993 179.963 80.2439 178.651 78.7939 177.292C79.6789 178.092 80.5609 178.892 81.4457 179.689C77.9154 176.315 74.5258 172.712 71.1779 169.046C71.2519 169.461 71.5659 170.065 70.5452 168.902C70.1263 168.14 69.4976 167.285 68.7411 166.37C65.5608 162.786 61.9947 159.614 59.0481 155.713C59.3414 156.153 59.6524 156.577 59.9573 157.006C58.4653 155.418 57.0291 153.749 55.5727 152.101C55.5187 152.059 55.5472 152.133 55.5145 152.119C55.4834 151.979 55.4497 151.846 55.4524 151.733C52.2937 149.044 49.6193 145.053 47.2513 141.327C46.7756 139.916 45.765 138.615 45.0479 137.395C44.0052 135.618 42.904 133.893 41.882 132.101C40.8418 130.28 39.8079 128.459 38.8119 126.605C38.2108 125.488 37.484 124.302 37.1059 123.035C38.1083 125.287 39.1572 127.064 40.7643 129.573L41.0376 128.701C38.3601 124.026 40.3672 128.846 38.1545 124.05C38.5909 124.145 38.9728 124.806 39.2311 125.206C39.8173 126.115 40.3257 127.108 40.8239 128.092C41.7883 129.982 42.6896 131.977 43.8589 133.69C43.1076 131.934 42.2493 130.214 41.3762 128.542C41.8908 129.424 42.3976 130.327 42.9292 131.188C42.3757 130.256 41.8276 129.314 41.282 128.364C41.3125 128.425 41.346 128.485 41.3762 128.542C39.9279 126.013 38.5054 123.455 37.1269 120.859C37.1264 121.142 36.9579 121.087 36.4395 120.341C34.7419 117.588 33.4758 114.767 32.4377 111.564C31.6544 109.947 30.8857 108.316 30.1348 106.673C29.4896 105.988 28.9602 105.476 28.4686 104.568C27.8581 103.451 27.3344 102.247 26.8271 101.052C27.4068 102.753 28.0067 104.432 28.6221 106.11C27.7911 104.92 27.027 103.63 26.6069 102.135C26.1968 100.681 25.8992 99.2915 25.25 97.9489C25.9465 99.0048 26.1375 98.8851 27.8649 102.989C28.3071 103.223 27.0841 100.029 26.4799 98.5162L26.9116 99.459C26.9007 99.4068 26.8899 99.3546 26.8821 99.3021C25.1041 95.1232 23.4155 90.8866 21.8015 86.6036C21.7855 86.5651 21.7664 86.5269 21.7511 86.495L22.1688 87.9276C21.0355 84.4635 19.7549 81.0787 18.5707 77.6457L18.5538 77.7402C18.499 77.5456 18.4511 77.357 18.4069 77.1747C17.813 75.455 17.2341 73.7274 16.6674 71.9953C16.6711 72.4703 16.5059 72.272 15.9067 70.2403C15.8315 70.7488 16.0649 71.4397 16.1891 71.9241C16.4353 72.9063 16.727 73.868 17.0434 74.8242C17.6884 76.7688 18.3786 78.6895 19.1019 80.594C18.6358 79.365 18.1128 77.556 17.2693 76.6192C17.0535 76.3822 17.1385 76.8866 17.1616 77.0075C17.3391 77.9592 17.6751 78.8872 17.9772 79.7881C17.0641 78.5583 16.4131 74.743 15.3321 72.0222C15.6254 72.4619 15.4862 71.4802 15.6909 71.6252C15.0705 71.7658 13.9512 66.9843 13.8071 66.4518C13.5095 65.2779 13.2329 64.0922 13.0025 62.8958C12.9508 62.6278 12.544 61.1045 12.7829 60.8842L14.0202 66.2969C14.3694 66.4027 13.9321 64.0611 13.7147 62.581C9.65548 49.0356 6.24347 34.7922 4.14427 20.6601C3.91843 20.8494 3.80272 21.9397 3.33249 20.3388C3.14273 19.355 2.94246 18.3587 2.82935 17.3515C2.74496 16.6011 2.51733 15.2914 2.89513 14.6436C2.77722 14.8433 3.0102 14.4474 2.89513 14.6436Z" fill="#60B3B3"/>
</g>
</svg>
