<svg width="167" height="169" viewBox="0 0 167 169" fill="none" xmlns="http://www.w3.org/2000/svg">
<rect x="2.81665" y="139.658" width="164.202" height="18.9737" transform="rotate(3.31143 2.81665 139.658)" fill="#75C2C2" fill-opacity="0.62"/>
<path d="M15.6458 150.48C12.7925 150.48 10.2058 149.867 7.88585 148.64C5.59252 147.387 3.77918 145.667 2.44585 143.48C1.13918 141.267 0.48584 138.773 0.48584 136C0.48584 133.227 1.13918 130.747 2.44585 128.56C3.77918 126.347 5.59252 124.627 7.88585 123.4C10.2058 122.147 12.8058 121.52 15.6858 121.52C18.1125 121.52 20.2992 121.947 22.2458 122.8C24.2192 123.653 25.8725 124.88 27.2058 126.48L23.0458 130.32C21.1525 128.133 18.8058 127.04 16.0058 127.04C14.2725 127.04 12.7258 127.427 11.3658 128.2C10.0058 128.947 8.93918 130 8.16585 131.36C7.41918 132.72 7.04584 134.267 7.04584 136C7.04584 137.733 7.41918 139.28 8.16585 140.64C8.93918 142 10.0058 143.067 11.3658 143.84C12.7258 144.587 14.2725 144.96 16.0058 144.96C18.8058 144.96 21.1525 143.853 23.0458 141.64L27.2058 145.48C25.8725 147.107 24.2192 148.347 22.2458 149.2C20.2725 150.053 18.0725 150.48 15.6458 150.48Z" fill="#4D4E4E"/>
<path d="M40.6396 150.32C38.3729 150.32 36.3329 149.853 34.5196 148.92C32.7329 147.96 31.3329 146.64 30.3196 144.96C29.3063 143.28 28.7996 141.373 28.7996 139.24C28.7996 137.107 29.3063 135.2 30.3196 133.52C31.3329 131.84 32.7329 130.533 34.5196 129.6C36.3329 128.64 38.3729 128.16 40.6396 128.16C42.9063 128.16 44.9329 128.64 46.7196 129.6C48.5063 130.533 49.9063 131.84 50.9196 133.52C51.9329 135.2 52.4396 137.107 52.4396 139.24C52.4396 141.373 51.9329 143.28 50.9196 144.96C49.9063 146.64 48.5063 147.96 46.7196 148.92C44.9329 149.853 42.9063 150.32 40.6396 150.32ZM40.6396 145.2C42.2396 145.2 43.5463 144.667 44.5596 143.6C45.5996 142.507 46.1196 141.053 46.1196 139.24C46.1196 137.427 45.5996 135.987 44.5596 134.92C43.5463 133.827 42.2396 133.28 40.6396 133.28C39.0396 133.28 37.7196 133.827 36.6796 134.92C35.6396 135.987 35.1196 137.427 35.1196 139.24C35.1196 141.053 35.6396 142.507 36.6796 143.6C37.7196 144.667 39.0396 145.2 40.6396 145.2Z" fill="#4D4E4E"/>
<path d="M78.2905 128.48V150H72.3705V147.44C71.5439 148.373 70.5572 149.093 69.4105 149.6C68.2639 150.08 67.0239 150.32 65.6905 150.32C62.8639 150.32 60.6239 149.507 58.9705 147.88C57.3172 146.253 56.4905 143.84 56.4905 140.64V128.48H62.7305V139.72C62.7305 143.187 64.1839 144.92 67.0905 144.92C68.5839 144.92 69.7839 144.44 70.6905 143.48C71.5972 142.493 72.0505 141.04 72.0505 139.12V128.48H78.2905Z" fill="#4D4E4E"/>
<path d="M90.0315 131.32C90.7781 130.28 91.7781 129.493 93.0315 128.96C94.3115 128.427 95.7781 128.16 97.4315 128.16V133.92C96.7381 133.867 96.2715 133.84 96.0315 133.84C94.2448 133.84 92.8448 134.347 91.8315 135.36C90.8181 136.347 90.3115 137.84 90.3115 139.84V150H84.0715V128.48H90.0315V131.32Z" fill="#4D4E4E"/>
<path d="M108.46 150.32C106.673 150.32 104.927 150.107 103.22 149.68C101.513 149.227 100.153 148.667 99.1399 148L101.22 143.52C102.18 144.133 103.34 144.64 104.7 145.04C106.06 145.413 107.393 145.6 108.7 145.6C111.34 145.6 112.66 144.947 112.66 143.64C112.66 143.027 112.3 142.587 111.58 142.32C110.86 142.053 109.753 141.827 108.26 141.64C106.5 141.373 105.047 141.067 103.9 140.72C102.753 140.373 101.753 139.76 100.9 138.88C100.073 138 99.6599 136.747 99.6599 135.12C99.6599 133.76 100.047 132.56 100.82 131.52C101.62 130.453 102.767 129.627 104.26 129.04C105.78 128.453 107.567 128.16 109.62 128.16C111.14 128.16 112.647 128.333 114.14 128.68C115.66 129 116.913 129.453 117.9 130.04L115.82 134.48C113.927 133.413 111.86 132.88 109.62 132.88C108.287 132.88 107.287 133.067 106.62 133.44C105.953 133.813 105.62 134.293 105.62 134.88C105.62 135.547 105.98 136.013 106.7 136.28C107.42 136.547 108.567 136.8 110.14 137.04C111.9 137.333 113.34 137.653 114.46 138C115.58 138.32 116.553 138.92 117.38 139.8C118.207 140.68 118.62 141.907 118.62 143.48C118.62 144.813 118.22 146 117.42 147.04C116.62 148.08 115.447 148.893 113.9 149.48C112.38 150.04 110.567 150.32 108.46 150.32Z" fill="#4D4E4E"/>
<path d="M143.55 139.32C143.55 139.4 143.51 139.96 143.43 141H127.15C127.443 142.333 128.137 143.387 129.23 144.16C130.323 144.933 131.683 145.32 133.31 145.32C134.43 145.32 135.417 145.16 136.27 144.84C137.15 144.493 137.963 143.96 138.71 143.24L142.03 146.84C140.003 149.16 137.043 150.32 133.15 150.32C130.723 150.32 128.577 149.853 126.71 148.92C124.843 147.96 123.403 146.64 122.39 144.96C121.377 143.28 120.87 141.373 120.87 139.24C120.87 137.133 121.363 135.24 122.35 133.56C123.363 131.853 124.737 130.533 126.47 129.6C128.23 128.64 130.19 128.16 132.35 128.16C134.457 128.16 136.363 128.613 138.07 129.52C139.777 130.427 141.11 131.733 142.07 133.44C143.057 135.12 143.55 137.08 143.55 139.32ZM132.39 132.88C130.977 132.88 129.79 133.28 128.83 134.08C127.87 134.88 127.283 135.973 127.07 137.36H137.67C137.457 136 136.87 134.92 135.91 134.12C134.95 133.293 133.777 132.88 132.39 132.88Z" fill="#4D4E4E"/>
<path d="M154.944 150.32C153.158 150.32 151.411 150.107 149.704 149.68C147.998 149.227 146.638 148.667 145.624 148L147.704 143.52C148.664 144.133 149.824 144.64 151.184 145.04C152.544 145.413 153.878 145.6 155.184 145.6C157.824 145.6 159.144 144.947 159.144 143.64C159.144 143.027 158.784 142.587 158.064 142.32C157.344 142.053 156.238 141.827 154.744 141.64C152.984 141.373 151.531 141.067 150.384 140.72C149.238 140.373 148.238 139.76 147.384 138.88C146.558 138 146.144 136.747 146.144 135.12C146.144 133.76 146.531 132.56 147.304 131.52C148.104 130.453 149.251 129.627 150.744 129.04C152.264 128.453 154.051 128.16 156.104 128.16C157.624 128.16 159.131 128.333 160.624 128.68C162.144 129 163.398 129.453 164.384 130.04L162.304 134.48C160.411 133.413 158.344 132.88 156.104 132.88C154.771 132.88 153.771 133.067 153.104 133.44C152.438 133.813 152.104 134.293 152.104 134.88C152.104 135.547 152.464 136.013 153.184 136.28C153.904 136.547 155.051 136.8 156.624 137.04C158.384 137.333 159.824 137.653 160.944 138C162.064 138.32 163.038 138.92 163.864 139.8C164.691 140.68 165.104 141.907 165.104 143.48C165.104 144.813 164.704 146 163.904 147.04C163.104 148.08 161.931 148.893 160.384 149.48C158.864 150.04 157.051 150.32 154.944 150.32Z" fill="#4D4E4E"/>
<path d="M116.194 40.1881C117.693 47.7005 118.316 55.5076 119.029 63.1603C119.527 68.4981 121.311 73.2181 117.322 76.2316C111.892 80.3384 104.654 82.5938 98.5784 85.1035C93.5798 87.1688 87.8185 90.2678 82.4683 90.7384C77.4657 91.1804 71.8708 88.1336 67.228 86.2632C60.5372 83.5658 53.8074 80.7186 47.3633 77.3011C41.4765 74.1782 42.7925 67.1387 43.2839 60.5033C43.7897 53.6444 44.7808 46.8663 45.6608 40.0668C46.6128 40.4685 47.571 40.8582 48.5168 41.2718C51.0912 42.3912 53.686 43.4345 56.2953 44.4374C56.2933 44.5729 56.2748 44.6727 56.2748 44.8153C56.2604 49.2429 56.3447 53.9153 56.6264 58.3738C51.5908 59.8616 52.7361 68.8713 52.8698 73.615C52.9356 75.9013 56.0198 75.9131 55.954 73.615C55.9047 71.8444 55.2673 65.0259 56.5894 62.6089C57.0253 66.6515 56.9512 70.7345 56.9451 74.8033C56.943 77.0967 60.0273 77.1014 60.0293 74.8033C60.0355 70.4351 60.0561 66.112 59.5811 61.7842C61.8717 62.906 61.2918 71.968 61.2672 73.615C61.2322 75.9084 64.3165 75.9084 64.3514 73.615C64.411 69.7981 64.7277 65.9789 63.5248 62.3285C62.8422 60.2561 61.4645 58.4641 59.6962 58.1243C59.5873 55.5124 59.6572 52.9219 59.6263 50.2957C59.6099 48.6369 59.7476 47.1729 60.0252 45.8206C61.5098 46.3696 62.9902 46.9305 64.4768 47.4652C69.2821 49.193 74.807 52.0853 79.785 52.7912C83.3689 53.2998 86.2537 51.7193 89.6341 50.3266C95.1302 48.0641 100.653 45.8848 106.18 43.7268C109.515 42.4268 112.85 41.1244 116.185 39.8268C116.189 39.948 116.167 40.055 116.194 40.1881ZM51.6731 14.6538C60.1404 10.7657 71.0751 4.20627 80.223 4.06843C89.8458 3.92345 101.282 11.0509 110.2 15.0531C119.031 19.0196 127.494 23.6659 136.097 28.1244C127.262 31.7511 118.385 35.2257 109.497 38.6789C103.974 40.8274 98.4509 42.9782 92.9507 45.2003C87.4627 47.4177 83.4059 49.9488 77.5212 48.3493C72.0024 46.8473 66.4528 45.0054 60.9094 42.9758C61.8593 40.8155 63.3665 38.938 65.5481 37.0414C70.8962 32.3952 76.308 27.8535 81.7651 23.3831C83.373 22.0688 81.835 18.9745 80.2106 20.3054C73.0798 26.1423 64.555 31.7868 58.3782 38.9498C57.6051 39.8458 57.1096 40.6135 56.7868 41.4524C46.4093 37.4573 36.1264 32.7968 26.2054 28.1434C34.5041 23.1716 42.9755 18.6441 51.6731 14.6538ZM141.022 26.7911C130.984 21.6933 121.272 16.22 111.02 11.6165C105.633 9.19952 100.219 6.86093 94.7519 4.69585C90.2674 2.92053 84.6026 -0.214215 79.8117 0.0115623C75.3026 0.225457 70.3143 3.09165 66.1259 4.74339C60.9937 6.76588 55.8944 8.9072 50.8527 11.2149C41.0715 15.6948 31.5452 20.7997 22.2513 26.4941C21.8689 26.5416 21.5666 26.7935 21.3672 27.1595C20.7627 27.8891 20.9601 28.9919 21.5564 29.6193H21.5584C21.6263 29.693 21.7065 29.7358 21.7825 29.7928C21.8895 29.8831 21.982 29.9853 22.1197 30.0495C28.8784 33.2412 35.8323 35.972 42.7267 38.8263C42.005 44.4041 41.201 49.963 40.6417 55.567C40.0598 61.3683 38.5506 69.6532 40.5451 75.3119C41.8672 79.0693 45.0522 80.027 48.1138 81.5457C54.1179 84.5212 60.2391 87.2139 66.4076 89.6998C70.927 91.5227 76.2299 94.3199 81.103 94.4174C85.4148 94.5029 90.0453 92.2095 94.061 90.6695C100.419 88.2335 106.717 85.5241 112.877 82.4868C115.453 81.2177 120.662 79.6135 122.307 76.6736C124.243 73.2133 122.379 65.9457 122.021 62.193C121.293 54.5617 120.664 46.7332 119.167 39.2398C119.128 39.0378 119.048 38.8904 118.969 38.7407C126.217 35.9102 133.457 33.0559 140.654 30.0495C141.752 29.5908 142.348 27.4661 141.022 26.7911Z" fill="#4D4E4E"/>
<path d="M117.746 25.785C118.461 26.1154 119.181 26.5432 119.798 27.0827C119.973 27.211 120.125 27.3679 120.258 27.5461C120.104 27.6768 119.929 27.7838 119.771 27.886C118.272 28.8437 116.596 29.5139 114.98 30.1556C113.115 30.8971 113.915 34.3408 115.801 33.5946C117.322 32.9885 118.819 32.3064 120.285 31.5364C121.422 30.9399 122.652 30.284 123.203 28.8984C124.535 25.5403 120.686 23.3229 118.566 22.3485C116.722 21.4976 115.922 24.9461 117.746 25.785Z" fill="#4D4E4E"/>
<path d="M113.641 23.7176C115.625 23.7176 115.629 20.1526 113.641 20.1526C111.654 20.1526 111.65 23.7176 113.641 23.7176Z" fill="#4D4E4E"/>
</svg>
