<svg width="473" height="257" viewBox="0 0 473 257" fill="none" xmlns="http://www.w3.org/2000/svg">
<mask id="mask0_102_893" style="mask-type:alpha" maskUnits="userSpaceOnUse" x="0" y="0" width="473" height="257">
<rect width="473" height="257" fill="#C4C4C4"/>
</mask>
<g mask="url(#mask0_102_893)">
<rect x="161.714" y="226.263" width="149.423" height="17.2659" transform="rotate(-3.39495 161.714 226.263)" fill="#60B3B3" fill-opacity="0.56"/>
<path d="M182.373 205.04C181.759 204.293 180.999 203.72 180.093 203.32C179.213 202.92 178.186 202.72 177.013 202.72C175.839 202.72 174.746 202.947 173.733 203.4C172.746 203.853 171.879 204.493 171.133 205.32C170.413 206.12 169.839 207.08 169.413 208.2C169.013 209.32 168.813 210.533 168.813 211.84C168.813 213.173 169.013 214.4 169.413 215.52C169.839 216.613 170.413 217.573 171.133 218.4C171.853 219.2 172.693 219.827 173.653 220.28C174.639 220.733 175.693 220.96 176.813 220.96C178.093 220.96 179.226 220.693 180.213 220.16C181.199 219.627 182.013 218.88 182.653 217.92L187.853 221.8C186.653 223.48 185.133 224.72 183.293 225.52C181.453 226.32 179.559 226.72 177.613 226.72C175.399 226.72 173.359 226.373 171.493 225.68C169.626 224.987 168.013 224 166.653 222.72C165.293 221.413 164.226 219.84 163.453 218C162.706 216.16 162.333 214.107 162.333 211.84C162.333 209.573 162.706 207.52 163.453 205.68C164.226 203.84 165.293 202.28 166.653 201C168.013 199.693 169.626 198.693 171.493 198C173.359 197.307 175.399 196.96 177.613 196.96C178.413 196.96 179.239 197.04 180.093 197.2C180.973 197.333 181.826 197.56 182.653 197.88C183.506 198.2 184.319 198.627 185.093 199.16C185.866 199.693 186.559 200.347 187.173 201.12L182.373 205.04ZM189.755 216.28C189.755 214.733 190.035 213.333 190.595 212.08C191.155 210.827 191.915 209.76 192.875 208.88C193.862 207.973 195.009 207.28 196.315 206.8C197.649 206.32 199.062 206.08 200.555 206.08C202.049 206.08 203.449 206.32 204.755 206.8C206.089 207.28 207.235 207.973 208.195 208.88C209.182 209.76 209.955 210.827 210.515 212.08C211.075 213.333 211.355 214.733 211.355 216.28C211.355 217.827 211.075 219.227 210.515 220.48C209.955 221.733 209.182 222.813 208.195 223.72C207.235 224.6 206.089 225.28 204.755 225.76C203.449 226.24 202.049 226.48 200.555 226.48C199.062 226.48 197.649 226.24 196.315 225.76C195.009 225.28 193.862 224.6 192.875 223.72C191.915 222.813 191.155 221.733 190.595 220.48C190.035 219.227 189.755 217.827 189.755 216.28ZM195.755 216.28C195.755 217.747 196.169 218.933 196.995 219.84C197.849 220.747 199.035 221.2 200.555 221.2C202.075 221.2 203.249 220.747 204.075 219.84C204.929 218.933 205.355 217.747 205.355 216.28C205.355 214.813 204.929 213.627 204.075 212.72C203.249 211.813 202.075 211.36 200.555 211.36C199.035 211.36 197.849 211.813 196.995 212.72C196.169 213.627 195.755 214.813 195.755 216.28ZM233.61 226H227.85V223.36H227.77C227.556 223.733 227.276 224.107 226.93 224.48C226.61 224.853 226.21 225.187 225.73 225.48C225.25 225.773 224.703 226.013 224.09 226.2C223.476 226.387 222.81 226.48 222.09 226.48C220.57 226.48 219.33 226.253 218.37 225.8C217.436 225.32 216.703 224.667 216.17 223.84C215.663 223.013 215.316 222.04 215.13 220.92C214.97 219.8 214.89 218.587 214.89 217.28V206.56H220.89V216.08C220.89 216.64 220.903 217.227 220.93 217.84C220.983 218.427 221.103 218.973 221.29 219.48C221.503 219.987 221.81 220.4 222.21 220.72C222.636 221.04 223.236 221.2 224.01 221.2C224.783 221.2 225.41 221.067 225.89 220.8C226.37 220.507 226.73 220.133 226.97 219.68C227.236 219.2 227.41 218.667 227.49 218.08C227.57 217.493 227.61 216.88 227.61 216.24V206.56H233.61V226ZM237.858 206.56H243.858V209.68H243.938C244.578 208.48 245.338 207.587 246.218 207C247.098 206.387 248.205 206.08 249.538 206.08C249.885 206.08 250.232 206.093 250.578 206.12C250.925 206.147 251.245 206.2 251.538 206.28V211.76C251.112 211.627 250.685 211.533 250.258 211.48C249.858 211.4 249.432 211.36 248.978 211.36C247.832 211.36 246.925 211.52 246.258 211.84C245.592 212.16 245.072 212.613 244.698 213.2C244.352 213.76 244.125 214.44 244.018 215.24C243.912 216.04 243.858 216.92 243.858 217.88V226H237.858V206.56ZM265.147 212.28C264.267 211.187 263.107 210.64 261.667 210.64C261.161 210.64 260.667 210.76 260.187 211C259.707 211.24 259.467 211.653 259.467 212.24C259.467 212.72 259.707 213.08 260.187 213.32C260.694 213.533 261.321 213.733 262.067 213.92C262.841 214.08 263.654 214.267 264.507 214.48C265.387 214.667 266.201 214.973 266.947 215.4C267.721 215.827 268.347 216.413 268.827 217.16C269.334 217.88 269.587 218.853 269.587 220.08C269.587 221.333 269.307 222.373 268.747 223.2C268.214 224 267.521 224.653 266.667 225.16C265.814 225.64 264.854 225.973 263.787 226.16C262.721 226.373 261.667 226.48 260.627 226.48C259.267 226.48 257.894 226.293 256.507 225.92C255.121 225.52 253.947 224.827 252.987 223.84L256.627 219.8C257.187 220.493 257.801 221.027 258.467 221.4C259.161 221.747 259.961 221.92 260.867 221.92C261.561 221.92 262.187 221.827 262.747 221.64C263.307 221.427 263.587 221.053 263.587 220.52C263.587 220.013 263.334 219.64 262.827 219.4C262.347 219.133 261.721 218.92 260.947 218.76C260.201 218.573 259.387 218.387 258.507 218.2C257.654 217.987 256.841 217.68 256.067 217.28C255.321 216.88 254.694 216.32 254.187 215.6C253.707 214.853 253.467 213.867 253.467 212.64C253.467 211.493 253.694 210.507 254.147 209.68C254.627 208.853 255.241 208.173 255.987 207.64C256.761 207.107 257.641 206.72 258.627 206.48C259.614 206.213 260.614 206.08 261.627 206.08C262.907 206.08 264.201 206.267 265.507 206.64C266.814 207.013 267.921 207.68 268.827 208.64L265.147 212.28ZM291.063 222.64C290.103 223.867 288.89 224.813 287.423 225.48C285.956 226.147 284.436 226.48 282.863 226.48C281.37 226.48 279.956 226.24 278.623 225.76C277.316 225.28 276.17 224.6 275.183 223.72C274.223 222.813 273.463 221.733 272.903 220.48C272.343 219.227 272.063 217.827 272.063 216.28C272.063 214.733 272.343 213.333 272.903 212.08C273.463 210.827 274.223 209.76 275.183 208.88C276.17 207.973 277.316 207.28 278.623 206.8C279.956 206.32 281.37 206.08 282.863 206.08C284.25 206.08 285.503 206.32 286.623 206.8C287.77 207.28 288.73 207.973 289.503 208.88C290.303 209.76 290.916 210.827 291.343 212.08C291.77 213.333 291.983 214.733 291.983 216.28V218.16H278.063C278.303 219.307 278.823 220.227 279.623 220.92C280.423 221.587 281.41 221.92 282.583 221.92C283.57 221.92 284.396 221.707 285.063 221.28C285.756 220.827 286.356 220.253 286.863 219.56L291.063 222.64ZM285.983 214.08C286.01 213.067 285.676 212.2 284.983 211.48C284.29 210.76 283.396 210.4 282.303 210.4C281.636 210.4 281.05 210.507 280.543 210.72C280.036 210.933 279.596 211.213 279.223 211.56C278.876 211.88 278.596 212.267 278.383 212.72C278.196 213.147 278.09 213.6 278.063 214.08H285.983ZM306.632 212.28C305.752 211.187 304.592 210.64 303.152 210.64C302.645 210.64 302.152 210.76 301.672 211C301.192 211.24 300.952 211.653 300.952 212.24C300.952 212.72 301.192 213.08 301.672 213.32C302.178 213.533 302.805 213.733 303.552 213.92C304.325 214.08 305.138 214.267 305.992 214.48C306.872 214.667 307.685 214.973 308.432 215.4C309.205 215.827 309.832 216.413 310.312 217.16C310.818 217.88 311.072 218.853 311.072 220.08C311.072 221.333 310.792 222.373 310.232 223.2C309.698 224 309.005 224.653 308.152 225.16C307.298 225.64 306.338 225.973 305.272 226.16C304.205 226.373 303.152 226.48 302.112 226.48C300.752 226.48 299.378 226.293 297.992 225.92C296.605 225.52 295.432 224.827 294.472 223.84L298.112 219.8C298.672 220.493 299.285 221.027 299.952 221.4C300.645 221.747 301.445 221.92 302.352 221.92C303.045 221.92 303.672 221.827 304.232 221.64C304.792 221.427 305.072 221.053 305.072 220.52C305.072 220.013 304.818 219.64 304.312 219.4C303.832 219.133 303.205 218.92 302.432 218.76C301.685 218.573 300.872 218.387 299.992 218.2C299.138 217.987 298.325 217.68 297.552 217.28C296.805 216.88 296.178 216.32 295.672 215.6C295.192 214.853 294.952 213.867 294.952 212.64C294.952 211.493 295.178 210.507 295.632 209.68C296.112 208.853 296.725 208.173 297.472 207.64C298.245 207.107 299.125 206.72 300.112 206.48C301.098 206.213 302.098 206.08 303.112 206.08C304.392 206.08 305.685 206.267 306.992 206.64C308.298 207.013 309.405 207.68 310.312 208.64L306.632 212.28Z" fill="#4D4E4E"/>
<path d="M270.194 117.188C271.693 124.701 272.316 132.508 273.029 140.16C273.527 145.498 275.311 150.218 271.322 153.232C265.892 157.338 258.654 159.594 252.578 162.103C247.58 164.169 241.818 167.268 236.468 167.738C231.466 168.18 225.871 165.134 221.228 163.263C214.537 160.566 207.807 157.719 201.363 154.301C195.477 151.178 196.792 144.139 197.284 137.503C197.79 130.644 198.781 123.866 199.661 117.067C200.613 117.468 201.571 117.858 202.517 118.272C205.091 119.391 207.686 120.434 210.295 121.437C210.293 121.573 210.275 121.673 210.275 121.815C210.26 126.243 210.345 130.915 210.626 135.374C205.591 136.862 206.736 145.871 206.87 150.615C206.936 152.901 210.02 152.913 209.954 150.615C209.905 148.844 209.267 142.026 210.589 139.609C211.025 143.652 210.951 147.735 210.945 151.803C210.943 154.097 214.027 154.101 214.029 151.803C214.035 147.435 214.056 143.112 213.581 138.784C215.872 139.906 215.292 148.968 215.267 150.615C215.232 152.908 218.316 152.908 218.351 150.615C218.411 146.798 218.728 142.979 217.525 139.328C216.842 137.256 215.465 135.464 213.696 135.124C213.587 132.512 213.657 129.922 213.626 127.296C213.61 125.637 213.748 124.173 214.025 122.821C215.51 123.37 216.99 123.93 218.477 124.465C223.282 126.193 228.807 129.085 233.785 129.791C237.369 130.3 240.254 128.719 243.634 127.327C249.13 125.064 254.653 122.885 260.18 120.727C263.515 119.427 266.85 118.124 270.185 116.827C270.189 116.948 270.167 117.055 270.194 117.188ZM205.673 91.6538C214.14 87.7657 225.075 81.2063 234.223 81.0684C243.846 80.9235 255.282 88.0509 264.2 92.0531C273.031 96.0196 281.494 100.666 290.097 105.124C281.262 108.751 272.385 112.226 263.497 115.679C257.974 117.827 252.451 119.978 246.951 122.2C241.463 124.418 237.406 126.949 231.521 125.349C226.002 123.847 220.453 122.005 214.909 119.976C215.859 117.815 217.366 115.938 219.548 114.041C224.896 109.395 230.308 104.853 235.765 100.383C237.373 99.0688 235.835 95.9745 234.211 97.3054C227.08 103.142 218.555 108.787 212.378 115.95C211.605 116.846 211.11 117.613 210.787 118.452C200.409 114.457 190.126 109.797 180.205 105.143C188.504 100.172 196.975 95.6441 205.673 91.6538ZM295.022 103.791C284.984 98.6933 275.272 93.22 265.02 88.6165C259.633 86.1995 254.219 83.8609 248.752 81.6958C244.267 79.9205 238.603 76.7858 233.812 77.0116C229.303 77.2255 224.314 80.0917 220.126 81.7434C214.994 83.7659 209.894 85.9072 204.853 88.2149C195.071 92.6948 185.545 97.7997 176.251 103.494C175.869 103.542 175.567 103.794 175.367 104.16C174.763 104.889 174.96 105.992 175.556 106.619H175.558C175.626 106.693 175.706 106.736 175.783 106.793C175.889 106.883 175.982 106.985 176.12 107.049C182.878 110.241 189.832 112.972 196.727 115.826C196.005 121.404 195.201 126.963 194.642 132.567C194.06 138.368 192.551 146.653 194.545 152.312C195.867 156.069 199.052 157.027 202.114 158.546C208.118 161.521 214.239 164.214 220.408 166.7C224.927 168.523 230.23 171.32 235.103 171.417C239.415 171.503 244.045 169.21 248.061 167.669C254.419 165.233 260.717 162.524 266.877 159.487C269.453 158.218 274.662 156.614 276.307 153.674C278.244 150.213 276.379 142.946 276.021 139.193C275.293 131.562 274.664 123.733 273.167 116.24C273.128 116.038 273.048 115.89 272.969 115.741C280.217 112.91 287.457 110.056 294.654 107.049C295.752 106.591 296.348 104.466 295.022 103.791Z" fill="#4D4E4E"/>
<path d="M271.746 102.785C272.461 103.115 273.181 103.543 273.798 104.083C273.973 104.211 274.125 104.368 274.259 104.546C274.104 104.677 273.93 104.784 273.771 104.886C272.272 105.844 270.597 106.514 268.98 107.156C267.115 107.897 267.915 111.341 269.801 110.595C271.322 109.989 272.819 109.306 274.285 108.536C275.422 107.94 276.652 107.284 277.203 105.898C278.535 102.54 274.686 100.323 272.566 99.3485C270.722 98.4977 269.922 101.946 271.746 102.785Z" fill="#4D4E4E"/>
<path d="M267.641 100.717C269.625 100.717 269.629 97.1526 267.641 97.1526C265.654 97.1526 265.65 100.717 267.641 100.717Z" fill="#4D4E4E"/>
<path d="M63.5579 117.389C64.2226 118.424 64.8193 119.419 65.3453 120.354C66.3179 121.34 66.2842 120.914 65.8322 120.152C64.6283 118.635 63.4456 117.097 62.2857 115.53C62.7193 116.142 63.1481 116.757 63.5579 117.389C63.1616 116.781 64.2226 118.424 63.5579 117.389ZM67.4685 122.185C66.9318 121.528 66.3996 120.865 65.87 120.202C66.6126 121.29 67.0775 121.814 67.4685 122.185ZM117.251 162.349C118.817 162.945 120.383 163.545 121.959 164.116C120.221 163.446 118.488 162.761 116.767 162.036C116.529 161.986 116.246 161.918 115.903 161.828C115.903 161.828 116.44 162.039 117.251 162.349C116.44 162.039 118.062 162.658 117.251 162.349ZM120.456 136.872C118.921 135.045 119.425 135.902 118.525 135.062C119.204 135.892 119.891 136.712 120.586 137.524L120.456 136.872ZM21.6154 18.3549C21.7067 18.196 21.8295 18.1651 21.933 18.0628C21.7632 16.9785 21.5961 15.894 21.4474 14.8098C21.3947 14.4233 21.2562 14.0025 21.4891 13.6865C21.849 13.202 22.5435 13.0799 23.0545 12.9883C24.9025 12.659 26.9004 12.8651 28.7415 13.3833C29.9764 13.733 32.2017 14.4599 32.4456 16.2999C33.0865 21.1426 33.9778 25.9414 35.0479 30.692C35.1445 30.7276 35.1947 30.5131 35.1822 29.9371C36.0272 33.1961 35.4376 31.5699 35.1844 31.3108C35.5387 32.8683 35.9223 34.4274 36.3156 35.9801C36.476 36.1266 36.6568 36.289 36.3097 34.6832C37.1722 37.2887 37.03 37.6991 36.8615 38.089C37.6221 40.9601 38.4386 43.8139 39.3026 46.646C39.5568 47.1713 39.797 47.6034 40.0012 47.9133C40.7652 50.4465 41.0998 51.8428 41.227 52.6869C41.7101 54.1548 42.205 55.6106 42.7093 57.0574C42.5526 56.3381 42.521 55.8646 42.7719 55.8893C43.6889 60.8326 45.7353 65.5664 47.587 70.1315C49.682 75.2839 51.9464 80.3761 54.3793 85.3368C59.1608 95.0654 64.5595 104.428 70.6222 113.119C75.1774 119.645 80.1286 125.787 85.4304 131.454L85.4246 131.449C87.0654 132.873 87.4867 133.47 87.7807 133.932C88.5043 134.672 89.2441 135.393 89.9843 136.118C89.4437 135.279 89.1011 134.527 88.549 133.746C90.2 135.661 90.672 136.5 91.2841 137.406C91.9554 138.041 92.6429 138.659 93.3232 139.282C93.5042 139.339 93.4379 139.12 93.57 139.122C94.2086 139.814 94.6537 140.369 95.0448 140.87C96.9344 142.495 98.8026 144.159 100.718 145.739C100.746 145.709 101.047 145.947 102.245 146.982C105.83 149.857 109.524 152.535 113.389 154.807C114.026 155.053 114.463 155.155 114.639 155.131C114.711 155.31 114.898 155.543 115.177 155.822C117.164 156.908 119.161 157.874 121.176 158.758C122.954 159.413 124.732 160.082 126.529 160.666C126.957 160.608 126.747 160.402 126.465 160.254C125.903 159.951 125.306 159.748 124.728 159.507C123.535 159.01 122.316 158.553 121.176 157.88C124.86 159.341 125.522 159.666 126.557 160.227L125.275 159.068L124.751 158.194L126.814 160.37C127.052 160.504 127.323 160.65 127.648 160.824C126.971 160.121 126.241 159.311 125.525 158.502C123.894 156.964 122.267 155.42 120.642 153.868C120.743 153.998 120.845 154.12 120.941 154.259C117.671 150.843 118.761 153.088 115.73 149.422C116.238 149.824 116.905 150.291 117.628 150.854C115.769 148.943 113.946 146.977 112.179 144.955C111.634 144.402 111.353 144.222 111.594 144.855C110.046 142.98 109.006 141.485 108.693 140.809C107.827 139.746 106.968 138.673 106.122 137.584C107.011 139.279 109.177 142.216 106.446 139.188L105.457 137.534C105.106 136.952 104.756 136.373 104.263 135.863L104.312 135.617C104.231 135.559 104.1 135.414 103.93 135.208C103.751 135.019 103.54 134.699 103.609 134.287C103.758 133.203 104.545 132.332 105.174 131.629C105.334 131.454 106.916 129.815 106.747 129.704C107.932 128.934 109.191 128.555 110.515 128.232C111.801 127.534 113.626 127.105 114.641 128.784C114.824 129.049 114.979 129.344 115.14 129.628C114.871 129.304 114.656 129.051 114.533 128.916C113.271 127.246 111.135 128.024 109.74 128.752C108.116 129.599 106.557 130.824 105.248 132.235C104.81 132.75 104.22 133.318 103.944 134.288C103.992 134.232 104.058 134.084 104.151 133.896C104.677 132.785 105.67 131.954 106.532 131.263C107.728 130.301 109.039 129.486 110.428 128.968C111.386 128.608 112.733 128.211 113.684 128.954C114.485 129.573 115.128 130.776 115.774 131.612C116.639 132.73 117.517 133.83 118.405 134.919C118.773 135.167 118.264 134.221 118.222 134.134C118.044 133.782 117.758 133.36 117.687 132.958C118.768 134.27 119.804 135.576 120.778 136.999C121.604 138.211 122.445 139.327 123.476 140.295C122.435 139.03 122.065 138.445 122.066 138.366C122.061 138.411 122.947 139.207 123.024 139.279C123.452 139.71 123.877 140.143 124.301 140.576C125.136 141.423 125.965 142.332 126.872 143.067C124.653 142.089 122.563 139.755 120.854 137.836C126.463 144.373 132.6 150.077 138.719 155.894C140.916 157.98 143.509 159.471 145.59 161.73C146.381 162.59 147.653 164.13 147.079 165.466C146.366 167.115 144.516 168.27 143.196 169.099L144.435 169.551L142.585 169.474C140.889 170.437 139.079 171.059 137.212 171.491C137.177 171.524 137.18 171.55 137.235 171.57C137.142 171.563 137.036 171.557 136.92 171.556C135.058 171.966 133.137 172.199 131.193 172.389C131.702 172.52 132.456 172.554 133.626 172.421C130.75 173.23 127.724 173.479 124.754 173.622C121.68 173.766 118.477 173.731 115.412 173.015C115.234 173.01 115.055 173.011 114.878 173.004C111.449 173.411 118.151 173.784 120.259 174.093C113.446 174.387 106.578 174.103 99.7465 173.708C93.3396 173.336 86.9358 172.773 80.5512 171.807C80.3731 170.913 79.07 171.083 77.0697 170.105L75.7786 170.158C76.1936 170.144 75.5351 169.742 75.7574 169.554C73.2029 169.046 70.6546 168.459 68.1256 167.751C66.7246 167.358 67.559 166.141 68.2172 165.335C70.2893 162.81 73.6502 160.407 76.7658 161.146C75.6215 160.503 74.3876 160.398 73.1877 160.722C74.0939 160.477 75.0294 160.32 75.9727 160.399C77.3353 160.586 78.6924 161.071 80.0446 161.388C81.3728 161.702 82.7126 161.897 84.0479 162.118C86.7109 162.565 89.3813 162.921 92.0402 163.42C91.5439 163.093 90.8827 163.014 90.3441 162.879C89.2674 162.616 88.191 162.354 87.1155 162.122C85.4017 161.76 83.708 161.282 81.9939 160.917C83.5844 161.242 85.1771 161.584 86.7704 161.867C87.4224 161.979 88.077 162.092 88.7305 162.151C88.9282 162.172 89.5931 162.325 89.7352 162.086L90.2525 162.756C95.0365 163.401 89.6443 162.118 91.2289 161.922C92.7759 162.128 94.3512 162.285 95.8861 162.672C96.3378 162.786 97.0723 162.904 97.3229 163.443C97.6547 164.149 97.7778 164.379 98.527 164.617C100.097 164.749 101.664 164.868 103.229 164.982C103.608 164.972 104.056 165.01 104.555 165.083C105.713 165.168 106.867 165.251 108.012 165.34C107.412 165.068 107.831 164.803 108.093 164.644C110.005 165.42 111.818 165.38 113.775 165.272C115.781 165.161 117.776 165.278 119.787 165.35C119.84 165.201 116.455 164.638 116.15 164.274C117.426 164.485 118.927 164.617 120.4 164.74C119.099 164.195 117.681 163.557 119.524 164.172C120.101 164.405 120.565 164.603 120.96 164.785C121.583 164.837 122.204 164.891 122.826 164.952C119.677 163.81 116.533 162.626 113.461 161.167C113.841 161.363 115.824 162.07 115.868 162.79C115.912 163.517 116.878 163.908 117.333 164.179C113.608 162.02 109.841 159.883 106.273 157.346L104.881 156.311C104.457 155.996 104.039 155.686 103.615 155.369C101.094 153.824 98.6179 152.144 96.2037 150.349C96.1475 150.493 96.2043 150.741 96.3925 151.201C95.3419 150.483 94.2865 149.769 93.2822 148.955C92.8966 148.649 92.4918 148.316 92.1978 147.875C91.2515 146.459 90.0067 145.469 88.7653 144.443C89.5223 145.046 90.2768 145.65 91.0335 146.251C88.0096 143.699 85.0976 140.962 82.2188 138.174C82.2904 138.5 82.5666 138.968 81.6879 138.081C81.3204 137.493 80.7759 136.837 80.1233 136.139C77.3863 133.41 74.3374 131.02 71.7877 128.033C72.0427 128.371 72.3121 128.696 72.5766 129.025C71.2947 127.819 70.0575 126.546 68.8039 125.292C68.7579 125.26 68.7834 125.318 68.7558 125.308C68.7266 125.198 68.6953 125.094 68.6949 125.004C65.9971 122.982 63.6722 119.915 61.6093 117.048C61.1791 115.948 60.3055 114.953 59.6786 114.012C58.7669 112.641 57.8077 111.314 56.913 109.93C56.0024 108.526 55.097 107.12 54.2225 105.687C53.6947 104.823 53.0605 103.909 52.7152 102.921C53.6045 104.668 54.5213 106.038 55.921 107.969L56.1282 107.271C53.7845 103.663 55.5726 107.407 53.6137 103.689C53.9798 103.749 54.314 104.26 54.5389 104.567C55.0492 105.267 55.4967 106.035 55.9355 106.796C56.7846 108.258 57.5835 109.806 58.5991 111.122C57.931 109.758 57.1744 108.427 56.4068 107.134C56.8568 107.814 57.3009 108.512 57.7645 109.175C57.2809 108.456 56.8014 107.729 56.324 106.996C56.3508 107.043 56.3802 107.089 56.4068 107.134C55.139 105.182 53.8921 103.206 52.681 101.2C52.6873 101.423 52.5455 101.385 52.0956 100.813C50.6146 98.6919 49.4919 96.5034 48.5502 94.0052C47.8587 92.7528 47.179 91.4884 46.5138 90.2143C45.9596 89.6941 45.5059 89.3067 45.0745 88.6052C44.5389 87.7425 44.0736 86.8079 43.6223 85.8795C44.146 87.2052 44.6861 88.5131 45.2391 89.8193C44.5179 88.9055 43.8501 87.9113 43.4643 86.7428C43.0878 85.6074 42.8067 84.5184 42.2335 83.4783C42.8394 84.2902 42.9958 84.1893 44.5336 87.3766C44.9079 87.547 43.8122 85.0624 43.2725 83.8863L43.6549 84.6175C43.6446 84.5766 43.6343 84.5357 43.6266 84.4944C42.0448 81.2492 40.5361 77.9554 39.0886 74.6225C39.0744 74.5926 39.0576 74.563 39.044 74.5383L39.4264 75.6571C38.3991 72.9558 37.2509 70.322 36.182 67.6469L36.1701 67.7222C36.1199 67.5701 36.0754 67.4226 36.0342 67.28C35.4981 65.94 34.9744 64.5932 34.4608 63.2425C34.4751 63.6179 34.3326 63.4666 33.7848 61.8801C33.7342 62.2845 33.9452 62.8231 34.0602 63.2019C34.2889 63.9704 34.5549 64.7211 34.8415 65.4666C35.4255 66.9827 36.0465 68.4784 36.6949 69.9603C36.2771 69.004 35.798 67.5911 35.0725 66.8783C34.8868 66.6979 34.9697 67.0939 34.9918 67.1888C35.1624 67.9353 35.4646 68.6579 35.7379 69.3602C34.9473 68.418 34.3139 65.4231 33.3479 63.3077C33.603 63.6457 33.4636 62.8742 33.6377 62.9821C33.1237 63.1136 32.0769 59.3703 31.9441 58.9541C31.6681 58.0358 31.4093 57.1075 31.1888 56.1693C31.1393 55.9591 30.7639 54.7682 30.9579 54.5862L32.1181 58.8246C32.4118 58.8967 31.9916 57.0599 31.7752 55.897C28.0689 45.3219 24.8857 34.1737 22.7998 23.0703C22.616 23.2273 22.5454 24.0931 22.1153 22.843C21.9337 22.0714 21.743 21.2904 21.6248 20.4979C21.5366 19.9074 21.3158 18.8795 21.6154 18.3549C21.5218 18.5167 21.7067 18.196 21.6154 18.3549Z" fill="#60B3B3"/>
</g>
</svg>
