<svg width="122" height="95" viewBox="0 0 122 95" fill="none" xmlns="http://www.w3.org/2000/svg">
<path d="M95.7073 40.1881C97.2062 47.7005 97.8292 55.5076 98.5427 63.1603C99.0403 68.4981 100.825 73.2181 96.8361 76.2316C91.4058 80.3384 84.168 82.5938 78.0921 85.1035C73.0935 87.1688 67.3321 90.2678 61.982 90.7384C56.9793 91.1804 51.3845 88.1336 46.7416 86.2632C40.0509 83.5658 33.321 80.7186 26.877 77.3011C20.9902 74.1782 22.3061 67.1387 22.7976 60.5033C23.3034 53.6444 24.2945 46.8663 25.1745 40.0668C26.1265 40.4685 27.0847 40.8582 28.0305 41.2718C30.6048 42.3912 33.1997 43.4345 35.809 44.4374C35.8069 44.5729 35.7884 44.6727 35.7884 44.8153C35.7741 49.2429 35.8583 53.9153 36.14 58.3738C31.1045 59.8616 32.2498 68.8713 32.3834 73.615C32.4492 75.9013 35.5335 75.9131 35.4677 73.615C35.4183 71.8444 34.7809 65.0259 36.103 62.6089C36.5389 66.6515 36.4649 70.7345 36.4587 74.8033C36.4567 77.0967 39.5409 77.1014 39.543 74.8033C39.5492 70.4351 39.5697 66.112 39.0948 61.7842C41.3853 62.906 40.8055 71.968 40.7808 73.615C40.7459 75.9084 43.8301 75.9084 43.8651 73.615C43.9247 69.7981 44.2414 65.9789 43.0385 62.3285C42.3559 60.2561 40.9782 58.4641 39.2099 58.1243C39.1009 55.5124 39.1708 52.9219 39.14 50.2957C39.1235 48.6369 39.2613 47.1729 39.5389 45.8206C41.0234 46.3696 42.5039 46.9305 43.9905 47.4652C48.7958 49.193 54.3207 52.0853 59.2987 52.7912C62.8826 53.2998 65.7674 51.7193 69.1477 50.3266C74.6439 48.0641 80.1667 45.8848 85.6937 43.7268C89.0288 42.4268 92.3639 41.1244 95.699 39.8268C95.7031 39.948 95.6805 40.055 95.7073 40.1881ZM31.1867 14.6538C39.654 10.7657 50.5887 4.20627 59.7366 4.06843C69.3595 3.92345 80.7959 11.0509 89.7135 15.0531C98.5448 19.0196 107.008 23.6659 115.611 28.1244C106.776 31.7511 97.8992 35.2257 89.0103 38.6789C83.4875 40.8274 77.9646 42.9782 72.4643 45.2003C66.9764 47.4177 62.9196 49.9488 57.0348 48.3493C51.5161 46.8473 45.9665 45.0054 40.423 42.9758C41.373 40.8155 42.8802 38.938 45.0618 37.0414C50.4099 32.3952 55.8217 27.8535 61.2788 23.3831C62.8867 22.0688 61.3487 18.9745 59.7243 20.3054C52.5935 26.1423 44.0686 31.7868 37.8919 38.9498C37.1188 39.8458 36.6233 40.6135 36.3004 41.4524C25.9229 37.4573 15.64 32.7968 5.71903 28.1434C14.0177 23.1716 22.4891 18.6441 31.1867 14.6538ZM120.536 26.7911C110.497 21.6933 100.786 16.22 90.534 11.6165C85.1468 9.19952 79.7329 6.86093 74.2655 4.69585C69.781 2.92053 64.1163 -0.214215 59.3254 0.0115623C54.8162 0.225457 49.828 3.09165 45.6396 4.74339C40.5074 6.76588 35.4081 8.9072 30.3663 11.2149C20.5851 15.6948 11.0589 20.7997 1.765 26.4941C1.38256 26.5416 1.0803 26.7935 0.880851 27.1595C0.276337 27.8891 0.473736 28.9919 1.07002 29.6193H1.07208C1.13993 29.693 1.22013 29.7358 1.2962 29.7928C1.40313 29.8831 1.49566 29.9853 1.63342 30.0495C8.39205 33.2412 15.346 35.972 22.2403 38.8263C21.5186 44.4041 20.7147 49.963 20.1554 55.567C19.5735 61.3683 18.0643 69.6532 20.0588 75.3119C21.3809 79.0693 24.5659 80.027 27.6275 81.5457C33.6315 84.5212 39.7527 87.2139 45.9212 89.6998C50.4407 91.5227 55.7436 94.3199 60.6167 94.4174C64.9285 94.5029 69.559 92.2095 73.5747 90.6695C79.9323 88.2335 86.2304 85.5241 92.3907 82.4868C94.9671 81.2177 100.175 79.6135 101.82 76.6736C103.757 73.2133 101.892 65.9457 101.534 62.193C100.807 54.5617 100.177 46.7332 98.6805 39.2398C98.6414 39.0378 98.5612 38.8904 98.4831 38.7407C105.731 35.9102 112.971 33.0559 120.167 30.0495C121.265 29.5908 121.862 27.4661 120.536 26.7911Z" fill="#090719"/>
<path d="M97.2591 25.7849C97.9747 26.1152 98.6943 26.543 99.3112 27.0825C99.4859 27.2108 99.6381 27.3677 99.7717 27.5459C99.6175 27.6766 99.4428 27.7836 99.2844 27.8858C97.7855 28.8435 96.1097 29.5138 94.4936 30.1554C92.6286 30.8969 93.4285 34.3406 95.314 33.5944C96.8355 32.9883 98.3324 32.3062 99.7985 31.5362C100.936 30.9397 102.165 30.2838 102.716 28.8982C104.049 25.5401 100.199 23.3227 98.0795 22.3483C96.2351 21.4975 95.4353 24.9459 97.2591 25.7849Z" fill="#090719"/>
<path d="M93.1543 23.7177C95.1385 23.7177 95.1426 20.1528 93.1543 20.1528C91.1681 20.1528 91.164 23.7177 93.1543 23.7177Z" fill="#090719"/>
</svg>
