<svg width="169" height="123" viewBox="0 0 169 123" fill="none" xmlns="http://www.w3.org/2000/svg">
<rect x="3" y="103.724" width="164.202" height="18.9737" transform="rotate(-3.39495 3 103.724)" fill="#A259FF" fill-opacity="0.52"/>
<path d="M156.768 106.314C152.264 107.505 146.176 106.548 141.576 106.585C116.75 106.787 91.9237 106.753 67.0977 106.665C54.1574 106.619 41.2171 106.556 28.2796 106.391C19.5977 106.28 6.83976 109.444 4.62793 98.564C5.54572 98.5298 7.04212 98.1621 8.12238 98.1023C12.3123 97.8629 16.5165 97.7802 20.715 97.6861C32.6406 97.4182 44.5747 97.3298 56.5032 97.2785C84.5472 97.1531 112.603 97.2443 140.644 97.8486C145.652 97.9541 150.657 98.0766 155.665 98.259C157.54 98.3274 159.738 98.1222 161.565 98.507C162.181 98.6381 163.871 98.2619 164.315 98.6552C166.539 100.608 158.219 105.932 156.768 106.314ZM23.0921 24.6218C23.1434 20.6571 22.5962 13.6482 24.3605 10.0796C27.53 3.66077 37.3265 4.80945 43.3463 4.70969C54.87 4.51587 66.4051 5.04032 77.9374 4.95766C89.4041 4.87785 100.874 4.80374 112.34 4.72963C117.628 4.69543 122.909 4.72109 128.194 4.87215C130.765 4.94626 134.524 4.37334 137.001 5.21132C145.427 8.05876 144.346 11.2226 144.54 17.137C145.384 42.5786 145.452 67.9918 144.851 93.4392C119.603 92.5613 94.2239 92.9433 69.0302 92.9689C54.3028 92.9832 39.5725 93.0658 24.8479 93.3594C24.6027 70.4687 22.7928 47.4868 23.0921 24.6218ZM166.211 94.5024C160.527 94.1119 154.827 93.8354 149.126 93.6045C149.488 78.2529 149.705 62.9012 149.534 47.5438C149.44 39.3322 149.249 31.1176 149.001 22.9059C148.853 17.9863 149.691 11.4791 147.992 6.87589C144.477 -2.64978 128.436 0.522602 120.652 0.451345C105.813 0.314531 90.9603 0.596706 76.1217 0.696466C62.2209 0.790525 48.1234 -0.358138 34.2567 0.847535C26.4555 1.52305 21.3876 2.9596 19.8855 11.1456C17.5112 24.0774 19.2413 37.8073 19.6632 50.8274C20.1249 65.0247 20.4499 79.2219 20.5753 93.4249C20.1136 93.4363 19.6547 93.4364 19.1929 93.4449C15.7754 93.5304 5.22076 92.1509 1.31871 94.7047C0.725853 94.8957 0.281247 95.3546 0.138732 96.0415C-0.0607879 96.5318 -0.0379981 96.9935 0.161522 97.3954C1.72348 112.257 12.8396 110.441 24.5686 110.615C44.5063 110.914 64.4498 110.954 84.3904 110.983C103.906 111.014 123.425 111.02 142.938 110.849C154.08 110.749 167.853 111.94 168.349 96.6401C168.388 95.4287 167.334 94.5793 166.211 94.5024Z" fill="#4D4E4E"/>
<path d="M132.989 84.8206C127.046 84.4273 120.955 84.7864 115.001 84.7722C88.1338 84.6952 60.9249 85.8952 34.0866 84.5698C33.9526 82.7314 34.1065 80.7846 34.0866 78.9775C33.9954 70.5036 33.907 62.0269 33.8158 53.5501C33.6818 41.1228 33.5507 28.6927 33.4196 16.2626H126.553C128.713 16.2626 132.339 15.6156 134.913 15.9491C134.884 16.1343 134.856 16.331 134.787 16.5933C134.3 18.5029 134.847 21.2734 134.867 23.2373C134.97 31.2836 135.069 39.3357 135.169 47.3849C135.323 59.5813 136.891 72.6926 135.714 84.8719C134.796 84.9004 133.847 84.8776 132.989 84.8206ZM134.953 15.3049C134.839 15.0911 134.924 15.0427 134.953 15.3049V15.3049ZM138.863 86.4367C138.564 62.5114 138.268 38.5832 137.968 14.6579C137.957 13.7914 137.241 13.056 136.366 13.056H31.7978C31.3816 13.056 31.071 13.2099 30.823 13.418C30.7603 13.4636 30.6976 13.5007 30.6434 13.552C30.6377 13.5577 30.6349 13.5634 30.632 13.5691C30.3698 13.8256 30.1902 14.1791 30.1959 14.6579C30.4496 38.4863 30.7033 62.3176 30.957 86.146C30.9655 87.0125 31.6838 87.745 32.5588 87.7479C67.4606 87.8448 102.36 87.9417 137.258 88.0414C138.116 88.0414 138.875 87.3032 138.863 86.4367Z" fill="#4D4E4E"/>
<path d="M65.6678 54.4609C64.103 53.5859 62.5382 52.708 60.9734 51.833C62.4983 50.9237 64.0261 50.0173 65.551 49.111C67.911 47.7058 65.7647 44.0089 63.3904 45.4198C61.857 46.3319 60.3235 47.244 58.79 48.1561C58.7644 46.3918 58.7416 44.6274 58.7188 42.8603C58.6846 40.1126 54.4092 40.1069 54.4434 42.8603C54.469 44.6445 54.489 46.4288 54.5146 48.2131C52.9783 47.3523 51.442 46.4915 49.9029 45.6307C47.5001 44.2854 45.3424 47.9765 47.7452 49.3219C49.3043 50.1969 50.8634 51.0691 52.4225 51.9413C50.9033 52.8477 49.3841 53.7512 47.862 54.6576C45.502 56.0628 47.6483 59.7596 50.0197 58.3488C51.5503 57.4395 53.0809 56.5274 54.6087 55.6182C54.6343 57.3882 54.6543 59.1582 54.6799 60.9283C54.7141 63.6788 58.9896 63.6873 58.9554 60.9283C58.9297 59.1411 58.9098 57.3511 58.8841 55.5612C60.4261 56.4248 61.9681 57.2884 63.5101 58.1521C65.9129 59.4974 68.0706 55.8063 65.6678 54.4609Z" fill="#4D4E4E"/>
<path d="M93.2214 54.4609C91.6566 53.5859 90.0946 52.708 88.5327 51.833C90.0547 50.9237 91.5796 50.0173 93.1045 49.111C95.4674 47.7058 93.3183 44.0089 90.9469 45.4198C89.4134 46.3319 87.8771 47.244 86.3436 48.1561C86.3208 46.3918 86.298 44.6274 86.2752 42.8603C86.241 40.1126 81.9656 40.1069 81.9998 42.8603C82.0226 44.6445 82.0454 46.4288 82.0711 48.2131C80.5319 47.3523 78.9956 46.4915 77.4593 45.6307C75.0565 44.2854 72.896 47.9765 75.3016 49.3219C76.8607 50.1969 78.4198 51.0691 79.9789 51.9413C78.4597 52.8477 76.9377 53.7512 75.4185 54.6576C73.0556 56.0628 75.2047 59.7596 77.5761 58.3488C79.1067 57.4395 80.6373 56.5274 82.1651 55.6182C82.1879 57.3882 82.2107 59.1582 82.2364 60.9283C82.2706 63.6788 86.546 63.6873 86.5118 60.9283C86.4862 59.1411 86.4633 57.3511 86.4405 55.5612C87.9797 56.4248 89.5217 57.2884 91.0637 58.1521C93.4694 59.4974 95.627 55.8063 93.2214 54.4609Z" fill="#4D4E4E"/>
<path d="M120.698 54.4609C119.133 53.5859 117.568 52.708 116.003 51.833C117.528 50.9237 119.053 50.0173 120.578 49.111C122.941 47.7058 120.795 44.0089 118.42 45.4198C116.887 46.3319 115.354 47.244 113.817 48.1561C113.794 46.3918 113.772 44.6274 113.749 42.8603C113.715 40.1126 109.439 40.1069 109.473 42.8603C109.496 44.6445 109.519 46.4288 109.545 48.2131C108.006 47.3523 106.469 46.4915 104.933 45.6307C102.53 44.2854 100.37 47.9765 102.775 49.3219C104.334 50.1969 105.891 51.0691 107.453 51.9413C105.93 52.8477 104.411 53.7512 102.892 54.6576C100.529 56.0628 102.678 59.7596 105.05 58.3488C106.58 57.4395 108.111 56.5274 109.639 55.6182C109.662 57.3882 109.687 59.1582 109.707 60.9283C109.744 63.6788 114.02 63.6873 113.983 60.9283C113.963 59.1411 113.937 57.3511 113.914 55.5612C115.456 56.4248 116.998 57.2884 118.537 58.1521C120.943 59.4974 123.101 55.8063 120.698 54.4609Z" fill="#4D4E4E"/>
</svg>
