<svg width="140" height="101" viewBox="0 0 140 101" fill="none" xmlns="http://www.w3.org/2000/svg">
<rect y="81.188" width="138.265" height="18.9737" transform="rotate(-3.39495 0 81.188)" fill="#EEA562" fill-opacity="0.68"/>
<path d="M84.1879 54.9417C81.9278 61.1384 67.4245 59.0243 62.1501 58.6284C57.9271 58.3107 55.5472 58.7112 54.5469 53.7515C54.2452 52.2527 54.3828 50.5033 54.3451 48.9776C54.263 45.7517 52.9943 39.5348 57.2617 38.4878C63.3412 38.2708 69.4384 38.3424 75.5223 38.3111C77.9754 38.2977 81.5374 37.6019 83.283 39.792C84.7734 41.6623 85.1572 52.2795 84.1879 54.9417ZM63.2147 35.8592C62.9929 30.8996 63.7249 24.8527 70.1991 25.4791C75.6221 26.0048 75.469 31.2329 75.5445 35.649C74.5153 35.7273 73.5638 35.8011 72.7964 35.8056C69.6047 35.819 66.4108 35.8257 63.2147 35.8592ZM68.997 20.5553C72.1155 20.3562 75.6709 20.5284 77.962 23.0094C80.7367 26.0138 80.4107 31.3694 80.3907 35.5013C79.6277 35.4566 78.8337 35.4677 78.0397 35.4991C77.9953 32.4365 78.0685 28.969 76.5625 26.2755C75.2827 23.9892 72.6189 23.1682 70.1991 22.9624C62.1789 22.2846 60.4778 29.5126 60.7306 35.9062C59.9698 35.9196 59.2091 35.9264 58.4505 35.9487C58.0092 27.922 59.4619 21.166 68.997 20.5553ZM84.3121 36.6243C83.9151 36.3201 83.4183 36.1098 82.8837 35.9375C82.8372 31.2217 83.2386 25.4187 80.1135 21.6984C77.3277 18.3831 73.0559 17.779 68.997 18.0385C58.0335 18.741 55.3853 26.2621 55.973 36.2373C52.5773 37.2328 51.9607 39.4789 51.8277 43.0716C51.6791 47.0895 50.8628 53.6441 52.6106 57.4472C54.5491 61.6708 60.4245 61.0847 64.1374 61.2503C69.9219 61.5098 77.4918 62.1898 83.0723 60.3979C87.1245 59.0959 86.7563 55.5747 86.8561 51.6665C86.9448 48.331 87.557 39.1232 84.3121 36.6243Z" fill="#4D4E4E"/>
<path d="M66.8764 53.6236C67.2379 52.0465 67.5972 50.4716 67.91 48.8855C67.9189 48.8407 67.9055 48.8027 67.91 48.7602C67.9943 48.3978 67.9344 48.0041 67.5884 47.6618C65.6454 45.7356 68.5842 42.7692 70.6492 44.541C71.3079 45.1048 72.0687 46.9302 71.0329 47.6551C70.576 47.975 70.301 48.5096 70.4606 49.0756C70.8798 50.57 71.2613 52.0733 71.6717 53.5677C70.0725 53.5722 68.4756 53.6326 66.8764 53.6236ZM73.0468 49.089C75.2226 46.5455 73.4106 42.239 70.1546 41.5388C65.8606 40.6172 62.8109 45.541 65.3549 48.8944C64.98 50.7758 64.5808 52.6483 64.1306 54.514C63.9309 55.3372 64.512 56.0643 65.3349 56.1068C67.9965 56.2433 70.6625 55.9994 73.3218 56.1068C74.1181 56.1381 74.7591 55.2746 74.5262 54.514C73.9761 52.7198 73.537 50.8966 73.0468 49.089Z" fill="#4D4E4E"/>
<path d="M125.988 83.4422C122.483 84.3773 117.746 83.6256 114.166 83.6547C94.8472 83.8135 75.5286 83.7867 56.2101 83.7173C46.1405 83.6815 36.0709 83.6323 26.0035 83.5026C19.2475 83.4153 9.31987 85.8985 7.59873 77.3595C8.31291 77.3327 9.47735 77.0441 10.3157 76.9971C13.5784 76.8092 16.8499 76.7443 20.117 76.6705C29.3992 76.4602 38.6836 76.3909 47.9659 76.3506C69.7885 76.2522 91.62 76.3237 113.438 76.798C117.337 76.8808 121.232 76.977 125.129 77.1201C126.589 77.1738 128.299 77.0128 129.72 77.3148C130.202 77.4177 131.515 77.1224 131.861 77.4311C133.589 78.9635 127.114 83.1424 125.988 83.4422ZM21.9645 19.3248C22.0067 16.213 21.5808 10.712 22.9538 7.91115C25.4201 2.87321 33.0433 3.77477 37.7277 3.69647C46.695 3.54435 55.6711 3.95597 64.645 3.89109C73.5679 3.82846 82.493 3.77029 91.416 3.71212C95.5281 3.68528 99.6402 3.70542 103.752 3.82398C105.753 3.88215 108.678 3.43248 110.606 4.09019C117.164 6.32505 116.322 8.80823 116.472 13.4502C117.129 33.4185 117.182 53.3644 116.716 73.3372C97.0674 72.6482 77.3185 72.948 57.7138 72.9681C46.2536 72.9793 34.7911 73.0442 23.333 73.2746C23.1423 55.3085 21.7317 37.2708 21.9645 19.3248ZM133.336 74.1717C128.913 73.8652 124.479 73.6482 120.041 73.467C120.325 61.418 120.491 49.369 120.356 37.3155C120.285 30.8705 120.137 24.4231 119.944 17.9781C119.828 14.1168 120.48 9.00956 119.158 5.39665C116.424 -2.07972 103.939 0.410172 97.8836 0.354245C86.3368 0.246865 74.7789 0.468334 63.2322 0.546632C52.4151 0.620456 41.445 -0.28109 30.6523 0.665201C24.584 1.19539 20.6404 2.32289 19.4693 8.74782C17.6218 18.8975 18.9703 29.6736 19.2985 39.8927C19.6579 51.0356 19.9107 62.1786 20.0083 73.326C19.649 73.335 19.2919 73.335 18.9326 73.3417C16.2732 73.4088 8.06006 72.326 5.02366 74.3305C4.56232 74.4804 4.21632 74.8383 4.10542 75.3797C3.9546 75.7645 3.97012 76.1269 4.12316 76.4423C5.33861 88.1065 13.9887 86.6815 23.1157 86.8179C38.6304 87.0528 54.1496 87.0842 69.6665 87.1065C84.853 87.1311 100.042 87.1356 115.228 87.0014C123.896 86.9231 134.613 87.8582 134.999 75.8495C135.03 74.8987 134.21 74.2321 133.336 74.1717Z" fill="#4D4E4E"/>
<path d="M107.486 66.5727C102.862 66.264 98.1198 66.5459 93.4865 66.5347C72.5821 66.4743 51.4093 67.4161 30.5248 66.3758C30.4206 64.9329 30.5404 63.405 30.5248 61.9867C30.4539 55.3358 30.3851 48.6827 30.3141 42.0295C30.2121 32.2758 30.1078 22.5198 30.0058 12.7639H102.478C104.159 12.7639 106.978 12.256 108.983 12.5178C108.963 12.6632 108.937 12.8176 108.886 13.0234C108.507 14.5222 108.93 16.6967 108.95 18.238C109.028 24.5533 109.105 30.8731 109.183 37.1907C109.301 46.7632 110.525 57.0539 109.607 66.613C108.893 66.6353 108.154 66.6174 107.486 66.5727ZM109.014 12.0122C108.926 11.8444 108.99 11.8064 109.014 12.0122V12.0122ZM112.055 67.8411C111.825 49.063 111.594 30.2826 111.361 11.5044C111.354 10.8243 110.798 10.2471 110.115 10.2471H28.7438C28.42 10.2471 28.1782 10.3679 27.983 10.5312C27.9365 10.567 27.8877 10.5961 27.8433 10.6364C27.8411 10.6409 27.8389 10.6453 27.8366 10.6498C27.6326 10.8511 27.4929 11.1286 27.4973 11.5044C27.6947 30.2065 27.8921 48.9108 28.0895 67.613C28.0961 68.293 28.6551 68.868 29.336 68.8702C56.4929 68.9463 83.652 69.0223 110.809 69.1006C111.479 69.1006 112.064 68.5212 112.055 67.8411Z" fill="#4D4E4E"/>
</svg>
