<svg width="104" height="104" viewBox="0 0 104 104" fill="none" xmlns="http://www.w3.org/2000/svg">
<mask id="mask0_468_1575" style="mask-type:alpha" maskUnits="userSpaceOnUse" x="0" y="0" width="104" height="104">
<rect width="104" height="104" fill="#C4C4C4"/>
</mask>
<g mask="url(#mask0_468_1575)">
<path d="M33.7368 65.3175C32.6177 65.9348 29.2861 65.3889 28.0123 65.3957C25.5293 65.411 23.0428 65.4178 20.5581 65.4025C19.0649 65.394 16.0905 65.911 14.6568 65.3005C13.5326 64.8209 14.2673 65.3634 13.7946 64.3838C13.3966 63.5607 13.6398 61.8379 14.5803 61.7698C18.6177 61.6831 22.6585 61.7239 26.6959 61.7494C28.6772 61.7631 31.0037 61.4603 32.9697 61.8022C33.1483 61.8345 34.303 61.6814 34.4782 61.8226C35.7401 62.8447 34.5854 64.8498 33.7368 65.3175ZM14.5803 59.8566C12.3116 60.0198 12.0463 60.5624 11.9068 62.6712C11.7742 64.6746 11.3932 66.3736 13.4051 67.1168C15.7962 68.0028 19.7503 67.3175 22.2555 67.3226C26.0616 67.3311 29.934 67.4824 33.7368 67.2307C36.5055 67.0488 36.7282 66.5198 36.7452 63.5947C36.7605 61.1117 36.7639 60.2069 34.2809 59.9059C27.9238 59.1406 20.9816 59.7188 14.5803 59.8566Z" fill="#A259FF"/>
<path d="M7.4858 22.7137C9.11505 19.7987 11.9841 19.1916 15.1236 18.9161C18.7086 18.6049 22.3651 18.7052 25.9603 18.6678C37.7375 18.547 49.5181 18.576 61.2988 18.5862C66.1797 18.5913 71.0794 18.4705 75.9603 18.581C82.0981 18.7205 84.5165 22.3481 85.4553 26.9569C59.0743 27.2035 32.695 26.9416 6.31404 27.0538C6.44669 25.5419 6.7409 24.0521 7.4858 22.7137ZM6.23919 37.331C6.17457 37.331 6.12694 37.3566 6.06912 37.3668C6.09973 35.0351 6.12354 32.7052 6.17966 30.3753C6.18987 29.9093 6.19839 29.4365 6.212 28.9637C6.2222 28.9637 6.22729 28.9671 6.23919 28.9671C32.746 28.8549 59.2545 29.1202 85.7614 28.8685C86.0845 31.5998 86.0386 34.5283 85.9927 37.2307C59.4093 37.4875 32.8242 37.2171 6.23919 37.331ZM59.6372 74.3906C50.0386 74.5335 40.4348 74.6321 30.8345 74.5981C24.9875 74.5811 15.7869 75.9382 10.5028 72.7069C4.01644 68.7461 5.9875 57.5181 5.9841 51.1134C5.9841 47.1457 6.0011 43.1746 6.04192 39.2052C6.10825 39.2188 6.16266 39.2443 6.23919 39.2443C32.8157 39.1304 59.3957 39.3991 85.974 39.144C85.9723 39.377 85.9689 39.6185 85.9689 39.8464C85.9757 41.4875 88.5267 41.4909 88.5199 39.8464C88.4961 34.0572 89.928 23.5913 85.1066 19.0845C81.1865 15.4212 75.9808 16.0385 71.1049 16.0402C56.8175 16.0487 42.5317 15.979 28.2443 16.0963C23.7086 16.1338 19.0658 15.9501 14.547 16.4076C8.29193 17.0402 4.92288 19.3446 3.88036 25.7868C2.82934 32.28 3.47222 39.3957 3.44331 45.9467C3.41439 53.1117 1.90417 62.3634 4.62866 69.1457C7.50282 76.3073 14.1576 76.8804 21.0334 77.0437C33.8957 77.3464 46.7767 77.1338 59.6372 76.9416C61.2784 76.9178 61.2835 74.3668 59.6372 74.3906Z" fill="#A259FF"/>
<path d="M100.171 55.8016C100.119 58.7046 99.9792 61.6179 99.6969 64.5091C98.9894 71.7676 96.5931 77.1077 90.3329 81.2659C88.3142 82.6094 86.1424 83.5448 83.9265 84.5057C83.4996 84.6911 80.9435 85.2438 82.0727 85.2914C78.8295 85.1605 74.6832 82.3186 72.1611 80.4768C65.9775 75.9632 64.3805 70.1638 63.8159 62.8866C63.622 60.39 63.2054 57.5907 63.4639 55.0924C63.7938 51.8917 63.8822 52.9666 67.3618 52.1128C72.8329 50.7727 77.986 48.2149 81.8669 44.1298C85.9792 48.072 91.3278 51.0754 96.9044 52.2318C100.146 52.907 100.234 52.3458 100.171 55.8016ZM102.702 51.7166C102.676 50.9597 102.132 50.5363 101.426 50.441C94.3414 49.4904 87.7088 46.6128 82.7275 41.4087C82.5421 41.2182 82.3414 41.1264 82.139 41.0754C81.7428 40.9274 81.2921 40.9767 80.9231 41.4087C76.2173 46.9223 69.2717 49.5499 62.2241 50.441C61.52 50.5312 60.9741 50.9546 60.9486 51.7166C60.6799 59.8747 60.3023 70.3866 65.321 77.2999C68.3805 81.5142 76.105 87.8935 81.8244 87.8203C87.4214 87.7489 94.6527 81.9564 97.8568 77.9036C103.352 70.953 102.979 60.1281 102.702 51.7166Z" fill="#A259FF"/>
<path d="M93.9324 70.4725C92.3575 74.2735 89.162 76.8194 85.5905 78.697C82.1449 80.5082 80.0361 79.964 76.7776 77.9793C68.6517 73.032 68.3728 65.1987 68.1194 56.6153C71.3014 55.7463 74.3762 54.6493 77.3014 53.0915C79.3031 52.0252 80.4919 50.6289 82.9154 51.0201C84.5021 51.2769 86.73 53.3211 88.196 54.0082C90.929 55.2922 94.8201 55.5065 95.463 58.6663C96.0769 61.6901 95.0718 67.7174 93.9324 70.4725ZM96.7708 54.9758C91.4545 53.5881 86.7487 51.4486 82.3116 48.2293C82.0616 48.0473 81.5956 48.0473 81.3456 48.2293C76.9102 51.4486 72.2045 53.5881 66.8865 54.9758C66.8422 54.9895 66.815 55.0167 66.7759 55.032C66.7538 55.0405 66.7351 55.0524 66.7164 55.0609C66.6364 55.1 66.5531 55.134 66.4953 55.1867C66.3031 55.3415 66.1738 55.5745 66.184 55.8993C66.3609 61.7786 65.9494 69.1408 69.5514 74.1765C71.7538 77.2565 77.7011 82.3194 81.8286 82.3194C85.98 82.3194 91.8728 77.3007 94.1058 74.1765C97.7079 69.1408 97.298 61.7684 97.4749 55.8993C97.4851 55.4861 97.1688 55.0813 96.7708 54.9758Z" fill="#A259FF"/>
</g>
</svg>
