<svg width="104" height="104" viewBox="0 0 104 104" fill="none" xmlns="http://www.w3.org/2000/svg">
<mask id="mask0_249:946" style="mask-type:alpha" maskUnits="userSpaceOnUse" x="0" y="0" width="104" height="104">
<rect width="104" height="104" fill="#C4C4C4"/>
</mask>
<g mask="url(#mask0_249:946)">
<path d="M95.4308 83.0394C92.7181 83.757 89.0508 83.1802 86.2797 83.2025C71.3255 83.3244 56.3713 83.3038 41.417 83.2505C33.6223 83.2231 25.8276 83.1853 18.0346 83.0857C12.8049 83.0188 5.12 84.9245 3.78768 78.3711C4.34053 78.3505 5.2419 78.129 5.8926 78.093C8.41645 77.9488 10.9489 77.899 13.4779 77.8423C20.6614 77.6809 27.8501 77.6277 35.0353 77.5968C51.9279 77.5212 68.8274 77.5762 85.7183 77.9402C88.7349 78.0037 91.7497 78.0775 94.7663 78.1874C95.8961 78.2286 97.2198 78.105 98.3203 78.3368C98.6912 78.4157 99.7093 78.1891 99.9772 78.4261C101.316 79.6021 96.3047 82.8093 95.4308 83.0394ZM14.9098 33.8312C14.9407 31.443 14.611 27.2211 15.6738 25.0716C17.583 21.2051 23.484 21.897 27.1101 21.8369C34.0515 21.7202 40.9998 22.0361 47.9464 21.9863C54.8535 21.9382 61.7623 21.8936 68.6694 21.8489C71.8543 21.8283 75.0357 21.8438 78.2188 21.9348C79.7675 21.9794 82.0321 21.6343 83.5241 22.1391C88.5993 23.8543 87.9485 25.7601 88.0653 29.3226C88.5735 44.6477 88.6147 59.9556 88.2524 75.2841C73.0441 74.7553 57.7568 74.9854 42.5811 75.0008C33.7099 75.0094 24.8369 75.0592 15.9674 75.236C15.8197 61.4476 14.7295 47.6042 14.9098 33.8312ZM101.119 75.9245C97.6954 75.6893 94.2616 75.5228 90.8278 75.3837C91.0458 66.1365 91.1763 56.8892 91.0733 47.6385C91.0166 42.6922 90.9016 37.744 90.7522 32.7976C90.663 29.8343 91.1677 25.9146 90.1445 23.1418C88.0275 17.4039 78.3648 19.3148 73.6759 19.2719C64.7377 19.1895 55.7909 19.3594 46.8527 19.4195C38.4794 19.4762 29.9876 18.7843 21.6349 19.5105C16.9357 19.9174 13.8831 20.7827 12.9783 25.7137C11.5481 33.5033 12.5902 41.7736 12.8443 49.6164C13.1225 58.1683 13.3182 66.7202 13.3938 75.2755C13.1156 75.2824 12.8392 75.2824 12.5611 75.2876C10.5025 75.3391 4.14478 74.5081 1.79434 76.0464C1.43723 76.1615 1.16941 76.4379 1.08357 76.8516C0.963384 77.1469 0.977111 77.4251 1.09729 77.6672C2.03816 86.6191 8.73408 85.5254 15.7991 85.6302C27.8089 85.8105 39.822 85.8345 51.8335 85.8517C63.5891 85.8705 75.3465 85.874 87.1004 85.771C93.8118 85.7109 102.108 86.4285 102.407 77.2122C102.431 76.4825 101.795 75.9709 101.119 75.9245Z" fill="#A259FF"/>
<path d="M81.1074 70.0926C77.5277 69.8556 73.8587 70.072 70.2721 70.0634C54.0885 70.017 37.699 70.7398 21.5326 69.9415C21.4519 68.8341 21.5446 67.6614 21.5326 66.5729C21.4777 61.4686 21.4245 56.3625 21.3695 51.2564C21.2888 43.7707 21.2098 36.2833 21.1309 28.7959H77.2307C78.5321 28.7959 80.716 28.4062 82.2663 28.607C82.2492 28.7186 82.232 28.8371 82.1908 28.9951C81.8972 30.1454 82.2269 31.8142 82.2389 32.9972C82.3007 37.844 82.3607 42.6942 82.4208 47.5428C82.5136 54.8894 83.4579 62.7871 82.7488 70.1235C82.1959 70.1406 81.6242 70.1269 81.1074 70.0926ZM82.2904 28.219C82.2217 28.0903 82.2732 28.0611 82.2904 28.219V28.219ZM84.646 71.066C84.4657 56.6544 84.2871 42.241 84.1069 27.8293C84.1 27.3073 83.6691 26.8644 83.142 26.8644H20.1539C19.9033 26.8644 19.7161 26.9571 19.5668 27.0824C19.529 27.1099 19.4912 27.1322 19.4586 27.1631C19.4552 27.1666 19.4534 27.17 19.4517 27.1734C19.2938 27.3279 19.1856 27.5408 19.189 27.8293C19.3418 42.1826 19.4947 56.5376 19.6475 70.8909C19.6526 71.4129 20.0853 71.8541 20.6123 71.8558C41.6358 71.9142 62.6576 71.9726 83.6793 72.0327C84.1961 72.0327 84.6528 71.588 84.646 71.066Z" fill="#A259FF"/>
<path d="M40.5553 51.8052C39.6128 51.2781 38.6702 50.7493 37.7276 50.2223C38.6461 49.6746 39.5664 49.1286 40.485 48.5826C41.9065 47.7362 40.6137 45.5094 39.1835 46.3592C38.2598 46.9086 37.3361 47.458 36.4124 48.0074C36.397 46.9447 36.3833 45.8819 36.3695 44.8174C36.3489 43.1623 33.7736 43.1589 33.7942 44.8174C33.8096 45.8922 33.8216 46.967 33.8371 48.0418C32.9117 47.5233 31.9863 47.0048 31.0591 46.4863C29.6118 45.6759 28.3121 47.8993 29.7594 48.7097C30.6986 49.2368 31.6377 49.7621 32.5769 50.2875C31.6618 50.8335 30.7467 51.3777 29.8298 51.9237C28.4082 52.7701 29.7011 54.997 31.1295 54.1471C32.0515 53.5994 32.9735 53.05 33.8938 52.5023C33.9092 53.5685 33.9212 54.6347 33.9367 55.7009C33.9573 57.3577 36.5326 57.3629 36.512 55.7009C36.4966 54.6244 36.4846 53.5462 36.4691 52.468C37.398 52.9882 38.3268 53.5084 39.2556 54.0286C40.703 54.839 42.0027 52.6156 40.5553 51.8052Z" fill="#A259FF"/>
<path d="M57.153 51.8052C56.2104 51.2781 55.2696 50.7493 54.3287 50.2223C55.2455 49.6746 56.1641 49.1286 57.0826 48.5826C58.5059 47.7362 57.2114 45.5094 55.7829 46.3592C54.8592 46.9086 53.9338 47.458 53.0101 48.0074C52.9964 46.9447 52.9826 45.8819 52.9689 44.8174C52.9483 43.1623 50.3729 43.1589 50.3936 44.8174C50.4073 45.8922 50.421 46.967 50.4365 48.0418C49.5094 47.5233 48.5839 47.0048 47.6585 46.4863C46.2112 45.6759 44.9098 47.8993 46.3588 48.7097C47.298 49.2368 48.2371 49.7621 49.1763 50.2875C48.2612 50.8335 47.3443 51.3777 46.4292 51.9237C45.0059 52.7701 46.3004 54.997 47.7289 54.1471C48.6509 53.5994 49.5729 53.05 50.4931 52.5023C50.5069 53.5685 50.5206 54.6347 50.5361 55.7009C50.5567 57.3577 53.132 57.3629 53.1114 55.7009C53.096 54.6244 53.0822 53.5462 53.0685 52.468C53.9956 52.9882 54.9245 53.5084 55.8533 54.0286C57.3024 54.839 58.6021 52.6156 57.153 51.8052Z" fill="#A259FF"/>
<path d="M73.7035 51.8052C72.761 51.2781 71.8184 50.7493 70.8758 50.2223C71.7943 49.6746 72.7129 49.1286 73.6314 48.5826C75.0548 47.7362 73.7619 45.5094 72.3317 46.3592C71.4081 46.9086 70.4843 47.458 69.5589 48.0074C69.5452 46.9447 69.5315 45.8819 69.5177 44.8174C69.4971 43.1623 66.9218 43.1589 66.9424 44.8174C66.9561 45.8922 66.9699 46.967 66.9853 48.0418C66.0582 47.5233 65.1328 47.0048 64.2073 46.4863C62.76 45.6759 61.4586 47.8993 62.9077 48.7097C63.8468 49.2368 64.7842 49.7621 65.7251 50.2875C64.8083 50.8335 63.8932 51.3777 62.9781 51.9237C61.5548 52.7701 62.8493 54.997 64.2777 54.1471C65.1997 53.5994 66.1217 53.05 67.042 52.5023C67.0557 53.5685 67.0711 54.6347 67.0832 55.7009C67.1055 57.3577 69.6808 57.3629 69.6585 55.7009C69.6465 54.6244 69.631 53.5462 69.6173 52.468C70.5462 52.9882 71.475 53.5084 72.4021 54.0286C73.8512 54.839 75.1509 52.6156 73.7035 51.8052Z" fill="#A259FF"/>
</g>
</svg>
