<svg width="68" height="68" viewBox="0 0 68 68" fill="none" xmlns="http://www.w3.org/2000/svg">
<path d="M43.9577 40.1367C43.9914 40.0449 44.0208 39.9509 44.0531 39.8577C44.1787 39.8569 44.3109 39.829 44.446 39.7585C44.8924 39.5236 45.3389 39.2886 45.7861 39.0536C46.7275 38.5587 45.8933 37.1319 44.9519 37.6269C44.8491 37.6812 44.7463 37.7355 44.6435 37.7892C44.6773 37.6357 44.7059 37.4793 44.7353 37.3236C45.2669 37.1062 45.7971 36.8838 46.3184 36.6422C46.723 36.4549 46.8244 35.8712 46.6144 35.5121C46.3713 35.0965 45.8904 35.0274 45.4843 35.2154C45.3205 35.2911 45.1531 35.3571 44.9886 35.4306C44.9974 35.2977 45.0018 35.1648 45.007 35.0326C45.3367 34.9085 45.6657 34.7851 45.9946 34.6618C46.4117 34.5054 46.6973 34.1037 46.5718 33.6455C46.4616 33.2446 45.9755 32.9112 45.5555 33.0683C45.3609 33.1418 45.1671 33.2145 44.9732 33.2871C44.9585 33.1072 44.9424 32.9273 44.9218 32.7482C48.478 30.8192 50.7815 28.1397 53.3464 25.0505C55.3562 22.6302 57.3388 20.3686 58.3595 17.3234C60.2672 11.6304 56.7162 5.8617 50.3204 7.03291C42.7586 8.41781 37.2741 16.1625 33.1921 22.0487C30.2791 26.2496 28.8993 32.6189 35.3531 34.0545C35.3575 34.1624 35.3597 34.2711 35.3531 34.3857C34.9882 34.2792 34.6151 34.1881 34.2384 34.2248C33.7942 34.2674 33.4124 34.5736 33.4124 35.0509C33.4124 35.4643 33.7913 35.9203 34.2384 35.877C34.4881 35.8528 34.7356 35.9174 34.9794 35.993C34.9272 36.134 34.8729 36.2772 34.8119 36.4219C34.494 36.3418 34.176 36.264 33.8617 36.1685C32.8418 35.8594 32.4064 37.4536 33.4226 37.762C33.6356 37.8259 33.8522 37.8758 34.0666 37.9338C33.977 38.0953 33.8845 38.2576 33.7883 38.4207C33.452 38.301 33.1157 38.1857 32.772 38.0902C31.7455 37.8068 31.3078 39.4002 32.3329 39.6837C32.518 39.7351 32.6971 39.8033 32.8793 39.8613C32.7955 39.9869 32.7096 40.111 32.6245 40.2358C28.6952 38.4779 25.8344 34.8541 24.6573 30.734C23.4993 26.6806 24.8225 23.8749 27.0173 20.4993C32.0664 12.7355 40.3097 3.00674 50.0509 1.65636C55.7072 0.871395 61.9157 3.69772 64.5394 8.92595C66.7607 13.3538 65.0725 18.4484 62.8601 22.498C58.7825 29.9593 52.7473 38.3054 43.9577 40.1367ZM18.321 64.8232C13.0046 66.8602 7.96366 66.2676 4.47499 61.4439C1.78304 57.721 0.698477 53.4995 2.19352 49.0482C3.85304 44.1056 7.67581 39.9957 11.0147 36.0995C14.2801 32.2885 17.9112 29.0098 22.4492 26.8693C22.4397 26.9898 22.436 27.1109 22.4301 27.2314C21.9602 27.4201 21.4954 27.6227 21.0423 27.8496C20.6436 28.0494 20.5312 28.6126 20.7457 28.9797C20.9836 29.3858 21.4755 29.4761 21.8757 29.2756C22.0747 29.1765 22.2811 29.0957 22.483 29.0054C22.4867 29.0436 22.4933 29.0825 22.4977 29.1207C22.1518 29.3263 21.806 29.5327 21.4653 29.7471C20.5687 30.3132 21.397 31.7436 22.2994 31.1738C22.4735 31.0644 22.6512 30.9616 22.8259 30.8544C22.8413 30.9117 22.8568 30.9682 22.8722 31.0255C22.6666 31.1746 22.4602 31.3229 22.2539 31.472C21.8926 31.7326 21.7171 32.1908 21.958 32.602C22.1665 32.9589 22.7246 33.1608 23.0881 32.8987C23.2019 32.8165 23.3164 32.7335 23.4303 32.6512C23.4493 32.6975 23.467 32.7445 23.4861 32.7908C23.4714 32.8018 23.4552 32.8084 23.4398 32.8201C17.8716 37.1731 9.48366 43.7781 8.80884 51.4677C8.58855 53.979 9.36177 57.1263 11.9553 57.851C14.5827 58.5853 17.6777 57.9443 20.0341 56.6952C25.8366 53.6185 29.3524 46.9195 33.4806 42.0738C36.0698 39.0338 39.8434 30.6943 32.6318 30.3088C32.6112 30.2618 32.5973 30.2134 32.5789 30.1656C32.6076 30.1656 32.6362 30.1627 32.6648 30.1634C33.7288 30.1796 33.7288 28.5274 32.6648 28.5112C32.5686 28.5098 32.4732 28.5179 32.377 28.5186C32.3807 28.4723 32.3843 28.4261 32.3895 28.3791C32.7588 28.3989 33.1282 28.4275 33.4961 28.4738C33.9396 28.5296 34.3222 28.0538 34.3222 27.6477C34.3222 27.155 33.9411 26.8774 33.4961 26.8216C33.253 26.7908 33.01 26.768 32.7662 26.7489C32.8051 26.6344 32.8455 26.5198 32.8888 26.4045C33.1069 26.4295 33.325 26.4545 33.5438 26.4802C33.9873 26.5308 34.3699 26.0638 34.3699 25.6541C34.3699 25.1863 34.0189 24.911 33.5996 24.8419C33.6503 24.7457 33.7017 24.6488 33.7538 24.5526C38.5547 23.3689 41.7841 26.6784 42.9832 31.0776C44.1603 35.3968 42.702 39.8467 40.4991 43.5769C35.4478 52.1345 27.8449 61.1723 18.321 64.8232ZM31.6603 41.584C30.2835 43.4403 28.9309 45.0228 28.4162 45.7079C25.816 49.1686 23.1542 53.2139 19.1999 55.2685C17.1277 56.345 12.9672 57.5162 11.2423 55.3838C8.86611 52.4458 11.5111 47.758 13.2594 45.2996C16.3479 40.9555 20.0752 37.5652 24.216 34.3005C25.9357 37.4389 28.6952 40.1081 31.6603 41.584ZM34.8788 22.6978C35.5866 21.6301 36.3151 20.6733 36.8753 19.9559C40.3023 15.5655 44.0597 10.3696 49.7469 8.8606C53.7422 7.801 57.6098 10.0935 57.3036 14.4685C57.134 16.8909 55.882 19.2231 54.4707 21.1389C51.7288 24.8603 48.63 28.6508 44.6112 31.0093C43.476 26.2533 40.0218 22.2528 34.8788 22.6978ZM64.7795 6.20683C58.9653 -1.60174 48.6601 -1.48351 41.0807 3.45908C37.017 6.10844 33.4799 9.6272 30.3562 13.3112C27.6518 16.5003 24.4524 20.2511 23.0213 24.2215C22.9397 24.4476 22.867 24.6745 22.8024 24.9029C18.4774 26.7614 14.8588 29.4636 11.6491 32.9075C8.12888 36.684 4.32226 40.94 1.92843 45.5419C-1.61384 52.3533 -0.278145 60.601 5.95241 65.4958C13.0641 71.0831 22.9794 65.0846 28.7047 60.3102C32.8932 56.8164 36.3731 52.5765 39.4872 48.1186C40.8765 46.1286 42.2049 44.0909 43.2153 41.9189C51.5834 40.5824 57.4901 34.1353 61.9187 27.2798C65.928 21.0742 69.833 12.9925 64.7795 6.20683Z" fill="white"/>
<path d="M47.0064 3.11505C44.2168 4.29507 41.6137 5.79965 39.3006 7.76391C38.4892 8.45342 39.6626 9.61729 40.4689 8.93218C42.6696 7.06339 45.189 5.66307 47.8405 4.54179C48.8164 4.12838 47.9757 2.70531 47.0064 3.11505Z" fill="white"/>
<path d="M50.3929 2.40503C49.3304 2.40503 49.3282 4.05721 50.3929 4.05721C51.4562 4.05721 51.4584 2.40503 50.3929 2.40503Z" fill="white"/>
<path d="M18.7695 61.7601C16.0842 63.0576 13.1697 63.5231 10.2149 63.095C9.17511 62.9437 8.72571 64.5357 9.77577 64.6877C13.2072 65.1848 16.4777 64.6965 19.6029 63.1868C20.5605 62.7249 19.7234 61.2997 18.7695 61.7601Z" fill="white"/>
<path d="M21.8688 60.243C20.8055 60.243 20.8041 61.8952 21.8688 61.8952C22.9321 61.8952 22.9335 60.243 21.8688 60.243Z" fill="white"/>
</svg>
