<svg width="104" height="104" viewBox="0 0 104 104" fill="none" xmlns="http://www.w3.org/2000/svg">
<mask id="mask0_246:900" style="mask-type:alpha" maskUnits="userSpaceOnUse" x="0" y="0" width="104" height="104">
<rect width="104" height="104" fill="#C4C4C4"/>
</mask>
<g mask="url(#mask0_246:900)">
<path d="M96.2175 72.1467C95.6278 78.8233 89.0538 79.3748 82.2452 79.731C81.7184 79.7586 81.1876 79.7749 80.6601 79.7997C80.7053 61.9246 80.6731 44.0473 80.6656 26.1711C81.1766 26.1858 81.687 26.1942 82.198 26.2105C84.9445 26.3017 88.432 26.0243 91.0103 26.8026C95.5306 28.1678 95.9117 33.8534 96.1607 37.2052C96.7134 44.6298 96.5116 52.2175 96.4343 59.655C96.3919 63.7924 96.5821 68.0216 96.2175 72.1467ZM28.0285 79.8926C28.0737 62 28.0415 44.1058 28.0333 26.2133C39.6353 26.1413 51.2373 25.9984 62.8399 25.9922C67.6004 25.9894 72.3637 25.995 77.1235 26.0828C77.1317 44.0394 77.1638 61.9978 77.118 79.9545C60.8116 80.5943 44.3041 80.2837 28.0285 79.8926ZM10.2008 75.2137C8.80048 72.6385 9.11857 68.8939 8.90856 66.0925C8.69581 63.2601 8.59798 60.4232 8.5631 57.5857C8.494 51.9052 8.70676 46.2258 8.79296 40.5469C8.89283 34.0037 7.22573 27.0001 17.7441 26.2539C19.9934 26.2522 22.2426 26.2375 24.4919 26.2274C24.4994 44.0974 24.5315 61.9691 24.4864 79.8397C19.1335 79.7536 12.448 79.3484 10.2008 75.2137ZM99.776 39.3055C99.7391 35.7066 99.4408 31.6806 97.6075 28.3552C94.5524 22.8137 87.7657 23.458 81.2991 23.2656C60.1337 22.6347 38.917 23.3235 17.7441 23.3404C17.5943 23.3404 17.4561 23.3545 17.3261 23.3781C13.9051 23.6601 10.211 24.4592 7.8455 26.6315C3.90863 30.2467 5.31647 36.1827 5.25079 40.5469C5.16597 46.2263 4.95186 51.9052 5.02163 57.5857C5.09141 63.3175 4.49352 70.4685 6.78518 75.9881C9.89637 83.4813 22.9014 82.7503 30.546 82.851C43.0564 83.017 55.614 83.2027 68.1265 83.1031C76.737 83.0345 89.3432 84.2883 96.4234 79.4902C99.7617 77.2273 99.7049 73.6988 99.7911 70.3976C99.9341 64.9101 100.03 59.4175 99.9915 53.9289C99.9573 49.0537 99.826 44.1796 99.776 39.3055Z" fill="#4D4E4E"/>
<path d="M19.4276 33.252C19.4665 33.6898 19.4495 34.2633 19.4522 34.5604C19.4542 34.79 19.4453 35.0191 19.4262 35.2481C19.4111 35.3427 19.4016 35.4113 19.3934 35.4721C18.9884 35.6173 17.848 35.4586 17.43 35.4631C16.7542 35.4704 16.0783 35.4817 15.4031 35.494C15.1733 35.4986 14.5446 35.4411 14.2402 35.485C14.2361 35.2262 14.1492 34.7889 14.1478 34.6651C14.1444 34.422 14.3483 33.5058 14.061 33.3223C15.8423 33.2925 17.6435 33.2199 19.4276 33.252ZM13.4179 37.6506C14.4181 37.8132 15.5482 37.6748 16.5565 37.6601C17.6838 37.6432 18.8947 37.7434 20.0138 37.6427C21.8622 37.4767 22.0626 36.1891 22.1037 34.8958C22.1317 34.0224 22.2111 32.4073 21.6016 31.6318C21.0693 30.9554 20.0932 31.0848 19.2442 31.0944C17.3616 31.1163 15.4784 31.1293 13.5951 31.1461C13.4597 31.1422 13.3174 31.1506 13.1641 31.1861C13.1142 31.1979 13.0821 31.2187 13.0355 31.2322C12.989 31.2469 12.9446 31.2609 12.9028 31.2795C11.1776 31.8507 11.4492 33.5148 11.4936 34.8649C11.5333 36.0759 11.7406 37.3787 13.4179 37.6506Z" fill="#4D4E4E"/>
<path d="M19.4522 70.1168C19.4542 70.3469 19.4453 70.576 19.4262 70.805C19.4111 70.8996 19.4016 70.9682 19.3934 71.029C18.9884 71.1736 17.848 71.0155 17.43 71.02C16.7542 71.0273 16.0783 71.0386 15.4031 71.051C15.1733 71.0549 14.5446 70.9981 14.2402 71.0419C14.2361 70.7831 14.1492 70.3458 14.1478 70.222C14.1444 69.9783 14.3483 69.0627 14.061 68.8787C15.8423 68.8494 17.6435 68.7768 19.4276 68.8089C19.4665 69.2467 19.4495 69.8196 19.4522 70.1168ZM19.2442 66.6513C17.3616 66.6726 15.4784 66.6862 13.5951 66.703C13.4597 66.6991 13.3174 66.707 13.1641 66.7424C13.1142 66.7543 13.0821 66.7756 13.0355 66.7886C12.989 66.8038 12.9446 66.8178 12.9028 66.8359C11.1776 67.4076 11.4492 69.0717 11.4936 70.4212C11.5333 71.6329 11.7406 72.9351 13.4179 73.2075C14.4181 73.3696 15.5482 73.2317 16.5565 73.2165C17.6838 73.2002 18.8947 73.3003 20.0138 73.1996C21.8622 73.0336 22.0626 71.746 22.1037 70.4527C22.1317 69.5788 22.2111 67.9636 21.6016 67.1881C21.0693 66.5123 20.0932 66.6417 19.2442 66.6513Z" fill="#4D4E4E"/>
<path d="M19.4522 58.2649C19.4542 58.4945 19.4453 58.723 19.4262 58.9532C19.4111 59.0477 19.4016 59.1158 19.3934 59.176C18.9884 59.3218 17.848 59.1631 17.43 59.167C16.7542 59.1749 16.0783 59.1862 15.4031 59.1985C15.1733 59.203 14.5446 59.1451 14.2402 59.1895C14.2361 58.9301 14.1492 58.4928 14.1478 58.369C14.1444 58.1259 14.3483 57.2103 14.061 57.0268C15.8423 56.997 17.6435 56.9239 19.4276 56.9565C19.4665 57.3938 19.4495 57.9683 19.4522 58.2649ZM19.2442 54.7988C17.3616 54.8202 15.4784 54.8332 13.5951 54.8501C13.4597 54.8467 13.3174 54.8546 13.1641 54.8906C13.1142 54.9018 13.0821 54.9232 13.0355 54.9362C12.989 54.9508 12.9446 54.9654 12.9028 54.984C11.1776 55.5546 11.4492 57.2187 11.4936 58.5688C11.5333 59.7804 11.7406 61.0832 13.4179 61.355C14.4181 61.5171 15.5482 61.3787 16.5565 61.3641C17.6838 61.3472 18.8947 61.4473 20.0138 61.3466C21.8622 61.1812 22.0626 59.893 22.1037 58.6003C22.1317 57.7269 22.2111 56.1112 21.6016 55.3357C21.0693 54.6599 20.0932 54.7887 19.2442 54.7988Z" fill="#4D4E4E"/>
<path d="M19.4522 46.4129C19.4542 46.6425 19.4453 46.8715 19.4262 47.1006C19.4111 47.1951 19.4016 47.2644 19.3934 47.3246C18.9884 47.4698 17.848 47.3116 17.43 47.3156C16.7542 47.3234 16.0783 47.3341 15.4031 47.3471C15.1733 47.351 14.5446 47.2936 14.2402 47.3381C14.2361 47.0786 14.1492 46.6414 14.1478 46.5176C14.1444 46.2745 14.3483 45.3583 14.061 45.1748C15.8423 45.145 17.6435 45.0724 19.4276 45.1045C19.4665 45.5423 19.4495 46.1158 19.4522 46.4129ZM19.2442 42.9474C17.3616 42.9688 15.4784 42.9817 13.5951 42.9986C13.4597 42.9952 13.3174 43.0031 13.1641 43.0386C13.1142 43.0504 13.0821 43.0718 13.0355 43.0847C12.989 43.0993 12.9446 43.114 12.9028 43.132C11.1776 43.7032 11.4492 45.3673 11.4936 46.7173C11.5333 47.929 11.7406 49.2312 13.4179 49.5036C14.4181 49.6657 15.5482 49.5272 16.5565 49.5126C17.6838 49.4957 18.8947 49.5959 20.0138 49.4952C21.8622 49.3291 22.0626 48.0415 22.1037 46.7483C22.1317 45.8749 22.2111 44.2598 21.6016 43.4843C21.0693 42.8078 20.0932 42.9373 19.2442 42.9474Z" fill="#4D4E4E"/>
<path d="M91.1189 34.5604C91.1203 34.79 91.1114 35.0191 91.0922 35.2481C91.0772 35.3427 91.0669 35.4113 91.0594 35.4721C90.6544 35.6173 89.5147 35.4586 89.0961 35.4631C88.4202 35.4704 87.7443 35.4817 87.0691 35.494C86.84 35.4986 86.2106 35.4411 85.9055 35.485C85.9021 35.2262 85.8152 34.7889 85.8139 34.6651C85.8104 34.422 86.0143 33.5058 85.727 33.3223C87.5083 33.2925 89.3095 33.2199 91.0929 33.252C91.1326 33.6898 91.1155 34.2633 91.1189 34.5604ZM90.9103 31.0944C89.0277 31.1163 87.1444 31.1293 85.2611 31.1461C85.1257 31.1422 84.9834 31.1506 84.8295 31.1861C84.7802 31.1979 84.7481 31.2187 84.7015 31.2322C84.655 31.2469 84.6106 31.2609 84.5688 31.2795C82.8436 31.8507 83.1152 33.5148 83.1596 34.8649C83.1986 36.0759 83.4066 37.3787 85.0839 37.6506C86.0841 37.8132 87.2148 37.6748 88.2218 37.6601C89.3505 37.6432 90.56 37.7434 91.6798 37.6427C93.5282 37.4767 93.7287 36.1891 93.7704 34.8958C93.7978 34.0224 93.8778 32.4073 93.2669 31.6318C92.7354 30.9554 91.7592 31.0848 90.9103 31.0944Z" fill="#4D4E4E"/>
<path d="M91.1189 70.1168C91.1203 70.3469 91.1114 70.576 91.0922 70.805C91.0772 70.8996 91.0669 70.9682 91.0594 71.029C90.6544 71.1736 89.5147 71.0155 89.0961 71.02C88.4202 71.0273 87.7443 71.0386 87.0691 71.051C86.84 71.0549 86.2106 70.9981 85.9055 71.0419C85.9021 70.7831 85.8152 70.3458 85.8139 70.222C85.8104 69.9783 86.0143 69.0627 85.727 68.8787C87.5083 68.8494 89.3095 68.7768 91.0929 68.8089C91.1326 69.2467 91.1155 69.8196 91.1189 70.1168ZM90.9103 66.6513C89.0277 66.6726 87.1444 66.6862 85.2611 66.703C85.1257 66.6991 84.9834 66.707 84.8295 66.7424C84.7802 66.7543 84.7481 66.7756 84.7015 66.7886C84.655 66.8038 84.6106 66.8178 84.5688 66.8359C82.8436 67.4076 83.1152 69.0717 83.1596 70.4212C83.1986 71.6329 83.4066 72.9351 85.0839 73.2075C86.0841 73.3696 87.2148 73.2317 88.2218 73.2165C89.3505 73.2002 90.56 73.3003 91.6798 73.1996C93.5282 73.0336 93.7287 71.746 93.7704 70.4527C93.7978 69.5788 93.8778 67.9636 93.2669 67.1881C92.7354 66.5123 91.7592 66.6417 90.9103 66.6513Z" fill="#4D4E4E"/>
<path d="M91.1189 58.2649C91.1203 58.4945 91.1114 58.723 91.0922 58.9532C91.0772 59.0477 91.0669 59.1158 91.0594 59.176C90.6544 59.3218 89.5147 59.1631 89.0961 59.167C88.4202 59.1749 87.7443 59.1862 87.0691 59.1985C86.84 59.203 86.2106 59.1451 85.9055 59.1895C85.9021 58.9301 85.8152 58.4928 85.8139 58.369C85.8104 58.1259 86.0143 57.2103 85.727 57.0268C87.5083 56.997 89.3095 56.9239 91.0929 56.9565C91.1326 57.3938 91.1155 57.9683 91.1189 58.2649ZM90.9103 54.7988C89.0277 54.8202 87.1444 54.8332 85.2611 54.8501C85.1257 54.8467 84.9834 54.8546 84.8295 54.8906C84.7802 54.9018 84.7481 54.9232 84.7015 54.9362C84.655 54.9508 84.6106 54.9654 84.5688 54.984C82.8436 55.5546 83.1152 57.2187 83.1596 58.5688C83.1986 59.7804 83.4066 61.0832 85.0839 61.355C86.0841 61.5171 87.2148 61.3787 88.2218 61.3641C89.3505 61.3472 90.56 61.4473 91.6798 61.3466C93.5282 61.1812 93.7287 59.893 93.7704 58.6003C93.7978 57.7269 93.8778 56.1112 93.2669 55.3357C92.7354 54.6599 91.7592 54.7887 90.9103 54.7988Z" fill="#4D4E4E"/>
<path d="M91.1189 46.4129C91.1203 46.6425 91.1114 46.8715 91.0922 47.1006C91.0772 47.1951 91.0669 47.2644 91.0594 47.3246C90.6544 47.4698 89.5147 47.3116 89.0961 47.3156C88.4202 47.3234 87.7443 47.3341 87.0691 47.3471C86.84 47.351 86.2106 47.2936 85.9055 47.3381C85.9021 47.0786 85.8152 46.6414 85.8139 46.5176C85.8104 46.2745 86.0143 45.3583 85.727 45.1748C87.5083 45.145 89.3095 45.0724 91.0929 45.1045C91.1326 45.5423 91.1155 46.1158 91.1189 46.4129ZM90.9103 42.9474C89.0277 42.9688 87.1444 42.9817 85.2611 42.9986C85.1257 42.9952 84.9834 43.0031 84.8295 43.0386C84.7802 43.0504 84.7481 43.0718 84.7015 43.0847C84.655 43.0993 84.6106 43.114 84.5688 43.132C82.8436 43.7032 83.1152 45.3673 83.1596 46.7173C83.1986 47.929 83.4066 49.2312 85.0839 49.5036C86.0841 49.6657 87.2148 49.5272 88.2218 49.5126C89.3505 49.4957 90.56 49.5959 91.6798 49.4952C93.5282 49.3291 93.7287 48.0415 93.7704 46.7483C93.7978 45.8749 93.8778 44.2598 93.2669 43.4843C92.7354 42.8078 91.7592 42.9373 90.9103 42.9474Z" fill="#4D4E4E"/>
<path d="M36.8679 41.0802C46.9683 45.0674 57.6016 48.4418 66.9509 53.5528C57.4224 58.0904 47.1044 61.3949 37.1087 65.1705C36.8891 57.1415 36.8686 49.1109 36.8679 41.0802ZM70.1107 52.6901C59.7311 46.637 47.5498 43.0088 36.2091 38.3925C35.8404 38.2428 35.4833 38.2411 35.1741 38.33C34.7425 38.4184 34.3902 38.6705 34.2739 39.0785C34.2014 39.2451 34.1774 39.4212 34.2102 39.5906C34.2109 48.6793 34.2103 57.7673 34.4928 66.8537C34.5201 67.7316 35.5853 68.1469 36.491 67.7963C47.7194 63.4529 59.4746 59.8889 70.1107 54.577C71.0171 54.1246 70.9151 53.1589 70.1107 52.6901Z" fill="#4D4E4E"/>
</g>
</svg>
