<svg width="27" height="24" viewBox="0 0 27 24" fill="none" xmlns="http://www.w3.org/2000/svg">
<path fill-rule="evenodd" clip-rule="evenodd" d="M19.3336 2.65353C19.1556 2.83175 18.9771 3.01271 18.7986 3.19631C16.4108 1.54405 13.4289 0.658964 10.7319 0.806599C4.78133 1.40611 0.910021 6.86773 0.896221 12.7263C0.878589 19.4259 7.26794 23.952 13.6226 23.1225C20.257 22.2562 25.0063 14.9469 22.9433 8.5141C22.8267 8.15072 22.6869 7.79729 22.5258 7.45444C22.6839 7.27414 22.8429 7.0952 23.0027 6.91796C23.5042 7.9033 23.8628 8.97114 24.0445 10.1062C25.15 17.0173 20.1539 23.3168 13.2174 23.9431C6.09994 24.5848 -0.235528 19.7397 0.00672831 12.3831C0.218319 5.95177 4.27842 0.668902 10.7319 0.0180302C13.7658 -0.14781 16.8719 0.83819 19.3336 2.65353Z" fill="#60B3B3"/>
<path fill-rule="evenodd" clip-rule="evenodd" d="M17.478 4.60409C17.2846 4.8181 17.0919 5.03493 16.9005 5.25446C15.178 4.10053 13.0611 3.50333 11.0605 3.61285C6.47228 4.0751 3.68756 8.06095 3.67692 12.5782C3.66332 17.7439 8.36265 20.8756 13.2624 20.236C18.1591 19.5967 21.4688 14.8425 20.3477 10.0866C20.5684 9.80567 20.7925 9.52446 21.0198 9.24402C21.1529 9.65056 21.2557 10.0712 21.3251 10.5046C22.1775 15.8335 18.3252 20.6906 12.9769 21.1735C7.48899 21.6683 2.60404 17.9325 2.79083 12.2602C2.95398 7.30138 6.08451 3.22803 11.0605 2.72618C13.3123 2.60309 15.6158 3.303 17.478 4.60409Z" fill="#60B3B3"/>
<path d="M24.521 0C24.521 0 15.9476 5.90463 12.3863 13.0949L11.8771 13.7796L8.93486 10.7529C8.93486 10.7529 6.75323 9.73259 6.01515 12.2134C5.93628 12.9161 6.16535 13.6474 6.70264 14.1809L10.0347 17.4892C10.9666 18.4145 12.4848 18.4078 13.4085 17.4744C13.6683 17.2119 13.8545 16.9029 13.9672 16.5738C15.8334 13.627 21.9987 4.38868 26.6681 3.18602C27.3838 -4.38066e-07 24.521 0 24.521 0Z" fill="#60B3B3"/>
</svg>
