<svg width="474" height="339" viewBox="0 0 474 339" fill="none" xmlns="http://www.w3.org/2000/svg">
<mask id="mask0_286_940" style="mask-type:alpha" maskUnits="userSpaceOnUse" x="2" y="0" width="472" height="339">
<rect x="2.39355" width="471.606" height="338.343" fill="#C4C4C4"/>
</mask>
<g mask="url(#mask0_286_940)">
</g>
<g clip-path="url(#clip0_286_940)">
<path d="M112.595 219.63C114.247 220.187 115.903 220.746 117.562 221.302L116.725 221.377C112.964 220.117 114.432 220.417 112.595 219.63C114.432 220.417 114.247 220.187 112.595 219.63ZM86.5805 143.73C86.6564 143.756 86.7299 143.788 86.8058 143.817C86.73 143.786 86.6564 143.756 86.5805 143.73ZM64.1052 133.889C62.1001 132.612 62.5941 132.607 63.8715 133.13C66.318 134.459 68.7835 135.726 71.2632 136.953C68.8977 135.87 66.523 134.804 64.1052 133.889C66.2754 134.71 62.1001 132.612 64.1052 133.889ZM60.0937 131.025C61.2807 131.709 62.4703 132.371 63.6624 133.016C61.8343 132.147 60.8413 131.544 60.0937 131.025ZM54.2635 185.035C57.9066 187.528 61.6079 189.897 65.4008 192.04C62.1766 190.243 58.9948 188.34 55.876 186.296C55.4732 185.963 54.9505 185.555 54.2635 185.035ZM51.571 118.308L51.8421 118.083C52.4053 118.491 52.12 118.501 52.334 118.846C52.0766 118.671 51.8283 118.487 51.571 118.308ZM48.0655 110.393C48.1033 110.414 48.1185 110.443 48.1064 110.49C48.1364 110.443 48.1664 110.401 48.2031 110.357C48.7983 110.212 49.3957 110.077 49.9952 109.946C49.8657 110.161 49.6539 110.333 49.2797 110.421C50.2882 110.654 51.373 110.504 52.3677 110.241C53.2359 110.023 54.2732 109.765 54.9728 109.05C54.9908 109.045 55.0043 109.043 55.0223 109.044C56.299 109.344 54.1561 109.915 53.5394 110.387C54.6925 110.313 55.747 110.224 56.7524 110.122C59.7792 109.98 62.8229 109.64 65.8584 109.77C65.9429 108.918 66.337 109.237 66.9915 108.66L67.3833 108.979C67.2504 108.874 67.5026 108.575 67.399 108.333C69.5401 108.382 71.6797 108.516 73.8157 108.728C73.5029 109.028 73.143 109.322 72.6759 109.456C75.0546 109.008 75.9884 110.048 78.5482 109.909C78.1946 110.356 75.9087 110.372 75.2818 110.397C76.1285 110.511 77.6749 110.412 77.6984 110.866L77.9332 110.28C79.4371 110.427 77.6745 110.821 78.1222 111.282C80.9582 111.653 79.6865 110.162 80.6538 109.672C81.1374 109.752 81.6163 109.841 82.0952 109.933C82.2195 110.011 82.3875 110.034 82.5785 110.024C82.923 110.095 83.2676 110.164 83.6098 110.237C83.3753 110.426 83.4571 110.756 83.5119 110.956C84.8789 109.952 84.9165 111.522 87.1239 111.763C87.101 112.173 86.0444 111.993 85.853 112.405C86.5404 112.388 87.2241 112.447 87.9092 112.432C88.3065 112.437 89.0439 112.508 89.3278 112.066C90.8765 112.482 92.384 113.195 93.9453 113.53C93.7011 113.503 93.1732 113.386 93.041 113.757C92.897 114.158 92.7285 114.297 92.3544 114.376C94.0331 114.032 95.7721 114.092 97.4609 114.065C98.2644 114.342 99.0632 114.623 99.8619 114.916C99.8209 115.079 99.7328 115.237 99.5536 115.471C101.797 116.858 100.418 115.058 102.616 116.133L101.608 115.608C101.655 115.616 101.695 115.614 101.74 115.62C102.808 116.029 103.879 116.454 104.935 116.89C104.815 117.068 104.627 117.17 104.976 117.277C106.292 116.595 107.488 118.803 108.632 119.146L108.283 119.077L109.508 120.154C109.519 120.179 109.498 120.185 109.498 120.205C109.539 120.166 109.58 120.126 109.619 120.073C110.025 120.733 110.862 121.657 111.991 122.193C112.292 122.091 113.203 122.495 114.039 123.1C114.891 123.67 115.75 124.255 116.096 124.232C115.594 124.032 115.215 123.774 114.723 123.254L115.082 122.753C116.08 123.48 114.89 123.317 116.014 123.665C116.229 122.786 114.628 122.675 113.973 122.091C114.31 122.092 114.735 122.192 115.211 122.427C114.923 122.197 114.64 121.972 114.354 121.759C115.213 122.335 116.06 122.94 116.886 123.581C116.768 123.662 116.723 123.783 116.856 124.009C117.776 125.184 118.185 125.054 118.788 125.137C119.075 125.384 119.358 125.641 119.645 125.897C119.677 126.158 119.59 126.372 119.684 126.625C119.826 127 120.124 127.3 120.377 127.562C120.081 127.416 119.788 127.262 119.494 127.116C119.389 127.074 119.322 127.043 119.322 127.043C119.71 128.507 120.277 127.543 120.814 128.293C120.733 127.923 120.85 127.753 120.117 127.057C120.203 126.735 120.826 127.186 121.112 127.425L120.956 127.238C120.978 127.236 121.003 127.232 121.028 127.232C121.758 127.979 122.458 128.766 123.126 129.597C123.128 129.613 123.137 129.634 123.136 129.649L122.864 129.451C123.339 129.895 123.756 130.421 124.11 130.859C124.241 131.04 124.366 131.231 124.495 131.413L124.439 131.437C124.487 131.483 124.538 131.515 124.589 131.549C124.828 131.888 125.071 132.225 125.303 132.575L125.303 132.577C125.146 132.572 125.111 132.681 125.409 133.084C124.841 133.22 124.043 131.609 123.806 131.163C124.178 131.852 124.239 132.971 123.473 131.934C123.364 132.541 124.303 132.791 124.531 133.486C124.563 133.298 124.782 133.371 124.854 133.238C124.513 133.607 125.824 135.386 126.199 135.296C126.199 135.296 126.037 135.021 125.864 134.771C125.739 134.614 125.619 134.45 125.489 134.295C125.747 134.026 126.214 134.562 126.402 134.727C127.757 138.63 124.344 141.363 121.676 142.397C121.619 142.088 121.743 141.763 121.399 141.669C120.139 141.815 120.395 142.356 120.376 142.798C117.546 143.476 114.499 142.99 111.621 142.569C111.628 142.47 111.692 142.366 111.842 142.258C111.011 142.022 111.363 142.308 111.449 142.543C111.028 142.484 110.611 142.425 110.199 142.371C110.168 142.227 110.142 142.065 110.564 142.038C109.878 141.739 109.748 142.002 109.639 142.303C108.879 142.22 108.12 142.119 107.363 142.005C107.195 141.867 107.058 141.719 106.964 141.562C106.259 141.487 105.878 141.57 105.637 141.721C105.23 141.651 104.822 141.577 104.417 141.498C104.627 141.443 104.771 141.326 104.776 141.037C103.808 141.422 103.308 141.227 102.52 141.11C99.2077 140.383 95.9259 139.447 92.673 138.394C91.1124 137.89 89.5591 137.354 88.0109 136.783C86.4605 136.215 84.9158 135.44 83.3433 134.975C82.8039 134.754 82.2667 134.532 81.7272 134.309C81.7498 134.303 81.7745 134.303 81.7948 134.299C81.2229 133.748 81.0147 133.843 80.8267 133.934C80.5503 133.817 80.2763 133.695 80.0022 133.578C80.341 133.465 80.6396 133.206 80.953 133.13C80.1953 133.063 79.8915 133.231 79.5232 133.363C79.2914 133.265 79.0665 133.162 78.8369 133.064C78.783 132.937 78.8838 132.827 78.8791 132.708C78.5945 132.676 78.3693 132.712 78.1642 132.763C77.498 132.466 76.832 132.167 76.1638 131.859C76.1532 131.82 76.0397 131.765 75.6827 131.635C74.4289 131.052 73.1819 130.46 71.9375 129.852C71.7684 129.636 71.6796 129.45 71.6841 129.32C71.6104 129.424 71.4967 129.507 71.3565 129.565C70.7221 129.253 70.0808 128.944 69.4443 128.623C68.9563 128.282 68.4777 127.919 67.9922 127.567C67.8485 126.668 69.0801 127.88 69.8387 127.9C68.0882 126.83 68.5865 127.348 67.0781 127.073C66.7383 126.86 66.1988 126.768 65.677 126.689C65.1008 126.389 64.5336 126.083 63.9619 125.779C64.027 125.78 64.0875 125.785 64.1528 125.773C62.8985 125.219 63.7647 124.729 62.4152 124.479C62.5507 124.69 62.7275 124.982 62.943 125.24C62.2757 124.883 61.604 124.518 60.9436 124.15C60.6889 123.952 60.5823 123.76 60.8569 123.591C60.2052 123.241 59.6631 123.166 59.4294 123.306C59.0782 123.105 58.7294 122.894 58.3828 122.686C58.969 122.544 60.0201 123.04 59.0823 122.101L57.9022 122.051C57.8268 121.738 56.3129 120.75 56.6085 120.28C56.0452 120.009 55.8626 120.179 55.3689 120.036C55.0771 119.514 54.8662 119.122 54.1855 119.148C56.2957 120.959 55.5623 120.659 57.4754 122.059C57.4411 122.099 57.3829 122.087 57.3115 122.059C57.196 121.987 57.0715 121.915 56.9538 121.842C56.9384 121.826 56.9228 121.816 56.9051 121.802C56.9051 121.802 56.9184 121.814 56.9228 121.819C55.3876 120.887 53.8757 119.915 52.3916 118.89C52.3205 118.588 52.9678 118.68 53.1457 118.522C52.0764 117.528 51.66 118.228 50.7678 117.247C52.5243 117.979 50.3628 116.526 50.0086 115.856C50.055 116.539 50.4463 117.273 51.4735 118.236C49.1714 116.609 46.9366 114.859 44.7805 112.971C45.0513 112.769 45.324 112.579 45.1721 112.531L44.5993 112.809C44.188 112.444 43.7744 112.089 43.3723 111.716C44.9257 111.218 46.4915 110.78 48.0655 110.393C47.0147 110.65 48.1033 110.414 48.0655 110.393ZM93.2876 112.883C92.6208 112.622 91.9495 112.361 91.2757 112.123C91.8655 112.29 92.4507 112.462 93.0359 112.639C93.0996 112.716 93.1814 112.794 93.2876 112.883ZM111.344 119.91C110.944 119.831 110.769 119.68 110.657 119.518C110.888 119.646 111.117 119.778 111.344 119.91ZM111.164 120.47C110.86 120.108 111.064 119.896 111.349 119.912C111.9 120.223 112.447 120.544 112.989 120.882C112.377 120.568 111.767 120.389 111.164 120.47C111.767 120.389 110.86 120.108 111.164 120.47ZM142.926 220.004C143.77 220.126 144.675 220.256 145.604 220.392C145.846 220.573 146.085 220.75 146.34 220.941C145.329 220.76 144.317 220.585 143.305 220.412C141.534 220.008 139.758 219.632 137.984 219.248C138.599 219.23 140.523 219.546 142.926 220.004C140.523 219.546 143.77 220.126 142.926 220.004ZM147.237 220.631C147.501 220.836 147.769 221.045 148.034 221.251C147.508 221.157 146.974 221.055 146.425 220.958C146.141 220.751 145.889 220.572 145.647 220.399C146.171 220.478 146.7 220.55 147.237 220.631C146.7 220.55 147.501 220.836 147.237 220.631ZM140.285 228.759L139.613 228.675C140.182 228.483 140.643 228.329 140.86 228.257C142.286 228.594 143.711 228.911 145.14 229.203L145.139 229.27C144.412 229.39 143.651 229.518 142.858 229.654C142.172 229.357 140.561 228.905 140.285 228.759ZM139.161 228.824C139.472 228.897 139.736 228.969 139.91 229.028L138.712 228.978C138.868 228.925 139.017 228.873 139.161 228.824C139.017 228.873 139.472 228.897 139.161 228.824ZM145.164 229.264L145.165 229.208C145.217 229.218 145.263 229.23 145.31 229.239C145.263 229.248 145.211 229.256 145.164 229.264C145.211 229.256 145.164 229.244 145.164 229.264ZM122.361 223.683C125.284 224.702 128.268 225.565 131.151 226.722C129.469 225.713 127.648 225.071 125.872 224.348C123.789 223.506 121.688 222.728 119.588 221.975C126.602 224.316 133.656 226.546 140.799 228.242C140.094 228.367 139.466 228.479 138.919 228.586L136.338 228.263C136.877 228.36 137.721 228.516 138.479 228.675C138.056 228.76 137.675 228.841 137.341 228.916L136.717 228.889C136.849 228.916 136.981 228.943 137.116 228.968C135.765 229.283 134.446 229.754 133.101 230.119C131.358 230.589 129.593 230.965 127.837 231.363C130.486 230.864 133.139 230.427 135.798 230C135.798 230 136.934 229.6 138.145 229.172C139.297 229.397 140.449 229.633 141.602 229.873C134.228 231.158 126.707 232.311 119.484 234.609C118.662 234.871 118.325 235.063 118.388 236.164C118.455 237.371 118.82 238.565 119.205 239.663C120.017 241.994 121.278 245.018 123.224 246.222C124.15 246.797 124.989 246.298 125.938 245.982C127.799 245.364 129.668 244.797 131.547 244.28C135.396 243.224 139.281 242.374 143.186 241.733C143.401 241.73 143.493 241.752 143.425 241.802C143.651 241.725 143.897 241.649 144.186 241.568C147.695 241.026 151.222 240.65 154.746 240.24C153.84 240.529 152.466 240.813 150.267 241.082C152.658 240.998 155.628 240.727 158.699 240.502C161.428 240.455 164.266 240.981 166.874 239.727C167.522 239.28 168.288 238.835 168.445 237.848C168.622 236.942 168.429 236.04 168.182 235.194L167.961 234.481C167.814 234.011 167.667 233.544 167.52 233.076C167.192 232.197 166.762 231.361 166.38 230.513C165.935 229.762 165.488 229.017 165.04 228.273C163.305 225.953 161.456 223.848 159.295 222.111C159.026 221.837 158.752 221.569 158.481 221.299C158.41 221.224 157.249 219.798 157.279 219.785C157.532 219.668 158.392 220.609 158.571 220.76C159.524 221.583 160.452 222.436 161.35 223.343C163.155 225.052 164.825 227.129 166.191 229.355C163.843 224.992 160.473 221.613 157.137 218.409C153.429 214.853 149.594 211.548 145.669 208.358C141.74 205.162 137.678 202.181 133.633 199.203C129.601 196.234 125.541 193.294 121.379 190.596C115.784 186.976 110.114 183.695 104.23 180.837C103.941 180.783 103.586 180.714 103.228 180.64C103.181 180.844 102.982 180.93 102.661 180.924C100.28 180.723 102.451 186.926 103.066 187.93C103.066 187.93 103.12 188.099 103.198 188.354C103.463 189.113 103.712 189.908 104.07 190.608C103.763 189.951 104.287 190.54 104.5 190.557C104.581 190.556 104.602 190.509 104.558 190.345C105.482 191.93 106.582 193.074 108.079 193.774C109.119 194.259 110.138 194.802 111.147 195.363C113.864 196.873 116.525 198.529 119.165 200.223C125.34 204.188 131.407 208.392 137.427 212.689C135.428 211.738 133.464 210.689 131.544 209.515C136.805 212.835 141.896 216.485 146.885 220.36C146.258 220.248 145.665 220.139 145.135 220.035C145.064 219.987 144.995 219.939 144.924 219.888C144.99 219.936 145.055 219.985 145.119 220.035C143.611 219.735 142.578 219.472 142.472 219.25L141.372 219.61C132.594 217.533 142.628 219.336 139.827 218.243C136.781 217.53 133.748 216.612 130.675 216.069C130.044 215.957 128.868 215.568 128.325 216.201C127.763 216.858 126.671 216.493 126.011 216.367C123.191 215.467 120.376 214.533 117.557 213.608C114.72 212.507 111.782 211.708 108.909 210.742C110.183 210.931 109.475 210.364 109.043 210.021C105.404 209.455 102.063 208.092 98.6265 206.608C95.1658 205.115 91.7098 203.609 88.206 202.273C88.0507 201.78 94.0603 204.137 94.8689 203.992C91.3546 202.739 87.8453 201.458 84.3671 200.066C82.6101 199.364 80.8601 198.651 79.096 197.975C78.0811 197.592 76.9374 196.999 75.8559 196.96C67.0839 192.725 58.6564 187.658 50.5061 181.894C51.6731 182.693 52.8485 183.524 54.0834 184.163C54.306 184.277 54.7364 184.572 54.9904 184.426C55.1563 184.314 55.2643 184.301 55.4565 184.351C56.3549 184.589 57.2256 185.127 58.0598 185.573C49.2281 180.897 41.0418 174.748 33.6236 167.303C30.049 163.208 26.7144 158.743 24.3095 153.494C24.4279 153.399 24.6984 153.597 25.2454 154.155C23.4945 150.285 22.9284 147.863 22.4847 146.405C22.1516 144.911 21.9099 144.352 21.7603 143.79C21.0271 141.297 20.9456 138.635 21.2115 136.012C21.2555 135.167 21.4378 134.245 21.6288 133.209C21.6288 133.209 21.5395 133.688 21.408 134.406C21.2406 135.117 21.201 136.1 21.0806 137.077C21.0074 138.052 21.015 139.038 20.9931 139.774C21.0296 140.511 21.0502 141.001 21.0502 141.001C21.0272 140.643 20.9904 140.308 20.9625 139.98C20.8132 135.68 21.587 131.365 23.1343 127.489C24.4985 124.078 26.6937 121.283 29.2198 119.091C29.1918 119.147 29.1616 119.205 29.1292 119.262C28.8945 119.716 28.5737 120.083 30.0736 118.796C32.2879 116.327 35.2763 114.913 38.0715 113.761C38.2131 113.626 38.2896 113.872 38.3936 113.957L38.686 114.313C41.8102 118.229 45.4691 122 49.3914 124.695L47.5791 123.44C50.0403 125.468 52.5204 127.444 55.1024 129.241C55.1775 129.312 55.0907 129.27 55.1236 129.313C55.2823 129.349 55.4388 129.388 55.549 129.381C60.4054 133.357 65.9489 136.177 71.3674 138.825C72.8671 139.215 74.3291 139.966 75.7662 140.599C77.9006 141.541 80.033 142.47 82.189 143.336C86.4451 145.05 90.7206 146.557 95.0542 147.951C95.9348 148.177 96.626 148.324 97.0537 148.392C93.8954 147.582 90.8167 146.457 87.7482 145.259L88.4941 144.843C95.1821 147.183 88.7778 145.571 95.2789 147.427C94.8158 146.815 93.8861 146.572 93.2616 146.332C92.0128 145.843 90.7379 145.439 89.4582 145.051C86.756 144.224 84.0692 143.279 81.4465 142.142C83.4392 142.714 85.412 143.402 87.373 144.116C87.7192 144.223 88.0764 144.337 88.4449 144.451C88.1751 144.346 87.9052 144.244 87.6376 144.136C88.0435 144.292 88.4474 144.434 88.8512 144.582C88.715 144.537 88.5789 144.492 88.4449 144.451C92.08 145.725 95.7013 147.026 99.4068 147.995C99.031 148.049 99.1629 148.211 100.371 148.612C102.366 149.163 104.351 149.638 106.377 149.994C108.434 150.358 110.517 150.37 112.594 150.379C114.906 150.662 117.139 150.979 119.361 150.875C119.735 150.948 119.951 151.042 120.244 151.108C120.6 151.148 121.104 151.246 122.225 151.066C122.775 150.93 123.511 150.844 124.403 150.422C125.307 150.083 126.426 149.527 127.642 148.435C127.642 148.435 127.55 148.519 127.395 148.664C127.24 148.803 127.029 149.035 126.741 149.241C126.189 149.71 125.397 150.214 124.582 150.602C123.525 151.21 122.351 151.573 121.206 151.814C124.342 151.734 127.055 150.259 129.034 147.267C129.547 146.434 130.12 145.4 130.587 143.846C129.435 146.686 127.399 148.853 124.987 150.008C124.77 149.992 125.322 149.623 125.356 149.599C125.849 149.244 126.341 148.884 126.808 148.483C127.767 147.663 128.676 146.547 129.237 145.288C129.218 145.324 129.2 145.36 129.174 145.406C128.961 145.782 128.746 146.153 128.497 146.492C128.549 146.388 128.595 146.287 128.637 146.185C132.052 140.928 129.533 132.617 126.374 127.05C126.316 126.937 126.257 126.819 126.218 126.735C126.461 127.107 126.692 127.493 126.921 127.883C124.525 123.542 121.258 119.85 117.712 116.925C117.784 116.944 117.853 116.97 117.853 116.97C117.618 116.795 117.387 116.639 117.163 116.491C115.292 115.001 113.321 113.68 111.285 112.518C111.839 112.658 111.581 112.42 109.151 111.158C110.364 111.267 111.728 112.227 112.794 112.87C114.372 113.824 115.862 114.877 117.355 116.01C118.593 116.878 119.796 118.08 120.871 119.219C119.936 118.28 118.968 117.383 118.053 116.415C117.808 116.193 116.452 115.269 116.456 114.808C116.457 114.739 118.112 115.769 118.231 115.854C118.718 116.256 119.311 116.78 120.027 117.419C118.77 115.462 114.394 113.041 111.089 111.003C111.649 111.462 110.496 111.024 110.702 111.3C110.714 111.131 109.94 110.61 108.757 109.959C107.688 109.442 106.607 108.974 105.522 108.508C103.98 107.962 102.438 107.419 100.867 106.987C100.143 106.788 99.4192 106.596 98.69 106.44C98.5088 106.401 97.6877 106.106 97.5225 106.307C99.7482 106.907 101.964 107.563 104.165 108.289C104.245 108.461 102.918 108.215 102.824 108.196C101.771 107.951 100.713 107.699 99.6577 107.465C82.3767 101.536 64.9261 98.3748 47.2226 102.356C47.3602 102.062 48.6075 101.482 46.5557 101.722C45.139 101.974 43.7449 102.353 42.3565 102.787C41.318 103.11 40.0966 103.365 39.5437 104.554C38.7981 104.822 38.0612 105.108 37.3261 105.416C34.7744 102.401 31.9418 99.2708 30.3492 95.3363C28.722 91.3226 28.9372 86.5912 31.1542 82.9389C33.3943 79.2532 36.9789 76.7452 40.4676 75.2233C42.5762 74.3015 44.7605 73.6796 46.9295 73.0305C49.1797 72.3604 51.3959 71.5751 53.6704 71.0581C54.6915 70.8267 55.721 70.6292 56.7478 70.4608C56.872 70.5483 56.5681 70.7248 55.7051 71.0263C60.7714 70.3201 58.3469 70.4349 57.7519 70.3032C60.2121 69.9511 62.6874 69.7631 65.1562 69.6873C65.4614 69.8206 65.8628 69.9803 63.2575 70.157C64.391 70.1746 65.5316 70.1744 66.6668 70.0932C67.3098 70.0461 67.9928 70.0198 68.5784 69.6551C73.1824 69.7087 77.7969 70.1891 82.3686 71.0616C83.2732 71.3311 84.0315 71.6205 84.577 71.8793C88.6428 72.7946 90.8321 73.2976 92.1212 73.5312C94.4613 74.2704 96.7818 75.1013 99.0757 76.0373C97.9503 75.6875 97.2268 75.5896 97.3444 75.9217C100.539 76.7027 103.58 78.0851 106.608 79.5076C110.719 81.7057 114.744 84.064 118.627 86.8082C120.575 88.1804 122.487 89.6373 124.353 91.163C125.245 91.8926 126.128 92.6399 127.001 93.4051C127.366 93.7236 128.015 94.6038 128.555 94.4404C129.308 94.2156 129.194 92.3905 129.163 91.7366C129.097 90.3928 128.875 88.9475 128.346 87.7528C128.069 87.126 127.667 86.7979 127.196 86.3833C126.298 85.5907 125.389 84.8159 124.466 84.0566C122.704 82.6024 120.901 81.2147 119.067 79.8939C104.435 69.3662 87.7432 63.2569 70.734 61.9446C64.4828 61.4626 58.2071 61.867 52.0211 63.1733C48.9158 63.8262 45.838 64.7041 42.8105 65.7873C39.914 66.8233 37.0113 67.9557 34.4138 69.8704C34.4183 69.8682 34.4207 69.8638 34.4229 69.8616C32.756 70.946 31.0564 72.36 30.0205 74.3311C28.9041 75.9034 27.9998 77.6681 27.3415 79.6189C27.7482 77.8074 28.1085 76.3341 28.9657 74.6921C27.5336 77.2356 27.0678 79.0977 26.7692 80.5092C26.6399 81.2254 26.5617 81.846 26.4883 82.4441C26.4768 82.7201 26.4564 82.9914 26.4426 83.2673C26.1261 85.1882 26.0111 87.1418 26.1049 89.0945C26.0433 89.2753 25.9441 89.0445 25.882 89.259C25.9236 89.7065 25.9633 90.127 25.9991 90.5228C26.1524 91.5134 26.3723 92.5433 26.6545 93.4867C26.6673 93.5251 26.6802 93.5568 26.693 93.5929C27.7717 98.6747 30.161 103.144 33.0206 107.17C33.0707 107.257 33.1277 107.338 33.1824 107.42C33.1729 107.447 33.1256 107.46 33.0937 107.481C29.2914 109.86 25.7435 112.587 22.9476 116.597C19.8363 121.058 18.1902 126.471 17.795 132.252C17.6262 133.561 17.5099 134.428 17.4146 134.745C17.4829 134.944 17.5536 135.27 17.6332 135.723C17.6532 135.867 17.6749 136.034 17.699 136.198C17.7559 139.362 18.105 142.512 18.6798 145.591C19.2482 148.652 20.1408 151.535 20.9963 154.484C21.5545 156.2 22.2133 158.069 23.0348 159.623C23.6826 160.968 24.1115 161.865 24.1115 161.865C24.5203 163.392 23.6178 161.724 22.3046 159.137C21.7537 157.773 21.0538 156.203 20.4818 154.633C19.9733 153.025 19.4093 151.506 19.0217 150.305C20.168 154.596 21.727 158.662 23.9355 162.297C26.2664 166.128 28.9873 169.615 31.8126 172.905C32.1876 173.286 32.5648 173.67 32.942 174.054C35.7535 177.235 38.8186 180.165 42.0177 182.881C41.8203 182.743 41.6319 182.598 41.4322 182.462C43.1452 183.884 44.8443 185.326 46.4395 186.93C47.9135 188.409 49.6968 189.531 51.3915 190.58C50.4557 189.785 49.2839 188.74 47.9524 187.592C51.8642 190.51 55.8524 193.166 59.7006 195.611C60.8674 196.419 61.3538 196.855 60.3648 196.53C62.7209 198.021 65.2145 199.61 67.7804 200.526C69.8744 201.725 71.9916 202.885 74.1298 204C73.7861 203.877 68.9164 201.814 68.9165 201.809C68.8572 202.123 71.4733 203.509 71.651 203.618C73.6695 204.513 75.7096 205.33 77.7541 206.151C79.4065 207.44 81.4546 208.183 83.2616 209.104C84.3006 209.647 85.3491 210.159 86.388 210.71C86.4814 210.761 87.7769 211.533 87.643 211.614C91.0739 213.014 91.7081 212.951 94.5359 213.919C97.0919 215.273 99.7 216.349 102.443 216.999C94.8191 214.027 87.3444 210.583 79.9177 206.966C80.0007 206.967 80.1793 207.027 80.4179 207.121C90.8122 212.058 101.489 215.886 112.24 219.51C113.272 220.087 109.684 219.195 109.104 219.241C116.753 222.069 117.339 221.33 124.056 223.82C118.774 222.34 119.696 222.734 122.361 223.683C119.696 222.734 123.695 224.149 122.361 223.683Z" fill="#DE7A7C"/>
</g>
<rect x="181.709" y="284.081" width="129.904" height="15.1406" transform="rotate(2.15194 181.709 284.081)" fill="#96DCDC"/>
<path d="M191.976 293.203C190.387 293.203 188.845 292.992 187.351 292.571C185.877 292.131 184.689 291.566 183.789 290.876L185.369 287.371C186.231 288.003 187.255 288.511 188.443 288.894C189.63 289.277 190.818 289.468 192.005 289.468C193.327 289.468 194.303 289.277 194.935 288.894C195.567 288.492 195.883 287.965 195.883 287.314C195.883 286.835 195.692 286.443 195.309 286.136C194.945 285.811 194.466 285.552 193.872 285.36C193.298 285.169 192.513 284.958 191.517 284.728C189.985 284.365 188.73 284.001 187.753 283.637C186.777 283.273 185.934 282.689 185.225 281.884C184.536 281.08 184.191 280.008 184.191 278.667C184.191 277.499 184.507 276.445 185.139 275.507C185.771 274.549 186.719 273.793 187.983 273.238C189.266 272.682 190.827 272.404 192.666 272.404C193.949 272.404 195.203 272.558 196.429 272.864C197.655 273.171 198.727 273.611 199.647 274.186L198.21 277.719C196.352 276.666 194.495 276.139 192.637 276.139C191.335 276.139 190.368 276.35 189.736 276.771C189.123 277.192 188.816 277.748 188.816 278.437C188.816 279.127 189.171 279.644 189.879 279.988C190.607 280.314 191.708 280.64 193.183 280.965C194.715 281.329 195.969 281.693 196.946 282.057C197.923 282.421 198.756 282.995 199.445 283.78C200.154 284.566 200.508 285.629 200.508 286.969C200.508 288.118 200.183 289.172 199.532 290.129C198.9 291.068 197.942 291.815 196.659 292.37C195.376 292.925 193.815 293.203 191.976 293.203Z" fill="#4D4E4E"/>
<path d="M218.512 285.188C218.512 285.246 218.483 285.648 218.425 286.395H206.733C206.944 287.352 207.442 288.109 208.227 288.664C209.012 289.219 209.989 289.497 211.157 289.497C211.962 289.497 212.67 289.382 213.283 289.152C213.915 288.903 214.499 288.52 215.036 288.003L217.42 290.589C215.964 292.255 213.839 293.088 211.042 293.088C209.3 293.088 207.758 292.753 206.417 292.083C205.077 291.393 204.043 290.445 203.315 289.239C202.587 288.032 202.223 286.663 202.223 285.131C202.223 283.618 202.578 282.258 203.286 281.051C204.014 279.826 205 278.878 206.245 278.207C207.509 277.518 208.917 277.173 210.468 277.173C211.981 277.173 213.35 277.499 214.576 278.15C215.802 278.801 216.759 279.739 217.449 280.965C218.157 282.172 218.512 283.579 218.512 285.188ZM210.497 280.563C209.482 280.563 208.629 280.85 207.94 281.425C207.25 281.999 206.829 282.785 206.676 283.78H214.289C214.135 282.804 213.714 282.028 213.025 281.454C212.335 280.86 211.493 280.563 210.497 280.563Z" fill="#4D4E4E"/>
<path d="M221.495 271.543H225.977V292.858H221.495V271.543Z" fill="#4D4E4E"/>
<path d="M235.048 277.748H239.013V281.195H235.163V292.858H230.682V281.195H228.297V277.748H230.682V277.058C230.682 275.296 231.199 273.898 232.233 272.864C233.286 271.83 234.761 271.313 236.657 271.313C237.327 271.313 237.959 271.389 238.553 271.543C239.166 271.677 239.673 271.878 240.075 272.146L238.898 275.392C238.381 275.028 237.777 274.846 237.088 274.846C235.728 274.846 235.048 275.593 235.048 277.087V277.748Z" fill="#4D4E4E"/>
<path d="M253.862 276.541H247.427V272.749H264.951V276.541H258.516V292.858H253.862V276.541Z" fill="#4D4E4E"/>
<path d="M280.707 285.188C280.707 285.246 280.678 285.648 280.621 286.395H268.929C269.14 287.352 269.638 288.109 270.423 288.664C271.208 289.219 272.185 289.497 273.353 289.497C274.157 289.497 274.866 289.382 275.479 289.152C276.111 288.903 276.695 288.52 277.231 288.003L279.616 290.589C278.16 292.255 276.034 293.088 273.238 293.088C271.495 293.088 269.954 292.753 268.613 292.083C267.272 291.393 266.238 290.445 265.51 289.239C264.783 288.032 264.419 286.663 264.419 285.131C264.419 283.618 264.773 282.258 265.482 281.051C266.21 279.826 267.196 278.878 268.441 278.207C269.705 277.518 271.112 277.173 272.664 277.173C274.177 277.173 275.546 277.499 276.772 278.15C277.997 278.801 278.955 279.739 279.644 280.965C280.353 282.172 280.707 283.579 280.707 285.188ZM272.692 280.563C271.677 280.563 270.825 280.85 270.136 281.425C269.446 281.999 269.025 282.785 268.872 283.78H276.484C276.331 282.804 275.91 282.028 275.22 281.454C274.531 280.86 273.688 280.563 272.692 280.563Z" fill="#4D4E4E"/>
<path d="M288.89 293.088C287.607 293.088 286.353 292.935 285.127 292.628C283.901 292.303 282.925 291.901 282.197 291.422L283.691 288.204C284.38 288.645 285.213 289.009 286.19 289.296C287.167 289.564 288.124 289.698 289.063 289.698C290.959 289.698 291.907 289.229 291.907 288.291C291.907 287.85 291.648 287.534 291.131 287.343C290.614 287.151 289.819 286.988 288.747 286.854C287.483 286.663 286.439 286.443 285.616 286.194C284.792 285.945 284.074 285.504 283.461 284.872C282.867 284.24 282.57 283.34 282.57 282.172C282.57 281.195 282.848 280.333 283.404 279.586C283.978 278.82 284.802 278.227 285.874 277.805C286.966 277.384 288.249 277.173 289.724 277.173C290.815 277.173 291.897 277.298 292.97 277.547C294.061 277.776 294.961 278.102 295.67 278.523L294.176 281.712C292.816 280.946 291.332 280.563 289.724 280.563C288.766 280.563 288.048 280.697 287.569 280.965C287.09 281.233 286.851 281.578 286.851 281.999C286.851 282.478 287.109 282.813 287.626 283.005C288.144 283.196 288.967 283.378 290.097 283.551C291.361 283.761 292.395 283.991 293.2 284.24C294.004 284.47 294.703 284.901 295.297 285.533C295.89 286.165 296.187 287.046 296.187 288.176C296.187 289.133 295.9 289.986 295.325 290.732C294.751 291.479 293.908 292.063 292.797 292.485C291.706 292.887 290.403 293.088 288.89 293.088Z" fill="#4D4E4E"/>
<path d="M308.921 292.111C308.48 292.437 307.934 292.686 307.283 292.858C306.651 293.011 305.981 293.088 305.272 293.088C303.434 293.088 302.007 292.619 300.992 291.68C299.996 290.742 299.498 289.363 299.498 287.544V281.195H297.114V277.748H299.498V273.984H303.979V277.748H307.829V281.195H303.979V287.486C303.979 288.137 304.142 288.645 304.468 289.009C304.813 289.354 305.291 289.526 305.904 289.526C306.613 289.526 307.216 289.334 307.714 288.951L308.921 292.111Z" fill="#4D4E4E"/>
<path d="M265.954 242.708C246.897 252.962 223.208 249.61 206.999 235.173C191.19 221.09 186.058 198.338 193.144 178.206C201.628 154.1 227.132 138.32 251.583 141.903C272.621 146.584 294.751 167.492 296.24 190.461C297.638 212.017 284.127 232.931 265.954 242.708ZM252.671 137.839C229.498 134.442 206.282 146.024 193.967 166.733C182.27 186.402 183.27 212.971 197.416 231.019C211.716 249.263 236.865 257.556 258.643 250.401C279.929 243.407 296.828 223.38 299.891 200.47C303.758 171.552 279.249 143.752 252.671 137.839Z" fill="#4D4E4E"/>
<path d="M258.229 190.348C252.736 196.275 247.714 199.771 246.867 208.528C246.737 210.136 246.669 211.746 246.662 213.36C245.918 218.722 240.273 216.748 240.564 213.286C239.7 210.671 240.593 206.668 241.283 204.144C242.856 198.399 246.447 195.39 250.026 191.07C257.796 181.692 256.422 162.846 241.008 164.549C235.546 165.153 230.598 168.376 231.056 174.558C231.32 178.137 235.718 184.205 229.843 185.51C224.899 186.606 222.764 180.534 221.877 176.713C220.862 161.544 237.11 154.539 249.559 157.676C255.605 159.199 261.881 163.006 263.774 169.476C265.942 176.889 263.257 184.925 258.229 190.348ZM258.278 157.984C243.489 148.698 217.16 155.737 218.82 176.947C218.822 176.962 218.83 176.972 218.831 176.987C218.833 177.108 218.845 177.234 218.875 177.367C220.036 182.502 222.309 187.92 227.999 188.634C231.541 189.08 235.254 187.758 236.013 183.841C236.61 180.755 234.689 178.516 234.419 175.622C233.822 169.244 240.791 166.646 245.14 167.854C248.126 168.683 250.61 171.502 251.565 174.391C252.923 178.498 251.624 183.052 249.493 186.597C247.087 190.6 243.041 193.02 240.743 197.113C238.829 200.522 237.785 204.501 237.47 208.405C237.079 213.251 237.578 221.458 244.155 220.882C252.78 220.127 248.931 208.102 251.525 202.6C253.806 197.761 258.596 194.968 261.865 190.921C264.777 187.314 266.675 182.935 267.299 178.283C268.43 169.859 265.348 162.423 258.278 157.984Z" fill="#4D4E4E"/>
<path d="M248.969 232.609C248.277 236.007 244.583 237.148 241.664 236.302C239.341 235.628 237.718 233.706 237.787 231.116C237.88 227.593 241.248 226.751 244.044 226.833C246.681 227.458 249.635 229.338 248.969 232.609ZM244.644 223.733C244.532 223.709 244.424 223.699 244.32 223.698C244.289 223.694 244.268 223.677 244.237 223.676C239.714 223.473 235.126 225.567 234.756 230.731C234.432 235.251 237.568 238.704 241.693 239.56C246.065 240.469 250.812 238.108 251.926 233.45C253.119 228.466 249.003 224.661 244.644 223.733Z" fill="#4D4E4E"/>
<defs>
<clipPath id="clip0_286_940">
<rect width="183.72" height="183.72" fill="white" transform="translate(186.904 63.859) rotate(91.0019)"/>
</clipPath>
</defs>
</svg>
