<svg width="140" height="101" viewBox="0 0 140 101" fill="none" xmlns="http://www.w3.org/2000/svg">
<rect y="81.1875" width="138.265" height="18.9737" transform="rotate(-3.39495 0 81.1875)" fill="#EEA562" fill-opacity="0.4"/>
<path d="M84.1878 54.9418C81.9277 61.1386 67.4243 59.0245 62.15 58.6286C57.927 58.3109 55.5471 58.7113 54.5468 53.7517C54.2451 52.2528 54.3826 50.5034 54.3449 48.9777C54.2629 45.7519 52.9942 39.535 57.2616 38.488C63.341 38.271 69.4383 38.3426 75.5222 38.3113C77.9752 38.2979 81.5373 37.6021 83.2828 39.7922C84.7733 41.6624 85.157 52.2797 84.1878 54.9418ZM63.2146 35.8594C62.9928 30.8998 63.7247 24.8529 70.199 25.4793C75.622 26.005 75.4689 31.2331 75.5443 35.6491C74.5152 35.7274 73.5637 35.8013 72.7963 35.8057C69.6046 35.8192 66.4107 35.8259 63.2146 35.8594ZM68.9969 20.5555C72.1153 20.3564 75.6708 20.5286 77.9619 23.0096C80.7366 26.014 80.4106 31.3696 80.3906 35.5015C79.6276 35.4567 78.8336 35.4679 78.0396 35.4993C77.9952 32.4367 78.0684 28.9692 76.5624 26.2757C75.2826 23.9894 72.6188 23.1684 70.199 22.9626C62.1788 22.2847 60.4776 29.5128 60.7305 35.9064C59.9697 35.9198 59.209 35.9265 58.4504 35.9489C58.009 27.9222 59.4618 21.1662 68.9969 20.5555ZM84.312 36.6245C83.915 36.3203 83.4181 36.11 82.8836 35.9377C82.837 31.2219 83.2385 25.4189 80.1134 21.6986C77.3276 18.3832 73.0558 17.7792 68.9969 18.0387C58.0334 18.7412 55.3852 26.2623 55.9729 36.2375C52.5772 37.233 51.9606 39.479 51.8275 43.0718C51.6789 47.0896 50.8627 53.6443 52.6105 57.4474C54.549 61.671 60.4244 61.0849 64.1373 61.2504C69.9218 61.5099 77.4917 62.19 83.0721 60.3981C87.1244 59.0961 86.7562 55.5749 86.856 51.6667C86.9447 48.3312 87.5569 39.1233 84.312 36.6245Z" fill="black"/>
<path d="M66.8762 53.6235C67.2377 52.0463 67.597 50.4714 67.9097 48.8853C67.9186 48.8406 67.9053 48.8026 67.9097 48.7601C67.994 48.3977 67.9341 48.0039 67.5881 47.6617C65.6452 45.7355 68.584 42.7691 70.6489 44.5409C71.3077 45.1046 72.0684 46.9301 71.0326 47.6549C70.5757 47.9748 70.3007 48.5095 70.4604 49.0755C70.8796 50.5699 71.2611 52.0732 71.6714 53.5676C70.0723 53.5721 68.4753 53.6325 66.8762 53.6235ZM73.0466 49.0889C75.2224 46.5453 73.4103 42.2389 70.1543 41.5387C65.8603 40.617 62.8106 45.5409 65.3546 48.8943C64.9798 50.7757 64.5806 52.6481 64.1303 54.5139C63.9307 55.3371 64.5118 56.0642 65.3347 56.1067C67.9962 56.2431 70.6622 55.9993 73.3216 56.1067C74.1178 56.138 74.7588 55.2745 74.526 54.5139C73.9759 52.7197 73.5367 50.8965 73.0466 49.0889Z" fill="black"/>
<path d="M125.988 83.4422C122.483 84.3773 117.746 83.6256 114.166 83.6547C94.8472 83.8135 75.5286 83.7867 56.2101 83.7173C46.1405 83.6815 36.0709 83.6323 26.0035 83.5026C19.2475 83.4153 9.31987 85.8985 7.59873 77.3595C8.31291 77.3327 9.47735 77.0441 10.3157 76.9971C13.5784 76.8092 16.8499 76.7443 20.117 76.6705C29.3992 76.4602 38.6836 76.3909 47.9659 76.3506C69.7885 76.2522 91.62 76.3237 113.438 76.798C117.337 76.8808 121.232 76.977 125.129 77.1201C126.589 77.1738 128.299 77.0128 129.72 77.3148C130.202 77.4177 131.515 77.1224 131.861 77.4311C133.589 78.9635 127.114 83.1424 125.988 83.4422ZM21.9645 19.3248C22.0067 16.213 21.5808 10.712 22.9538 7.91115C25.4201 2.87321 33.0433 3.77477 37.7277 3.69647C46.695 3.54435 55.6711 3.95597 64.645 3.89109C73.5679 3.82846 82.493 3.77029 91.416 3.71212C95.5281 3.68528 99.6402 3.70542 103.752 3.82398C105.753 3.88215 108.678 3.43248 110.606 4.09019C117.164 6.32505 116.322 8.80823 116.472 13.4502C117.129 33.4185 117.182 53.3644 116.716 73.3372C97.0674 72.6482 77.3185 72.948 57.7138 72.9681C46.2536 72.9793 34.7911 73.0442 23.333 73.2746C23.1423 55.3085 21.7317 37.2708 21.9645 19.3248ZM133.336 74.1717C128.913 73.8652 124.479 73.6482 120.041 73.467C120.325 61.418 120.491 49.369 120.356 37.3155C120.285 30.8705 120.137 24.4231 119.944 17.9781C119.828 14.1168 120.48 9.00956 119.158 5.39665C116.424 -2.07972 103.939 0.410172 97.8836 0.354245C86.3368 0.246865 74.7789 0.468334 63.2322 0.546632C52.4151 0.620456 41.445 -0.28109 30.6523 0.665201C24.584 1.19539 20.6404 2.32289 19.4693 8.74782C17.6218 18.8975 18.9703 29.6736 19.2985 39.8927C19.6579 51.0356 19.9107 62.1786 20.0083 73.326C19.649 73.335 19.2919 73.335 18.9326 73.3417C16.2732 73.4088 8.06006 72.326 5.02366 74.3305C4.56232 74.4804 4.21632 74.8383 4.10542 75.3797C3.9546 75.7645 3.97012 76.1269 4.12316 76.4423C5.33861 88.1065 13.9887 86.6815 23.1157 86.8179C38.6304 87.0528 54.1496 87.0842 69.6665 87.1065C84.853 87.1311 100.042 87.1356 115.228 87.0014C123.896 86.9231 134.613 87.8582 134.999 75.8495C135.03 74.8987 134.21 74.2321 133.336 74.1717Z" fill="black"/>
<path d="M107.486 66.5726C102.862 66.2639 98.1197 66.5458 93.4863 66.5346C72.5819 66.4742 51.4092 67.416 30.5247 66.3758C30.4205 64.9329 30.5402 63.4049 30.5247 61.9866C30.4537 55.3357 30.385 48.6826 30.314 42.0295C30.212 32.2757 30.1077 22.5198 30.0057 12.7638H102.478C104.159 12.7638 106.978 12.256 108.983 12.5177C108.963 12.6631 108.937 12.8175 108.886 13.0233C108.506 14.5222 108.93 16.6966 108.95 18.238C109.028 24.5533 109.105 30.8731 109.183 37.1906C109.3 46.7632 110.525 57.0538 109.607 66.6129C108.892 66.6353 108.154 66.6174 107.486 66.5726ZM109.014 12.0121C108.926 11.8444 108.99 11.8063 109.014 12.0121V12.0121ZM112.055 67.8411C111.825 49.0629 111.594 30.2825 111.361 11.5043C111.354 10.8242 110.798 10.2471 110.114 10.2471H28.7437C28.4199 10.2471 28.1781 10.3679 27.9829 10.5312C27.9363 10.567 27.8875 10.5961 27.8432 10.6363C27.841 10.6408 27.8387 10.6453 27.8365 10.6497C27.6325 10.8511 27.4927 11.1285 27.4972 11.5043C27.6946 30.2064 27.892 48.9108 28.0894 67.6129C28.096 68.293 28.655 68.8679 29.3359 68.8701C56.4928 68.9462 83.6518 69.0222 110.809 69.1005C111.479 69.1005 112.064 68.5211 112.055 67.8411Z" fill="black"/>
</svg>
