<svg width="601" height="424" viewBox="0 0 601 424" fill="none" xmlns="http://www.w3.org/2000/svg">
<mask id="mask0_252:1085" style="mask-type:alpha" maskUnits="userSpaceOnUse" x="10" y="0" width="591" height="424">
<rect x="10" width="591" height="424" fill="#C4C4C4"/>
</mask>
<g mask="url(#mask0_252:1085)">
</g>
<g clip-path="url(#clip0_252:1085)">
<path d="M141.1 213.233C143.17 213.93 145.246 214.631 147.324 215.328L146.276 215.422C141.562 213.843 143.401 214.219 141.1 213.233C143.401 214.219 143.17 213.93 141.1 213.233ZM108.5 118.117C108.595 118.149 108.687 118.19 108.782 118.226C108.687 118.188 108.595 118.149 108.5 118.117ZM80.3342 105.785C77.8215 104.185 78.4407 104.179 80.0414 104.834C83.1072 106.5 86.1969 108.087 89.3044 109.624C86.3401 108.267 83.3641 106.932 80.3342 105.785C83.0539 106.814 77.8215 104.185 80.3342 105.785ZM75.3072 102.196C76.7947 103.052 78.2855 103.883 79.7794 104.692C77.4885 103.602 76.244 102.846 75.3072 102.196ZM68.0011 169.88C72.5664 173.004 77.2048 175.972 81.9578 178.657C77.9175 176.406 73.9301 174.021 70.0217 171.46C69.5169 171.043 68.8619 170.531 68.0011 169.88ZM64.6269 86.259L64.9666 85.978C65.6723 86.4884 65.3148 86.5018 65.583 86.9342C65.2604 86.7147 64.9494 86.4841 64.6269 86.259ZM60.2338 76.3402C60.2812 76.3663 60.3003 76.4033 60.2852 76.4621C60.3228 76.4036 60.3603 76.3508 60.4063 76.2954C61.1522 76.1143 61.9008 75.9445 62.6521 75.7804C62.4898 76.0505 62.2244 76.2653 61.7554 76.3752C63.0193 76.6674 64.3787 76.4802 65.6253 76.1503C66.7133 75.8767 68.0132 75.5534 68.8898 74.6571C68.9124 74.6519 68.9294 74.6493 68.9519 74.6497C70.5519 75.0266 67.8664 75.7421 67.0936 76.3335C68.5386 76.2406 69.8601 76.1287 71.12 76.0016C74.9131 75.8232 78.7274 75.3975 82.5314 75.5597C82.6372 74.4924 83.1311 74.8921 83.9512 74.1693L84.4422 74.569C84.2757 74.4366 84.5918 74.0623 84.462 73.759C87.1451 73.82 89.8264 73.9878 92.5031 74.2541C92.1111 74.6299 91.6601 74.9991 91.0747 75.1661C94.0557 74.6048 95.2259 75.9083 98.4337 75.7337C97.9906 76.2943 95.126 76.3145 94.3404 76.3458C95.4015 76.4882 97.3394 76.3645 97.3688 76.9334L97.663 76.1985C99.5477 76.3834 97.3389 76.8766 97.8999 77.4547C101.454 77.9192 99.8602 76.0513 101.072 75.4366C101.678 75.5372 102.279 75.649 102.879 75.7636C103.035 75.862 103.245 75.891 103.484 75.8783C103.916 75.9674 104.348 76.0538 104.777 76.1457C104.483 76.3825 104.585 76.7951 104.654 77.0467C106.367 75.788 106.414 77.7556 109.18 78.0572C109.152 78.5716 107.828 78.3458 107.588 78.8622C108.449 78.8406 109.306 78.9147 110.165 78.896C110.663 78.9019 111.587 78.9912 111.942 78.4375C113.883 78.9582 115.772 79.8522 117.729 80.2719C117.423 80.2384 116.761 80.0918 116.596 80.5559C116.415 81.0592 116.204 81.2328 115.735 81.3315C117.839 80.9012 120.018 80.9759 122.135 80.9426C123.141 81.2894 124.142 81.6417 125.143 82.0081C125.092 82.2126 124.982 82.4105 124.757 82.7048C127.568 84.4421 125.841 82.1863 128.594 83.5344L127.331 82.8764C127.39 82.8859 127.441 82.884 127.497 82.8906C128.836 83.4035 130.177 83.9363 131.501 84.4828C131.351 84.7052 131.115 84.8333 131.552 84.9676C133.201 84.113 134.7 86.8796 136.133 87.3099L135.696 87.2234L137.231 88.5727C137.245 88.6039 137.219 88.6119 137.219 88.6372C137.27 88.5874 137.322 88.5377 137.371 88.471C137.88 89.2987 138.929 90.4565 140.343 91.1284C140.72 90.9999 141.862 91.5067 142.909 92.265C143.977 92.9786 145.053 93.7121 145.487 93.6831C144.858 93.4329 144.383 93.1095 143.767 92.4572L144.217 91.8292C145.467 92.7402 143.976 92.5369 145.384 92.9723C145.654 91.8712 143.647 91.732 142.827 91.0002C143.249 91.002 143.782 91.1266 144.379 91.4213C144.018 91.1336 143.663 90.8516 143.304 90.5837C144.381 91.3059 145.442 92.0645 146.478 92.8676C146.329 92.9691 146.273 93.1201 146.44 93.4043C147.593 94.8763 148.105 94.7137 148.86 94.8169C149.221 95.1271 149.575 95.4484 149.935 95.7698C149.975 96.0969 149.866 96.3651 149.984 96.6823C150.162 97.1524 150.535 97.5276 150.853 97.8567C150.482 97.6729 150.114 97.4808 149.746 97.2971C149.614 97.2442 149.53 97.2061 149.53 97.2061C150.016 99.0406 150.727 97.832 151.399 98.7722C151.298 98.309 151.445 98.0949 150.526 97.2235C150.634 96.8203 151.415 97.3854 151.773 97.6843L151.577 97.4501C151.605 97.4478 151.637 97.4427 151.667 97.4433C152.582 98.3793 153.46 99.3654 154.297 100.407C154.299 100.427 154.31 100.452 154.31 100.472L153.968 100.224C154.563 100.78 155.086 101.439 155.53 101.987C155.695 102.215 155.851 102.454 156.013 102.682L155.942 102.712C156.003 102.769 156.067 102.81 156.131 102.853C156.43 103.278 156.735 103.699 157.026 104.138L157.026 104.141C156.829 104.134 156.784 104.271 157.158 104.776C156.446 104.946 155.446 102.928 155.149 102.369C155.615 103.232 155.692 104.635 154.733 103.335C154.595 104.095 155.772 104.408 156.058 105.28C156.098 105.044 156.372 105.136 156.462 104.969C156.035 105.432 157.679 107.661 158.148 107.548C158.148 107.548 157.946 107.204 157.729 106.89C157.572 106.694 157.421 106.488 157.258 106.294C157.582 105.957 158.167 106.628 158.402 106.835C160.1 111.726 155.823 115.152 152.48 116.447C152.408 116.06 152.564 115.652 152.133 115.535C150.554 115.718 150.875 116.396 150.851 116.95C147.305 117.799 143.486 117.19 139.88 116.662C139.888 116.539 139.969 116.408 140.157 116.273C139.115 115.976 139.556 116.336 139.664 116.63C139.136 116.556 138.614 116.483 138.098 116.414C138.059 116.234 138.026 116.031 138.555 115.998C137.695 115.622 137.532 115.952 137.396 116.329C136.444 116.225 135.492 116.099 134.544 115.956C134.333 115.783 134.162 115.597 134.044 115.401C133.159 115.307 132.682 115.411 132.38 115.6C131.87 115.512 131.36 115.419 130.852 115.32C131.115 115.251 131.295 115.105 131.301 114.743C130.088 115.225 129.462 114.98 128.475 114.834C124.324 113.923 120.211 112.751 116.134 111.43C114.179 110.799 112.232 110.127 110.292 109.412C108.349 108.7 106.413 107.729 104.443 107.146C103.767 106.87 103.094 106.591 102.418 106.311C102.446 106.303 102.477 106.304 102.502 106.299C101.786 105.608 101.525 105.727 101.289 105.841C100.943 105.695 100.599 105.542 100.256 105.396C100.68 105.254 101.055 104.929 101.447 104.834C100.498 104.75 100.117 104.96 99.6556 105.126C99.3651 105.003 99.0832 104.874 98.7956 104.751C98.728 104.592 98.8543 104.454 98.8484 104.305C98.4918 104.265 98.2096 104.31 97.9525 104.374C97.1177 104.002 96.283 103.627 95.4457 103.241C95.4324 103.193 95.2902 103.123 94.8428 102.96C93.2715 102.229 91.7089 101.487 90.1494 100.726C89.9375 100.455 89.8262 100.222 89.8319 100.059C89.7396 100.19 89.5971 100.294 89.4213 100.367C88.6263 99.9759 87.8227 99.5877 87.0251 99.1854C86.4136 98.7583 85.8138 98.3033 85.2053 97.8622C85.0252 96.7364 86.5687 98.2546 87.5193 98.2796C85.3256 96.9386 85.9501 97.5882 84.0598 97.2428C83.6339 96.9765 82.9579 96.8606 82.304 96.7619C81.5819 96.3863 80.8711 96.0025 80.1547 95.6214C80.2363 95.6228 80.3121 95.6298 80.394 95.6143C78.822 94.92 79.9076 94.3059 78.2165 93.9922C78.3863 94.2568 78.6078 94.6237 78.8778 94.9463C78.0416 94.4984 77.1999 94.0419 76.3723 93.5801C76.0531 93.3325 75.9195 93.0911 76.2636 92.8804C75.4469 92.4413 74.7676 92.3478 74.4748 92.5228C74.0346 92.2703 73.5975 92.0066 73.1631 91.7458C73.8978 91.5673 75.2149 92.1896 74.0397 91.0127L72.5609 90.9502C72.4664 90.5575 70.5692 89.3201 70.9397 88.7301C70.2337 88.3914 70.0049 88.604 69.3862 88.4244C69.0206 87.7708 68.7563 87.2795 67.9032 87.3124C70.5477 89.5814 69.6286 89.2052 72.0261 90.9606C71.983 91.0105 71.9101 90.9951 71.8207 90.9598C71.676 90.87 71.5199 90.7801 71.3724 90.6875C71.3531 90.6674 71.3336 90.6558 71.3114 90.6386C71.3114 90.6386 71.328 90.6529 71.3335 90.6587C69.4097 89.4911 67.515 88.2735 65.6552 86.9889C65.5661 86.6103 66.3773 86.7258 66.6002 86.5271C65.2602 85.2825 64.7384 86.1597 63.6204 84.9303C65.8215 85.8466 63.1128 84.0267 62.6689 83.1861C62.7271 84.0425 63.2174 84.9626 64.5047 86.1697C61.6198 84.13 58.8192 81.9371 56.1173 79.5714C56.4565 79.3185 56.7983 79.0797 56.608 79.0201L55.8901 79.3676C55.3748 78.9113 54.8564 78.4661 54.3525 77.9987C56.2992 77.3743 58.2614 76.8262 60.2338 76.3402C58.917 76.6632 60.2812 76.3663 60.2338 76.3402ZM116.905 79.4612C116.069 79.1343 115.228 78.8073 114.383 78.5083C115.122 78.7182 115.856 78.9336 116.589 79.1546C116.669 79.2517 116.771 79.3492 116.905 79.4612ZM139.532 88.2668C139.031 88.168 138.812 87.9785 138.672 87.7763C138.961 87.9361 139.248 88.1015 139.532 88.2668ZM139.306 88.9691C138.926 88.5151 139.181 88.2494 139.538 88.2698C140.229 88.6589 140.914 89.0619 141.593 89.4846C140.826 89.0914 140.062 88.867 139.306 88.9691C140.062 88.867 138.926 88.5151 139.306 88.9691ZM179.11 213.701C180.168 213.854 181.302 214.018 182.466 214.187C182.769 214.415 183.069 214.637 183.388 214.876C182.121 214.648 180.853 214.429 179.585 214.213C177.365 213.707 175.139 213.235 172.917 212.754C173.688 212.731 176.098 213.127 179.11 213.701C176.098 213.127 180.168 213.854 179.11 213.701ZM184.512 214.487C184.842 214.743 185.178 215.005 185.511 215.264C184.852 215.146 184.182 215.019 183.495 214.897C183.139 214.638 182.822 214.413 182.52 214.196C183.176 214.295 183.839 214.385 184.512 214.487C183.839 214.385 184.842 214.743 184.512 214.487ZM175.8 224.672L174.958 224.567C175.671 224.327 176.249 224.134 176.52 224.043C178.308 224.466 180.093 224.863 181.885 225.229L181.883 225.313C180.972 225.463 180.018 225.624 179.025 225.795C178.165 225.423 176.146 224.855 175.8 224.672ZM174.392 224.754C174.782 224.846 175.112 224.936 175.33 225.01L173.829 224.947C174.024 224.88 174.211 224.816 174.392 224.754C174.211 224.816 174.782 224.846 174.392 224.754ZM181.914 225.305L181.916 225.235C181.98 225.247 182.039 225.262 182.098 225.275C182.039 225.285 181.974 225.295 181.914 225.305C181.974 225.295 181.915 225.28 181.914 225.305ZM153.338 218.312C157.001 219.588 160.741 220.67 164.354 222.12C162.246 220.856 159.964 220.051 157.738 219.145C155.128 218.09 152.495 217.115 149.864 216.172C158.653 219.105 167.492 221.899 176.445 224.025C175.561 224.181 174.774 224.322 174.088 224.457L170.854 224.051C171.53 224.173 172.587 224.368 173.537 224.568C173.006 224.674 172.529 224.775 172.111 224.869L171.329 224.836C171.495 224.87 171.66 224.904 171.829 224.935C170.136 225.33 168.483 225.92 166.798 226.377C164.613 226.967 162.401 227.437 160.201 227.936C163.521 227.31 166.845 226.764 170.177 226.228C170.177 226.228 171.601 225.727 173.118 225.191C174.562 225.472 176.006 225.767 177.45 226.068C168.21 227.679 158.784 229.124 149.733 232.004C148.703 232.332 148.28 232.573 148.36 233.953C148.443 235.465 148.901 236.961 149.383 238.337C150.401 241.259 151.981 245.048 154.42 246.557C155.58 247.278 156.632 246.652 157.821 246.256C160.153 245.481 162.495 244.771 164.85 244.123C169.673 242.8 174.542 241.734 179.435 240.931C179.705 240.927 179.82 240.955 179.735 241.018C180.018 240.921 180.326 240.826 180.688 240.725C185.086 240.045 189.506 239.574 193.922 239.06C192.787 239.423 191.064 239.778 188.31 240.115C191.305 240.01 195.028 239.67 198.876 239.389C202.296 239.33 205.852 239.989 209.121 238.417C209.932 237.857 210.893 237.3 211.089 236.063C211.312 234.927 211.07 233.797 210.759 232.737L210.482 231.843C210.298 231.254 210.114 230.669 209.93 230.083C209.519 228.981 208.98 227.934 208.501 226.87C207.944 225.929 207.383 224.997 206.823 224.064C204.648 221.156 202.331 218.519 199.623 216.341C199.285 215.998 198.942 215.663 198.602 215.325C198.514 215.23 197.059 213.443 197.096 213.427C197.414 213.281 198.491 214.459 198.715 214.648C199.91 215.679 201.073 216.749 202.198 217.886C204.459 220.027 206.552 222.63 208.265 225.42C205.322 219.952 201.099 215.717 196.918 211.702C192.272 207.246 187.466 203.104 182.547 199.107C177.623 195.102 172.534 191.367 167.464 187.634C162.411 183.914 157.324 180.229 152.108 176.848C145.097 172.311 137.991 168.2 130.617 164.619C130.255 164.551 129.81 164.464 129.361 164.372C129.303 164.627 129.054 164.735 128.651 164.728C125.668 164.476 128.388 172.25 129.159 173.507C129.159 173.507 129.226 173.719 129.324 174.039C129.656 174.99 129.968 175.986 130.417 176.863C130.032 176.04 130.689 176.778 130.956 176.799C131.057 176.798 131.083 176.74 131.028 176.533C132.186 178.52 133.565 179.954 135.44 180.831C136.744 181.439 138.02 182.12 139.286 182.823C142.691 184.714 146.025 186.789 149.333 188.912C157.071 193.882 164.674 199.149 172.219 204.534C169.713 203.343 167.252 202.028 164.847 200.556C171.439 204.718 177.819 209.292 184.071 214.148C183.285 214.007 182.542 213.87 181.878 213.741C181.789 213.68 181.702 213.619 181.614 213.556C181.697 213.616 181.777 213.677 181.858 213.74C179.968 213.364 178.674 213.035 178.541 212.757L177.163 213.208C166.162 210.604 178.736 212.864 175.226 211.494C171.41 210.6 167.609 209.451 163.758 208.77C162.967 208.63 161.492 208.142 160.812 208.935C160.108 209.758 158.74 209.301 157.913 209.143C154.379 208.015 150.851 206.845 147.318 205.686C143.763 204.307 140.081 203.306 136.481 202.095C138.078 202.331 137.19 201.62 136.649 201.192C132.089 200.482 127.901 198.774 123.595 196.914C119.258 195.044 114.927 193.156 110.537 191.481C110.342 190.864 117.873 193.818 118.886 193.636C114.482 192.065 110.085 190.46 105.726 188.715C103.524 187.836 101.331 186.942 99.1202 186.096C97.8484 185.615 96.4152 184.872 95.0599 184.823C84.0671 179.516 73.5061 173.167 63.2924 165.943C64.7548 166.945 66.2278 167.986 67.7754 168.787C68.0542 168.93 68.5936 169.299 68.912 169.116C69.1198 168.976 69.2552 168.959 69.496 169.022C70.6219 169.321 71.713 169.995 72.7584 170.554C61.6908 164.694 51.4321 156.988 42.1359 147.658C37.6563 142.527 33.4774 136.931 30.4637 130.353C30.6121 130.235 30.951 130.483 31.6366 131.181C29.4424 126.331 28.733 123.297 28.1769 121.47C27.7595 119.597 27.4566 118.897 27.2691 118.193C26.3502 115.068 26.2482 111.732 26.5814 108.446C26.6366 107.386 26.865 106.231 27.1043 104.932C27.1043 104.932 26.9925 105.533 26.8276 106.433C26.6179 107.324 26.5682 108.555 26.4174 109.779C26.3257 111.002 26.3351 112.237 26.3077 113.16C26.3534 114.083 26.3792 114.697 26.3792 114.697C26.3505 114.249 26.3044 113.829 26.2694 113.418C26.0822 108.029 27.0519 102.621 28.991 97.7653C30.7005 93.4904 33.4515 89.9877 36.6171 87.2407C36.5821 87.3104 36.5442 87.3829 36.5036 87.4554C36.2094 88.0242 35.8075 88.4842 37.687 86.8711C40.4619 83.7769 44.2069 82.0051 47.7098 80.561C47.8872 80.3925 47.9831 80.7009 48.1134 80.8073L48.4798 81.2526C52.395 86.1605 56.9801 90.886 61.8955 94.2638L59.6243 92.6907C62.7086 95.2319 65.8166 97.7088 69.0522 99.96C69.1463 100.049 69.0376 99.9963 69.0788 100.05C69.2778 100.096 69.4739 100.145 69.6119 100.136C75.6979 105.118 82.6447 108.653 89.435 111.97C91.3144 112.459 93.1465 113.4 94.9474 114.194C97.6222 115.375 100.294 116.538 102.996 117.624C108.33 119.771 113.688 121.66 119.118 123.406C120.222 123.69 121.088 123.874 121.624 123.959C117.666 122.945 113.808 121.535 109.963 120.033L110.898 119.512C119.279 122.444 111.253 120.424 119.4 122.75C118.82 121.983 117.655 121.679 116.872 121.378C115.307 120.765 113.709 120.259 112.106 119.772C108.719 118.737 105.353 117.552 102.066 116.128C104.563 116.844 107.035 117.706 109.493 118.601C109.926 118.735 110.374 118.878 110.836 119.021C110.498 118.889 110.16 118.762 109.824 118.627C110.333 118.821 110.839 118.999 111.345 119.185C111.174 119.129 111.004 119.072 110.836 119.021C115.391 120.618 119.929 122.247 124.573 123.462C124.102 123.53 124.267 123.733 125.781 124.235C128.281 124.926 130.769 125.521 133.308 125.967C135.886 126.423 138.496 126.438 141.099 126.45C143.996 126.804 146.794 127.202 149.579 127.071C150.048 127.163 150.318 127.281 150.686 127.363C151.132 127.413 151.763 127.537 153.168 127.311C153.858 127.14 154.78 127.032 155.897 126.503C157.03 126.078 158.432 125.383 159.956 124.014C159.956 124.014 159.842 124.119 159.647 124.301C159.453 124.475 159.189 124.766 158.827 125.024C158.136 125.611 157.143 126.244 156.121 126.729C154.797 127.491 153.326 127.947 151.891 128.248C155.821 128.148 159.221 126.3 161.701 122.55C162.344 121.506 163.061 120.211 163.647 118.263C162.203 121.822 159.651 124.537 156.63 125.984C156.357 125.965 157.049 125.502 157.091 125.472C157.71 125.027 158.325 124.576 158.911 124.074C160.114 123.046 161.252 121.648 161.955 120.07C161.932 120.115 161.908 120.159 161.876 120.218C161.609 120.689 161.34 121.154 161.028 121.579C161.092 121.448 161.151 121.322 161.204 121.194C165.483 114.606 162.326 104.191 158.368 97.2144C158.294 97.0724 158.221 96.9248 158.172 96.8199C158.476 97.2866 158.766 97.77 159.053 98.2589C156.05 92.8184 151.956 88.1915 147.513 84.5264C147.602 84.5505 147.689 84.583 147.689 84.583C147.394 84.364 147.105 84.1676 146.824 83.9826C144.479 82.1156 142.01 80.4602 139.458 79.0031C140.153 79.1785 139.829 78.8802 136.784 77.2991C138.304 77.4355 140.013 78.6386 141.35 79.4442C143.326 80.6408 145.194 81.9593 147.066 83.3791C148.617 84.467 150.124 85.9733 151.472 87.4009C150.299 86.224 149.087 85.0998 147.94 83.8868C147.633 83.6085 145.934 82.4505 145.938 81.8738C145.94 81.7866 148.013 83.0777 148.163 83.1845C148.774 83.6875 149.516 84.3448 150.414 85.1455C148.839 82.6926 143.355 79.6593 139.213 77.1053C139.915 77.6803 138.47 77.1317 138.728 77.4766C138.743 77.2659 137.772 76.613 136.29 75.7965C134.951 75.1484 133.596 74.562 132.236 73.9783C130.304 73.2946 128.372 72.6137 126.403 72.0728C125.496 71.8234 124.589 71.5824 123.675 71.3864C123.448 71.3374 122.419 70.9677 122.212 71.2201C125.001 71.9723 127.778 72.7946 130.536 73.7038C130.636 73.9194 128.973 73.6118 128.855 73.5872C127.536 73.2799 126.21 72.9641 124.887 72.6709C103.232 65.2412 81.363 61.2799 59.1776 66.2687C59.3501 65.9003 60.9131 65.1736 58.3418 65.4747C56.5665 65.7897 54.8194 66.2656 53.0795 66.8092C51.7782 67.2141 50.2476 67.5334 49.5547 69.0237C48.6203 69.3591 47.6969 69.7171 46.7757 70.1034C43.578 66.325 40.0282 62.4027 38.0324 57.4721C35.9933 52.4423 36.2629 46.5131 39.0413 41.9361C41.8484 37.3174 46.3405 34.1743 50.7124 32.2672C53.3549 31.112 56.0921 30.3327 58.8102 29.5192C61.6301 28.6794 64.4075 27.6954 67.2577 27.0475C68.5374 26.7576 69.8275 26.51 71.1142 26.299C71.2699 26.4086 70.889 26.6299 69.8076 27.0077C76.1565 26.1227 73.1181 26.2665 72.3726 26.1015C75.4556 25.6603 78.5575 25.4247 81.6513 25.3297C82.0339 25.4968 82.5368 25.6969 79.2719 25.9183C80.6924 25.9404 82.1218 25.94 83.5444 25.8383C84.3501 25.7792 85.2061 25.7464 85.94 25.2893C91.7095 25.3565 97.4922 25.9584 103.221 27.0518C104.355 27.3896 105.305 27.7523 105.989 28.0766C111.084 29.2236 113.827 29.854 115.443 30.1467C118.375 31.0731 121.283 32.1143 124.158 33.2872C122.748 32.8489 121.841 32.7262 121.989 33.1423C125.992 34.1212 129.802 35.8535 133.598 37.6361C138.749 40.3907 143.793 43.346 148.659 46.785C151.1 48.5046 153.496 50.3303 155.834 52.2422C156.952 53.1565 158.058 54.0931 159.153 55.052C159.61 55.4511 160.424 56.5542 161.1 56.3494C162.045 56.0676 161.902 53.7805 161.863 52.961C161.779 51.277 161.502 49.4658 160.838 47.9687C160.492 47.1832 159.987 46.7721 159.397 46.2525C158.272 45.2593 157.133 44.2883 155.976 43.3368C153.768 41.5144 151.508 39.7754 149.21 38.1202C130.874 24.9272 109.957 17.2713 88.6412 15.6268C80.8074 15.0227 72.9429 15.5295 65.1909 17.1665C61.2995 17.9847 57.4425 19.0849 53.6485 20.4423C50.0187 21.7406 46.3812 23.1597 43.1261 25.5591C43.1317 25.5564 43.1346 25.5508 43.1375 25.548C41.0485 26.9071 38.9186 28.679 37.6205 31.1491C36.2215 33.1195 35.0883 35.3309 34.2633 37.7756C34.7729 35.5054 35.2244 33.6592 36.2986 31.6015C34.5041 34.7889 33.9203 37.1224 33.5461 38.8913C33.3841 39.7888 33.286 40.5665 33.1941 41.3161C33.1797 41.6619 33.1541 42.0019 33.1368 42.3477C32.7402 44.7548 32.596 47.203 32.7136 49.6501C32.6365 49.8766 32.5121 49.5874 32.4343 49.8562C32.4864 50.417 32.5362 50.944 32.581 51.44C32.7731 52.6814 33.0488 53.972 33.4023 55.1543C33.4184 55.2024 33.4346 55.2421 33.4507 55.2874C34.8024 61.6557 37.7966 67.2565 41.3801 72.3021C41.4429 72.4101 41.5143 72.5127 41.5829 72.6152C41.571 72.6487 41.5117 72.6646 41.4718 72.692C36.7069 75.6727 32.2607 79.0894 28.7571 84.1152C24.8581 89.7052 22.7952 96.4893 22.2999 103.734C22.0884 105.374 21.9427 106.46 21.8232 106.857C21.9089 107.106 21.9974 107.516 22.0972 108.083C22.1222 108.264 22.1495 108.472 22.1796 108.678C22.251 112.644 22.6884 116.591 23.4087 120.45C24.121 124.286 25.2396 127.898 26.3117 131.594C27.0112 133.745 27.8369 136.086 28.8663 138.034C29.6781 139.72 30.2155 140.843 30.2155 140.843C30.7279 142.757 29.5968 140.667 27.9513 137.425C27.2609 135.716 26.3837 133.748 25.6669 131.78C25.0297 129.766 24.3229 127.863 23.8372 126.357C25.2738 131.734 27.2274 136.83 29.9951 141.385C32.9161 146.186 36.3257 150.556 39.8663 154.678C40.3362 155.156 40.8089 155.637 41.2817 156.118C44.8049 160.105 48.646 163.776 52.6549 167.18C52.4076 167.007 52.1716 166.826 51.9213 166.655C54.0679 168.437 56.1972 170.244 58.1963 172.254C60.0434 174.107 62.2781 175.514 64.4019 176.828C63.2292 175.831 61.7608 174.523 60.0922 173.084C64.9943 176.74 69.9921 180.069 74.8146 183.133C76.2768 184.146 76.8863 184.691 75.647 184.284C78.5995 186.153 81.7244 188.144 84.94 189.292C87.5641 190.795 90.2173 192.248 92.8967 193.646C92.4661 193.492 86.3636 190.906 86.3637 190.901C86.2893 191.293 89.5677 193.03 89.7904 193.166C92.3199 194.288 94.8765 195.312 97.4386 196.342C99.5093 197.956 102.076 198.887 104.34 200.041C105.642 200.722 106.956 201.364 108.258 202.054C108.375 202.118 109.999 203.086 109.831 203.187C114.13 204.942 114.925 204.863 118.469 206.076C121.672 207.772 124.94 209.121 128.378 209.935C118.824 206.212 109.457 201.895 100.15 197.363C100.254 197.364 100.478 197.439 100.777 197.556C113.803 203.743 127.182 208.541 140.656 213.082C141.948 213.805 137.452 212.688 136.725 212.746C146.311 216.29 147.045 215.363 155.462 218.484C148.843 216.629 149.999 217.122 153.338 218.312C149.999 217.122 155.01 218.895 153.338 218.312Z" fill="#DE7A7C"/>
</g>
<rect x="234.712" y="366" width="162.791" height="18.9737" transform="rotate(2.15194 234.712 366)" fill="#96DCDC"/>
<path d="M247.578 377.432C245.586 377.432 243.654 377.168 241.782 376.64C239.934 376.088 238.446 375.38 237.318 374.516L239.298 370.124C240.378 370.916 241.662 371.552 243.15 372.032C244.638 372.512 246.126 372.752 247.614 372.752C249.27 372.752 250.494 372.512 251.286 372.032C252.078 371.528 252.474 370.868 252.474 370.052C252.474 369.452 252.234 368.96 251.754 368.576C251.298 368.168 250.698 367.844 249.954 367.604C249.234 367.364 248.25 367.1 247.002 366.812C245.082 366.356 243.51 365.9 242.286 365.444C241.062 364.988 240.006 364.256 239.118 363.248C238.254 362.24 237.822 360.896 237.822 359.216C237.822 357.752 238.218 356.432 239.01 355.256C239.802 354.056 240.99 353.108 242.574 352.412C244.182 351.716 246.138 351.368 248.442 351.368C250.05 351.368 251.622 351.56 253.158 351.944C254.694 352.328 256.038 352.88 257.19 353.6L255.39 358.028C253.062 356.708 250.734 356.048 248.406 356.048C246.774 356.048 245.562 356.312 244.77 356.84C244.002 357.368 243.618 358.064 243.618 358.928C243.618 359.792 244.062 360.44 244.95 360.872C245.862 361.28 247.242 361.688 249.09 362.096C251.01 362.552 252.582 363.008 253.806 363.464C255.03 363.92 256.074 364.64 256.938 365.624C257.826 366.608 258.27 367.94 258.27 369.62C258.27 371.06 257.862 372.38 257.046 373.58C256.254 374.756 255.054 375.692 253.446 376.388C251.838 377.084 249.882 377.432 247.578 377.432Z" fill="#4D4E4E"/>
<path d="M280.831 367.388C280.831 367.46 280.795 367.964 280.723 368.9H266.071C266.335 370.1 266.959 371.048 267.943 371.744C268.927 372.44 270.151 372.788 271.615 372.788C272.623 372.788 273.511 372.644 274.279 372.356C275.071 372.044 275.803 371.564 276.475 370.916L279.463 374.156C277.639 376.244 274.975 377.288 271.471 377.288C269.287 377.288 267.355 376.868 265.675 376.028C263.995 375.164 262.699 373.976 261.787 372.464C260.875 370.952 260.419 369.236 260.419 367.316C260.419 365.42 260.863 363.716 261.751 362.204C262.663 360.668 263.899 359.48 265.459 358.64C267.043 357.776 268.807 357.344 270.751 357.344C272.647 357.344 274.363 357.752 275.899 358.568C277.435 359.384 278.635 360.56 279.499 362.096C280.387 363.608 280.831 365.372 280.831 367.388ZM270.787 361.592C269.515 361.592 268.447 361.952 267.583 362.672C266.719 363.392 266.191 364.376 265.999 365.624H275.539C275.347 364.4 274.819 363.428 273.955 362.708C273.091 361.964 272.035 361.592 270.787 361.592Z" fill="#4D4E4E"/>
<path d="M284.57 350.288H290.186V377H284.57V350.288Z" fill="#4D4E4E"/>
<path d="M301.554 358.064H306.522V362.384H301.698V377H296.082V362.384H293.094V358.064H296.082V357.2C296.082 354.992 296.73 353.24 298.026 351.944C299.346 350.648 301.194 350 303.57 350C304.41 350 305.202 350.096 305.946 350.288C306.714 350.456 307.35 350.708 307.854 351.044L306.378 355.112C305.73 354.656 304.974 354.428 304.11 354.428C302.406 354.428 301.554 355.364 301.554 357.236V358.064Z" fill="#4D4E4E"/>
<path d="M325.132 356.552H317.068V351.8H339.028V356.552H330.964V377H325.132V356.552Z" fill="#4D4E4E"/>
<path d="M358.773 367.388C358.773 367.46 358.737 367.964 358.665 368.9H344.013C344.277 370.1 344.901 371.048 345.885 371.744C346.869 372.44 348.093 372.788 349.557 372.788C350.565 372.788 351.453 372.644 352.221 372.356C353.013 372.044 353.745 371.564 354.417 370.916L357.405 374.156C355.581 376.244 352.917 377.288 349.413 377.288C347.229 377.288 345.297 376.868 343.617 376.028C341.937 375.164 340.641 373.976 339.729 372.464C338.817 370.952 338.361 369.236 338.361 367.316C338.361 365.42 338.805 363.716 339.693 362.204C340.605 360.668 341.841 359.48 343.401 358.64C344.985 357.776 346.749 357.344 348.693 357.344C350.589 357.344 352.305 357.752 353.841 358.568C355.377 359.384 356.577 360.56 357.441 362.096C358.329 363.608 358.773 365.372 358.773 367.388ZM348.729 361.592C347.457 361.592 346.389 361.952 345.525 362.672C344.661 363.392 344.133 364.376 343.941 365.624H353.481C353.289 364.4 352.761 363.428 351.897 362.708C351.033 361.964 349.977 361.592 348.729 361.592Z" fill="#4D4E4E"/>
<path d="M369.028 377.288C367.42 377.288 365.848 377.096 364.312 376.712C362.776 376.304 361.552 375.8 360.64 375.2L362.512 371.168C363.376 371.72 364.42 372.176 365.644 372.536C366.868 372.872 368.068 373.04 369.244 373.04C371.62 373.04 372.808 372.452 372.808 371.276C372.808 370.724 372.484 370.328 371.836 370.088C371.188 369.848 370.192 369.644 368.848 369.476C367.264 369.236 365.956 368.96 364.924 368.648C363.892 368.336 362.992 367.784 362.224 366.992C361.48 366.2 361.108 365.072 361.108 363.608C361.108 362.384 361.456 361.304 362.152 360.368C362.872 359.408 363.904 358.664 365.248 358.136C366.616 357.608 368.224 357.344 370.072 357.344C371.44 357.344 372.796 357.5 374.14 357.812C375.508 358.1 376.636 358.508 377.524 359.036L375.652 363.032C373.948 362.072 372.088 361.592 370.072 361.592C368.872 361.592 367.972 361.76 367.372 362.096C366.772 362.432 366.472 362.864 366.472 363.392C366.472 363.992 366.796 364.412 367.444 364.652C368.092 364.892 369.124 365.12 370.54 365.336C372.124 365.6 373.42 365.888 374.428 366.2C375.436 366.488 376.312 367.028 377.056 367.82C377.8 368.612 378.172 369.716 378.172 371.132C378.172 372.332 377.812 373.4 377.092 374.336C376.372 375.272 375.316 376.004 373.924 376.532C372.556 377.036 370.924 377.288 369.028 377.288Z" fill="#4D4E4E"/>
<path d="M394.129 376.064C393.577 376.472 392.893 376.784 392.077 377C391.285 377.192 390.445 377.288 389.557 377.288C387.253 377.288 385.465 376.7 384.193 375.524C382.945 374.348 382.321 372.62 382.321 370.34V362.384H379.333V358.064H382.321V353.348H387.937V358.064H392.761V362.384H387.937V370.268C387.937 371.084 388.141 371.72 388.549 372.176C388.981 372.608 389.581 372.824 390.349 372.824C391.237 372.824 391.993 372.584 392.617 372.104L394.129 376.064Z" fill="#4D4E4E"/>
<path d="M340.285 304.153C316.403 317.004 286.717 312.802 266.405 294.71C246.593 277.063 240.161 248.55 249.042 223.321C259.674 193.113 291.635 173.338 322.276 177.828C348.639 183.694 376.372 209.895 378.238 238.679C379.99 265.693 363.058 291.901 340.285 304.153ZM323.639 172.735C294.599 168.478 265.506 182.992 250.073 208.945C235.416 233.593 236.669 266.888 254.395 289.505C272.316 312.367 303.832 322.76 331.122 313.794C357.798 305.029 378.975 279.932 382.814 251.222C387.66 214.983 356.946 180.145 323.639 172.735Z" fill="#4D4E4E"/>
<path d="M330.604 238.538C323.72 245.964 317.426 250.346 316.365 261.32C316.202 263.335 316.117 265.353 316.109 267.375C315.177 274.095 308.102 271.621 308.467 267.282C307.384 264.006 308.503 258.989 309.368 255.826C311.338 248.626 315.839 244.856 320.324 239.443C330.061 227.69 328.339 204.073 309.023 206.207C302.178 206.964 295.977 211.003 296.551 218.75C296.883 223.236 302.394 230.84 295.031 232.474C288.836 233.849 286.161 226.239 285.048 221.451C283.777 202.441 304.138 193.663 319.738 197.594C327.316 199.503 335.181 204.274 337.552 212.382C340.27 221.672 336.905 231.742 330.604 238.538ZM330.665 197.98C312.132 186.343 279.137 195.165 281.218 221.744C281.22 221.762 281.231 221.775 281.232 221.794C281.234 221.946 281.25 222.104 281.287 222.27C282.742 228.705 285.591 235.494 292.721 236.39C297.159 236.948 301.812 235.291 302.763 230.383C303.512 226.516 301.104 223.71 300.766 220.084C300.018 212.091 308.751 208.835 314.202 210.348C317.943 211.388 321.056 214.92 322.252 218.541C323.955 223.688 322.327 229.394 319.656 233.836C316.64 238.853 311.571 241.886 308.691 247.015C306.293 251.287 304.984 256.273 304.589 261.166C304.099 267.239 304.725 277.524 312.966 276.801C323.776 275.856 318.952 260.786 322.203 253.891C325.061 247.827 331.064 244.327 335.161 239.255C338.81 234.735 341.189 229.248 341.97 223.418C343.387 212.861 339.525 203.543 330.665 197.98Z" fill="#4D4E4E"/>
<path d="M318.999 291.498C318.132 295.756 313.503 297.185 309.846 296.125C306.934 295.28 304.901 292.872 304.987 289.627C305.103 285.212 309.324 284.156 312.828 284.259C316.133 285.043 319.835 287.399 318.999 291.498ZM313.58 280.374C313.44 280.344 313.304 280.332 313.173 280.33C313.135 280.326 313.109 280.305 313.07 280.304C307.401 280.049 301.653 282.673 301.188 289.144C300.783 294.808 304.713 299.135 309.882 300.208C315.361 301.347 321.309 298.388 322.706 292.551C324.2 286.306 319.043 281.537 313.58 280.374Z" fill="#4D4E4E"/>
<defs>
<clipPath id="clip0_252:1085">
<rect width="230.231" height="230.231" fill="white" transform="translate(234.222 18.0259) rotate(91.0019)"/>
</clipPath>
</defs>
</svg>
