<svg width="116" height="116" viewBox="0 0 116 116" fill="none" xmlns="http://www.w3.org/2000/svg">
<path d="M80.9538 105.708C61.8965 115.963 38.2078 112.61 21.9993 98.1731C6.1897 84.0905 1.05752 61.3379 8.14369 41.206C16.6278 17.1003 42.1323 1.32015 66.5833 4.90329C87.6206 9.58392 109.751 30.4925 111.24 53.4608C112.638 75.0175 99.1266 95.9309 80.9538 105.708ZM67.6708 0.838982C44.4978 -2.55771 21.2822 9.02377 8.96667 29.7337C-2.72962 49.4022 -1.72972 75.9716 12.4158 94.0192C26.7161 112.263 51.8652 120.556 73.6426 113.401C94.9287 106.407 111.828 86.3799 114.891 63.4702C118.758 34.5519 94.2495 6.75225 67.6708 0.838982Z" fill="#030404"/>
<path d="M73.2292 53.3485C67.736 59.2748 62.7136 62.7708 61.867 71.528C61.7366 73.136 61.6687 74.7464 61.6624 76.3601C60.9184 81.7221 55.2728 79.7486 55.5643 76.286C54.7002 73.6717 55.5927 69.6684 56.283 67.1445C57.8555 61.399 61.4468 58.3906 65.0262 54.0707C72.7955 44.6923 71.4221 25.8461 56.0082 27.5493C50.5458 28.1534 45.5977 31.3767 46.0558 37.5586C46.3204 41.1377 50.718 47.2057 44.8426 48.51C39.8992 49.6066 37.7643 43.5346 36.8766 39.7137C35.8625 24.5442 52.1096 17.5392 64.5586 20.6761C70.6054 22.1994 76.8812 26.0065 78.7736 32.4766C80.9424 39.8896 78.2571 47.9254 73.2292 53.3485ZM73.2781 20.9839C58.4889 11.6984 32.1599 18.7376 33.82 39.9474C33.8216 39.9621 33.8303 39.9718 33.8311 39.9873C33.8327 40.1086 33.8453 40.2348 33.8753 40.3675C35.0363 45.5024 37.3094 50.9199 42.9992 51.6347C46.5407 52.0801 50.2536 50.7579 51.0126 46.8409C51.6105 43.7552 49.6889 41.5163 49.4188 38.6228C48.8225 32.2446 55.791 29.6466 60.1404 30.854C63.1259 31.6836 65.6099 34.5023 66.5647 37.3917C67.9232 41.4984 66.624 46.052 64.4931 49.5969C62.0865 53.6001 58.0411 56.0206 55.7428 60.1134C53.8291 63.5223 52.7849 67.5011 52.4698 71.4051C52.0788 76.2518 52.578 84.4585 59.1548 83.8821C67.7803 83.1274 63.9307 71.1022 66.5253 65.6001C68.8062 60.7615 73.5964 57.9681 76.8654 53.9209C79.7775 50.3141 81.6754 45.9356 82.2993 41.2834C83.4295 32.8593 80.3477 25.4235 73.2781 20.9839Z" fill="#030404"/>
<path d="M63.9685 95.6095C63.2766 99.007 59.5827 100.148 56.6644 99.3018C54.3407 98.6277 52.7185 96.7062 52.7872 94.1164C52.8796 90.5935 56.2481 89.7508 59.0441 89.8331C61.6812 90.4583 64.6351 92.3382 63.9685 95.6095ZM59.6443 86.7327C59.5322 86.7091 59.424 86.6993 59.3197 86.6977C59.2889 86.6945 59.2684 86.6774 59.2368 86.6765C54.7135 86.473 50.1263 88.567 49.7559 93.7313C49.4321 98.2507 52.5684 101.704 56.6928 102.56C61.0652 103.469 65.8119 101.108 66.9264 96.4498C68.119 91.4663 64.0033 87.6609 59.6443 86.7327Z" fill="#030404"/>
</svg>
