<svg width="129" height="86" viewBox="0 0 129 86" fill="none" xmlns="http://www.w3.org/2000/svg">
<path d="M120.125 81.4644C116.674 82.3773 112.009 81.6435 108.484 81.6719C89.4609 81.8269 70.4377 81.8007 51.4144 81.733C41.4988 81.6981 31.5831 81.65 21.6696 81.5234C15.0169 81.4382 5.24105 83.8625 3.54621 75.5259C4.24948 75.4997 5.39611 75.2179 6.22387 75.1721C9.43445 74.9886 12.656 74.9253 15.8731 74.8532C25.0112 74.6479 34.1559 74.5802 43.2963 74.5409C64.7853 74.4448 86.2831 74.5147 107.77 74.9777C111.607 75.0585 115.443 75.1524 119.28 75.2922C120.717 75.3446 122.401 75.1874 123.801 75.4822C124.273 75.5827 125.568 75.2944 125.909 75.5958C127.612 77.0919 121.237 81.1717 120.125 81.4644ZM17.6946 18.8668C17.7339 15.8287 17.3146 10.4581 18.6665 7.72363C21.0952 2.80511 28.6019 3.6853 33.2146 3.60886C42.0448 3.46034 50.8837 3.8622 59.7205 3.79887C68.507 3.73771 77.2957 3.68092 86.0822 3.62414C90.1336 3.59793 94.1807 3.61759 98.23 3.73335C100.2 3.79013 103.081 3.35112 104.979 3.99324C111.435 6.17513 110.607 8.59945 110.756 13.1314C111.402 32.6264 111.455 52.0996 110.994 71.5989C91.6472 70.9262 72.2002 71.2189 52.8953 71.2386C41.6102 71.2495 30.3229 71.3128 19.04 71.5378C18.8522 53.9975 17.4653 36.3874 17.6946 18.8668ZM127.361 72.4136C123.006 72.1144 118.638 71.9025 114.27 71.7256C114.547 59.9622 114.713 48.1988 114.582 36.431C114.51 30.1387 114.364 23.8442 114.174 17.5519C114.06 13.7822 114.702 8.79601 113.401 5.26874C110.708 -2.03042 98.4156 0.40045 92.4509 0.345849C81.0807 0.241013 69.6995 0.457233 58.3292 0.533675C47.6775 0.60575 36.8751 -0.274427 26.2496 0.649434C20.2718 1.16706 16.3885 2.26783 15.2375 8.54047C13.4182 18.4496 14.7439 28.9703 15.0672 38.9471C15.421 49.8259 15.67 60.7048 15.7661 71.588C15.4123 71.5967 15.0606 71.5967 14.7068 71.6033C12.0881 71.6688 4.00047 70.6117 1.01048 72.5687C0.556194 72.715 0.215509 73.0666 0.106305 73.593C-0.0465795 73.9686 -0.0291165 74.3225 0.123768 74.6304C1.32064 86.0182 9.83852 84.6269 18.826 84.7601C34.1035 84.9895 49.3854 85.02 64.6652 85.0419C79.6195 85.0659 94.576 85.0703 109.528 84.9392C118.066 84.8628 128.619 85.7757 128.999 74.0516C129.03 73.1234 128.222 72.4726 127.361 72.4136Z" fill="#090719"/>
<path d="M101.904 64.9949C97.3505 64.6935 92.6832 64.9687 88.1207 64.9578C67.5336 64.8988 46.6845 65.8183 26.1193 64.8027C26.0167 63.394 26.1346 61.9023 26.1193 60.5176C26.0494 54.0243 25.9817 47.5289 25.9118 41.0335C25.8092 31.5109 25.7087 21.9862 25.6082 12.4615H96.9727C98.6282 12.4615 101.406 11.9657 103.379 12.2212C103.357 12.3632 103.335 12.5139 103.282 12.7148C102.909 14.1782 103.328 16.3011 103.344 17.8059C103.422 23.9715 103.499 30.1415 103.575 36.3093C103.693 45.655 104.894 55.7017 103.992 65.0342C103.289 65.056 102.562 65.0386 101.904 64.9949ZM103.409 11.7276C103.322 11.5638 103.387 11.5267 103.409 11.7276V11.7276ZM106.406 66.2333C106.176 47.9002 105.949 29.5649 105.72 11.2319C105.711 10.5679 105.163 10.0044 104.492 10.0044H24.3655C24.0466 10.0044 23.8086 10.1223 23.6185 10.2818C23.5705 10.3167 23.5224 10.3451 23.4809 10.3844C23.4766 10.3888 23.4744 10.3932 23.4722 10.3975C23.2713 10.5941 23.1337 10.8649 23.138 11.2319C23.3324 29.4907 23.5268 47.7517 23.7212 66.0105C23.7277 66.6745 24.2781 67.2358 24.9486 67.2379C51.6925 67.3122 78.4343 67.3864 105.176 67.4629C105.833 67.4629 106.414 66.8972 106.406 66.2333Z" fill="#090719"/>
<path d="M50.3185 41.7316C49.1195 41.0611 47.9204 40.3884 46.7214 39.7179C47.8898 39.0212 49.0605 38.3266 50.229 37.6321C52.0374 36.5554 50.3928 33.7226 48.5734 34.8037C47.3984 35.5026 46.2234 36.2015 45.0484 36.9004C45.0287 35.5485 45.0112 34.1966 44.9938 32.8424C44.9676 30.737 41.6915 30.7326 41.7177 32.8424C41.7373 34.2097 41.7526 35.5769 41.7723 36.9441C40.595 36.2845 39.4178 35.6249 38.2384 34.9654C36.3973 33.9345 34.7439 36.7629 36.5851 37.7937C37.7798 38.4642 38.9745 39.1326 40.1692 39.8009C39.005 40.4954 37.8409 41.1878 36.6746 41.8823C34.8662 42.9591 36.5108 45.7918 38.328 44.7107C39.5008 44.014 40.6737 43.3151 41.8443 42.6183C41.864 43.9747 41.8793 45.331 41.8989 46.6873C41.9251 48.7949 45.2012 48.8014 45.175 46.6873C45.1554 45.3179 45.1401 43.9463 45.1204 42.5747C46.302 43.2364 47.4836 43.8982 48.6652 44.56C50.5064 45.5909 52.1597 42.7625 50.3185 41.7316Z" fill="#090719"/>
<path d="M71.4323 41.7316C70.2332 41.0611 69.0364 40.3884 67.8395 39.7179C69.0058 39.0212 70.1743 38.3266 71.3427 37.6321C73.1533 36.5554 71.5066 33.7226 69.6894 34.8037C68.5144 35.5026 67.3372 36.2015 66.1621 36.9004C66.1447 35.5485 66.1272 34.1966 66.1097 32.8424C66.0835 30.737 62.8074 30.7326 62.8336 32.8424C62.8511 34.2097 62.8686 35.5769 62.8882 36.9441C61.7088 36.2845 60.5316 35.6249 59.3544 34.9654C57.5132 33.9345 55.8577 36.7629 57.701 37.7937C58.8957 38.4642 60.0904 39.1326 61.2851 39.8009C60.121 40.4954 58.9547 41.1878 57.7906 41.8823C55.98 42.9591 57.6268 45.7918 59.4439 44.7107C60.6168 44.014 61.7896 43.3151 62.9603 42.6183C62.9777 43.9747 62.9952 45.331 63.0149 46.6873C63.0411 48.7949 66.3172 48.8014 66.291 46.6873C66.2713 45.3179 66.2539 43.9463 66.2364 42.5747C67.4158 43.2364 68.5974 43.8982 69.779 44.56C71.6223 45.5909 73.2756 42.7625 71.4323 41.7316Z" fill="#090719"/>
<path d="M92.4862 41.7316C91.2872 41.0611 90.0881 40.3884 88.8891 39.7179C90.0575 39.0212 91.226 38.3266 92.3945 37.6321C94.2051 36.5554 92.5605 33.7226 90.7412 34.8037C89.5661 35.5026 88.3911 36.2015 87.2139 36.9004C87.1964 35.5485 87.1789 34.1966 87.1615 32.8424C87.1352 30.737 83.8591 30.7326 83.8853 32.8424C83.9028 34.2097 83.9203 35.5769 83.94 36.9441C82.7606 36.2845 81.5833 35.6249 80.4061 34.9654C78.565 33.9345 76.9095 36.7629 78.7528 37.7937C79.9475 38.4642 81.14 39.1326 82.3368 39.8009C81.1706 40.4954 80.0065 41.1878 78.8424 41.8823C77.0318 42.9591 78.6785 45.7918 80.4957 44.7107C81.6685 44.014 82.8414 43.3151 84.012 42.6183C84.0295 43.9747 84.0492 45.331 84.0644 46.6873C84.0928 48.7949 87.3689 48.8014 87.3405 46.6873C87.3253 45.3179 87.3056 43.9463 87.2881 42.5747C88.4697 43.2364 89.6513 43.8982 90.8307 44.56C92.6741 45.5909 94.3274 42.7625 92.4862 41.7316Z" fill="#090719"/>
</svg>
