<svg width="99" height="118" viewBox="0 0 99 118" fill="none" xmlns="http://www.w3.org/2000/svg">
<path d="M40.0403 61.6907C39.3426 61.7468 38.6849 61.7348 38.1011 61.6266C32.4714 60.2418 32.1336 58.5664 33.6429 56.6906C35.1943 55.2417 36.4998 55.9792 37.8032 57.5724C38.9787 59.0955 39.5965 60.3039 40.0403 61.6907ZM59.1944 61.9132C59.5143 61.1456 59.8742 60.4101 60.34 59.831C62.3771 57.0173 65.068 56.891 65.6498 58.0454C66.4315 59.5945 62.4871 61.9673 59.6563 61.8971C59.4983 61.9152 59.3484 61.9072 59.1944 61.9132ZM79.698 64.0876C77.9508 71.7691 71.9952 76.671 68.1128 83.3124C66.2635 86.4708 65.7398 93.1743 62.1592 94.7936C60.7898 95.4108 58.6047 95.5431 56.3856 95.5251C55.8378 85.7974 55.358 74.8994 58.0249 65.4764C58.0769 65.294 58.1349 65.0896 58.1889 64.8992C62.837 65.2459 71.1915 63.9012 70.048 57.6886C68.8485 51.1755 62.2592 52.4721 59.0765 56.3539C57.895 57.7928 56.9474 59.4281 56.1517 61.1817C56.0957 61.1516 56.0397 61.1316 55.9838 61.0995C54.7583 60.7188 53.1609 60.0835 51.7135 59.2117C51.7395 59.1877 51.7695 59.1636 51.7935 59.1396C55.434 55.6225 57.3792 48.5422 51.4736 45.6263C47.4173 43.6242 43.8167 48.9069 44.1326 52.6344C44.3365 55.0253 45.4721 57.2578 47.1194 59.1476C45.8119 59.9732 44.3665 60.6386 42.9431 61.0875C42.7132 60.3941 42.4613 59.7087 42.1874 59.0394C40.5881 55.1235 35.2943 49.8087 30.954 54.0393C28.4611 56.4682 29.8265 60.8049 32.2455 62.7649C34.6105 64.6808 37.6733 65.0896 40.756 64.6086C40.772 64.6828 40.786 64.7469 40.8 64.823C42.7672 74.4886 42.2514 85.2002 42.7372 95.0681C41.5217 94.9479 40.3222 94.7896 39.1906 94.527C36.1779 93.8316 36.1839 95.3367 34.2727 91.2705C33.535 89.7033 33.7109 87.7814 32.8872 86.1541C30.91 82.2422 26.6618 79.2863 24.2448 75.6148C21.5019 71.4484 18.6551 66.2018 17.6375 61.2558C13.4672 41.029 31.8697 24.0006 50.9558 23.5276C61.2076 23.2731 71.6513 29.4456 76.6413 38.4838C81.2394 46.8127 81.7392 55.1174 79.698 64.0876ZM58.7586 109.068C56.3316 109.209 53.9046 109.359 51.4756 109.477C50.42 109.529 33.6609 110.1 35.916 106.994C35.934 106.968 35.932 106.944 35.948 106.92C40.756 107.97 47.4193 107.732 49.4364 107.754C51.6935 107.78 59.4124 108.433 64.5762 107.233C66.0656 108.473 58.3328 109.092 58.7586 109.068ZM52.1393 114C51.3557 114.407 49.8063 114.429 48.9486 114.441C48.5088 114.449 48.007 114.485 47.5852 114.341C47.5132 114.315 47.4932 114.331 47.4693 114.343C47.4633 114.295 47.4613 114.259 47.4233 114.149C47.2733 113.718 47.1754 113.225 47.0954 112.732C49.4404 112.67 51.5256 112.525 52.873 112.427C52.8271 112.682 52.8171 112.94 52.7491 113.195C52.4972 114.125 52.7431 113.688 52.1393 114ZM34.4606 102.231C38.249 103.7 44.8783 103.164 47.8891 103.319C52.7511 103.569 60.8598 104.8 65.7877 102.744C64.4183 105.283 52.3732 104.776 50.612 104.756C48.3729 104.732 46.1418 104.73 43.9047 104.645C43.5609 104.633 34.5526 104.291 34.4606 102.231ZM50.2701 98.3528C53.7127 98.3087 60.6698 99.2546 64.8961 97.5872C67.7249 100.411 52.6271 100.503 50.3961 100.419C47.4633 100.311 44.5405 100.142 41.6197 99.8518C41.1498 99.8037 32.1355 98.974 35.5981 97.1804C39.9343 98.956 46.5197 98.3488 50.2701 98.3528ZM48.171 55.3078C46.7515 52.1715 46.5057 50.2135 48.6688 48.9269C50.65 48.8388 51.6475 49.6965 51.6655 51.5001C52.2933 53.5864 51.2337 55.6645 49.4045 57.4001C48.8307 56.7728 48.3909 56.0774 48.171 55.3078ZM43.7408 63.8872C45.726 63.2298 47.6192 62.2659 49.2465 61.1677C50.9778 62.5605 52.973 63.6326 54.9682 64.2659C51.8455 73.9876 52.855 86.5028 53.3768 95.4349C52.1953 95.3868 51.1038 95.3367 50.2701 95.3467C48.8207 95.3447 47.2873 95.3287 45.746 95.2705C45.2602 85.4768 46.2098 73.8032 43.7408 63.8872ZM32.3834 25.3553C19.7406 32.3374 11.0522 48.8007 15.1405 63.2419C16.6179 68.4604 19.2688 73.7431 22.3356 78.174C23.601 80.0037 25.0864 81.5729 26.4799 83.2944C29.7006 87.2624 30.0484 90.066 31.9236 94.004C32.1795 94.5431 32.5314 95.004 32.9272 95.4229C31.6018 96.6814 30.982 98.5872 31.9156 100.233C29.7705 103.088 30.7021 104.866 33.0072 105.97C29.5266 111.429 36.9995 112.666 44.0726 112.756C44.1966 113.808 44.3585 114.92 44.7924 115.802C45.5241 117.291 47.4832 117.469 48.9486 117.447C50.55 117.423 52.7891 117.267 54.1845 116.421C55.5039 115.622 55.8538 113.872 55.9878 112.325C59.7422 112.381 65.3379 112.758 67.627 110.481C69.2323 108.888 68.8345 107.327 67.7049 106.03C69.4422 104.928 70.082 103.227 68.6586 100.621C69.5902 99.1223 69.0544 97.3948 67.4151 95.8277C67.467 95.7635 67.533 95.7074 67.579 95.6393C68.1848 94.7735 68.2947 93.6894 68.5226 92.6773C69.7121 87.3806 68.2527 90.058 70.4178 85.9537C71.3095 84.2683 72.2271 83.3324 73.1607 81.8434C75.3638 78.3243 78.4506 75.2922 80.4477 71.6949C87.157 59.5945 84.5101 41.7424 75.4838 31.7062C64.3483 19.3191 46.7396 17.4313 32.3834 25.3553Z" fill="#090719"/>
<path d="M96.4942 28.1214C92.8437 29.7768 89.1052 31.3119 85.8326 33.6686C84.2812 34.7869 85.7766 37.3962 87.3479 36.2659C90.6186 33.9091 94.3571 32.374 98.0076 30.7167C99.7628 29.9191 98.2395 27.3278 96.4942 28.1214Z" fill="#090719"/>
<path d="M71.745 19.8864C74.24 16.6819 76.1512 13.1868 78.1284 9.6497C79.072 7.96029 76.4831 6.44323 75.5395 8.13264C73.6962 11.4293 71.9509 14.772 69.6239 17.7601C68.4504 19.2691 70.5595 21.4095 71.745 19.8864Z" fill="#090719"/>
<path d="M50.2419 12.9111C50.5038 9.09537 50.6258 5.27766 50.6058 1.45193C50.5958 -0.481973 47.597 -0.485981 47.607 1.45193C47.627 5.27766 47.505 9.09537 47.2431 12.9111C47.1092 14.843 50.108 14.833 50.2419 12.9111Z" fill="#090719"/>
<path d="M26.797 19.8857C27.8646 21.487 30.4635 19.9819 29.386 18.3687C27.0909 14.9337 24.498 11.5369 23.0286 7.639C22.3529 5.84738 19.4521 6.62496 20.1358 8.43862C21.7111 12.611 24.338 16.2043 26.797 19.8857Z" fill="#090719"/>
<path d="M1.79771 27.41C0.00644181 26.6905 -0.771229 29.5964 1.00204 30.3078C4.58857 31.7467 7.9212 33.6546 11.0319 35.9492C12.5853 37.0975 14.0827 34.4883 12.5433 33.352C9.21666 30.897 5.63213 28.9471 1.79771 27.41Z" fill="#090719"/>
<path d="M31.7927 32.7122C25.9771 37.4397 22.0447 43.8467 20.4174 51.1735C19.9996 53.0573 22.8904 53.8629 23.3102 51.9711C24.8356 45.1032 28.4661 39.2654 33.9139 34.8365C35.4132 33.618 33.2801 31.5017 31.7927 32.7122Z" fill="#090719"/>
<path d="M36.2892 29.7671C34.36 29.7671 34.356 32.7732 36.2892 32.7732C38.2184 32.7732 38.2204 29.7671 36.2892 29.7671Z" fill="#090719"/>
</svg>
