<svg width="590" height="411" viewBox="0 0 590 411" fill="none" xmlns="http://www.w3.org/2000/svg">
<mask id="mask0_246:877" style="mask-type:alpha" maskUnits="userSpaceOnUse" x="0" y="0" width="571" height="410">
<rect width="571" height="410" fill="#C4C4C4"/>
</mask>
<g mask="url(#mask0_246:877)">
</g>
<g clip-path="url(#clip0_246:877)">
<path d="M459.881 227.712C458.006 228.399 456.126 229.089 454.243 229.777L455.178 229.915C459.447 228.36 457.789 228.705 459.881 227.712C458.006 228.399 457.789 228.705 459.881 227.712ZM492.331 125.309C492.245 125.341 492.161 125.383 492.075 125.418C492.161 125.38 492.245 125.341 492.331 125.309ZM517.944 112.862C520.246 111.208 519.693 111.18 518.238 111.838C515.439 113.545 512.621 115.166 509.789 116.731C512.487 115.356 515.195 114.006 517.944 112.862C520.246 111.208 515.476 113.889 517.944 112.862ZM522.563 109.131C521.203 110.011 519.842 110.864 518.478 111.692C520.564 110.586 521.703 109.806 522.563 109.131ZM526.748 183.057C522.558 186.3 518.307 189.369 513.964 192.128C517.655 189.818 521.303 187.359 524.887 184.707C525.353 184.271 525.956 183.736 526.748 183.057ZM532.666 92.1539L532.372 91.8362C531.723 92.3673 532.042 92.3943 531.788 92.8556C532.084 92.6279 532.37 92.3878 532.666 92.1539ZM536.938 81.5097C536.895 81.5365 536.877 81.576 536.888 81.6406C536.856 81.5757 536.825 81.5169 536.786 81.4549C536.125 81.2319 535.461 81.0211 534.795 80.8164C534.931 81.116 535.161 81.3591 535.576 81.4951C534.436 81.7693 533.227 81.5183 532.124 81.116C531.161 80.7804 530.009 80.3834 529.257 79.3774C529.237 79.3709 529.222 79.3676 529.201 79.3672C527.758 79.722 530.134 80.594 530.805 81.2645C529.516 81.1133 528.338 80.9456 527.216 80.7635C523.83 80.4377 520.434 79.8421 517.027 79.8867C516.97 78.7213 516.514 79.1392 515.806 78.324L515.353 78.742C515.507 78.6037 515.237 78.1853 515.363 77.8597C512.962 77.833 510.559 77.9227 508.156 78.1197C508.494 78.5424 508.884 78.9598 509.402 79.1619C506.756 78.4476 505.664 79.8259 502.802 79.5245C503.179 80.1501 505.739 80.2715 506.441 80.3328C505.487 80.451 503.758 80.2491 503.712 80.8673L503.475 80.0572C501.783 80.1931 503.741 80.8065 503.219 81.4164C500.025 81.7987 501.515 79.8207 500.453 79.1096C499.907 79.1981 499.367 79.299 498.826 79.4029C498.683 79.5046 498.494 79.5289 498.281 79.5067C497.891 79.5888 497.502 79.6678 497.116 79.753C497.37 80.021 497.264 80.4665 497.194 80.738C495.706 79.3085 495.596 81.4485 493.112 81.6809C493.12 82.2418 494.311 82.042 494.508 82.6123C493.738 82.559 492.97 82.6099 492.203 82.5598C491.757 82.5489 490.928 82.6141 490.629 81.999C488.875 82.4985 487.155 83.4061 485.391 83.7951C485.666 83.7692 486.263 83.6326 486.395 84.1435C486.538 84.6976 486.721 84.8939 487.137 85.0176C485.271 84.4763 483.32 84.482 481.428 84.3723C480.516 84.7149 479.609 85.0637 478.701 85.4278C478.74 85.6522 478.832 85.8713 479.022 86.1995C476.448 87.993 478.071 85.5976 475.562 86.9694L476.715 86.297C476.662 86.3053 476.616 86.3014 476.566 86.3067C475.351 86.8186 474.133 87.3519 472.93 87.9009C473.057 88.1482 473.263 88.2959 472.868 88.4268C471.423 87.4394 469.986 90.3989 468.69 90.8175L469.084 90.7386L467.665 92.154C467.652 92.1875 467.674 92.197 467.674 92.2246C467.629 92.1687 467.585 92.1127 467.543 92.0385C467.06 92.9217 466.082 94.1457 464.793 94.8279C464.461 94.675 463.422 95.187 462.459 95.9761C461.48 96.7158 460.492 97.4769 460.105 97.4303C460.676 97.1798 461.112 96.8442 461.686 96.1556L461.305 95.4564C460.156 96.4046 461.496 96.235 460.222 96.6601C460.019 95.4523 461.818 95.3704 462.577 94.6022C462.199 94.5895 461.719 94.7067 461.175 95.0067C461.507 94.7061 461.835 94.4115 462.164 94.1323C461.177 94.8811 460.202 95.67 459.248 96.5083C459.377 96.6239 459.422 96.7901 459.263 97.0938C458.181 98.6561 457.728 98.4612 457.05 98.5474C456.717 98.8725 456.388 99.21 456.055 99.5474C456.009 99.902 456.097 100.198 455.98 100.539C455.805 101.045 455.458 101.44 455.163 101.787C455.501 101.6 455.836 101.404 456.172 101.216C456.291 101.163 456.368 101.125 456.368 101.125C455.87 103.105 455.276 101.765 454.642 102.765C454.749 102.264 454.625 102.026 455.477 101.109C455.394 100.667 454.676 101.255 454.346 101.567L454.529 101.319C454.504 101.316 454.476 101.309 454.448 101.309C453.598 102.296 452.779 103.339 451.994 104.444C451.991 104.465 451.981 104.492 451.981 104.514L452.295 104.256C451.743 104.841 451.253 105.54 450.837 106.121C450.682 106.363 450.534 106.618 450.381 106.861L450.443 106.896C450.387 106.956 450.328 106.998 450.27 107.043C449.987 107.494 449.7 107.943 449.425 108.41L449.425 108.413C449.601 108.413 449.636 108.564 449.285 109.1C449.915 109.31 450.88 107.148 451.164 106.55C450.718 107.473 450.601 108.997 451.503 107.616C451.6 108.448 450.537 108.748 450.251 109.687C450.223 109.429 449.975 109.52 449.9 109.334C450.266 109.853 448.719 112.222 448.303 112.083C448.303 112.083 448.496 111.715 448.701 111.382C448.848 111.173 448.99 110.955 449.142 110.749C448.865 110.37 448.318 111.081 448.101 111.298C446.412 116.563 450.118 120.44 453.062 121.966C453.14 121.547 453.015 121.098 453.404 120.985C454.81 121.239 454.5 121.966 454.502 122.57C457.643 123.618 461.079 123.086 464.322 122.638C464.319 122.503 464.251 122.357 464.088 122.204C465.029 121.918 464.623 122.293 464.516 122.61C464.991 122.548 465.46 122.486 465.924 122.43C465.965 122.234 466.002 122.014 465.53 121.96C466.312 121.581 466.446 121.945 466.555 122.361C467.41 122.281 468.265 122.176 469.118 122.053C469.313 121.873 469.472 121.677 469.584 121.467C470.378 121.395 470.802 121.525 471.065 121.741C471.524 121.663 471.984 121.58 472.441 121.489C472.208 121.406 472.053 121.241 472.06 120.845C473.127 121.413 473.695 121.168 474.584 121.043C478.327 120.195 482.045 119.062 485.736 117.766C487.507 117.147 489.271 116.483 491.03 115.772C492.792 115.064 494.557 114.074 496.339 113.508C496.953 113.231 497.565 112.95 498.179 112.67C498.154 112.66 498.126 112.66 498.104 112.653C498.768 111.927 498.998 112.065 499.204 112.198C499.519 112.05 499.831 111.896 500.144 111.748C499.769 111.579 499.446 111.212 499.098 111.096C499.95 111.037 500.283 111.279 500.69 111.476C500.954 111.352 501.21 111.222 501.472 111.097C501.538 110.927 501.43 110.772 501.44 110.61C501.76 110.578 502.011 110.638 502.239 110.716C502.998 110.34 503.757 109.961 504.52 109.57C504.533 109.518 504.663 109.446 505.068 109.285C506.499 108.544 507.922 107.79 509.343 107.015C509.541 106.728 509.649 106.478 509.65 106.301C509.728 106.446 509.851 106.565 510.006 106.65C510.731 106.252 511.463 105.857 512.19 105.447C512.751 105.004 513.303 104.529 513.863 104.07C514.063 102.851 512.63 104.45 511.779 104.444C513.787 103.061 513.206 103.746 514.909 103.436C515.299 103.161 515.907 103.058 516.495 102.973C517.154 102.589 517.803 102.196 518.457 101.806C518.384 101.805 518.316 101.81 518.243 101.79C519.673 101.089 518.723 100.383 520.246 100.1C520.085 100.382 519.875 100.774 519.622 101.116C520.385 100.657 521.154 100.189 521.91 99.7155C522.204 99.4571 522.331 99.1988 522.031 98.9576C522.777 98.508 523.387 98.4298 523.643 98.6304C524.045 98.3708 524.445 98.0989 524.843 97.8301C524.192 97.6104 522.993 98.2421 524.084 97.0017L525.409 96.9851C525.507 96.5608 527.246 95.2797 526.936 94.6247C527.579 94.2804 527.776 94.5198 528.335 94.3458C528.685 93.6471 528.938 93.1214 529.7 93.1868C527.257 95.5649 528.091 95.1873 525.887 97.0149C525.924 97.0707 525.989 97.0565 526.07 97.0211C526.203 96.9285 526.346 96.836 526.481 96.7403C526.499 96.7191 526.517 96.7072 526.537 96.6892C526.537 96.6892 526.522 96.7042 526.516 96.7103C528.277 95.5061 530.014 94.2464 531.721 92.9127C531.814 92.5037 531.085 92.6012 530.892 92.3772C532.134 91.069 532.57 92.0419 533.612 90.7425C531.612 91.6636 534.097 89.7765 534.523 88.877C534.442 89.8071 533.971 90.7917 532.778 92.0609C535.429 89.9408 538.009 87.6509 540.507 85.1696C540.212 84.8825 539.915 84.6107 540.087 84.5525L540.717 84.9557C541.194 84.4768 541.673 84.0102 542.14 83.5189C540.421 82.7718 538.685 82.1071 536.938 81.5097C536.895 81.5365 538.104 81.907 536.938 81.5097ZM486.156 82.9412C486.915 82.6144 487.678 82.2876 488.444 81.9915C487.776 82.1943 487.112 82.4033 486.449 82.6185C486.374 82.7213 486.279 82.8239 486.156 82.9412ZM465.618 91.7413C466.07 91.6511 466.272 91.4524 466.404 91.2372C466.14 91.4011 465.877 91.5711 465.618 91.7413ZM465.795 92.5135C466.151 92.0325 465.932 91.7345 465.612 91.7442C464.981 92.1438 464.355 92.5588 463.733 92.9953C464.432 92.5939 465.123 92.3761 465.795 92.5135C466.151 92.0325 465.123 92.3761 465.795 92.5135ZM425.878 226.903C424.926 227.033 423.907 227.171 422.86 227.316C422.581 227.553 422.305 227.784 422.011 228.033C423.153 227.829 424.294 227.635 425.435 227.443C427.437 226.97 429.444 226.533 431.448 226.087C430.759 226.035 428.591 226.383 425.878 226.903C424.926 227.033 428.591 226.383 425.878 226.903ZM421.02 227.571C420.715 227.839 420.406 228.112 420.099 228.383C420.693 228.277 421.296 228.162 421.915 228.053C422.242 227.783 422.533 227.549 422.812 227.324C422.221 227.409 421.625 227.484 421.02 227.571C420.715 227.839 421.625 227.484 421.02 227.571ZM428.456 238.96L429.213 238.875C428.584 238.588 428.074 238.359 427.834 238.25C426.221 238.648 424.611 239.018 422.996 239.355L422.995 239.446C423.805 239.641 424.652 239.849 425.534 240.07C426.316 239.695 428.141 239.147 428.456 238.96ZM429.713 239.098C429.361 239.184 429.063 239.271 428.865 239.344L430.21 239.327C430.037 239.248 429.873 239.171 429.713 239.098C429.361 239.184 429.873 239.171 429.713 239.098ZM422.967 239.437L422.969 239.36C422.91 239.371 422.857 239.386 422.804 239.397C422.857 239.41 422.915 239.424 422.967 239.437C422.968 239.409 422.915 239.424 422.967 239.437ZM448.762 232.815C445.442 234.078 442.06 235.125 438.78 236.579C440.708 235.276 442.777 234.479 444.799 233.57C447.169 232.512 449.558 231.542 451.943 230.607C443.982 233.495 435.981 236.229 427.903 238.233C428.687 238.434 429.386 238.614 429.995 238.784L432.901 238.455C432.293 238.564 431.34 238.741 430.484 238.925C430.955 239.059 431.378 239.186 431.748 239.302L432.448 239.293C432.299 239.324 432.15 239.355 431.999 239.383C433.498 239.872 434.956 240.572 436.447 241.128C438.381 241.845 440.341 242.434 442.292 243.054C439.345 242.257 436.392 241.547 433.431 240.849C433.431 240.849 432.175 240.254 430.837 239.617C429.536 239.873 428.234 240.145 426.933 240.422C435.139 242.496 443.517 244.396 451.511 247.845C452.42 248.238 452.79 248.514 452.671 250.013C452.544 251.657 452.083 253.27 451.604 254.75C450.592 257.895 449.048 261.965 446.815 263.523C445.753 264.267 444.834 263.549 443.785 263.077C441.726 262.153 439.657 261.298 437.573 260.511C433.306 258.904 428.989 257.576 424.642 256.531C424.401 256.518 424.297 256.544 424.371 256.615C424.121 256.501 423.849 256.386 423.529 256.264C419.62 255.371 415.684 254.704 411.754 253.992C412.756 254.427 414.284 254.873 416.735 255.336C414.06 255.117 410.743 254.618 407.312 254.178C404.256 253.996 401.054 254.59 398.185 252.765C397.479 252.128 396.639 251.488 396.507 250.134C396.347 248.89 396.603 247.669 396.917 246.526L397.196 245.562C397.381 244.928 397.566 244.297 397.75 243.666C398.156 242.481 398.674 241.359 399.14 240.218C399.671 239.213 400.205 238.217 400.738 237.222C402.783 234.132 404.947 231.341 407.444 229.065C407.757 228.703 408.076 228.35 408.392 227.994C408.474 227.894 409.836 226 409.804 225.981C409.525 225.811 408.521 227.056 408.314 227.254C407.21 228.335 406.133 229.459 405.087 230.657C402.991 232.91 401.03 235.67 399.401 238.648C402.223 232.798 406.145 228.335 410.023 224.109C414.332 219.42 418.773 215.079 423.31 210.899C427.852 206.71 432.532 202.82 437.195 198.933C441.842 195.059 446.519 191.224 451.301 187.726C457.727 183.03 464.223 178.802 470.941 175.159C471.267 175.097 471.669 175.019 472.073 174.934C472.116 175.213 472.335 175.34 472.695 175.346C475.372 175.175 472.67 183.543 471.937 184.884C471.937 184.884 471.87 185.113 471.77 185.457C471.44 186.481 471.127 187.554 470.695 188.494C471.068 187.612 470.455 188.392 470.216 188.406C470.125 188.401 470.104 188.336 470.161 188.114C469.056 190.236 467.773 191.749 466.066 192.639C464.879 193.255 463.714 193.952 462.559 194.673C459.448 196.614 456.395 198.757 453.363 200.954C446.272 206.094 439.29 211.564 432.357 217.164C434.639 215.954 436.886 214.608 439.087 213.09C433.048 217.391 427.184 222.148 421.426 227.217C422.133 227.091 422.803 226.968 423.401 226.85C423.483 226.787 423.562 226.724 423.644 226.658C423.567 226.721 423.493 226.784 423.419 226.85C425.122 226.506 426.29 226.193 426.419 225.895L427.636 226.434C437.563 223.981 426.241 226.005 429.427 224.636C432.871 223.795 436.309 222.675 439.776 222.068C440.488 221.943 441.824 221.463 442.405 222.35C443.005 223.271 444.244 222.82 444.99 222.677C448.189 221.572 451.383 220.42 454.583 219.281C457.809 217.903 461.137 216.941 464.398 215.748C462.962 215.95 463.78 215.207 464.279 214.759C468.381 214.145 472.185 212.431 476.1 210.556C480.043 208.67 483.981 206.766 487.965 205.095C488.16 204.43 481.324 207.384 480.424 207.151C484.417 205.594 488.405 203.999 492.363 202.252C494.362 201.37 496.354 200.474 498.36 199.629C499.514 199.15 500.821 198.391 502.035 198.385C512.048 192.989 521.712 186.444 531.095 178.935C529.753 179.975 528.4 181.058 526.988 181.876C526.734 182.021 526.239 182.405 525.96 182.195C525.779 182.035 525.659 182.012 525.441 182.072C524.424 182.358 523.425 183.054 522.471 183.626C532.571 177.631 542.011 169.599 550.647 159.767C554.831 154.336 558.762 148.39 561.685 141.335C561.556 141.201 561.244 141.459 560.607 142.196C562.737 136.993 563.477 133.715 564.037 131.745C564.476 129.721 564.771 128.969 564.963 128.21C565.893 124.84 566.1 121.212 565.916 117.624C565.903 116.468 565.739 115.203 565.57 113.781C565.57 113.781 565.649 114.438 565.766 115.424C565.922 116.401 565.924 117.743 566.016 119.081C566.056 120.415 566.005 121.759 565.997 122.764C565.924 123.768 565.88 124.435 565.88 124.435C565.921 123.949 565.977 123.493 566.022 123.046C566.377 117.188 565.697 111.268 564.132 105.914C562.751 101.202 560.413 97.2939 557.678 94.194C557.707 94.2711 557.738 94.3513 557.772 94.4316C558.015 95.061 558.358 95.5756 556.734 93.7546C554.36 90.2903 551.073 88.2318 547.991 86.5385C547.838 86.3489 547.741 86.6812 547.621 86.7925L547.278 87.2645C543.607 92.4709 539.343 97.4555 534.831 100.962L536.916 99.3283C534.07 101.987 531.205 104.576 528.234 106.914C528.147 107.007 528.246 106.954 528.207 107.011C528.027 107.054 527.85 107.1 527.727 107.086C522.112 112.298 515.778 115.904 509.591 119.28C507.894 119.747 506.223 120.707 504.585 121.509C502.152 122.702 499.723 123.876 497.269 124.963C492.425 127.116 487.569 128.986 482.652 130.699C481.656 130.969 480.875 131.139 480.393 131.214C483.967 130.247 487.466 128.846 490.956 127.344L490.138 126.745C482.542 129.646 489.789 127.725 482.423 129.974C482.969 129.16 484.021 128.869 484.731 128.568C486.152 127.956 487.598 127.46 489.049 126.986C492.113 125.976 495.165 124.804 498.153 123.367C495.895 124.06 493.655 124.913 491.426 125.802C491.034 125.933 490.628 126.073 490.211 126.213C490.518 126.08 490.824 125.954 491.129 125.818C490.667 126.012 490.209 126.188 489.75 126.373C489.904 126.318 490.059 126.262 490.211 126.213C486.082 127.792 481.968 129.409 477.773 130.57C478.192 130.66 478.037 130.875 476.666 131.369C474.407 132.034 472.161 132.596 469.876 132.994C467.555 133.401 465.22 133.326 462.893 133.249C460.29 133.534 457.774 133.87 455.288 133.631C454.866 133.715 454.62 133.833 454.289 133.91C453.888 133.949 453.319 134.062 452.071 133.767C451.46 133.557 450.639 133.408 449.658 132.794C448.66 132.292 447.43 131.486 446.115 129.943C446.115 129.943 446.214 130.061 446.382 130.266C446.549 130.462 446.775 130.788 447.09 131.082C447.688 131.745 448.554 132.468 449.45 133.032C450.608 133.907 451.908 134.454 453.18 134.832C449.67 134.586 446.693 132.457 444.606 128.29C444.067 127.131 443.471 125.696 443.015 123.555C444.182 127.479 446.37 130.524 449.021 132.203C449.266 132.192 448.663 131.664 448.626 131.63C448.089 131.124 447.554 130.612 447.048 130.045C446.008 128.884 445.038 127.323 444.465 125.581C444.484 125.631 444.503 125.68 444.53 125.745C444.752 126.267 444.977 126.782 445.241 127.256C445.188 127.111 445.14 126.972 445.097 126.83C441.499 119.511 444.684 108.284 448.465 100.827C448.536 100.675 448.606 100.517 448.654 100.405C448.366 100.902 448.09 101.418 447.816 101.941C450.69 96.1226 454.511 91.2283 458.612 87.393C458.531 87.4161 458.452 87.4485 458.452 87.4485C458.723 87.2203 458.988 87.0166 459.246 86.825C461.407 84.8741 463.673 83.1578 466.005 81.6603C465.378 81.8271 465.678 81.5136 468.456 79.8983C467.092 79.994 465.522 81.2443 464.299 82.0748C462.49 83.3087 460.774 84.6791 459.051 86.1597C457.627 87.29 456.227 88.8774 454.972 90.3845C456.061 89.1441 457.184 87.9626 458.251 86.682C458.536 86.3897 460.095 85.1882 460.111 84.5603C460.113 84.4653 458.214 85.7988 458.076 85.9097C457.513 86.4362 456.826 87.1259 455.996 87.9663C457.489 85.351 462.498 82.2394 466.291 79.603C465.643 80.2046 466.954 79.6575 466.711 80.0241C466.705 79.7941 467.596 79.1172 468.95 78.2798C470.17 77.6208 471.401 77.0295 472.637 76.4413C474.389 75.7641 476.14 75.09 477.919 74.5695C478.739 74.3295 479.559 74.0987 480.383 73.917C480.587 73.8715 481.52 73.5048 481.697 73.7868C479.177 74.5088 476.665 75.3075 474.167 76.2015C474.07 76.4327 475.568 76.1555 475.674 76.1329C476.865 75.8442 478.061 75.5464 479.254 75.2731C498.876 67.9371 518.567 64.3837 538.232 70.5835C538.091 70.1766 536.718 69.3313 539.007 69.7483C540.583 70.1527 542.129 70.7313 543.666 71.3833C544.816 71.8692 546.173 72.2699 546.741 73.9162C547.565 74.3136 548.378 74.7354 549.189 75.1877C552.179 71.186 555.489 67.0396 557.445 61.7419C559.443 56.3377 559.407 49.8744 557.081 44.796C554.732 39.6713 550.824 36.0943 546.981 33.8667C544.658 32.5176 542.237 31.5744 539.835 30.5947C537.343 29.5828 534.894 28.4153 532.367 27.6112C531.233 27.2512 530.088 26.937 528.945 26.6627C528.802 26.7767 529.135 27.0307 530.089 27.4794C524.442 26.2959 527.154 26.5579 527.827 26.4041C525.085 25.8169 522.32 25.4529 519.557 25.2422C519.209 25.4107 518.752 25.6111 521.664 25.9654C520.393 25.9401 519.115 25.8902 517.846 25.7301C517.128 25.6379 516.363 25.5724 515.723 25.0495C510.562 24.9224 505.37 25.3771 500.209 26.3685C499.184 26.6969 498.322 27.0587 497.699 27.3879C493.103 28.4598 490.628 29.0508 489.174 29.3134C486.519 30.22 483.883 31.2525 481.272 32.4295C482.548 32.0014 483.363 31.8992 483.217 32.3471C479.603 33.2736 476.136 35.0271 472.68 36.8359C467.979 39.6555 463.366 42.6974 458.895 46.2719C456.654 48.059 454.448 49.9632 452.29 51.9632C451.259 52.9197 450.237 53.9007 449.225 54.9065C448.803 55.3251 448.037 56.4976 447.439 56.2512C446.605 55.9118 446.812 53.4272 446.875 52.5365C447.008 50.7064 447.319 48.7446 447.964 47.1379C448.301 46.295 448.767 45.8649 449.312 45.3198C450.353 44.2778 451.405 43.2604 452.473 42.2648C454.51 40.3577 456.591 38.5432 458.703 36.8212C475.557 23.0968 494.526 15.4889 513.643 14.4381C520.669 14.0523 527.683 14.8768 534.558 16.9275C538.009 17.9531 541.42 19.2845 544.766 20.8935C547.966 22.4326 551.17 24.1035 553.997 26.8281C553.992 26.825 553.99 26.8188 553.987 26.8157C555.808 28.3674 557.651 30.37 558.726 33.1038C559.909 35.2971 560.845 37.7435 561.498 40.4331C561.121 37.9444 560.781 35.9191 559.892 33.6421C561.386 37.1738 561.827 39.7341 562.101 41.6724C562.214 42.655 562.275 43.5049 562.331 44.324C562.332 44.7009 562.343 45.0719 562.347 45.4489C562.618 48.0828 562.662 50.7526 562.472 53.4122C562.533 53.6614 562.654 53.351 562.715 53.6462C562.649 54.2549 562.586 54.8268 562.528 55.3651C562.314 56.7097 562.022 58.105 561.665 59.3796C561.649 59.4314 561.633 59.474 561.617 59.5228C560.188 66.4078 557.316 72.4004 553.937 77.7682C553.877 77.8836 553.81 77.9927 553.745 78.1019C553.754 78.1389 553.807 78.1582 553.841 78.1894C557.999 81.5992 561.856 85.4725 564.814 91.0645C568.107 97.2844 569.716 104.74 569.908 112.644C570.04 114.435 570.133 115.623 570.226 116.06C570.14 116.328 570.047 116.771 569.938 117.385C569.909 117.58 569.878 117.806 569.844 118.03C569.642 122.344 569.114 126.624 568.336 130.8C567.566 134.951 566.441 138.844 565.354 142.83C564.654 145.147 563.835 147.667 562.846 149.752C562.062 151.558 561.543 152.762 561.543 152.762C561.018 154.828 562.102 152.591 563.686 149.12C564.362 147.284 565.215 145.172 565.924 143.055C566.564 140.884 567.262 138.837 567.748 137.215C566.277 143.018 564.354 148.497 561.721 153.36C558.943 158.484 555.742 163.122 552.433 167.486C551.996 167.991 551.557 168.498 551.118 169.005C547.829 173.222 544.267 177.085 540.564 180.652C540.791 180.472 541.009 180.282 541.238 180.106C539.257 181.971 537.291 183.864 535.433 185.983C533.717 187.935 531.67 189.389 529.726 190.746C530.809 189.701 532.167 188.328 533.709 186.82C529.199 190.629 524.615 194.079 520.196 197.247C518.854 198.299 518.29 198.872 519.412 198.471C516.707 200.404 513.844 202.462 510.929 203.6C508.53 205.145 506.107 206.635 503.663 208.063C504.053 207.91 509.6 205.308 509.6 205.302C509.653 205.732 506.661 207.509 506.457 207.649C504.157 208.783 501.835 209.808 499.508 210.84C497.601 212.526 495.273 213.45 493.209 214.628C492.021 215.324 490.823 215.977 489.635 216.683C489.529 216.748 488.043 217.746 488.19 217.862C484.284 219.623 483.576 219.509 480.366 220.706C477.443 222.442 474.474 223.796 471.371 224.563C480.044 220.842 488.569 216.468 497.048 211.857C496.955 211.856 496.753 211.929 496.481 212.047C484.619 218.329 472.489 223.088 460.284 227.563C459.103 228.305 463.162 227.245 463.81 227.333C455.116 230.858 454.492 229.824 446.857 232.929C452.84 231.14 451.789 231.637 448.762 232.815C447.247 233.393 451.789 231.637 448.762 232.815Z" fill="#DE7A7C"/>
</g>
<rect x="122.712" y="379" width="328.449" height="18.9737" transform="rotate(2.15194 122.712 379)" fill="#96DCDC"/>
<path d="M167.14 363.8L158.896 389H152.632L147.088 371.936L141.364 389H135.136L126.856 363.8H132.904L138.592 381.512L144.532 363.8H149.932L155.692 381.656L161.56 363.8H167.14Z" fill="#4D4E4E"/>
<path d="M182.3 369.344C184.7 369.344 186.632 370.064 188.096 371.504C189.584 372.944 190.328 375.08 190.328 377.912V389H184.712V378.776C184.712 377.24 184.376 376.1 183.704 375.356C183.032 374.588 182.06 374.204 180.788 374.204C179.372 374.204 178.244 374.648 177.404 375.536C176.564 376.4 176.144 377.696 176.144 379.424V389H170.528V362.288H176.144V371.648C176.888 370.904 177.788 370.34 178.844 369.956C179.9 369.548 181.052 369.344 182.3 369.344Z" fill="#4D4E4E"/>
<path d="M203.23 369.344C206.23 369.344 208.534 370.064 210.142 371.504C211.75 372.92 212.554 375.068 212.554 377.948V389H207.298V386.588C206.242 388.388 204.274 389.288 201.394 389.288C199.906 389.288 198.61 389.036 197.506 388.532C196.426 388.028 195.598 387.332 195.022 386.444C194.446 385.556 194.158 384.548 194.158 383.42C194.158 381.62 194.83 380.204 196.174 379.172C197.542 378.14 199.642 377.624 202.474 377.624H206.938C206.938 376.4 206.566 375.464 205.822 374.816C205.078 374.144 203.962 373.808 202.474 373.808C201.442 373.808 200.422 373.976 199.414 374.312C198.43 374.624 197.59 375.056 196.894 375.608L194.878 371.684C195.934 370.94 197.194 370.364 198.658 369.956C200.146 369.548 201.67 369.344 203.23 369.344ZM202.798 385.508C203.758 385.508 204.61 385.292 205.354 384.86C206.098 384.404 206.626 383.744 206.938 382.88V380.9H203.086C200.782 380.9 199.63 381.656 199.63 383.168C199.63 383.888 199.906 384.464 200.458 384.896C201.034 385.304 201.814 385.508 202.798 385.508Z" fill="#4D4E4E"/>
<path d="M230.129 388.064C229.577 388.472 228.893 388.784 228.077 389C227.285 389.192 226.445 389.288 225.557 389.288C223.253 389.288 221.465 388.7 220.193 387.524C218.945 386.348 218.321 384.62 218.321 382.34V374.384H215.333V370.064H218.321V365.348H223.937V370.064H228.761V374.384H223.937V382.268C223.937 383.084 224.141 383.72 224.549 384.176C224.981 384.608 225.581 384.824 226.349 384.824C227.237 384.824 227.993 384.584 228.617 384.104L230.129 388.064Z" fill="#4D4E4E"/>
<path d="M262.701 369.632L253.953 390.188C253.065 392.42 251.961 393.992 250.641 394.904C249.345 395.816 247.773 396.272 245.925 396.272C244.917 396.272 243.921 396.116 242.937 395.804C241.953 395.492 241.149 395.06 240.525 394.508L242.577 390.512C243.009 390.896 243.501 391.196 244.053 391.412C244.629 391.628 245.193 391.736 245.745 391.736C246.513 391.736 247.137 391.544 247.617 391.16C248.097 390.8 248.529 390.188 248.913 389.324L248.985 389.144L240.597 369.632H246.393L251.829 382.772L257.301 369.632H262.701Z" fill="#4D4E4E"/>
<path d="M273.681 389.288C271.641 389.288 269.805 388.868 268.173 388.028C266.565 387.164 265.305 385.976 264.393 384.464C263.481 382.952 263.025 381.236 263.025 379.316C263.025 377.396 263.481 375.68 264.393 374.168C265.305 372.656 266.565 371.48 268.173 370.64C269.805 369.776 271.641 369.344 273.681 369.344C275.721 369.344 277.545 369.776 279.153 370.64C280.761 371.48 282.021 372.656 282.933 374.168C283.845 375.68 284.301 377.396 284.301 379.316C284.301 381.236 283.845 382.952 282.933 384.464C282.021 385.976 280.761 387.164 279.153 388.028C277.545 388.868 275.721 389.288 273.681 389.288ZM273.681 384.68C275.121 384.68 276.297 384.2 277.209 383.24C278.145 382.256 278.613 380.948 278.613 379.316C278.613 377.684 278.145 376.388 277.209 375.428C276.297 374.444 275.121 373.952 273.681 373.952C272.241 373.952 271.053 374.444 270.117 375.428C269.181 376.388 268.713 377.684 268.713 379.316C268.713 380.948 269.181 382.256 270.117 383.24C271.053 384.2 272.241 384.68 273.681 384.68Z" fill="#4D4E4E"/>
<path d="M307.567 369.632V389H302.239V386.696C301.495 387.536 300.607 388.184 299.575 388.64C298.543 389.072 297.427 389.288 296.227 389.288C293.683 389.288 291.667 388.556 290.179 387.092C288.691 385.628 287.947 383.456 287.947 380.576V369.632H293.563V379.748C293.563 382.868 294.871 384.428 297.487 384.428C298.831 384.428 299.911 383.996 300.727 383.132C301.543 382.244 301.951 380.936 301.951 379.208V369.632H307.567Z" fill="#4D4E4E"/>
<path d="M314.93 362C315.938 362 316.766 362.324 317.414 362.972C318.062 363.596 318.386 364.424 318.386 365.456C318.386 365.936 318.326 366.416 318.206 366.896C318.086 367.376 317.834 368.096 317.45 369.056L315.362 374.24H311.798L313.346 368.552C312.746 368.288 312.278 367.892 311.942 367.364C311.606 366.836 311.438 366.2 311.438 365.456C311.438 364.424 311.762 363.596 312.41 362.972C313.082 362.324 313.922 362 314.93 362Z" fill="#4D4E4E"/>
<path d="M322.192 362.288H327.808V389H322.192V362.288Z" fill="#4D4E4E"/>
<path d="M333.02 362.288H338.636V389H333.02V362.288Z" fill="#4D4E4E"/>
<path d="M354.043 362.288H359.659V389H354.043V362.288Z" fill="#4D4E4E"/>
<path d="M383.843 379.388C383.843 379.46 383.807 379.964 383.735 380.9H369.083C369.347 382.1 369.971 383.048 370.955 383.744C371.939 384.44 373.163 384.788 374.627 384.788C375.635 384.788 376.523 384.644 377.291 384.356C378.083 384.044 378.815 383.564 379.487 382.916L382.475 386.156C380.651 388.244 377.987 389.288 374.483 389.288C372.299 389.288 370.367 388.868 368.687 388.028C367.007 387.164 365.711 385.976 364.799 384.464C363.887 382.952 363.431 381.236 363.431 379.316C363.431 377.42 363.875 375.716 364.763 374.204C365.675 372.668 366.911 371.48 368.471 370.64C370.055 369.776 371.819 369.344 373.763 369.344C375.659 369.344 377.375 369.752 378.911 370.568C380.447 371.384 381.647 372.56 382.511 374.096C383.399 375.608 383.843 377.372 383.843 379.388ZM373.799 373.592C372.527 373.592 371.459 373.952 370.595 374.672C369.731 375.392 369.203 376.376 369.011 377.624H378.551C378.359 376.4 377.831 375.428 376.967 374.708C376.103 373.964 375.047 373.592 373.799 373.592Z" fill="#4D4E4E"/>
<path d="M394.867 369.344C397.867 369.344 400.171 370.064 401.779 371.504C403.387 372.92 404.191 375.068 404.191 377.948V389H398.935V386.588C397.879 388.388 395.911 389.288 393.031 389.288C391.543 389.288 390.247 389.036 389.143 388.532C388.063 388.028 387.235 387.332 386.659 386.444C386.083 385.556 385.795 384.548 385.795 383.42C385.795 381.62 386.467 380.204 387.811 379.172C389.179 378.14 391.279 377.624 394.111 377.624H398.575C398.575 376.4 398.203 375.464 397.459 374.816C396.715 374.144 395.599 373.808 394.111 373.808C393.079 373.808 392.059 373.976 391.051 374.312C390.067 374.624 389.227 375.056 388.531 375.608L386.515 371.684C387.571 370.94 388.831 370.364 390.295 369.956C391.783 369.548 393.307 369.344 394.867 369.344ZM394.435 385.508C395.395 385.508 396.247 385.292 396.991 384.86C397.735 384.404 398.263 383.744 398.575 382.88V380.9H394.723C392.419 380.9 391.267 381.656 391.267 383.168C391.267 383.888 391.543 384.464 392.095 384.896C392.671 385.304 393.451 385.508 394.435 385.508Z" fill="#4D4E4E"/>
<path d="M414.638 372.188C415.31 371.252 416.21 370.544 417.338 370.064C418.49 369.584 419.81 369.344 421.298 369.344V374.528C420.674 374.48 420.254 374.456 420.038 374.456C418.43 374.456 417.17 374.912 416.258 375.824C415.346 376.712 414.89 378.056 414.89 379.856V389H409.274V369.632H414.638V372.188Z" fill="#4D4E4E"/>
<path d="M436.409 369.344C438.809 369.344 440.741 370.064 442.205 371.504C443.693 372.944 444.437 375.08 444.437 377.912V389H438.821V378.776C438.821 377.24 438.485 376.1 437.813 375.356C437.141 374.588 436.169 374.204 434.897 374.204C433.481 374.204 432.353 374.648 431.513 375.536C430.673 376.4 430.253 377.696 430.253 379.424V389H424.637V369.632H430.001V371.9C430.745 371.084 431.669 370.46 432.773 370.028C433.877 369.572 435.089 369.344 436.409 369.344Z" fill="#4D4E4E"/>
<path d="M276.745 245.429C275.756 245.508 274.824 245.491 273.997 245.338C266.019 243.375 265.54 241.001 267.679 238.342C269.877 236.289 271.728 237.334 273.575 239.592C275.241 241.751 276.116 243.463 276.745 245.429ZM303.89 245.744C304.344 244.656 304.854 243.614 305.514 242.793C308.401 238.805 312.215 238.626 313.039 240.262C314.147 242.458 308.557 245.82 304.545 245.721C304.321 245.747 304.109 245.735 303.89 245.744ZM332.948 248.825C330.472 259.712 322.032 266.659 316.53 276.071C313.909 280.547 313.167 290.047 308.092 292.342C306.151 293.217 303.055 293.404 299.91 293.379C299.133 279.593 298.453 264.148 302.233 250.794C302.307 250.535 302.389 250.245 302.465 249.976C309.053 250.467 320.893 248.561 319.272 239.757C317.572 230.526 308.234 232.364 303.723 237.865C302.049 239.904 300.706 242.222 299.578 244.707C299.499 244.665 299.42 244.636 299.34 244.591C297.604 244.051 295.34 243.151 293.288 241.915C293.325 241.881 293.368 241.847 293.402 241.813C298.561 236.829 301.318 226.794 292.949 222.662C287.2 219.825 282.097 227.311 282.545 232.594C282.834 235.982 284.443 239.146 286.778 241.824C284.925 242.994 282.876 243.937 280.859 244.574C280.533 243.591 280.176 242.62 279.788 241.671C277.522 236.121 270.019 228.589 263.868 234.585C260.335 238.027 262.27 244.173 265.698 246.951C269.05 249.666 273.391 250.245 277.76 249.564C277.782 249.669 277.802 249.76 277.822 249.868C280.61 263.566 279.879 278.746 280.567 292.731C278.845 292.561 277.145 292.336 275.541 291.964C271.271 290.979 271.28 293.112 268.571 287.349C267.526 285.128 267.775 282.404 266.608 280.098C263.806 274.554 257.785 270.365 254.36 265.162C250.473 259.257 246.438 251.822 244.996 244.812C239.086 216.147 265.166 192.014 292.215 191.344C306.744 190.983 321.544 199.731 328.616 212.54C335.133 224.343 335.841 236.113 332.948 248.825ZM303.273 312.572C299.833 312.771 296.394 312.984 292.951 313.152C291.455 313.225 267.704 314.035 270.9 309.633C270.926 309.596 270.923 309.562 270.946 309.528C277.76 311.016 287.203 310.678 290.061 310.709C293.26 310.746 304.199 311.672 311.518 309.971C313.628 311.729 302.669 312.606 303.273 312.572ZM293.892 319.562C292.781 320.138 290.586 320.17 289.37 320.187C288.747 320.198 288.036 320.249 287.438 320.045C287.336 320.008 287.308 320.03 287.274 320.047C287.265 319.979 287.262 319.928 287.208 319.772C286.996 319.161 286.857 318.463 286.744 317.764C290.067 317.676 293.022 317.471 294.932 317.332C294.867 317.693 294.852 318.059 294.756 318.42C294.399 319.738 294.748 319.119 293.892 319.562ZM268.838 302.882C274.207 304.963 283.602 304.205 287.869 304.424C294.759 304.779 306.251 306.523 313.234 303.609C311.294 307.207 294.223 306.489 291.727 306.46C288.554 306.426 285.392 306.423 282.222 306.304C281.735 306.287 268.968 305.801 268.838 302.882ZM291.243 297.386C296.122 297.324 305.981 298.664 311.971 296.301C315.98 300.303 294.583 300.433 291.421 300.314C287.265 300.161 283.123 299.922 278.983 299.51C278.318 299.442 265.543 298.266 270.45 295.725C276.595 298.241 285.928 297.38 291.243 297.386ZM288.268 236.383C286.256 231.938 285.908 229.163 288.973 227.34C291.781 227.215 293.195 228.43 293.22 230.986C294.11 233.943 292.609 236.888 290.016 239.348C289.203 238.459 288.58 237.473 288.268 236.383ZM281.99 248.541C284.803 247.61 287.486 246.244 289.792 244.687C292.246 246.661 295.073 248.181 297.901 249.078C293.475 262.856 294.906 280.592 295.646 293.251C293.971 293.183 292.424 293.112 291.243 293.126C289.189 293.123 287.016 293.1 284.831 293.018C284.143 279.138 285.489 262.594 281.99 248.541ZM265.894 193.934C247.976 203.829 235.663 227.161 241.457 247.627C243.551 255.022 247.308 262.509 251.654 268.789C253.447 271.382 255.553 273.606 257.527 276.045C262.092 281.669 262.585 285.642 265.242 291.223C265.605 291.987 266.104 292.64 266.665 293.234C264.786 295.017 263.908 297.718 265.231 300.05C262.191 304.097 263.511 306.616 266.778 308.181C261.845 315.918 272.436 317.67 282.46 317.798C282.636 319.289 282.865 320.865 283.48 322.115C284.517 324.225 287.293 324.478 289.37 324.447C291.64 324.413 294.813 324.191 296.79 322.993C298.66 321.859 299.156 319.38 299.346 317.187C304.667 317.267 312.597 317.801 315.841 314.575C318.116 312.317 317.552 310.104 315.952 308.267C318.414 306.704 319.32 304.293 317.303 300.601C318.623 298.477 317.864 296.028 315.541 293.807C315.614 293.717 315.708 293.637 315.773 293.54C316.632 292.314 316.787 290.777 317.11 289.343C318.796 281.836 316.728 285.631 319.796 279.814C321.06 277.426 322.36 276.099 323.683 273.989C326.806 269.002 331.18 264.705 334.011 259.606C343.519 242.458 339.768 217.158 326.976 202.934C311.195 185.379 286.239 182.704 265.894 193.934Z" fill="#4D4E4E"/>
<path d="M356.752 197.854C351.579 200.2 346.28 202.376 341.642 205.716C339.444 207.3 341.563 210.998 343.79 209.396C348.425 206.056 353.723 203.881 358.897 201.532C361.384 200.402 359.226 196.729 356.752 197.854Z" fill="#4D4E4E"/>
<path d="M321.677 186.183C325.213 181.641 327.921 176.688 330.723 171.675C332.061 169.281 328.392 167.131 327.054 169.525C324.442 174.197 321.969 178.935 318.671 183.169C317.008 185.308 319.997 188.341 321.677 186.183Z" fill="#4D4E4E"/>
<path d="M291.203 176.297C291.574 170.89 291.747 165.479 291.718 160.057C291.704 157.317 287.454 157.311 287.469 160.057C287.497 165.479 287.324 170.89 286.953 176.297C286.763 179.035 291.013 179.021 291.203 176.297Z" fill="#4D4E4E"/>
<path d="M257.976 186.182C259.489 188.451 263.172 186.318 261.645 184.032C258.393 179.164 254.718 174.35 252.636 168.826C251.678 166.287 247.567 167.389 248.536 169.959C250.768 175.872 254.491 180.965 257.976 186.182Z" fill="#4D4E4E"/>
<path d="M222.548 196.845C220.009 195.826 218.907 199.944 221.42 200.952C226.503 202.991 231.226 205.695 235.634 208.947C237.836 210.575 239.958 206.877 237.776 205.266C233.062 201.787 227.982 199.024 222.548 196.845Z" fill="#4D4E4E"/>
<path d="M265.057 204.36C256.815 211.06 251.242 220.14 248.936 230.523C248.344 233.193 252.441 234.335 253.035 231.653C255.197 221.92 260.342 213.647 268.063 207.37C270.188 205.643 267.165 202.644 265.057 204.36Z" fill="#4D4E4E"/>
<path d="M271.429 200.186C268.695 200.186 268.689 204.446 271.429 204.446C274.163 204.446 274.166 200.186 271.429 200.186Z" fill="#4D4E4E"/>
<defs>
<clipPath id="clip0_246:877">
<rect width="250.745" height="206.007" fill="white" transform="matrix(-0.0174863 0.999847 0.999847 0.0174863 383.385 12)"/>
</clipPath>
</defs>
</svg>
