<svg width="567" height="312" viewBox="0 0 567 312" fill="none" xmlns="http://www.w3.org/2000/svg">
<mask id="mask0_246:873" style="mask-type:alpha" maskUnits="userSpaceOnUse" x="0" y="0" width="567" height="312">
<rect width="567" height="312" fill="#C4C4C4"/>
</mask>
<g mask="url(#mask0_246:873)">
<rect x="200" y="262.33" width="164.438" height="18.9737" transform="rotate(-3.95069 200 262.33)" fill="#EEA562"/>
<path d="M228.281 259L228.245 243.88L220.829 256.336H218.201L210.821 244.204V259H205.349V233.8H210.173L219.605 249.46L228.893 233.8H233.681L233.753 259H228.281Z" fill="#4D4E4E"/>
<path d="M248.552 259.288C246.512 259.288 244.676 258.868 243.044 258.028C241.436 257.164 240.176 255.976 239.264 254.464C238.352 252.952 237.896 251.236 237.896 249.316C237.896 247.396 238.352 245.68 239.264 244.168C240.176 242.656 241.436 241.48 243.044 240.64C244.676 239.776 246.512 239.344 248.552 239.344C250.592 239.344 252.416 239.776 254.024 240.64C255.632 241.48 256.892 242.656 257.804 244.168C258.716 245.68 259.172 247.396 259.172 249.316C259.172 251.236 258.716 252.952 257.804 254.464C256.892 255.976 255.632 257.164 254.024 258.028C252.416 258.868 250.592 259.288 248.552 259.288ZM248.552 254.68C249.992 254.68 251.168 254.2 252.08 253.24C253.016 252.256 253.484 250.948 253.484 249.316C253.484 247.684 253.016 246.388 252.08 245.428C251.168 244.444 249.992 243.952 248.552 243.952C247.112 243.952 245.924 244.444 244.988 245.428C244.052 246.388 243.584 247.684 243.584 249.316C243.584 250.948 244.052 252.256 244.988 253.24C245.924 254.2 247.112 254.68 248.552 254.68Z" fill="#4D4E4E"/>
<path d="M282.654 232.288V259H277.29V256.768C275.898 258.448 273.882 259.288 271.242 259.288C269.418 259.288 267.762 258.88 266.274 258.064C264.81 257.248 263.658 256.084 262.818 254.572C261.978 253.06 261.558 251.308 261.558 249.316C261.558 247.324 261.978 245.572 262.818 244.06C263.658 242.548 264.81 241.384 266.274 240.568C267.762 239.752 269.418 239.344 271.242 239.344C273.714 239.344 275.646 240.124 277.038 241.684V232.288H282.654ZM272.214 254.68C273.63 254.68 274.806 254.2 275.742 253.24C276.678 252.256 277.146 250.948 277.146 249.316C277.146 247.684 276.678 246.388 275.742 245.428C274.806 244.444 273.63 243.952 272.214 243.952C270.774 243.952 269.586 244.444 268.65 245.428C267.714 246.388 267.246 247.684 267.246 249.316C267.246 250.948 267.714 252.256 268.65 253.24C269.586 254.2 270.774 254.68 272.214 254.68Z" fill="#4D4E4E"/>
<path d="M307.364 239.632V259H302.036V256.696C301.292 257.536 300.404 258.184 299.372 258.64C298.34 259.072 297.224 259.288 296.024 259.288C293.48 259.288 291.464 258.556 289.976 257.092C288.488 255.628 287.744 253.456 287.744 250.576V239.632H293.36V249.748C293.36 252.868 294.668 254.428 297.284 254.428C298.628 254.428 299.708 253.996 300.524 253.132C301.34 252.244 301.748 250.936 301.748 249.208V239.632H307.364Z" fill="#4D4E4E"/>
<path d="M312.566 232.288H318.182V259H312.566V232.288Z" fill="#4D4E4E"/>
<path d="M342.367 249.388C342.367 249.46 342.331 249.964 342.259 250.9H327.607C327.871 252.1 328.495 253.048 329.479 253.744C330.463 254.44 331.687 254.788 333.151 254.788C334.159 254.788 335.047 254.644 335.815 254.356C336.607 254.044 337.339 253.564 338.011 252.916L340.999 256.156C339.175 258.244 336.511 259.288 333.007 259.288C330.823 259.288 328.891 258.868 327.211 258.028C325.531 257.164 324.235 255.976 323.323 254.464C322.411 252.952 321.955 251.236 321.955 249.316C321.955 247.42 322.399 245.716 323.287 244.204C324.199 242.668 325.435 241.48 326.995 240.64C328.579 239.776 330.343 239.344 332.287 239.344C334.183 239.344 335.899 239.752 337.435 240.568C338.971 241.384 340.171 242.56 341.035 244.096C341.923 245.608 342.367 247.372 342.367 249.388ZM332.323 243.592C331.051 243.592 329.983 243.952 329.119 244.672C328.255 245.392 327.727 246.376 327.535 247.624H337.075C336.883 246.4 336.355 245.428 335.491 244.708C334.627 243.964 333.571 243.592 332.323 243.592Z" fill="#4D4E4E"/>
<path d="M352.621 259.288C351.013 259.288 349.441 259.096 347.905 258.712C346.369 258.304 345.145 257.8 344.233 257.2L346.105 253.168C346.969 253.72 348.013 254.176 349.237 254.536C350.461 254.872 351.661 255.04 352.837 255.04C355.213 255.04 356.401 254.452 356.401 253.276C356.401 252.724 356.077 252.328 355.429 252.088C354.781 251.848 353.785 251.644 352.441 251.476C350.857 251.236 349.549 250.96 348.517 250.648C347.485 250.336 346.585 249.784 345.817 248.992C345.073 248.2 344.701 247.072 344.701 245.608C344.701 244.384 345.049 243.304 345.745 242.368C346.465 241.408 347.497 240.664 348.841 240.136C350.209 239.608 351.817 239.344 353.665 239.344C355.033 239.344 356.389 239.5 357.733 239.812C359.101 240.1 360.229 240.508 361.117 241.036L359.245 245.032C357.541 244.072 355.681 243.592 353.665 243.592C352.465 243.592 351.565 243.76 350.965 244.096C350.365 244.432 350.065 244.864 350.065 245.392C350.065 245.992 350.389 246.412 351.037 246.652C351.685 246.892 352.717 247.12 354.133 247.336C355.717 247.6 357.013 247.888 358.021 248.2C359.029 248.488 359.905 249.028 360.649 249.82C361.393 250.612 361.765 251.716 361.765 253.132C361.765 254.332 361.405 255.4 360.685 256.336C359.965 257.272 358.909 258.004 357.517 258.532C356.149 259.036 354.517 259.288 352.621 259.288Z" fill="#4D4E4E"/>
<path d="M62.573 147.856C63.332 149.195 64.0109 150.482 64.6073 151.69C65.737 152.984 65.7119 152.444 65.1978 151.459C63.8103 149.483 62.449 147.481 61.116 145.444C61.6134 146.238 62.1048 147.036 62.573 147.856C63.332 149.195 62.1202 147.068 62.573 147.856ZM67.0847 154.109C66.4654 153.253 65.8518 152.389 65.2413 151.525C66.0916 152.936 66.6298 153.62 67.0847 154.109ZM125.27 207.335C127.124 208.167 128.979 209.002 130.846 209.803C128.788 208.869 126.737 207.918 124.702 206.916C124.418 206.841 124.082 206.74 123.674 206.61C123.674 206.61 124.31 206.903 125.27 207.335C126.23 207.766 124.31 206.903 125.27 207.335ZM130.025 175.308C128.253 172.923 128.825 174.03 127.778 172.925C128.561 174.006 129.353 175.077 130.157 176.137L130.025 175.308ZM15.895 20.6434C16.0101 20.4473 16.1583 20.4144 16.2859 20.2903C16.1216 18.912 15.9603 17.5334 15.8212 16.1563C15.772 15.6653 15.6212 15.1268 15.9115 14.7391C16.3601 14.1449 17.1963 14.0254 17.8117 13.9351C20.037 13.6112 22.4228 13.9713 24.6093 14.7177C26.076 15.2212 28.7153 16.2505 28.9413 18.5873C29.5349 24.7375 30.4299 30.8448 31.5408 36.9C31.6553 36.9499 31.7232 36.6814 31.7288 35.953C32.6239 40.1126 31.9761 38.0286 31.6821 37.6887C32.0505 39.674 32.4539 41.663 32.8692 43.6443C33.056 43.8373 33.2667 44.0516 32.9087 42.0055C33.8482 45.3403 33.6631 45.8517 33.4473 46.3358C34.2551 50.0012 35.1305 53.6473 36.0635 57.2685C36.3492 57.9449 36.6213 58.5028 36.8547 58.9045C37.6788 62.143 38.0294 63.9238 38.1514 64.9967C38.6773 66.8752 39.2177 68.7392 39.7698 70.5922C39.6079 69.6757 39.587 69.0759 39.8867 69.1195C40.8073 75.4108 43.0883 81.4934 45.1421 87.3534C47.4664 93.9674 49.9956 100.514 52.7313 106.902C58.1088 119.432 64.2387 131.53 71.1881 142.813C76.4097 151.284 82.1195 159.291 88.2662 166.715L88.2594 166.709C90.1736 168.589 90.6567 169.365 90.9923 169.964C91.8324 170.934 92.6926 171.883 93.5532 172.835C92.9359 171.748 92.5524 170.781 91.9193 169.766C93.828 172.269 94.3632 173.352 95.0638 174.527C95.845 175.363 96.6462 176.177 97.4387 176.999C97.6535 177.08 97.5819 176.8 97.7401 176.81C98.4802 177.716 98.9934 178.439 99.4437 179.091C101.649 181.238 103.827 183.435 106.064 185.526C106.099 185.49 106.451 185.805 107.848 187.172C112.04 190.984 116.367 194.551 120.915 197.614C121.669 197.957 122.189 198.108 122.401 198.086C122.481 198.315 122.696 198.619 123.021 198.986C125.362 200.457 127.718 201.776 130.1 202.994C132.207 203.911 134.313 204.844 136.443 205.671C136.958 205.62 136.714 205.349 136.382 205.148C135.72 204.737 135.012 204.45 134.328 204.118C132.918 203.43 131.474 202.791 130.132 201.885C134.493 203.914 135.274 204.358 136.493 205.119L134.999 203.59L134.403 202.459L136.796 205.312C137.076 205.493 137.396 205.691 137.778 205.927C136.993 205.005 136.148 203.946 135.319 202.888C133.421 200.863 131.528 198.831 129.637 196.79C129.753 196.959 129.871 197.118 129.981 197.298C126.187 192.82 127.412 195.711 123.913 190.928C124.508 191.461 125.289 192.084 126.135 192.831C123.977 190.324 121.864 187.75 119.82 185.106C119.187 184.38 118.858 184.14 119.124 184.951C117.336 182.504 116.144 180.564 115.794 179.694C114.795 178.309 113.804 176.91 112.831 175.493C113.834 177.678 116.323 181.496 113.16 177.534L112.035 175.396C111.636 174.643 111.237 173.893 110.666 173.225L110.733 172.917C110.638 172.839 110.486 172.649 110.29 172.381C110.082 172.133 109.842 171.718 109.938 171.201C110.156 169.84 111.13 168.777 111.909 167.922C112.107 167.708 114.061 165.716 113.862 165.568C115.309 164.654 116.831 164.238 118.428 163.896C119.993 163.078 122.195 162.627 123.351 164.799C123.56 165.143 123.735 165.523 123.918 165.89C123.608 165.468 123.359 165.137 123.217 164.96C121.765 162.787 119.179 163.664 117.481 164.514C115.506 165.504 113.595 166.974 111.976 168.69C111.433 169.319 110.706 170.008 110.339 171.22C110.4 171.151 110.484 170.968 110.602 170.735C111.272 169.357 112.491 168.356 113.549 167.526C115.015 166.371 116.615 165.407 118.298 164.821C119.459 164.414 121.086 163.98 122.198 164.966C123.135 165.788 123.862 167.34 124.606 168.429C125.602 169.884 126.614 171.318 127.638 172.737C128.07 173.069 127.495 171.849 127.447 171.737C127.247 171.283 126.919 170.736 126.849 170.224C128.097 171.936 129.291 173.637 130.406 175.484C131.352 177.057 132.319 178.508 133.519 179.782C132.318 178.132 131.896 177.375 131.9 177.275C131.892 177.332 132.925 178.382 133.015 178.477C133.511 179.042 134.005 179.61 134.498 180.179C135.467 181.291 136.427 182.48 137.488 183.454C134.865 182.108 132.445 179.055 130.467 176.545C136.95 185.083 144.096 192.596 151.217 200.25C153.773 202.995 156.825 205.009 159.236 207.966C160.153 209.092 161.622 211.101 160.886 212.761C159.972 214.808 157.715 216.175 156.104 217.157L157.573 217.79L155.359 217.601C153.293 218.732 151.103 219.428 148.851 219.881C148.807 219.921 148.81 219.954 148.876 219.982C148.764 219.968 148.637 219.956 148.498 219.948C146.253 220.373 143.945 220.572 141.609 220.716C142.214 220.905 143.115 220.986 144.522 220.877C141.048 221.755 137.415 221.919 133.851 221.951C130.165 221.98 126.329 221.777 122.683 220.719C122.471 220.704 122.257 220.697 122.044 220.679C117.923 221.022 125.937 221.828 128.451 222.323C120.28 222.355 112.063 221.653 103.895 220.814C96.2341 220.023 88.5838 218.993 80.971 217.454C80.7898 216.316 79.2229 216.466 76.8621 215.13L75.3137 215.132C75.8113 215.135 75.037 214.595 75.31 214.368C72.2685 213.6 69.2372 212.731 66.2335 211.711C64.5694 211.145 65.6127 209.648 66.4301 208.662C69.0028 205.576 73.1149 202.707 76.8201 203.797C75.4726 202.927 73.9984 202.733 72.5496 203.083C73.6438 202.817 74.77 202.666 75.8971 202.814C77.5225 203.117 79.1305 203.798 80.7388 204.265C82.3184 204.729 83.9163 205.042 85.5077 205.388C88.6814 206.085 91.8672 206.668 95.0341 207.432C94.4514 206.994 93.6623 206.86 93.0219 206.663C91.7417 206.276 90.4619 205.893 89.182 205.546C87.1422 205.003 85.1307 204.314 83.0906 203.768C84.9841 204.257 86.8795 204.77 88.7777 205.206C89.5547 205.38 90.3348 205.555 91.1154 205.663C91.3514 205.699 92.1423 205.926 92.3212 205.631L92.9166 206.503C98.6238 207.557 92.211 205.667 94.1162 205.497C95.9618 205.835 97.8431 206.113 99.6676 206.678C100.205 206.844 101.08 207.03 101.361 207.723C101.733 208.632 101.872 208.929 102.761 209.266C104.636 209.512 106.51 209.74 108.38 209.962C108.834 209.969 109.369 210.039 109.965 210.157C111.348 210.322 112.728 210.484 114.097 210.653C113.387 210.28 113.898 209.966 114.218 209.778C116.481 210.854 118.653 210.894 121.001 210.855C123.408 210.814 125.794 211.061 128.199 211.254C128.268 211.068 124.235 210.187 123.882 209.713C125.403 210.042 127.196 210.284 128.956 210.513C127.417 209.76 125.742 208.882 127.927 209.752C128.61 210.074 129.159 210.349 129.625 210.597C130.37 210.695 131.112 210.793 131.854 210.901C128.124 209.303 124.401 207.65 120.773 205.653C121.222 205.92 123.571 206.911 123.597 207.823C123.624 208.745 124.767 209.286 125.302 209.652C120.918 206.737 116.483 203.851 112.301 200.467L110.67 199.09C110.174 198.671 109.685 198.259 109.188 197.837C106.224 195.759 103.318 193.513 100.491 191.124C100.419 191.303 100.478 191.621 100.687 192.211C99.454 191.251 98.2155 190.296 97.0418 189.218C96.5909 188.812 96.1181 188.372 95.7817 187.799C94.6992 185.963 93.2438 184.651 91.7938 183.292C92.6788 184.092 93.5608 184.892 94.4455 185.689C90.9153 182.315 87.5257 178.712 84.1778 175.046C84.2518 175.461 84.5658 176.065 83.5451 174.901C83.1262 174.14 82.4975 173.284 81.7409 172.37C78.5607 168.785 74.9946 165.613 72.048 161.713C72.3413 162.152 72.6522 162.577 72.9572 163.006C71.4651 161.418 70.0289 159.749 68.5726 158.101C68.5186 158.059 68.5471 158.133 68.5144 158.119C68.4833 157.979 68.4496 157.846 68.4523 157.732C65.2935 155.043 62.6191 151.052 60.2512 147.327C59.7755 145.916 58.7649 144.615 58.0478 143.395C57.0051 141.618 55.9039 139.893 54.8819 138.101C53.8417 136.28 52.8077 134.459 51.8118 132.605C51.2107 131.488 50.4839 130.301 50.1058 129.035C51.1082 131.287 52.1571 133.064 53.7642 135.572L54.0375 134.701C51.36 130.026 53.3671 134.846 51.1544 130.05C51.5907 130.145 51.9727 130.806 52.231 131.206C52.8171 132.115 53.3256 133.108 53.8237 134.091C54.7882 135.982 55.6895 137.977 56.8588 139.69C56.1075 137.934 55.2491 136.214 54.3761 134.542C54.8906 135.424 55.3975 136.327 55.9291 137.188C55.3756 136.256 54.8275 135.313 54.2819 134.364C54.3123 134.424 54.3459 134.485 54.3761 134.542C52.9278 132.013 51.5053 129.455 50.1268 126.859C50.1262 127.142 49.9578 127.087 49.4394 126.341C47.7418 123.588 46.4757 120.767 45.4375 117.563C44.6543 115.947 43.8856 114.315 43.1347 112.673C42.4895 111.988 41.96 111.475 41.4685 110.568C40.858 109.451 40.3342 108.247 39.827 107.052C40.4067 108.753 41.0065 110.432 41.622 112.11C40.791 110.919 40.0269 109.63 39.6068 108.134C39.1966 106.681 38.8991 105.291 38.2499 103.949C38.9464 105.005 39.1374 104.885 40.8648 108.989C41.307 109.223 40.0839 106.029 39.4798 104.516L39.9114 105.459C39.9006 105.407 39.8897 105.354 39.882 105.302C38.104 101.123 36.4153 96.8865 34.8013 92.6035C34.7854 92.565 34.7663 92.5268 34.7509 92.4949L35.1687 93.9275C34.0354 90.4634 32.7547 87.0786 31.5706 83.6456L31.5537 83.7401C31.4989 83.5455 31.451 83.3569 31.4067 83.1746C30.8128 81.4549 30.234 79.7272 29.6673 77.9952C29.671 78.4702 29.5057 78.2719 28.9066 76.2402C28.8314 76.7486 29.0648 77.4396 29.1889 77.924C29.4352 78.9062 29.7269 79.8679 30.0433 80.8241C30.6883 82.7687 31.3785 84.6894 32.1018 86.5939C31.6357 85.3649 31.1127 83.5559 30.2692 82.6191C30.0534 82.382 30.1383 82.8865 30.1615 83.0074C30.339 83.9591 30.6749 84.887 30.9771 85.788C30.0639 84.5581 29.413 80.7429 28.3319 78.022C28.6253 78.4618 28.4861 77.4801 28.6907 77.6251C28.0704 77.7657 26.9511 72.9842 26.807 72.4516C26.5094 71.2778 26.2328 70.0921 26.0024 68.8957C25.9507 68.6277 25.5439 67.1044 25.7828 66.8841L27.0201 72.2968C27.3693 72.4026 26.9319 70.0609 26.7146 68.5809C22.6554 55.0355 19.2434 40.792 17.1441 26.66C16.9183 26.8493 16.8026 27.9396 16.3324 26.3387C16.1426 25.3548 15.9423 24.3586 15.8292 23.3514C15.7448 22.6009 15.5172 21.2913 15.895 20.6434C16.0101 20.4473 15.7771 20.8432 15.895 20.6434Z" fill="#EEA562"/>
<path d="M341.125 210.464C337.674 211.377 333.009 210.643 329.484 210.672C310.461 210.827 291.438 210.801 272.414 210.733C262.499 210.698 252.583 210.65 242.67 210.523C236.017 210.438 226.241 212.862 224.546 204.526C225.249 204.5 226.396 204.218 227.224 204.172C230.434 203.989 233.656 203.925 236.873 203.853C246.011 203.648 255.156 203.58 264.296 203.541C285.785 203.445 307.283 203.515 328.77 203.978C332.607 204.058 336.443 204.152 340.28 204.292C341.717 204.345 343.401 204.187 344.801 204.482C345.273 204.583 346.568 204.294 346.909 204.596C348.612 206.092 342.237 210.172 341.125 210.464ZM238.695 147.867C238.734 144.829 238.315 139.458 239.667 136.724C242.095 131.805 249.602 132.685 254.215 132.609C263.045 132.46 271.884 132.862 280.72 132.799C289.507 132.738 298.296 132.681 307.082 132.624C311.134 132.598 315.181 132.618 319.23 132.733C321.2 132.79 324.081 132.351 325.979 132.993C332.435 135.175 331.607 137.599 331.756 142.131C332.402 161.626 332.455 181.1 331.994 200.599C312.647 199.926 293.2 200.219 273.895 200.239C262.61 200.249 251.323 200.313 240.04 200.538C239.852 182.998 238.465 165.387 238.695 147.867ZM348.361 201.414C344.006 201.114 339.638 200.903 335.27 200.726C335.547 188.962 335.713 177.199 335.582 165.431C335.51 159.139 335.364 152.844 335.174 146.552C335.06 142.782 335.702 137.796 334.401 134.269C331.708 126.97 319.416 129.4 313.451 129.346C302.081 129.241 290.699 129.457 279.329 129.534C268.677 129.606 257.875 128.726 247.25 129.649C241.272 130.167 237.389 131.268 236.238 137.54C234.418 147.45 235.744 157.97 236.067 167.947C236.421 178.826 236.67 189.705 236.766 200.588C236.412 200.597 236.061 200.597 235.707 200.603C233.088 200.669 225 199.612 222.01 201.569C221.556 201.715 221.216 202.067 221.106 202.593C220.953 202.969 220.971 203.322 221.124 203.63C222.321 215.018 230.839 213.627 239.826 213.76C255.104 213.989 270.385 214.02 285.665 214.042C300.62 214.066 315.576 214.07 330.528 213.939C339.066 213.863 349.619 214.776 349.999 203.052C350.03 202.123 349.222 201.473 348.361 201.414Z" fill="#4D4E4E"/>
<path d="M322.905 193.995C318.351 193.693 313.683 193.969 309.121 193.958C288.534 193.899 267.685 194.818 247.12 193.803C247.017 192.394 247.135 190.902 247.12 189.517C247.05 183.024 246.982 176.529 246.912 170.033C246.809 160.511 246.709 150.986 246.608 141.461H317.973C319.628 141.461 322.407 140.966 324.379 141.221C324.357 141.363 324.335 141.514 324.283 141.715C323.909 143.178 324.329 145.301 324.344 146.806C324.422 152.971 324.499 159.141 324.575 165.309C324.693 174.655 325.895 184.702 324.993 194.034C324.289 194.056 323.562 194.038 322.905 193.995ZM324.409 140.728C324.322 140.564 324.388 140.527 324.409 140.728V140.728ZM327.406 195.233C327.177 176.9 326.949 158.565 326.72 140.232C326.711 139.568 326.163 139.004 325.493 139.004H245.366C245.047 139.004 244.809 139.122 244.619 139.282C244.571 139.317 244.523 139.345 244.481 139.384C244.477 139.389 244.475 139.393 244.472 139.397C244.272 139.594 244.134 139.865 244.138 140.232C244.333 158.491 244.527 176.752 244.721 195.01C244.728 195.674 245.278 196.236 245.949 196.238C272.693 196.312 299.435 196.386 326.176 196.463C326.834 196.463 327.415 195.897 327.406 195.233Z" fill="#4D4E4E"/>
<path d="M271.319 170.731C270.119 170.061 268.92 169.388 267.721 168.718C268.89 168.021 270.061 167.326 271.229 166.632C273.037 165.555 271.393 162.722 269.573 163.804C268.398 164.502 267.223 165.201 266.048 165.9C266.029 164.548 266.011 163.196 265.994 161.842C265.968 159.737 262.691 159.732 262.718 161.842C262.737 163.21 262.753 164.577 262.772 165.944C261.595 165.284 260.418 164.625 259.238 163.965C257.397 162.934 255.744 165.763 257.585 166.794C258.78 167.464 259.974 168.132 261.169 168.801C260.005 169.495 258.841 170.188 257.675 170.882C255.866 171.959 257.511 174.792 259.328 173.711C260.501 173.014 261.674 172.315 262.844 171.618C262.864 172.974 262.879 174.331 262.899 175.687C262.925 177.795 266.201 177.801 266.175 175.687C266.155 174.318 266.14 172.946 266.12 171.574C267.302 172.236 268.484 172.898 269.665 173.56C271.506 174.591 273.16 171.762 271.319 170.731Z" fill="#4D4E4E"/>
<path d="M292.432 170.731C291.233 170.061 290.036 169.388 288.839 168.718C290.006 168.021 291.174 167.326 292.342 166.632C294.153 165.555 292.506 162.722 290.689 163.804C289.514 164.502 288.337 165.201 287.162 165.9C287.144 164.548 287.127 163.196 287.109 161.842C287.083 159.737 283.807 159.732 283.833 161.842C283.851 163.21 283.868 164.577 283.888 165.944C282.709 165.284 281.531 164.625 280.354 163.965C278.513 162.934 276.857 165.763 278.701 166.794C279.895 167.464 281.09 168.132 282.285 168.801C281.121 169.495 279.954 170.188 278.79 170.882C276.98 171.959 278.627 174.792 280.444 173.711C281.617 173.014 282.789 172.315 283.96 171.618C283.978 172.974 283.995 174.331 284.015 175.687C284.041 177.795 287.317 177.801 287.291 175.687C287.271 174.318 287.254 172.946 287.236 171.574C288.416 172.236 289.597 172.898 290.779 173.56C292.622 174.591 294.275 171.762 292.432 170.731Z" fill="#4D4E4E"/>
<path d="M313.486 170.731C312.287 170.061 311.088 169.388 309.889 168.718C311.057 168.021 312.226 167.326 313.394 166.632C315.205 165.555 313.56 162.722 311.741 163.804C310.566 164.502 309.391 165.201 308.214 165.9C308.196 164.548 308.179 163.196 308.161 161.842C308.135 159.737 304.859 159.732 304.885 161.842C304.903 163.21 304.92 164.577 304.94 165.944C303.76 165.284 302.583 164.625 301.406 163.965C299.565 162.934 297.909 165.763 299.753 166.794C300.947 167.464 302.14 168.132 303.337 168.801C302.17 169.495 301.006 170.188 299.842 170.882C298.032 171.959 299.678 174.792 301.495 173.711C302.668 173.014 303.841 172.315 305.012 171.618C305.029 172.974 305.049 174.331 305.064 175.687C305.093 177.795 308.369 177.801 308.34 175.687C308.325 174.318 308.305 172.946 308.288 171.574C309.469 172.236 310.651 172.898 311.83 173.56C313.674 174.591 315.327 171.762 313.486 170.731Z" fill="#4D4E4E"/>
</g>
</svg>
