<svg width="747" height="523" viewBox="0 0 747 523" fill="none" xmlns="http://www.w3.org/2000/svg">
<mask id="mask0_238:956" style="mask-type:alpha" maskUnits="userSpaceOnUse" x="0" y="0" width="747" height="523">
<rect width="747" height="523" fill="#C4C4C4"/>
</mask>
<g mask="url(#mask0_238:956)">
<path d="M181.351 204H194.071C197.111 204 199.791 204.587 202.111 205.76C204.458 206.907 206.271 208.533 207.551 210.64C208.858 212.747 209.511 215.2 209.511 218C209.511 220.8 208.858 223.253 207.551 225.36C206.271 227.467 204.458 229.107 202.111 230.28C199.791 231.427 197.111 232 194.071 232H181.351V204ZM193.751 226.68C196.551 226.68 198.778 225.907 200.431 224.36C202.111 222.787 202.951 220.667 202.951 218C202.951 215.333 202.111 213.227 200.431 211.68C198.778 210.107 196.551 209.32 193.751 209.32H187.831V226.68H193.751ZM224.198 232.32C221.931 232.32 219.891 231.853 218.078 230.92C216.291 229.96 214.891 228.64 213.878 226.96C212.865 225.28 212.358 223.373 212.358 221.24C212.358 219.107 212.865 217.2 213.878 215.52C214.891 213.84 216.291 212.533 218.078 211.6C219.891 210.64 221.931 210.16 224.198 210.16C226.465 210.16 228.491 210.64 230.278 211.6C232.065 212.533 233.465 213.84 234.478 215.52C235.491 217.2 235.998 219.107 235.998 221.24C235.998 223.373 235.491 225.28 234.478 226.96C233.465 228.64 232.065 229.96 230.278 230.92C228.491 231.853 226.465 232.32 224.198 232.32ZM224.198 227.2C225.798 227.2 227.105 226.667 228.118 225.6C229.158 224.507 229.678 223.053 229.678 221.24C229.678 219.427 229.158 217.987 228.118 216.92C227.105 215.827 225.798 215.28 224.198 215.28C222.598 215.28 221.278 215.827 220.238 216.92C219.198 217.987 218.678 219.427 218.678 221.24C218.678 223.053 219.198 224.507 220.238 225.6C221.278 226.667 222.598 227.2 224.198 227.2ZM253.249 210.16C255.916 210.16 258.062 210.96 259.689 212.56C261.342 214.16 262.169 216.533 262.169 219.68V232H255.929V220.64C255.929 218.933 255.556 217.667 254.809 216.84C254.062 215.987 252.982 215.56 251.569 215.56C249.996 215.56 248.742 216.053 247.809 217.04C246.876 218 246.409 219.44 246.409 221.36V232H240.169V210.48H246.129V213C246.956 212.093 247.982 211.4 249.209 210.92C250.436 210.413 251.782 210.16 253.249 210.16ZM270.069 202C271.189 202 272.109 202.36 272.829 203.08C273.549 203.773 273.909 204.693 273.909 205.84C273.909 206.373 273.842 206.907 273.709 207.44C273.576 207.973 273.296 208.773 272.869 209.84L270.549 215.6H266.589L268.309 209.28C267.642 208.987 267.122 208.547 266.749 207.96C266.376 207.373 266.189 206.667 266.189 205.84C266.189 204.693 266.549 203.773 267.269 203.08C268.016 202.36 268.949 202 270.069 202ZM292.252 230.96C291.639 231.413 290.879 231.76 289.972 232C289.092 232.213 288.159 232.32 287.172 232.32C284.612 232.32 282.626 231.667 281.212 230.36C279.826 229.053 279.132 227.133 279.132 224.6V215.76H275.812V210.96H279.132V205.72H285.372V210.96H290.732V215.76H285.372V224.52C285.372 225.427 285.599 226.133 286.052 226.64C286.532 227.12 287.199 227.36 288.052 227.36C289.039 227.36 289.879 227.093 290.572 226.56L292.252 230.96ZM307.083 202.32H313.323V232H307.083V202.32ZM319.114 210.48H325.354V232H319.114V210.48ZM322.234 207.48C321.088 207.48 320.154 207.147 319.434 206.48C318.714 205.813 318.354 204.987 318.354 204C318.354 203.013 318.714 202.187 319.434 201.52C320.154 200.853 321.088 200.52 322.234 200.52C323.381 200.52 324.314 200.84 325.034 201.48C325.754 202.12 326.114 202.92 326.114 203.88C326.114 204.92 325.754 205.787 325.034 206.48C324.314 207.147 323.381 207.48 322.234 207.48ZM340.386 223.56L337.386 226.52V232H331.146V202.32H337.386V219.12L346.506 210.48H353.946L344.986 219.6L354.746 232H347.186L340.386 223.56ZM377.694 221.32C377.694 221.4 377.654 221.96 377.574 223H361.294C361.588 224.333 362.281 225.387 363.374 226.16C364.468 226.933 365.828 227.32 367.454 227.32C368.574 227.32 369.561 227.16 370.414 226.84C371.294 226.493 372.108 225.96 372.854 225.24L376.174 228.84C374.148 231.16 371.188 232.32 367.294 232.32C364.868 232.32 362.721 231.853 360.854 230.92C358.988 229.96 357.548 228.64 356.534 226.96C355.521 225.28 355.014 223.373 355.014 221.24C355.014 219.133 355.508 217.24 356.494 215.56C357.508 213.853 358.881 212.533 360.614 211.6C362.374 210.64 364.334 210.16 366.494 210.16C368.601 210.16 370.508 210.613 372.214 211.52C373.921 212.427 375.254 213.733 376.214 215.44C377.201 217.12 377.694 219.08 377.694 221.32ZM366.534 214.88C365.121 214.88 363.934 215.28 362.974 216.08C362.014 216.88 361.428 217.973 361.214 219.36H371.814C371.601 218 371.014 216.92 370.054 216.12C369.094 215.293 367.921 214.88 366.534 214.88ZM407.057 230.96C406.444 231.413 405.684 231.76 404.777 232C403.897 232.213 402.964 232.32 401.977 232.32C399.417 232.32 397.43 231.667 396.017 230.36C394.63 229.053 393.937 227.133 393.937 224.6V215.76H390.617V210.96H393.937V205.72H400.177V210.96H405.537V215.76H400.177V224.52C400.177 225.427 400.404 226.133 400.857 226.64C401.337 227.12 402.004 227.36 402.857 227.36C403.844 227.36 404.684 227.093 405.377 226.56L407.057 230.96ZM423.64 210.16C426.306 210.16 428.453 210.96 430.08 212.56C431.733 214.16 432.56 216.533 432.56 219.68V232H426.32V220.64C426.32 218.933 425.946 217.667 425.2 216.84C424.453 215.987 423.373 215.56 421.96 215.56C420.386 215.56 419.133 216.053 418.2 217.04C417.266 218 416.8 219.44 416.8 221.36V232H410.56V202.32H416.8V212.72C417.626 211.893 418.626 211.267 419.8 210.84C420.973 210.387 422.253 210.16 423.64 210.16ZM459.53 221.32C459.53 221.4 459.49 221.96 459.41 223H443.13C443.424 224.333 444.117 225.387 445.21 226.16C446.304 226.933 447.664 227.32 449.29 227.32C450.41 227.32 451.397 227.16 452.25 226.84C453.13 226.493 453.944 225.96 454.69 225.24L458.01 228.84C455.984 231.16 453.024 232.32 449.13 232.32C446.704 232.32 444.557 231.853 442.69 230.92C440.824 229.96 439.384 228.64 438.37 226.96C437.357 225.28 436.85 223.373 436.85 221.24C436.85 219.133 437.344 217.24 438.33 215.56C439.344 213.853 440.717 212.533 442.45 211.6C444.21 210.64 446.17 210.16 448.33 210.16C450.437 210.16 452.344 210.613 454.05 211.52C455.757 212.427 457.09 213.733 458.05 215.44C459.037 217.12 459.53 219.08 459.53 221.32ZM448.37 214.88C446.957 214.88 445.77 215.28 444.81 216.08C443.85 216.88 443.264 217.973 443.05 219.36H453.65C453.437 218 452.85 216.92 451.89 216.12C450.93 215.293 449.757 214.88 448.37 214.88ZM480.973 213.32C481.719 212.28 482.719 211.493 483.973 210.96C485.253 210.427 486.719 210.16 488.373 210.16V215.92C487.679 215.867 487.213 215.84 486.973 215.84C485.186 215.84 483.786 216.347 482.773 217.36C481.759 218.347 481.253 219.84 481.253 221.84V232H475.013V210.48H480.973V213.32ZM492.083 210.48H498.323V232H492.083V210.48ZM495.203 207.48C494.056 207.48 493.123 207.147 492.403 206.48C491.683 205.813 491.323 204.987 491.323 204C491.323 203.013 491.683 202.187 492.403 201.52C493.123 200.853 494.056 200.52 495.203 200.52C496.35 200.52 497.283 200.84 498.003 201.48C498.723 202.12 499.083 202.92 499.083 203.88C499.083 204.92 498.723 205.787 498.003 206.48C497.283 207.147 496.35 207.48 495.203 207.48ZM526.314 210.48V228.4C526.314 232.347 525.288 235.28 523.234 237.2C521.181 239.12 518.181 240.08 514.234 240.08C512.154 240.08 510.181 239.827 508.314 239.32C506.448 238.813 504.901 238.08 503.674 237.12L506.154 232.64C507.061 233.387 508.208 233.973 509.594 234.4C510.981 234.853 512.368 235.08 513.754 235.08C515.914 235.08 517.501 234.587 518.514 233.6C519.554 232.64 520.074 231.173 520.074 229.2V228.28C518.448 230.067 516.181 230.96 513.274 230.96C511.301 230.96 509.488 230.533 507.834 229.68C506.208 228.8 504.914 227.573 503.954 226C502.994 224.427 502.514 222.613 502.514 220.56C502.514 218.507 502.994 216.693 503.954 215.12C504.914 213.547 506.208 212.333 507.834 211.48C509.488 210.6 511.301 210.16 513.274 210.16C516.394 210.16 518.768 211.187 520.394 213.24V210.48H526.314ZM514.514 225.84C516.168 225.84 517.514 225.36 518.554 224.4C519.621 223.413 520.154 222.133 520.154 220.56C520.154 218.987 519.621 217.72 518.554 216.76C517.514 215.773 516.168 215.28 514.514 215.28C512.861 215.28 511.501 215.773 510.434 216.76C509.368 217.72 508.834 218.987 508.834 220.56C508.834 222.133 509.368 223.413 510.434 224.4C511.501 225.36 512.861 225.84 514.514 225.84ZM532.122 210.48H538.362V232H532.122V210.48ZM535.242 207.48C534.096 207.48 533.162 207.147 532.442 206.48C531.722 205.813 531.362 204.987 531.362 204C531.362 203.013 531.722 202.187 532.442 201.52C533.162 200.853 534.096 200.52 535.242 200.52C536.389 200.52 537.322 200.84 538.042 201.48C538.762 202.12 539.122 202.92 539.122 203.88C539.122 204.92 538.762 205.787 538.042 206.48C537.322 207.147 536.389 207.48 535.242 207.48ZM566.073 202.32V232H560.113V229.52C558.567 231.387 556.327 232.32 553.393 232.32C551.367 232.32 549.527 231.867 547.873 230.96C546.247 230.053 544.967 228.76 544.033 227.08C543.1 225.4 542.633 223.453 542.633 221.24C542.633 219.027 543.1 217.08 544.033 215.4C544.967 213.72 546.247 212.427 547.873 211.52C549.527 210.613 551.367 210.16 553.393 210.16C556.14 210.16 558.287 211.027 559.833 212.76V202.32H566.073ZM554.473 227.2C556.047 227.2 557.353 226.667 558.393 225.6C559.433 224.507 559.953 223.053 559.953 221.24C559.953 219.427 559.433 217.987 558.393 216.92C557.353 215.827 556.047 215.28 554.473 215.28C552.873 215.28 551.553 215.827 550.513 216.92C549.473 217.987 548.953 219.427 548.953 221.24C548.953 223.053 549.473 224.507 550.513 225.6C551.553 226.667 552.873 227.2 554.473 227.2ZM202.776 292.32C200.483 292.32 198.416 291.853 196.576 290.92C194.763 289.96 193.336 288.64 192.296 286.96C191.283 285.28 190.776 283.373 190.776 281.24C190.776 279.107 191.283 277.2 192.296 275.52C193.336 273.84 194.763 272.533 196.576 271.6C198.416 270.64 200.483 270.16 202.776 270.16C205.043 270.16 207.016 270.64 208.696 271.6C210.403 272.533 211.643 273.88 212.416 275.64L207.576 278.24C206.456 276.267 204.843 275.28 202.736 275.28C201.109 275.28 199.763 275.813 198.696 276.88C197.629 277.947 197.096 279.4 197.096 281.24C197.096 283.08 197.629 284.533 198.696 285.6C199.763 286.667 201.109 287.2 202.736 287.2C204.869 287.2 206.483 286.213 207.576 284.24L212.416 286.88C211.643 288.587 210.403 289.92 208.696 290.88C207.016 291.84 205.043 292.32 202.776 292.32ZM225.975 292.32C223.709 292.32 221.669 291.853 219.855 290.92C218.069 289.96 216.669 288.64 215.655 286.96C214.642 285.28 214.135 283.373 214.135 281.24C214.135 279.107 214.642 277.2 215.655 275.52C216.669 273.84 218.069 272.533 219.855 271.6C221.669 270.64 223.709 270.16 225.975 270.16C228.242 270.16 230.269 270.64 232.055 271.6C233.842 272.533 235.242 273.84 236.255 275.52C237.269 277.2 237.775 279.107 237.775 281.24C237.775 283.373 237.269 285.28 236.255 286.96C235.242 288.64 233.842 289.96 232.055 290.92C230.269 291.853 228.242 292.32 225.975 292.32ZM225.975 287.2C227.575 287.2 228.882 286.667 229.895 285.6C230.935 284.507 231.455 283.053 231.455 281.24C231.455 279.427 230.935 277.987 229.895 276.92C228.882 275.827 227.575 275.28 225.975 275.28C224.375 275.28 223.055 275.827 222.015 276.92C220.975 277.987 220.455 279.427 220.455 281.24C220.455 283.053 220.975 284.507 222.015 285.6C223.055 286.667 224.375 287.2 225.975 287.2ZM263.626 270.48V292H257.706V289.44C256.88 290.373 255.893 291.093 254.746 291.6C253.6 292.08 252.36 292.32 251.026 292.32C248.2 292.32 245.96 291.507 244.306 289.88C242.653 288.253 241.826 285.84 241.826 282.64V270.48H248.066V281.72C248.066 285.187 249.52 286.92 252.426 286.92C253.92 286.92 255.12 286.44 256.026 285.48C256.933 284.493 257.386 283.04 257.386 281.12V270.48H263.626ZM275.367 273.32C276.114 272.28 277.114 271.493 278.367 270.96C279.647 270.427 281.114 270.16 282.767 270.16V275.92C282.074 275.867 281.607 275.84 281.367 275.84C279.581 275.84 278.181 276.347 277.167 277.36C276.154 278.347 275.647 279.84 275.647 281.84V292H269.407V270.48H275.367V273.32ZM293.796 292.32C292.009 292.32 290.262 292.107 288.556 291.68C286.849 291.227 285.489 290.667 284.476 290L286.556 285.52C287.516 286.133 288.676 286.64 290.036 287.04C291.396 287.413 292.729 287.6 294.036 287.6C296.676 287.6 297.996 286.947 297.996 285.64C297.996 285.027 297.636 284.587 296.916 284.32C296.196 284.053 295.089 283.827 293.596 283.64C291.836 283.373 290.382 283.067 289.236 282.72C288.089 282.373 287.089 281.76 286.236 280.88C285.409 280 284.996 278.747 284.996 277.12C284.996 275.76 285.382 274.56 286.156 273.52C286.956 272.453 288.102 271.627 289.596 271.04C291.116 270.453 292.902 270.16 294.956 270.16C296.476 270.16 297.982 270.333 299.476 270.68C300.996 271 302.249 271.453 303.236 272.04L301.156 276.48C299.262 275.413 297.196 274.88 294.956 274.88C293.622 274.88 292.622 275.067 291.956 275.44C291.289 275.813 290.956 276.293 290.956 276.88C290.956 277.547 291.316 278.013 292.036 278.28C292.756 278.547 293.902 278.8 295.476 279.04C297.236 279.333 298.676 279.653 299.796 280C300.916 280.32 301.889 280.92 302.716 281.8C303.542 282.68 303.956 283.907 303.956 285.48C303.956 286.813 303.556 288 302.756 289.04C301.956 290.08 300.782 290.893 299.236 291.48C297.716 292.04 295.902 292.32 293.796 292.32ZM328.886 281.32C328.886 281.4 328.846 281.96 328.766 283H312.486C312.779 284.333 313.472 285.387 314.566 286.16C315.659 286.933 317.019 287.32 318.646 287.32C319.766 287.32 320.752 287.16 321.606 286.84C322.486 286.493 323.299 285.96 324.046 285.24L327.366 288.84C325.339 291.16 322.379 292.32 318.486 292.32C316.059 292.32 313.912 291.853 312.046 290.92C310.179 289.96 308.739 288.64 307.726 286.96C306.712 285.28 306.206 283.373 306.206 281.24C306.206 279.133 306.699 277.24 307.686 275.56C308.699 273.853 310.072 272.533 311.806 271.6C313.566 270.64 315.526 270.16 317.686 270.16C319.792 270.16 321.699 270.613 323.406 271.52C325.112 272.427 326.446 273.733 327.406 275.44C328.392 277.12 328.886 279.08 328.886 281.32ZM317.726 274.88C316.312 274.88 315.126 275.28 314.166 276.08C313.206 276.88 312.619 277.973 312.406 279.36H323.006C322.792 278 322.206 276.92 321.246 276.12C320.286 275.293 319.112 274.88 317.726 274.88ZM351.608 292.32C349.822 292.32 348.075 292.107 346.368 291.68C344.662 291.227 343.302 290.667 342.288 290L344.368 285.52C345.328 286.133 346.488 286.64 347.848 287.04C349.208 287.413 350.542 287.6 351.848 287.6C354.488 287.6 355.808 286.947 355.808 285.64C355.808 285.027 355.448 284.587 354.728 284.32C354.008 284.053 352.902 283.827 351.408 283.64C349.648 283.373 348.195 283.067 347.048 282.72C345.902 282.373 344.902 281.76 344.048 280.88C343.222 280 342.808 278.747 342.808 277.12C342.808 275.76 343.195 274.56 343.968 273.52C344.768 272.453 345.915 271.627 347.408 271.04C348.928 270.453 350.715 270.16 352.768 270.16C354.288 270.16 355.795 270.333 357.288 270.68C358.808 271 360.062 271.453 361.048 272.04L358.968 276.48C357.075 275.413 355.008 274.88 352.768 274.88C351.435 274.88 350.435 275.067 349.768 275.44C349.102 275.813 348.768 276.293 348.768 276.88C348.768 277.547 349.128 278.013 349.848 278.28C350.568 278.547 351.715 278.8 353.288 279.04C355.048 279.333 356.488 279.653 357.608 280C358.728 280.32 359.702 280.92 360.528 281.8C361.355 282.68 361.768 283.907 361.768 285.48C361.768 286.813 361.368 288 360.568 289.04C359.768 290.08 358.595 290.893 357.048 291.48C355.528 292.04 353.715 292.32 351.608 292.32ZM379.498 290.96C378.885 291.413 378.125 291.76 377.218 292C376.338 292.213 375.405 292.32 374.418 292.32C371.858 292.32 369.872 291.667 368.458 290.36C367.072 289.053 366.378 287.133 366.378 284.6V275.76H363.058V270.96H366.378V265.72H372.618V270.96H377.978V275.76H372.618V284.52C372.618 285.427 372.845 286.133 373.298 286.64C373.778 287.12 374.445 287.36 375.298 287.36C376.285 287.36 377.125 287.093 377.818 286.56L379.498 290.96ZM388.961 273.32C389.708 272.28 390.708 271.493 391.961 270.96C393.241 270.427 394.708 270.16 396.361 270.16V275.92C395.668 275.867 395.201 275.84 394.961 275.84C393.174 275.84 391.774 276.347 390.761 277.36C389.748 278.347 389.241 279.84 389.241 281.84V292H383.001V270.48H388.961V273.32ZM421.908 270.48V292H415.988V289.44C415.161 290.373 414.174 291.093 413.028 291.6C411.881 292.08 410.641 292.32 409.308 292.32C406.481 292.32 404.241 291.507 402.588 289.88C400.934 288.253 400.108 285.84 400.108 282.64V270.48H406.348V281.72C406.348 285.187 407.801 286.92 410.708 286.92C412.201 286.92 413.401 286.44 414.308 285.48C415.214 284.493 415.668 283.04 415.668 281.12V270.48H421.908ZM438.089 292.32C435.795 292.32 433.729 291.853 431.889 290.92C430.075 289.96 428.649 288.64 427.609 286.96C426.595 285.28 426.089 283.373 426.089 281.24C426.089 279.107 426.595 277.2 427.609 275.52C428.649 273.84 430.075 272.533 431.889 271.6C433.729 270.64 435.795 270.16 438.089 270.16C440.355 270.16 442.329 270.64 444.009 271.6C445.715 272.533 446.955 273.88 447.729 275.64L442.889 278.24C441.769 276.267 440.155 275.28 438.049 275.28C436.422 275.28 435.075 275.813 434.009 276.88C432.942 277.947 432.409 279.4 432.409 281.24C432.409 283.08 432.942 284.533 434.009 285.6C435.075 286.667 436.422 287.2 438.049 287.2C440.182 287.2 441.795 286.213 442.889 284.24L447.729 286.88C446.955 288.587 445.715 289.92 444.009 290.88C442.329 291.84 440.355 292.32 438.089 292.32ZM465.514 290.96C464.901 291.413 464.141 291.76 463.234 292C462.354 292.213 461.421 292.32 460.434 292.32C457.874 292.32 455.887 291.667 454.474 290.36C453.087 289.053 452.394 287.133 452.394 284.6V275.76H449.074V270.96H452.394V265.72H458.634V270.96H463.994V275.76H458.634V284.52C458.634 285.427 458.861 286.133 459.314 286.64C459.794 287.12 460.461 287.36 461.314 287.36C462.301 287.36 463.141 287.093 463.834 286.56L465.514 290.96ZM490.697 270.48V292H484.777V289.44C483.95 290.373 482.963 291.093 481.817 291.6C480.67 292.08 479.43 292.32 478.097 292.32C475.27 292.32 473.03 291.507 471.377 289.88C469.723 288.253 468.897 285.84 468.897 282.64V270.48H475.137V281.72C475.137 285.187 476.59 286.92 479.497 286.92C480.99 286.92 482.19 286.44 483.097 285.48C484.003 284.493 484.457 283.04 484.457 281.12V270.48H490.697ZM502.438 273.32C503.184 272.28 504.184 271.493 505.438 270.96C506.718 270.427 508.184 270.16 509.838 270.16V275.92C509.144 275.867 508.678 275.84 508.438 275.84C506.651 275.84 505.251 276.347 504.238 277.36C503.224 278.347 502.718 279.84 502.718 281.84V292H496.478V270.48H502.438V273.32ZM534.433 281.32C534.433 281.4 534.393 281.96 534.313 283H518.033C518.326 284.333 519.019 285.387 520.113 286.16C521.206 286.933 522.566 287.32 524.193 287.32C525.313 287.32 526.299 287.16 527.153 286.84C528.033 286.493 528.846 285.96 529.593 285.24L532.913 288.84C530.886 291.16 527.926 292.32 524.033 292.32C521.606 292.32 519.459 291.853 517.593 290.92C515.726 289.96 514.286 288.64 513.273 286.96C512.259 285.28 511.753 283.373 511.753 281.24C511.753 279.133 512.246 277.24 513.233 275.56C514.246 273.853 515.619 272.533 517.353 271.6C519.113 270.64 521.073 270.16 523.233 270.16C525.339 270.16 527.246 270.613 528.953 271.52C530.659 272.427 531.993 273.733 532.953 275.44C533.939 277.12 534.433 279.08 534.433 281.32ZM523.273 274.88C521.859 274.88 520.673 275.28 519.713 276.08C518.753 276.88 518.166 277.973 517.953 279.36H528.553C528.339 278 527.753 276.92 526.793 276.12C525.833 275.293 524.659 274.88 523.273 274.88ZM542.629 282.28C542.629 280.893 542.936 279.747 543.549 278.84C544.189 277.933 545.109 276.933 546.309 275.84C547.189 275.04 547.829 274.373 548.229 273.84C548.656 273.28 548.869 272.653 548.869 271.96C548.869 270.973 548.469 270.2 547.669 269.64C546.896 269.053 545.856 268.76 544.549 268.76C543.296 268.76 542.176 269.027 541.189 269.56C540.229 270.067 539.416 270.787 538.749 271.72L533.909 268.88C535.029 267.173 536.536 265.853 538.429 264.92C540.349 263.987 542.616 263.52 545.229 263.52C548.296 263.52 550.749 264.173 552.589 265.48C554.456 266.787 555.389 268.6 555.389 270.92C555.389 272.013 555.203 272.973 554.829 273.8C554.483 274.627 554.043 275.333 553.509 275.92C553.003 276.48 552.336 277.133 551.509 277.88C550.523 278.76 549.803 279.507 549.349 280.12C548.896 280.707 548.669 281.427 548.669 282.28H542.629ZM545.669 292.32C544.576 292.32 543.656 291.973 542.909 291.28C542.189 290.56 541.829 289.693 541.829 288.68C541.829 287.667 542.189 286.827 542.909 286.16C543.629 285.467 544.549 285.12 545.669 285.12C546.789 285.12 547.709 285.467 548.429 286.16C549.149 286.827 549.509 287.667 549.509 288.68C549.509 289.693 549.136 290.56 548.389 291.28C547.669 291.973 546.763 292.32 545.669 292.32Z" fill="#4D4E4E"/>
<path d="M177.95 342.536C178.99 342.865 179.804 343.42 180.394 344.2C180.983 344.963 181.278 345.907 181.278 347.034C181.278 348.629 180.654 349.859 179.406 350.726C178.175 351.575 176.372 352 173.998 352H164.586V333.8H173.478C175.696 333.8 177.395 334.225 178.574 335.074C179.77 335.923 180.368 337.076 180.368 338.532C180.368 339.416 180.151 340.205 179.718 340.898C179.302 341.591 178.712 342.137 177.95 342.536ZM168.772 336.972V341.262H172.958C173.998 341.262 174.786 341.08 175.324 340.716C175.861 340.352 176.13 339.815 176.13 339.104C176.13 338.393 175.861 337.865 175.324 337.518C174.786 337.154 173.998 336.972 172.958 336.972H168.772ZM173.686 348.828C174.795 348.828 175.627 348.646 176.182 348.282C176.754 347.918 177.04 347.355 177.04 346.592C177.04 345.084 175.922 344.33 173.686 344.33H168.772V348.828H173.686ZM196.063 352L192.553 346.93H192.345H188.679V352H184.467V333.8H192.345C193.957 333.8 195.352 334.069 196.531 334.606C197.727 335.143 198.645 335.906 199.287 336.894C199.928 337.882 200.249 339.052 200.249 340.404C200.249 341.756 199.919 342.926 199.261 343.914C198.619 344.885 197.701 345.63 196.505 346.15L200.587 352H196.063ZM195.985 340.404C195.985 339.381 195.655 338.601 194.997 338.064C194.338 337.509 193.376 337.232 192.111 337.232H188.679V343.576H192.111C193.376 343.576 194.338 343.299 194.997 342.744C195.655 342.189 195.985 341.409 195.985 340.404ZM212.4 352.312C210.51 352.312 208.803 351.905 207.278 351.09C205.77 350.275 204.582 349.157 203.716 347.736C202.866 346.297 202.442 344.685 202.442 342.9C202.442 341.115 202.866 339.511 203.716 338.09C204.582 336.651 205.77 335.525 207.278 334.71C208.803 333.895 210.51 333.488 212.4 333.488C214.289 333.488 215.988 333.895 217.496 334.71C219.004 335.525 220.191 336.651 221.058 338.09C221.924 339.511 222.358 341.115 222.358 342.9C222.358 344.685 221.924 346.297 221.058 347.736C220.191 349.157 219.004 350.275 217.496 351.09C215.988 351.905 214.289 352.312 212.4 352.312ZM212.4 348.724C213.474 348.724 214.445 348.481 215.312 347.996C216.178 347.493 216.854 346.8 217.34 345.916C217.842 345.032 218.094 344.027 218.094 342.9C218.094 341.773 217.842 340.768 217.34 339.884C216.854 339 216.178 338.315 215.312 337.83C214.445 337.327 213.474 337.076 212.4 337.076C211.325 337.076 210.354 337.327 209.488 337.83C208.621 338.315 207.936 339 207.434 339.884C206.948 340.768 206.706 341.773 206.706 342.9C206.706 344.027 206.948 345.032 207.434 345.916C207.936 346.8 208.621 347.493 209.488 347.996C210.354 348.481 211.325 348.724 212.4 348.724ZM252.422 333.8L246.468 352H241.944L237.94 339.676L233.806 352H229.308L223.328 333.8H227.696L231.804 346.592L236.094 333.8H239.994L244.154 346.696L248.392 333.8H252.422ZM260.753 352.312C259.315 352.312 257.919 352.121 256.567 351.74C255.233 351.341 254.158 350.83 253.343 350.206L254.773 347.034C255.553 347.606 256.481 348.065 257.555 348.412C258.63 348.759 259.705 348.932 260.779 348.932C261.975 348.932 262.859 348.759 263.431 348.412C264.003 348.048 264.289 347.571 264.289 346.982C264.289 346.549 264.116 346.193 263.769 345.916C263.44 345.621 263.007 345.387 262.469 345.214C261.949 345.041 261.239 344.85 260.337 344.642C258.951 344.313 257.815 343.983 256.931 343.654C256.047 343.325 255.285 342.796 254.643 342.068C254.019 341.34 253.707 340.369 253.707 339.156C253.707 338.099 253.993 337.145 254.565 336.296C255.137 335.429 255.995 334.745 257.139 334.242C258.301 333.739 259.713 333.488 261.377 333.488C262.539 333.488 263.674 333.627 264.783 333.904C265.893 334.181 266.863 334.58 267.695 335.1L266.395 338.298C264.714 337.345 263.033 336.868 261.351 336.868C260.173 336.868 259.297 337.059 258.725 337.44C258.171 337.821 257.893 338.324 257.893 338.948C257.893 339.572 258.214 340.04 258.855 340.352C259.514 340.647 260.511 340.941 261.845 341.236C263.232 341.565 264.367 341.895 265.251 342.224C266.135 342.553 266.889 343.073 267.513 343.784C268.155 344.495 268.475 345.457 268.475 346.67C268.475 347.71 268.181 348.663 267.591 349.53C267.019 350.379 266.153 351.055 264.991 351.558C263.83 352.061 262.417 352.312 260.753 352.312ZM285.445 348.62V352H271.353V333.8H285.107V337.18H275.539V341.132H283.989V344.408H275.539V348.62H285.445ZM299.93 337.232H294.106V333.8H309.966V337.232H304.142V352H299.93V337.232ZM328.924 333.8V352H324.712V344.538H316.444V352H312.232V333.8H316.444V340.976H324.712V333.8H328.924ZM347.322 348.62V352H333.23V333.8H346.984V337.18H337.416V341.132H345.866V344.408H337.416V348.62H347.322ZM361.807 337.232H355.983V333.8H371.843V337.232H366.019V352H361.807V337.232ZM382.669 352.312C380.78 352.312 379.073 351.905 377.547 351.09C376.039 350.275 374.852 349.157 373.985 347.736C373.136 346.297 372.711 344.685 372.711 342.9C372.711 341.115 373.136 339.511 373.985 338.09C374.852 336.651 376.039 335.525 377.547 334.71C379.073 333.895 380.78 333.488 382.669 333.488C384.559 333.488 386.257 333.895 387.765 334.71C389.273 335.525 390.461 336.651 391.327 338.09C392.194 339.511 392.627 341.115 392.627 342.9C392.627 344.685 392.194 346.297 391.327 347.736C390.461 349.157 389.273 350.275 387.765 351.09C386.257 351.905 384.559 352.312 382.669 352.312ZM382.669 348.724C383.744 348.724 384.715 348.481 385.581 347.996C386.448 347.493 387.124 346.8 387.609 345.916C388.112 345.032 388.363 344.027 388.363 342.9C388.363 341.773 388.112 340.768 387.609 339.884C387.124 339 386.448 338.315 385.581 337.83C384.715 337.327 383.744 337.076 382.669 337.076C381.595 337.076 380.624 337.327 379.757 337.83C378.891 338.315 378.206 339 377.703 339.884C377.218 340.768 376.975 341.773 376.975 342.9C376.975 344.027 377.218 345.032 377.703 345.916C378.206 346.8 378.891 347.493 379.757 347.996C380.624 348.481 381.595 348.724 382.669 348.724ZM403.671 333.8C405.283 333.8 406.678 334.069 407.857 334.606C409.053 335.143 409.971 335.906 410.613 336.894C411.254 337.882 411.575 339.052 411.575 340.404C411.575 341.739 411.254 342.909 410.613 343.914C409.971 344.902 409.053 345.665 407.857 346.202C406.678 346.722 405.283 346.982 403.671 346.982H400.005V352H395.793V333.8H403.671ZM403.437 343.55C404.702 343.55 405.664 343.281 406.323 342.744C406.981 342.189 407.311 341.409 407.311 340.404C407.311 339.381 406.981 338.601 406.323 338.064C405.664 337.509 404.702 337.232 403.437 337.232H400.005V343.55H403.437ZM414.582 333.8H418.794V352H414.582V333.8ZM431.823 352.312C429.968 352.312 428.287 351.913 426.779 351.116C425.288 350.301 424.11 349.183 423.243 347.762C422.394 346.323 421.969 344.703 421.969 342.9C421.969 341.097 422.394 339.485 423.243 338.064C424.11 336.625 425.288 335.507 426.779 334.71C428.287 333.895 429.977 333.488 431.849 333.488C433.426 333.488 434.848 333.765 436.113 334.32C437.396 334.875 438.47 335.672 439.337 336.712L436.633 339.208C435.402 337.787 433.877 337.076 432.057 337.076C430.93 337.076 429.925 337.327 429.041 337.83C428.157 338.315 427.464 339 426.961 339.884C426.476 340.768 426.233 341.773 426.233 342.9C426.233 344.027 426.476 345.032 426.961 345.916C427.464 346.8 428.157 347.493 429.041 347.996C429.925 348.481 430.93 348.724 432.057 348.724C433.877 348.724 435.402 348.005 436.633 346.566L439.337 349.062C438.47 350.119 437.396 350.925 436.113 351.48C434.83 352.035 433.4 352.312 431.823 352.312ZM448.009 352.312C446.57 352.312 445.175 352.121 443.823 351.74C442.488 351.341 441.414 350.83 440.599 350.206L442.029 347.034C442.809 347.606 443.736 348.065 444.811 348.412C445.886 348.759 446.96 348.932 448.035 348.932C449.231 348.932 450.115 348.759 450.687 348.412C451.259 348.048 451.545 347.571 451.545 346.982C451.545 346.549 451.372 346.193 451.025 345.916C450.696 345.621 450.262 345.387 449.725 345.214C449.205 345.041 448.494 344.85 447.593 344.642C446.206 344.313 445.071 343.983 444.187 343.654C443.303 343.325 442.54 342.796 441.899 342.068C441.275 341.34 440.963 340.369 440.963 339.156C440.963 338.099 441.249 337.145 441.821 336.296C442.393 335.429 443.251 334.745 444.395 334.242C445.556 333.739 446.969 333.488 448.633 333.488C449.794 333.488 450.93 333.627 452.039 333.904C453.148 334.181 454.119 334.58 454.951 335.1L453.651 338.298C451.97 337.345 450.288 336.868 448.607 336.868C447.428 336.868 446.553 337.059 445.981 337.44C445.426 337.821 445.149 338.324 445.149 338.948C445.149 339.572 445.47 340.04 446.111 340.352C446.77 340.647 447.766 340.941 449.101 341.236C450.488 341.565 451.623 341.895 452.507 342.224C453.391 342.553 454.145 343.073 454.769 343.784C455.41 344.495 455.731 345.457 455.731 346.67C455.731 347.71 455.436 348.663 454.847 349.53C454.275 350.379 453.408 351.055 452.247 351.558C451.086 352.061 449.673 352.312 448.009 352.312ZM465.972 333.8H470.184V352H465.972V333.8ZM491.196 333.8V352H487.738L478.664 340.95V352H474.504V333.8H477.988L487.036 344.85V333.8H491.196ZM501.482 352.312C500.043 352.312 498.648 352.121 497.296 351.74C495.961 351.341 494.886 350.83 494.072 350.206L495.502 347.034C496.282 347.606 497.209 348.065 498.284 348.412C499.358 348.759 500.433 348.932 501.508 348.932C502.704 348.932 503.588 348.759 504.16 348.412C504.732 348.048 505.018 347.571 505.018 346.982C505.018 346.549 504.844 346.193 504.498 345.916C504.168 345.621 503.735 345.387 503.198 345.214C502.678 345.041 501.967 344.85 501.066 344.642C499.679 344.313 498.544 343.983 497.66 343.654C496.776 343.325 496.013 342.796 495.372 342.068C494.748 341.34 494.436 340.369 494.436 339.156C494.436 338.099 494.722 337.145 495.294 336.296C495.866 335.429 496.724 334.745 497.868 334.242C499.029 333.739 500.442 333.488 502.106 333.488C503.267 333.488 504.402 333.627 505.512 333.904C506.621 334.181 507.592 334.58 508.424 335.1L507.124 338.298C505.442 337.345 503.761 336.868 502.08 336.868C500.901 336.868 500.026 337.059 499.454 337.44C498.899 337.821 498.622 338.324 498.622 338.948C498.622 339.572 498.942 340.04 499.584 340.352C500.242 340.647 501.239 340.941 502.574 341.236C503.96 341.565 505.096 341.895 505.98 342.224C506.864 342.553 507.618 343.073 508.242 343.784C508.883 344.495 509.204 345.457 509.204 346.67C509.204 347.71 508.909 348.663 508.32 349.53C507.748 350.379 506.881 351.055 505.72 351.558C504.558 352.061 503.146 352.312 501.482 352.312ZM515.598 337.232H509.774V333.8H525.634V337.232H519.81V352H515.598V337.232ZM541.992 348.62V352H527.9V333.8H541.654V337.18H532.086V341.132H540.536V344.408H532.086V348.62H541.992ZM557.33 348.1H548.88L547.268 352H542.952L551.064 333.8H555.224L563.362 352H558.942L557.33 348.1ZM556.004 344.902L553.118 337.934L550.232 344.902H556.004ZM565.25 333.8H573.518C575.494 333.8 577.236 334.181 578.744 334.944C580.269 335.689 581.448 336.747 582.28 338.116C583.129 339.485 583.554 341.08 583.554 342.9C583.554 344.72 583.129 346.315 582.28 347.684C581.448 349.053 580.269 350.119 578.744 350.882C577.236 351.627 575.494 352 573.518 352H565.25V333.8ZM573.31 348.542C575.13 348.542 576.577 348.039 577.652 347.034C578.744 346.011 579.29 344.633 579.29 342.9C579.29 341.167 578.744 339.797 577.652 338.792C576.577 337.769 575.13 337.258 573.31 337.258H569.462V348.542H573.31Z" fill="#4D4E4E"/>
<rect x="307" y="153.188" width="138.265" height="18.9737" transform="rotate(-3.39495 307 153.188)" fill="#EEA562" fill-opacity="0.68"/>
<path d="M391.188 126.942C388.928 133.138 374.424 131.024 369.15 130.628C364.927 130.311 362.547 130.711 361.547 125.752C361.245 124.253 361.383 122.503 361.345 120.978C361.263 117.752 359.994 111.535 364.262 110.488C370.341 110.271 376.438 110.342 382.522 110.311C384.975 110.298 388.537 109.602 390.283 111.792C391.773 113.662 392.157 124.28 391.188 126.942ZM370.215 107.859C369.993 102.9 370.725 96.8527 377.199 97.4791C382.622 98.0048 382.469 103.233 382.544 107.649C381.515 107.727 380.564 107.801 379.796 107.806C376.605 107.819 373.411 107.826 370.215 107.859ZM375.997 92.5553C379.115 92.3562 382.671 92.5284 384.962 95.0094C387.737 98.0138 387.411 103.369 387.391 107.501C386.628 107.457 385.834 107.468 385.04 107.499C384.995 104.436 385.069 100.969 383.563 98.2755C382.283 95.9892 379.619 95.1682 377.199 94.9624C369.179 94.2846 367.478 101.513 367.731 107.906C366.97 107.92 366.209 107.926 365.451 107.949C365.009 99.922 366.462 93.166 375.997 92.5553ZM391.312 108.624C390.915 108.32 390.418 108.11 389.884 107.938C389.837 103.222 390.239 97.4187 387.113 93.6984C384.328 90.3831 380.056 89.779 375.997 90.0385C365.034 90.741 362.385 98.2621 362.973 108.237C359.577 109.233 358.961 111.479 358.828 115.072C358.679 119.089 357.863 125.644 359.611 129.447C361.549 133.671 367.425 133.085 371.137 133.25C376.922 133.51 384.492 134.19 390.072 132.398C394.124 131.096 393.756 127.575 393.856 123.667C393.945 120.331 394.557 111.123 391.312 108.624Z" fill="#4D4E4E"/>
<path d="M373.876 125.624C374.238 124.046 374.597 122.472 374.91 120.885C374.919 120.841 374.906 120.803 374.91 120.76C374.994 120.398 374.934 120.004 374.588 119.662C372.645 117.736 375.584 114.769 377.649 116.541C378.308 117.105 379.069 118.93 378.033 119.655C377.576 119.975 377.301 120.51 377.461 121.076C377.88 122.57 378.261 124.073 378.672 125.568C377.073 125.572 375.476 125.633 373.876 125.624ZM380.047 121.089C382.223 118.545 380.411 114.239 377.155 113.539C372.861 112.617 369.811 117.541 372.355 120.894C371.98 122.776 371.581 124.648 371.131 126.514C370.931 127.337 371.512 128.064 372.335 128.107C374.996 128.243 377.662 127.999 380.322 128.107C381.118 128.138 381.759 127.275 381.526 126.514C380.976 124.72 380.537 122.897 380.047 121.089Z" fill="#4D4E4E"/>
<path d="M432.988 155.442C429.483 156.377 424.746 155.626 421.166 155.655C401.847 155.814 382.529 155.787 363.21 155.717C353.14 155.682 343.071 155.632 333.003 155.503C326.248 155.415 316.32 157.899 314.599 149.36C315.313 149.333 316.477 149.044 317.316 148.997C320.578 148.809 323.85 148.744 327.117 148.671C336.399 148.46 345.684 148.391 354.966 148.351C376.788 148.252 398.62 148.324 420.438 148.798C424.337 148.881 428.232 148.977 432.129 149.12C433.589 149.174 435.299 149.013 436.72 149.315C437.202 149.418 438.515 149.122 438.861 149.431C440.589 150.964 434.114 155.142 432.988 155.442ZM328.965 91.3248C329.007 88.213 328.581 82.712 329.954 79.9111C332.42 74.8732 340.043 75.7748 344.728 75.6965C353.695 75.5443 362.671 75.956 371.645 75.8911C380.568 75.8285 389.493 75.7703 398.416 75.7121C402.528 75.6853 406.64 75.7054 410.752 75.824C412.753 75.8821 415.678 75.4325 417.606 76.0902C424.164 78.325 423.322 80.8082 423.472 85.4502C424.129 105.419 424.182 125.364 423.716 145.337C404.067 144.648 384.319 144.948 364.714 144.968C353.254 144.979 341.791 145.044 330.333 145.275C330.142 127.308 328.732 109.271 328.965 91.3248ZM440.336 146.172C435.913 145.865 431.479 145.648 427.041 145.467C427.325 133.418 427.491 121.369 427.356 109.316C427.285 102.87 427.137 96.4231 426.944 89.9781C426.828 86.1168 427.48 81.0096 426.158 77.3967C423.424 69.9203 410.939 72.4102 404.884 72.3542C393.337 72.2469 381.779 72.4683 370.232 72.5466C359.415 72.6205 348.445 71.7189 337.652 72.6652C331.584 73.1954 327.64 74.3229 326.469 80.7478C324.622 90.8975 325.97 101.674 326.299 111.893C326.658 123.036 326.911 134.179 327.008 145.326C326.649 145.335 326.292 145.335 325.933 145.342C323.273 145.409 315.06 144.326 312.024 146.33C311.562 146.48 311.216 146.838 311.105 147.38C310.955 147.764 310.97 148.127 311.123 148.442C312.339 160.107 320.989 158.681 330.116 158.818C345.63 159.053 361.15 159.084 376.667 159.107C391.853 159.131 407.042 159.136 422.228 159.001C430.896 158.923 441.613 159.858 441.999 147.849C442.03 146.899 441.21 146.232 440.336 146.172Z" fill="#4D4E4E"/>
<path d="M414.486 138.573C409.862 138.264 405.12 138.546 400.486 138.535C379.582 138.474 358.409 139.416 337.525 138.376C337.421 136.933 337.54 135.405 337.525 133.987C337.454 127.336 337.385 120.683 337.314 114.03C337.212 104.276 337.108 94.5198 337.006 84.7639H409.478C411.159 84.7639 413.978 84.256 415.983 84.5178C415.963 84.6632 415.937 84.8176 415.886 85.0234C415.507 86.5222 415.93 88.6967 415.95 90.238C416.028 96.5533 416.105 102.873 416.183 109.191C416.301 118.763 417.525 129.054 416.607 138.613C415.893 138.635 415.154 138.617 414.486 138.573ZM416.014 84.0122C415.926 83.8444 415.99 83.8064 416.014 84.0122V84.0122ZM419.055 139.841C418.825 121.063 418.594 102.283 418.361 83.5044C418.354 82.8243 417.798 82.2471 417.115 82.2471H335.744C335.42 82.2471 335.178 82.3679 334.983 82.5312C334.936 82.567 334.888 82.5961 334.843 82.6364C334.841 82.6409 334.839 82.6453 334.837 82.6498C334.633 82.8511 334.493 83.1286 334.497 83.5044C334.695 102.206 334.892 120.911 335.089 139.613C335.096 140.293 335.655 140.868 336.336 140.87C363.493 140.946 390.652 141.022 417.809 141.101C418.479 141.101 419.064 140.521 419.055 139.841Z" fill="#4D4E4E"/>
<path d="M659.978 464.493C662.331 462.992 662.032 463.617 660.751 464.771C657.666 467.015 654.493 469.129 651.231 471.094C654.309 469.149 657.316 467.02 659.978 464.493C657.626 466.724 662.331 462.992 659.978 464.493ZM665.128 461.467C663.722 462.582 662.286 463.646 660.841 464.701C662.216 463.566 663.632 462.441 665.128 461.467C664.668 461.762 664.538 461.937 665.128 461.467ZM707.481 359.719C707.05 360.945 706.627 362.172 706.196 363.403C704.92 366.503 703.572 369.535 701.971 372.483C703.984 368.724 705.663 364.781 706.975 360.714C707.186 360.217 707.434 359.611 707.726 358.87C707.726 358.87 707.635 359.179 707.481 359.719C707.635 359.179 707.293 360.254 707.481 359.719ZM649.779 279.252C650.6 279.204 651.427 279.122 652.255 279.132C653.041 279.14 653.767 279.38 654.539 279.478C652.666 279.464 650.789 279.542 648.921 279.683L649.779 279.252ZM677.889 389.798C677.809 389.782 677.763 389.717 677.791 389.544C677.808 389.651 677.8 389.769 677.781 389.888C677.289 390.309 676.783 390.727 676.254 391.142C676.261 390.87 676.368 390.599 676.673 390.34C674.835 390.782 672.404 392.735 671.857 394.312C671.815 394.34 671.773 394.371 671.731 394.399C670.43 394.578 672.193 393.09 672.509 392.318C668.736 394.458 664.903 396.62 660.791 397.994C661.022 398.985 660.516 398.746 660.046 399.616L659.548 399.378C659.715 399.458 659.563 399.864 659.727 400.106C657.423 400.761 655.136 401.107 652.942 401.061C653.262 400.682 653.614 400.285 654.064 400.077C652.06 400.83 650.101 399.741 648.112 399.474C648.36 399.261 649.039 399.259 649.739 399.218C650.424 399.228 651.15 399.146 651.44 399.188C651.095 399.091 649.086 399.155 649.207 398.521L648.825 399.167C647.414 398.731 649.233 398.59 648.937 397.985C648.394 397.817 647.653 397.524 647.139 397.922C646.669 398.28 646.55 399.042 645.896 399.14C645.437 398.87 645 398.561 644.565 398.23C644.5 398.123 644.39 398.04 644.251 397.967C643.946 397.718 643.649 397.447 643.358 397.158C643.695 397.113 643.837 396.743 643.932 396.532C642.973 396.638 642.749 396.26 642.597 395.713C642.406 395.175 642.343 394.43 641.583 393.561C641.955 393.275 642.629 394.122 643.115 393.901C642.109 393.185 641.08 391.562 640.25 391.639C639.33 389.622 639.277 388.018 638.918 386.757C639.378 387.838 639.978 387.116 640.658 387.807C640.28 387.43 639.96 386.998 639.656 386.557C639.348 386.027 638.971 385.408 638.68 384.723C638.435 384.195 638.215 383.629 638.014 383.062C638.039 382.14 638.113 381.214 638.24 380.288C638.435 380.316 638.643 380.396 638.954 380.557C639.407 379.285 639.302 379.079 639.077 378.847C638.872 378.626 638.601 378.401 639.05 377.174L638.617 378.304C638.616 378.261 638.609 378.233 638.611 378.199C638.873 376.995 639.224 375.795 639.633 374.607C639.837 374.76 639.965 374.965 640.056 374.591C639.876 374.285 639.877 373.955 639.979 373.625C640.023 373.513 640.071 373.405 640.111 373.293C640.571 372.352 641.625 371.699 641.943 370.701L641.878 371.086C642.022 370.937 642.842 369.85 643.043 369.883C643.07 369.879 643.077 369.903 643.097 369.899C643.056 369.846 643.016 369.797 642.953 369.745C643.727 369.432 644.614 368.586 645.175 367.385C644.863 366.6 647.217 363.724 647.166 362.923C646.965 363.472 646.712 363.881 646.187 364.365L645.623 363.843C646.344 362.791 646.24 364.177 646.55 362.909C645.587 362.484 645.557 364.367 644.997 365.049C644.971 364.649 645.037 364.149 645.264 363.628C645.082 363.891 644.898 364.149 644.714 364.408C644.945 364.045 645.175 363.69 645.415 363.337C645.362 363.436 645.305 363.534 645.264 363.628C645.502 363.289 645.728 362.934 645.929 362.57C646.095 362.332 646.26 362.101 646.426 361.862C646.517 362.019 646.647 362.094 646.883 361.982C647.978 361.078 647.851 360.562 647.866 359.887C648.117 359.563 648.37 359.23 648.617 358.905C649.064 358.927 649.327 359.385 650.264 358.252L649.862 359.49C651.354 359.216 650.254 358.358 650.979 357.798C650.597 357.86 650.396 357.689 649.773 358.503C649.423 358.351 649.804 357.639 650.016 357.324L649.839 357.491C649.833 357.46 649.826 357.435 649.819 357.404C650.492 356.582 651.169 355.78 651.844 355.012C651.861 355.003 651.88 354.998 651.892 354.993L651.762 355.333C652.048 354.818 652.419 354.382 652.748 353.989C652.94 353.774 653.133 353.559 653.327 353.352L653.36 353.426C653.389 353.366 653.406 353.303 653.424 353.241C653.706 352.936 653.982 352.639 654.259 352.345C654.309 352.541 654.422 352.59 654.721 352.196C655.025 352.849 653.668 353.914 653.275 354.232C653.883 353.741 654.971 353.698 654.143 354.664C654.781 354.801 654.772 353.627 655.414 353.323C655.209 353.29 655.218 352.999 655.06 352.909C655.62 353.414 656.805 351.183 656.478 350.773L655.903 351.964C655.594 351.737 655.784 351.122 655.84 350.704C658.116 348.38 660.55 346.22 663.13 344.268C663.298 344.533 663.3 344.987 663.756 344.968C665.087 344.372 664.513 343.88 664.301 343.403C666.882 341.543 669.625 339.886 672.46 338.56C672.522 338.666 672.537 338.803 672.464 339.022C673.35 338.742 672.843 338.675 672.639 338.473C673.053 338.283 673.468 338.1 673.879 337.928C673.992 338.061 674.113 338.219 673.726 338.48C674.534 338.425 674.501 338.07 674.45 337.685C675.229 337.369 676.014 337.084 676.802 336.827C677.008 336.898 677.193 336.986 677.335 337.101C678.044 336.846 678.38 336.574 678.557 336.295C678.991 336.184 679.429 336.074 679.872 335.976C679.674 336.136 679.563 336.334 679.671 336.663C680.397 335.907 680.908 335.786 681.6 335.636C683.006 335.405 684.412 335.29 685.819 335.29C691.278 335.49 696.154 337.138 700.458 340.615C700.421 341.728 700.358 342.837 700.269 343.945C699.906 344.594 700.015 344.823 700.164 344.997C700.13 345.319 700.097 345.64 700.064 345.965C699.812 345.644 699.456 345.387 699.272 345.084C699.456 345.871 699.733 346.177 700.003 346.525C699.972 346.816 699.943 347.107 699.9 347.396C699.785 347.439 699.642 347.37 699.53 347.39C699.584 347.683 699.683 347.907 699.795 348.117C699.683 348.907 699.571 349.696 699.433 350.477C699.402 350.511 699.38 350.623 699.35 350.902C699.077 352.408 698.744 353.915 698.376 355.405C698.193 355.583 698.025 355.671 697.886 355.676C698.016 355.751 698.13 355.858 698.228 355.996C698.038 356.735 697.832 357.474 697.616 358.208L696.795 359.879C695.837 360.055 696.872 358.638 696.715 357.794C695.942 359.772 696.438 359.21 696.418 360.914C696.256 361.272 696.254 361.841 696.261 362.403C696.022 363.069 695.766 363.727 695.51 364.385C695.5 364.326 695.499 364.265 695.479 364.2C695.032 365.6 694.38 364.576 694.278 366.094C694.494 365.959 694.791 365.792 695.042 365.563C694.723 366.331 694.387 367.092 694.043 367.848C693.874 368.059 693.693 368.11 693.498 367.81C693.226 368.496 693.188 369.082 693.334 369.386C693.148 369.772 692.943 370.158 692.749 370.545C692.56 369.838 692.992 368.739 692.049 369.679L692.093 371.035C691.741 371.079 690.828 372.712 690.278 372.285C690.037 372.899 690.237 373.143 690.128 373.706C689.588 373.957 689.195 374.144 689.244 374.932C691.066 372.773 690.78 373.569 692.14 371.531C692.178 371.576 692.172 371.637 692.155 371.718C691.189 373.523 690.147 375.282 689.037 376.979C688.718 377.008 688.776 376.252 688.607 376.021C687.608 377.098 688.403 377.749 687.39 378.609C688.083 376.663 686.638 378.949 685.947 379.229C686.643 379.315 687.375 379.029 688.301 378.079C685.339 382.422 681.871 386.411 677.889 389.798C678.819 389.006 677.809 389.782 677.889 389.798ZM642.693 367.8C642.621 368.173 642.492 368.348 642.341 368.447C642.454 368.234 642.575 368.015 642.693 367.8ZM638.473 388.004C638.515 387.911 638.551 387.801 638.584 387.664C638.584 387.664 638.668 388.427 638.831 389.181C638.871 389.425 638.924 389.649 638.976 389.861C638.775 389.248 638.612 388.63 638.473 388.004C638.612 388.63 638.515 387.911 638.473 388.004ZM643.335 368.026C642.968 368.302 642.736 368.064 642.719 367.75C642.997 367.241 643.283 366.742 643.581 366.244C643.336 366.812 643.215 367.4 643.335 368.026C643.215 367.4 642.968 368.302 643.335 368.026ZM688.47 377.845L688.227 377.494C688.615 376.899 688.647 377.239 688.996 377.049C688.818 377.316 688.648 377.577 688.47 377.845ZM724.397 371.479C723.557 365.457 722.586 359.203 720.122 353.642C718.489 349.095 716.241 344.915 713.292 341.34L713.873 341.972C712.928 340.62 711.687 339.505 710.651 338.23C710.698 336.658 710.948 335.106 710.921 333.533C710.866 332.452 710.632 330.926 710.249 328.534C710.268 330.091 710.28 331.646 710.314 333.201C710.311 333.358 710.306 333.53 710.302 333.695C709.934 327.999 708.761 322.37 706.844 317.02C706.48 315.835 706.459 315.366 707.083 316.282C706.693 315.285 706.36 314.327 705.957 313.478C705.247 312.087 704.583 310.646 703.755 309.316C703.366 308.75 702.978 308.184 702.541 307.656C701.049 305.047 699.366 302.58 697.517 300.252C700.013 302.615 704.701 309.707 700.207 302.177C700.328 302.055 694.812 296.347 694.695 296.494C693.718 294.852 692.048 293.491 690.662 292.221C688.938 290.632 686.893 289.264 685.324 287.527C685.114 287.32 685.042 287.186 685.148 287.156C683.206 286.055 682.059 285.451 680.974 284.968C679.86 284.55 678.834 284.189 677.184 283.492C674.18 281.719 671.051 280.657 667.629 280.105C672.145 281.383 675.048 282.667 677.177 283.672C678.423 284.342 679.71 284.968 680.928 285.695C682.217 286.541 683.501 287.391 684.8 288.223C686.135 289.246 687.471 290.265 688.803 291.283C689.851 292.248 691.142 293.314 692.585 294.719C692.493 294.662 692.276 294.493 691.994 294.266C681.993 284.906 668.909 279.777 655.342 279.5C655.027 279.383 655.67 279.26 655.685 279.255C656.2 279.157 656.721 279.091 657.238 279.021C657.9 278.989 658.652 279.045 659.288 278.848C656.266 278.376 653.079 278.508 650.056 278.951C646.922 279.406 643.756 279.803 640.639 280.361C641.579 280.113 642.534 279.913 643.493 279.734C643.78 279.676 645.12 279.204 645.28 279.307C644.781 278.984 643.091 279.461 642.552 279.524C638.884 280.082 635.246 280.845 631.611 281.619C632.916 281.572 634.796 281.426 637.517 280.977C638.892 280.825 640.483 280.609 642.332 280.331C643.578 280.209 644.819 280.094 646.063 279.964C633.852 281.397 621.72 285.549 610.598 290.902C605.393 293.408 600.366 296.345 595.742 299.856C593.433 301.609 591.225 303.51 589.159 305.557C588.212 306.496 587.236 307.453 586.388 308.501C586.042 308.926 585.744 309.493 585.936 310.05C586.445 311.52 588.974 311.675 590.203 311.708C591.888 311.749 594.307 311.585 595.532 310.203C600.731 304.34 607.153 299.732 613.986 296.086C614.107 296.055 614.167 296.053 614.153 296.093C614.29 295.989 614.443 295.879 614.607 295.767C618.51 293.732 622.58 291.985 626.701 290.501C626.315 290.731 625.844 290.982 625.252 291.255C624.37 291.701 623.218 292.192 621.748 292.82C628.562 290.57 635.429 288.429 642.452 286.982C648.772 285.679 655.312 285.523 661.697 286.257C662.038 286.331 662.38 286.421 662.722 286.507C664.423 287.055 664.942 287.369 664.715 287.409C663.967 287.465 663.114 287.193 662.384 287.072C661.096 286.845 659.802 286.659 658.498 286.537C656.007 286.285 653.392 286.148 650.896 286.487C673.895 286.391 694.468 304.67 697.876 327.927L697.978 328.67L698.03 329.04L698.061 329.225C698.053 329.274 698.115 329.399 698.027 329.343C697.322 329.106 696.619 328.812 695.89 328.66L694.813 328.405C694.314 328.294 693.808 328.174 693.301 328.061C690.647 327.679 688.034 327.485 685.347 327.52C685.079 328.042 684.215 328.26 682.84 328.481C682.158 328.621 681.346 328.79 680.418 328.986C679.5 329.215 678.475 329.526 677.366 329.935C676.555 330.031 675.744 330.131 674.937 330.228C674.667 330.273 674.486 330.305 674.486 330.305C674.602 330.258 674.706 330.264 674.799 330.317C674.879 330.495 674.002 331.004 674.566 331.064C660.521 335.196 647.047 345.783 638.26 358.265C639.38 355.85 640.771 353.579 642.375 351.47C633.917 362.263 624.364 377 628.547 391.413C626.805 387.979 626.872 383.195 627.373 379.462C627.913 375.416 629.136 371.392 630.808 367.674C629.291 370.825 628.199 374.243 627.475 377.667C627.097 379.452 626.854 381.262 626.737 383.077C626.7 383.679 626.926 385.484 626.488 385.971L627.298 387.251C627.46 388.688 627.624 389.741 627.793 390.48C627.866 390.868 628.182 391.677 628.068 392.077C628.066 392.092 627.574 391.233 627.526 391.117C627.32 390.646 627.159 390.158 626.977 389.683C626.686 388.948 626.46 388.681 626.487 389.696C627.13 393.218 628.296 395.778 629.363 397.604C629.948 398.494 630.429 399.252 630.949 399.82C631.439 400.411 631.859 400.874 632.271 401.206C633.041 401.895 633.551 402.22 633.931 402.331C634.444 402.518 634.724 402.205 635.217 402.239C635.969 402.318 636.685 402.741 637.351 403.075C640.333 405.006 643.842 406.106 647.331 406.592C650.8 407.271 654.619 406.895 658.076 406.272C657.745 406.396 657.541 406.497 657.45 406.594C657.165 406.875 657.856 407.006 658.334 407.09C661.543 405.893 664.79 404.806 668.039 403.731C671.565 402.566 674.879 400.997 678.116 399.155C679.466 398.254 681.029 397.348 682.613 396.066C682.888 396.153 681.483 397.418 679.825 398.627C678.22 399.91 676.342 401.064 676.073 401.547C681.399 398.358 686.09 394.412 690.444 389.951C691.745 388.492 693.599 386.719 694.238 384.8C695.505 383.389 696.546 381.885 697.637 380.496C699.027 378.39 700.418 376.319 701.734 374.159C704.96 368.228 707.648 362.099 709.157 355.468C709.17 355.501 709.18 355.529 709.198 355.559C709.006 356.539 708.082 358.943 708.783 359.783C708.962 359.996 708.899 360.39 708.877 360.64C708.771 361.692 708.49 362.738 708.239 363.763C708.822 361.515 709.355 359.26 709.794 356.981C712.18 363.068 713.327 369.582 713.637 376.126C713.587 382.204 712.797 388.263 711.382 394.174C711.19 394.132 711.077 393.737 710.906 392.848C710.162 396.554 708.327 400.068 707.806 403.809C707.296 407.46 705.496 410.899 703.876 414.152C705.084 411.779 706.185 409.369 707.259 406.924C707.037 407.507 706.848 408.03 706.664 408.539C703.631 415.808 699.729 422.791 695.223 429.381C695.287 428.849 695.804 427.733 694.322 429.947C693.982 430.681 693.526 431.51 692.979 432.414C688.189 439.692 681.657 445.725 675.372 451.624C675.372 451.624 675.824 451.174 676.261 450.721C676.689 450.252 677.116 449.79 677.116 449.79C674.484 452.226 671.674 454.464 668.86 456.675C668.761 456.732 668.835 456.644 668.779 456.666C668.681 456.834 668.578 457.006 668.541 457.143C664.932 459.498 658.511 464.218 651.008 468.924C650.131 469.752 649.033 470.375 648.021 470.999C646.134 472.168 644.192 473.25 642.23 474.279C637.631 476.702 632.867 478.705 628.066 480.66C625.311 481.646 623.167 482.519 622.229 482.918C625.72 481.647 628.693 480.558 633.057 478.967L632.655 479.951C628.746 481.489 628.563 481.367 628.441 481.286C628.321 481.213 628.266 481.162 624.549 482.696C625.597 483.015 627.153 482.293 628.117 481.949C630.038 481.271 631.897 480.394 633.758 479.572C636.082 478.424 638.41 477.312 640.729 476.163C638.283 477.753 635.639 479.145 632.964 480.286C635.313 479.307 637.649 478.288 639.957 477.211C637.216 478.526 634.429 479.738 631.604 480.862C632.059 480.666 632.513 480.482 632.964 480.286C628.662 481.987 624.349 483.633 619.907 484.923C620.411 484.585 620.283 484.449 618.681 484.775C616.308 485.419 613.878 485.881 611.485 486.441C609.034 487.01 606.638 487.777 604.194 488.39C601.62 488.794 599.042 489.151 596.439 489.335C596.193 489.283 596.11 489.212 596.094 489.125C596.064 489.009 596.129 488.885 596.038 488.778C595.97 488.663 595.656 488.609 595.17 488.53C596.277 487.759 597.635 486.736 599.613 485.306L598.151 486.631C597.719 487.05 597.348 487.447 596.589 487.967C597.083 487.881 597.695 487.738 598.196 487.63C598.096 487.553 597.944 487.517 597.931 487.438C598.755 486.932 599.82 486.397 600.451 485.622C601.264 484.63 601.934 483.827 603.018 483.102C601.765 483.711 601.389 483.67 596.958 487C596.966 487.001 596.599 487.184 596.574 487.084C596.467 486.721 598.031 485.654 598.289 485.446C599.146 484.739 600.015 484.052 600.892 483.378L599.603 484.301C599.677 484.217 599.746 484.136 599.815 484.058C605.4 479.919 610.999 475.808 616.321 471.319C616.361 471.283 616.416 471.242 616.45 471.22C616.027 471.633 615.611 472.05 615.179 472.449C617.359 470.487 619.541 468.52 621.751 466.585C623.529 464.884 625.345 463.232 627.107 461.516L627.042 461.66C627.325 461.375 627.579 461.101 627.818 460.824C629.74 458.935 631.619 457.004 633.469 455.045C633.409 455.116 633.377 455.2 633.384 455.293C633.532 455.398 634.356 454.427 634.43 454.339C634.875 454.003 634.757 453.177 634.293 452.495C635.355 453.423 634.694 454.359 633.999 455.246C630.872 458.656 627.628 461.843 624.242 464.976C625.882 463.48 627.585 461.851 629.465 460.682C630.083 460.343 629.366 461.416 626.263 464.352C627.805 463.44 629.072 461.98 630.266 460.646C631.777 458.956 633.298 457.294 634.885 455.681C635.117 455.384 635.335 455.104 635.546 454.819C634.766 455.608 635.675 454.063 635.24 454.393C635.729 454.36 635.647 453.286 635.587 453.003C635.42 452.254 634.988 451.58 634.524 450.994C633.352 449.513 631.789 448.346 630.209 447.353C628.615 446.354 626.892 445.499 625.084 444.969C624.678 444.854 621.877 444.04 621.586 444.678C624.389 444.58 627.269 445.956 629.639 447.349C629.69 447.573 627.948 446.904 627.821 446.856C626.658 446.396 625.477 445.951 624.249 445.703C623.248 445.373 622.18 445.112 621.125 445.215C619.948 445.321 619.346 446.012 618.563 446.839C616.69 448.829 614.778 450.777 612.828 452.681C608.843 456.575 604.7 460.305 600.419 463.851C596.1 467.442 591.615 470.786 587.113 474.116C584.763 475.852 582.412 477.591 580.078 479.341C577.974 480.923 575.613 482.096 573.394 483.507C573.356 483.251 573.665 482.985 573.719 482.748C573.815 482.313 572.408 483.04 572.338 483.079C570.442 484.249 568.173 485.852 567.421 488.099C567.044 488.903 567.135 489.894 567.802 490.502C568.099 490.73 568.288 490.653 568.532 490.742C568.539 490.744 568.55 490.749 568.557 490.75C569.83 492.647 572.094 494.101 574.001 495.25C574.536 496.075 575.73 496.713 577.161 496.89C580.979 498.587 585.079 499.49 589.177 500.151C593.468 500.847 597.788 501.39 602.113 501.807C610.907 502.672 619.735 502.962 628.567 503.103C628.587 503.217 628.18 503.344 627.216 503.484C633.24 503.714 630.587 503.398 629.813 503.123C632.776 503.174 635.763 503.206 638.765 503.225C639.104 503.399 639.331 503.574 636.386 503.649C641.406 503.943 642.171 503.617 642.76 503.243C648.378 503.245 654.036 503.162 659.678 502.927C660.719 503.006 661.606 503.088 662.268 503.191C665.289 503.017 668.348 502.799 671.32 502.186C674.211 501.934 677.084 501.628 679.935 501.254C678.708 501.513 677.988 501.77 678.241 502.061C681.752 501.336 685.236 500.525 688.765 499.879C690.889 499.361 687.837 496.423 687.219 495.816C685.765 494.409 684.219 493.298 682.441 492.346C681.173 491.672 679.841 491.096 678.44 490.782C676.877 490.43 675.444 490.591 673.881 490.865C670.705 491.418 667.516 491.842 664.312 492.171C651.379 493.502 638.377 493.281 625.406 493.454C619.82 493.525 614.237 493.494 608.653 493.323C632.9 488.941 656.005 478.312 675.331 462.579C676.189 461.975 676.904 461.448 677.49 461.004C678.468 460.193 679.436 459.354 680.261 458.38C681.855 456.96 683.414 455.505 684.945 454.014C683.774 455.509 682.984 456.823 681.729 458.236C683.827 456.11 685.03 454.67 685.964 453.559C686.578 452.77 687.045 452.111 687.529 451.436C688.926 450.004 690.294 448.548 691.629 447.06C691.885 446.936 691.797 447.23 692.029 447.136C693.209 445.708 694.006 444.576 694.682 443.547C698.092 439.498 701.286 435.257 704.222 430.844C705.695 429.01 706.856 426.767 708.056 424.742C709.551 422.219 710.967 419.652 712.296 417.037C714.949 411.821 717.261 406.419 719.183 400.873C719.53 400.164 719.805 399.293 720.303 398.674C720.227 398.216 720.294 397.727 720.354 397.267C721.828 392.265 722.847 386.835 723.293 381.301C723.535 379.287 723.653 377.253 723.729 375.227C723.739 373.445 723.779 371.664 723.679 369.883C723.679 369.883 723.762 369.3 723.897 369.322C724.198 369.367 724.256 371.076 724.271 371.305C724.406 375.287 724.183 379.222 724.093 383.202C724.509 379.598 724.526 377.167 724.584 375.388C724.537 373.612 724.475 372.487 724.397 371.479C724.475 372.487 724.117 369.473 724.397 371.479Z" fill="#EEA562"/>
</g>
</svg>
