<svg width="1440" height="694" viewBox="0 0 1440 694" fill="none" xmlns="http://www.w3.org/2000/svg">
<circle cx="58.5" cy="300.5" r="227" stroke="white"/>
<circle cx="58.5" cy="300.5" r="227" stroke="white"/>
<path d="M325.5 266.5C325.5 399.602 217.823 507.5 85 507.5C-47.8235 507.5 -155.5 399.602 -155.5 266.5C-155.5 133.398 -47.8235 25.5 85 25.5C217.823 25.5 325.5 133.398 325.5 266.5Z" stroke="white"/>
<path d="M325.5 266.5C325.5 399.602 217.823 507.5 85 507.5C-47.8235 507.5 -155.5 399.602 -155.5 266.5C-155.5 133.398 -47.8235 25.5 85 25.5C217.823 25.5 325.5 133.398 325.5 266.5Z" stroke="white"/>
<mask id="mask0_235:880" style="mask-type:alpha" maskUnits="userSpaceOnUse" x="-126" y="83" width="402" height="402">
<circle cx="75" cy="284" r="200.818" transform="rotate(-45 75 284)" fill="#C4C4C4"/>
</mask>
<g mask="url(#mask0_235:880)">
<rect x="-236.047" y="319.742" width="489.751" height="4.78139" transform="rotate(-45 -236.047 319.742)" fill="#F5F5F7"/>
<rect x="-226.388" y="329.401" width="489.751" height="4.78139" transform="rotate(-45 -226.388 329.401)" fill="#F5F5F7"/>
<rect x="-216.728" y="339.061" width="489.751" height="4.78139" transform="rotate(-45 -216.728 339.061)" fill="#F5F5F7"/>
<rect x="-207.068" y="348.721" width="489.751" height="4.78139" transform="rotate(-45 -207.068 348.721)" fill="#F5F5F7"/>
<rect x="-197.408" y="358.381" width="489.751" height="4.78139" transform="rotate(-45 -197.408 358.381)" fill="#F5F5F7"/>
<rect x="-187.748" y="368.041" width="489.751" height="4.78139" transform="rotate(-45 -187.748 368.041)" fill="#F5F5F7"/>
<rect x="-178.088" y="377.701" width="489.751" height="4.78139" transform="rotate(-45 -178.088 377.701)" fill="#F5F5F7"/>
<rect x="-168.428" y="387.36" width="489.751" height="4.78139" transform="rotate(-45 -168.428 387.36)" fill="#F5F5F7"/>
<rect x="-158.769" y="397.02" width="489.751" height="4.78139" transform="rotate(-45 -158.769 397.02)" fill="#F5F5F7"/>
<rect x="-149.109" y="406.68" width="489.751" height="4.78139" transform="rotate(-45 -149.109 406.68)" fill="#F5F5F7"/>
<rect x="-139.449" y="416.34" width="489.751" height="4.78139" transform="rotate(-45 -139.449 416.34)" fill="#F5F5F7"/>
<rect x="-129.789" y="426" width="489.751" height="4.78139" transform="rotate(-45 -129.789 426)" fill="#F5F5F7"/>
<rect x="-120.129" y="435.66" width="489.751" height="4.78139" transform="rotate(-45 -120.129 435.66)" fill="#F5F5F7"/>
<rect x="-110.469" y="445.32" width="489.751" height="4.78139" transform="rotate(-45 -110.469 445.32)" fill="#F5F5F7"/>
<rect x="-100.809" y="454.98" width="489.751" height="4.78139" transform="rotate(-45 -100.809 454.98)" fill="#F5F5F7"/>
<rect x="-91.1494" y="464.64" width="489.751" height="4.78139" transform="rotate(-45 -91.1494 464.64)" fill="#F5F5F7"/>
<rect x="-81.4897" y="474.299" width="489.751" height="4.78139" transform="rotate(-45 -81.4897 474.299)" fill="#F5F5F7"/>
<rect x="-71.8295" y="483.959" width="489.751" height="4.78139" transform="rotate(-45 -71.8295 483.959)" fill="#F5F5F7"/>
<rect x="-62.1698" y="493.619" width="489.751" height="4.78139" transform="rotate(-45 -62.1698 493.619)" fill="#F5F5F7"/>
<rect x="-52.5101" y="503.279" width="489.751" height="4.78139" transform="rotate(-45 -52.5101 503.279)" fill="#F5F5F7"/>
<rect x="-42.85" y="512.939" width="489.751" height="4.78139" transform="rotate(-45 -42.85 512.939)" fill="#F5F5F7"/>
<rect x="-33.1904" y="522.599" width="489.751" height="4.78139" transform="rotate(-45 -33.1904 522.599)" fill="#F5F5F7"/>
<rect x="-23.5308" y="532.259" width="489.751" height="4.78139" transform="rotate(-45 -23.5308 532.259)" fill="#F5F5F7"/>
<rect x="-13.8704" y="541.918" width="489.751" height="4.78139" transform="rotate(-45 -13.8704 541.918)" fill="#F5F5F7"/>
<rect x="-4.21021" y="551.578" width="489.751" height="4.78139" transform="rotate(-45 -4.21021 551.578)" fill="#F5F5F7"/>
<rect x="5.44922" y="561.238" width="489.751" height="4.78139" transform="rotate(-45 5.44922 561.238)" fill="#F5F5F7"/>
<rect x="15.1091" y="570.898" width="489.751" height="4.78139" transform="rotate(-45 15.1091 570.898)" fill="#F5F5F7"/>
<rect x="24.7693" y="580.558" width="489.751" height="4.78139" transform="rotate(-45 24.7693 580.558)" fill="#F5F5F7"/>
<rect x="34.429" y="590.218" width="489.751" height="4.78139" transform="rotate(-45 34.429 590.218)" fill="#F5F5F7"/>
</g>
<circle cx="1373" cy="432" r="222.5" stroke="white"/>
<circle cx="1373" cy="432" r="222.5" stroke="white"/>
<circle cx="1399.5" cy="398.5" r="236" stroke="white"/>
<circle cx="1399.5" cy="398.5" r="236" stroke="white"/>
<mask id="mask1_235:880" style="mask-type:alpha" maskUnits="userSpaceOnUse" x="1192" y="218" width="395" height="395">
<circle cx="1389.5" cy="415.5" r="196.929" transform="rotate(-45 1389.5 415.5)" fill="#C4C4C4"/>
</mask>
<g mask="url(#mask1_235:880)">
<rect x="1084.48" y="450.549" width="480.266" height="4.68879" transform="rotate(-45 1084.48 450.549)" fill="#F5F5F7"/>
<rect x="1093.95" y="460.022" width="480.266" height="4.68879" transform="rotate(-45 1093.95 460.022)" fill="#F5F5F7"/>
<rect x="1103.42" y="469.495" width="480.266" height="4.68879" transform="rotate(-45 1103.42 469.495)" fill="#F5F5F7"/>
<rect x="1112.89" y="478.968" width="480.266" height="4.68879" transform="rotate(-45 1112.89 478.968)" fill="#F5F5F7"/>
<rect x="1122.37" y="488.44" width="480.266" height="4.68879" transform="rotate(-45 1122.37 488.44)" fill="#F5F5F7"/>
<rect x="1131.84" y="497.913" width="480.266" height="4.68879" transform="rotate(-45 1131.84 497.913)" fill="#F5F5F7"/>
<rect x="1141.31" y="507.386" width="480.266" height="4.68879" transform="rotate(-45 1141.31 507.386)" fill="#F5F5F7"/>
<rect x="1150.79" y="516.859" width="480.266" height="4.68879" transform="rotate(-45 1150.79 516.859)" fill="#F5F5F7"/>
<rect x="1160.26" y="526.332" width="480.266" height="4.68879" transform="rotate(-45 1160.26 526.332)" fill="#F5F5F7"/>
<rect x="1169.73" y="535.804" width="480.266" height="4.68879" transform="rotate(-45 1169.73 535.804)" fill="#F5F5F7"/>
<rect x="1179.2" y="545.277" width="480.266" height="4.68879" transform="rotate(-45 1179.2 545.277)" fill="#F5F5F7"/>
<rect x="1188.68" y="554.75" width="480.266" height="4.68879" transform="rotate(-45 1188.68 554.75)" fill="#F5F5F7"/>
<rect x="1198.15" y="564.223" width="480.266" height="4.68879" transform="rotate(-45 1198.15 564.223)" fill="#F5F5F7"/>
<rect x="1207.62" y="573.696" width="480.266" height="4.68879" transform="rotate(-45 1207.62 573.696)" fill="#F5F5F7"/>
<rect x="1217.1" y="583.168" width="480.266" height="4.68879" transform="rotate(-45 1217.1 583.168)" fill="#F5F5F7"/>
<rect x="1226.57" y="592.641" width="480.266" height="4.68879" transform="rotate(-45 1226.57 592.641)" fill="#F5F5F7"/>
<rect x="1236.04" y="602.114" width="480.266" height="4.68879" transform="rotate(-45 1236.04 602.114)" fill="#F5F5F7"/>
<rect x="1245.51" y="611.587" width="480.266" height="4.68879" transform="rotate(-45 1245.51 611.587)" fill="#F5F5F7"/>
<rect x="1254.99" y="621.059" width="480.266" height="4.68879" transform="rotate(-45 1254.99 621.059)" fill="#F5F5F7"/>
<rect x="1264.46" y="630.532" width="480.266" height="4.68879" transform="rotate(-45 1264.46 630.532)" fill="#F5F5F7"/>
<rect x="1273.93" y="640.005" width="480.266" height="4.68879" transform="rotate(-45 1273.93 640.005)" fill="#F5F5F7"/>
<rect x="1283.4" y="649.478" width="480.266" height="4.68879" transform="rotate(-45 1283.4 649.478)" fill="#F5F5F7"/>
<rect x="1292.88" y="658.951" width="480.266" height="4.68879" transform="rotate(-45 1292.88 658.951)" fill="#F5F5F7"/>
<rect x="1302.35" y="668.423" width="480.266" height="4.68879" transform="rotate(-45 1302.35 668.423)" fill="#F5F5F7"/>
<rect x="1311.82" y="677.896" width="480.266" height="4.68879" transform="rotate(-45 1311.82 677.896)" fill="#F5F5F7"/>
<rect x="1321.3" y="687.369" width="480.266" height="4.68879" transform="rotate(-45 1321.3 687.369)" fill="#F5F5F7"/>
<rect x="1330.77" y="696.842" width="480.266" height="4.68879" transform="rotate(-45 1330.77 696.842)" fill="#F5F5F7"/>
<rect x="1340.24" y="706.315" width="480.266" height="4.68879" transform="rotate(-45 1340.24 706.315)" fill="#F5F5F7"/>
<rect x="1349.71" y="715.787" width="480.266" height="4.68879" transform="rotate(-45 1349.71 715.787)" fill="#F5F5F7"/>
</g>
</svg>
